<?xml version="1.0" encoding="UTF-8"?>
<svg version="1.1" xmlns="http://www.w3.org/2000/svg" width="700" height="662">
<path d="M0 0 C0.99 0 1.98 0 3 0 C4.32763672 1.36669922 4.32763672 1.36669922 5.6796875 3.3046875 C6.18959229 4.02406494 6.69949707 4.74344238 7.22485352 5.48461914 C7.76940186 6.27344482 8.3139502 7.06227051 8.875 7.875 C10.04788009 9.53796992 11.22106559 11.20072448 12.39453125 12.86328125 C12.99346191 13.71873535 13.59239258 14.57418945 14.20947266 15.45556641 C16.9529914 19.35425094 19.76016608 23.20600721 22.5625 27.0625 C27.25165599 33.54361856 31.88016261 40.06524926 36.48291016 46.60791016 C41.71107049 54.02946453 47.032523 61.38265054 52.35888672 68.73388672 C55.07648173 72.486448 57.78794473 76.24343419 60.5 80 C61.58330362 81.50002146 62.66663696 83.00002146 63.75 84.5 C70.25 93.5 76.75 102.5 83.25 111.5 C83.78633057 112.24258057 84.32266113 112.98516113 84.87524414 113.75024414 C85.95788254 115.2493445 87.0404022 116.74853062 88.12280273 118.24780273 C90.84079823 122.01228168 93.56088068 125.77521904 96.28515625 129.53515625 C102.0698625 137.52356012 107.8079679 145.54115819 113.48291016 153.60791016 C118.70684801 161.02347058 124.02374589 168.37093182 129.34570312 175.71630859 C132.12918202 179.55879112 134.90874599 183.4040997 137.6875 187.25 C138.23140381 188.00273193 138.77530762 188.75546387 139.33569336 189.53100586 C142.97361066 194.56926536 146.59157268 199.62133454 150.19873047 204.68164062 C155.76274195 212.48061546 161.38586232 220.23708119 167 228 C173.42105409 236.87867815 179.83853602 245.75923342 186.19873047 254.68164062 C189.55306519 259.38335128 192.9298611 264.06862017 196.3125 268.75 C196.85962646 269.50724365 197.40675293 270.2644873 197.97045898 271.04467773 C200.74370707 274.88165963 203.519188 278.71701171 206.296875 282.55078125 C212.69773594 291.39074729 219.05102343 300.26144308 225.3203125 309.1953125 C226.96436924 311.53748251 228.62510582 313.86243413 230.3046875 316.1796875 C231.26761719 317.51386719 231.26761719 317.51386719 232.25 318.875 C232.79140625 319.61492187 233.3328125 320.35484375 233.890625 321.1171875 C235 323 235 323 235 326 C234.00895264 326.49290527 233.01790527 326.98581055 231.99682617 327.49365234 C228.21773757 329.37394782 224.44010439 331.25715265 220.6628418 333.14111328 C219.04700886 333.94655955 217.43081398 334.75128024 215.81420898 335.55517578 C207.13336837 339.87257358 198.4891941 344.24267043 189.92578125 348.7890625 C176.94636879 355.67194663 163.76179776 362.1485972 150.60644531 368.68652344 C134.57229878 376.65048727 134.57229878 376.65048727 118.6875 384.90625 C110.89445945 389.05010093 103.02296329 393.02957537 95.125 396.96875 C94.51274567 397.2741571 93.90049133 397.57956421 93.26968384 397.89422607 C88.20946263 400.41733678 83.14663493 402.93520158 78.08374023 405.45294189 C73.67964027 407.64333413 69.27651578 409.83566914 64.875 412.03125 C64.26287281 412.33655325 63.65074562 412.6418565 63.02006912 412.95641136 C54.97682975 416.97155325 46.98723086 421.07376157 39.05062866 425.29573059 C28.34886652 430.96815061 17.47112085 436.29820807 6.625 441.6875 C2.26180684 443.85564377 -2.10024677 446.02604626 -6.4609375 448.19921875 C-7.48838074 448.71024139 -8.51582397 449.22126404 -9.57440186 449.74777222 C-16.02466822 452.96947868 -22.3787933 456.31130675 -28.63134766 459.90161133 C-31 461 -31 461 -35 461 C-38.34513413 448.02330217 -41.28848078 434.96997308 -44.18359375 421.88671875 C-44.68102002 419.64648438 -45.17863386 417.40629166 -45.67642212 415.1661377 C-47.26642727 408.00725092 -48.8522058 400.84743122 -50.4375 393.6875 C-50.97987031 391.23865351 -51.52225926 388.78981115 -52.06466675 386.3409729 C-52.33375949 385.126023 -52.60285223 383.91107309 -52.8800993 382.65930653 C-53.42272574 380.2093582 -53.96535941 377.75941147 -54.50800037 375.30946636 C-54.77547423 374.10183541 -55.04294809 372.89420446 -55.31852722 371.64997864 C-55.58485647 370.4475181 -55.85118572 369.24505756 -56.12558556 368.00615883 C-56.92717501 364.38634591 -57.72833684 360.7664385 -58.52949524 357.14653015 C-61.33053062 344.49587365 -64.15011597 331.84975167 -67.00818443 319.21185875 C-68.08883709 314.42779796 -69.16155099 309.64194937 -70.23538208 304.85635376 C-70.78259114 302.42909405 -71.33401991 300.00278142 -71.88986206 297.57748413 C-72.636549 294.31829228 -73.36884782 291.0561965 -74.09765625 287.79296875 C-74.31096588 286.88148071 -74.52427551 285.96999268 -74.74404907 285.03088379 C-74.92785126 284.19464478 -75.11165344 283.35840576 -75.30102539 282.49682617 C-75.46180069 281.78999191 -75.62257599 281.08315765 -75.78822327 280.35490417 C-76.27418563 274.95112451 -74.76009568 269.70754066 -73.33618164 264.53564453 C-72.99321045 263.2818248 -72.65023926 262.02800507 -72.296875 260.7361908 C-71.91805968 259.36837285 -71.53915047 258.00058089 -71.16015625 256.6328125 C-70.76258045 255.1858947 -70.36537279 253.7388757 -69.96850586 252.29176331 C-68.89580642 248.38469071 -67.81773411 244.47911922 -66.7386055 240.57381821 C-65.59739607 236.44041828 -64.46104731 232.30568198 -63.32397461 228.17114258 C-60.77280384 218.89908344 -58.21388719 209.62917278 -55.65222168 200.36000824 C-55.02943556 198.10651004 -54.40678901 195.85297332 -53.78417969 193.59942627 C-49.92951759 179.64849208 -46.06655152 165.69987121 -42.19771767 151.75286102 C-42.01258802 151.08547157 -41.82745838 150.41808212 -41.63671875 149.73046875 C-41.45148336 149.06271675 -41.26624798 148.39496475 -41.0753994 147.70697784 C-37.96434284 136.49075238 -34.86480802 125.27137071 -31.76953125 114.05078125 C-21.27369237 76.00705993 -10.71347797 37.983097 0 0 Z " fill="#E1126D" transform="translate(329,40)"/>
<path d="M0 0 C9.25930139 -0.21629618 18.19349949 0.40715221 27.37695312 1.55371094 C28.77354629 1.72233482 30.17022274 1.89026999 31.56697369 2.0575819 C35.34739589 2.51235494 39.12660118 2.97659337 42.9056623 3.44252276 C46.94669249 3.93898252 50.98882265 4.42632634 55.03083801 4.91468811 C61.93632469 5.75018937 68.84114258 6.5910327 75.74551392 7.43569946 C86.53929029 8.75610106 97.33433985 10.06589115 108.12963867 11.3737793 C111.7403473 11.81133568 115.35104826 12.2489553 118.96174622 12.68659973 C119.85344015 12.79467144 120.74513409 12.90274315 121.66384906 13.01408976 C127.96217803 13.7775704 134.26032507 14.54254013 140.55839539 15.30815125 C161.10492011 17.80543941 181.6533533 20.28483809 202.20703125 22.72265625 C203.36157177 22.85959522 204.51611229 22.99653419 205.70563889 23.13762283 C214.22452008 24.14754667 222.74373459 25.15464232 231.26303101 26.16105652 C237.73404971 26.92552139 244.2049941 27.69060865 250.67578125 28.45703125 C251.53330616 28.55856884 252.39083107 28.66010643 253.27434158 28.76472092 C275.857877 31.4411897 298.42889976 34.22094194 321 37 C320.51692962 42.08735129 319.92161972 46.95862273 318.53564453 51.89355469 C318.08601601 53.51474464 318.08601601 53.51474464 317.62730408 55.16868591 C317.29912186 56.32473831 316.97093964 57.48079071 316.6328125 58.671875 C316.10140235 60.57750149 315.56999366 62.48312839 315.03863811 64.3887701 C314.46851937 66.42827258 313.89497276 68.46678235 313.32040405 70.5050354 C312.09943499 74.83689782 310.88833024 79.17148032 309.67895508 83.5065918 C308.40628633 88.06734229 307.13324924 92.62798586 305.85719299 97.18778992 C301.81256681 111.64333094 297.8251161 126.11434487 293.8482666 140.58865356 C291.88701038 147.72645377 289.92187294 154.86318612 287.95703125 162 C287.75877621 162.72018373 287.56052116 163.44036747 287.35625839 164.18237495 C282.65821104 181.24817776 277.95101783 198.31145369 273.23892212 215.37338257 C272.34776622 218.60019505 271.45695651 221.82710273 270.5664978 225.05410767 C265.10303543 244.85242404 259.58827513 264.63538436 254.01313782 284.40255737 C252.31474082 290.43321346 250.62589407 296.46653647 248.9375 302.5 C248.62922775 303.60159958 248.32095551 304.70319916 248.00334167 305.83818054 C247.33539395 308.22540698 246.66760249 310.61267699 246 313 C245.01 313 244.02 313 243 313 C241.3633225 311.16179132 239.93671623 309.36136474 238.5 307.375 C237.59982854 306.16731963 236.69875714 304.96030963 235.796875 303.75390625 C235.33345703 303.12887207 234.87003906 302.50383789 234.39257812 301.85986328 C232.22913681 298.97047058 229.99023618 296.14248833 227.75 293.3125 C221.73058766 285.67408813 215.76463087 277.9943803 209.79833984 270.31445312 C206.86700639 266.54184368 203.93343657 262.77097422 201 259 C197.46368851 254.45402154 193.92792157 249.90762452 190.39453125 245.359375 C183.72976191 236.7819807 177.04623213 228.22007549 170.32666016 219.68554688 C167.58779692 216.20576922 164.8531747 212.72265688 162.11767578 209.24023438 C159.86492288 206.37265935 157.61131111 203.50577046 155.35546875 200.640625 C146.61331745 189.53325306 137.94326935 178.37001629 129.27734375 167.203125 C123.95270508 160.34493949 118.62115629 153.49736756 113.17578125 146.734375 C109.52480207 142.14607082 105.93941119 137.50669916 102.34375 132.875 C98.74357078 128.23852186 95.13199853 123.61158882 91.5 119 C86.7049834 112.91035561 81.94641249 106.79279017 77.19140625 100.671875 C73.64109544 96.10386022 70.07906298 91.54551618 66.5 87 C61.70506529 80.91029064 56.94641301 74.79279083 52.19140625 68.671875 C48.64109544 64.10386022 45.07906298 59.54551618 41.5 55 C37.31299655 49.68238137 33.15218198 44.34484789 29 39 C24.78365049 33.57318516 20.55975764 28.15266547 16.3125 22.75 C15.87832764 22.19666992 15.44415527 21.64333984 14.99682617 21.07324219 C12.63690187 18.06866208 10.26313022 15.07597172 7.875 12.09375 C7.36283936 11.45083008 6.85067871 10.80791016 6.32299805 10.14550781 C5.3362771 8.90728227 4.34571129 7.67210825 3.35083008 6.44042969 C0 2.22500802 0 2.22500802 0 0 Z " fill="#D01F52" transform="translate(2,0)"/>
<path d="M0 0 C10.98735655 1.21916842 21.89220935 2.68338281 32.8046875 4.4609375 C34.26264789 4.69547753 35.72066749 4.92964973 37.17874146 5.16348267 C40.97941274 5.77376294 44.7794408 6.38794821 48.57928467 7.00335693 C55.34117362 8.09800883 62.10406829 9.18641634 68.8671875 10.2734375 C69.59770325 10.39102291 70.32821899 10.50860832 71.08087158 10.62975693 C82.07883554 12.39840089 93.0854813 14.08802311 104.11105347 15.67733765 C112.92638531 16.9550136 121.69008916 18.47652919 130.453125 20.0703125 C134.65497975 20.8066802 138.86308352 21.39119268 143.09375 21.9375 C150.75452504 22.93542946 158.35892682 24.18518337 165.9732666 25.48638916 C178.80835888 27.67718409 191.65301191 29.73629959 204.54003906 31.60107422 C211.71003945 32.6441215 218.85700109 33.78628382 226 35 C243.63175378 37.99064319 261.33781217 40.48608975 279.04345703 42.99414062 C284.46679605 43.76722538 289.87624562 44.59414729 295.2734375 45.53515625 C297.29546769 45.87988633 299.32246462 46.19574942 301.3515625 46.49609375 C302.45242188 46.66238281 303.55328125 46.82867187 304.6875 47 C306.17830078 47.2165625 306.17830078 47.2165625 307.69921875 47.4375 C308.45847656 47.623125 309.21773437 47.80875 310 48 C310.33 48.66 310.66 49.32 311 50 C310.00895264 50.49290527 309.01790527 50.98581055 307.99682617 51.49365234 C304.21773757 53.37394782 300.44010439 55.25715265 296.6628418 57.14111328 C295.04700886 57.94655955 293.43081398 58.75128024 291.81420898 59.55517578 C283.13336837 63.87257358 274.4891941 68.24267043 265.92578125 72.7890625 C252.94636879 79.67194663 239.76179776 86.1485972 226.60644531 92.68652344 C210.57229878 100.65048727 210.57229878 100.65048727 194.6875 108.90625 C186.89445945 113.05010093 179.02296329 117.02957537 171.125 120.96875 C170.51274567 121.2741571 169.90049133 121.57956421 169.26968384 121.89422607 C164.20946263 124.41733678 159.14663493 126.93520158 154.08374023 129.45294189 C149.67964027 131.64333413 145.27651578 133.83566914 140.875 136.03125 C139.95680922 136.48920487 139.95680922 136.48920487 139.02006912 136.95641136 C130.97682975 140.97155325 122.98723086 145.07376157 115.05062866 149.29573059 C104.34886652 154.96815061 93.47112085 160.29820807 82.625 165.6875 C78.26180684 167.85564377 73.89975323 170.02604626 69.5390625 172.19921875 C68.51161926 172.71024139 67.48417603 173.22126404 66.42559814 173.74777222 C59.97533178 176.96947868 53.6212067 180.31130675 47.36865234 183.90161133 C45 185 45 185 41 185 C37.65486751 172.02330854 34.71137813 158.96999996 31.81640625 145.88671875 C31.31901912 143.64625698 30.82145121 141.40583534 30.32371521 139.16545105 C29.00505767 133.22731013 27.68907276 127.28858015 26.3737793 121.3496933 C25.28954761 116.45536649 24.20392186 111.56134934 23.11829567 106.6673317 C20.45849572 94.67676201 17.80151639 82.68556966 15.14655495 70.69392776 C13.63377698 63.86130448 12.1199677 57.02891109 10.60498047 50.19677734 C9.00748942 42.99226811 7.41218976 35.78727872 5.81954956 28.58169556 C5.27551007 26.1210893 4.73085795 23.6606184 4.18557739 21.20028687 C3.4549708 17.90220887 2.7270192 14.60355783 2 11.3046875 C1.79185165 10.36739304 1.58370331 9.43009857 1.36924744 8.46440125 C1.18552078 7.62778458 1.00179413 6.79116791 0.8125 5.92919922 C0.65394531 5.2112619 0.49539062 4.49332458 0.33203125 3.75363159 C0 2 0 2 0 0 Z " fill="#D11F53" transform="translate(253,316)"/>
<path d="M0 0 C0.99 0.495 0.99 0.495 2 1 C2.64400812 3.14690025 3.17078508 5.32905573 3.65039062 7.51855469 C3.80452864 8.21100753 3.95866665 8.90346037 4.11747551 9.61689663 C4.63843213 11.96686066 5.14718423 14.31930864 5.65625 16.671875 C6.03005001 18.36900867 6.4046339 20.06596986 6.77993774 21.76277161 C7.59663427 25.462713 8.40800027 29.16377049 9.21539307 32.86575317 C10.50893175 38.79634915 11.81373549 44.72442903 13.12060547 50.65209961 C14.53190348 57.0558742 15.94237046 63.45982678 17.34909058 69.86460876 C21.21960859 87.48457862 25.12281694 105.09718259 29.0390625 122.70703125 C29.26057653 123.70315233 29.26057653 123.70315233 29.48656559 124.71939707 C30.82022052 130.71658988 32.15413327 136.71372532 33.48843002 142.71077538 C36.34158845 155.53442551 39.19143088 168.3588114 42.04084396 181.1832943 C43.26163561 186.67764533 44.48262826 192.1719517 45.70361328 197.66625977 C46.90474582 203.07134142 46.90474582 203.07134142 47.45923233 205.57014656 C47.82702911 207.22278285 48.19692786 208.87495245 48.56869125 210.52670097 C48.74791248 211.32487803 48.92713371 212.12305508 49.11178589 212.94541931 C49.27079817 213.65027938 49.42981045 214.35513945 49.59364128 215.08135891 C50.2026402 217.95677487 50.53055125 220.08196813 50 223 C47.99093031 225.20753402 46.19651488 226.87334009 43.875 228.6875 C43.24480957 229.20296387 42.61461914 229.71842773 41.96533203 230.24951172 C39.99251672 231.85374141 37.99989646 233.42970728 36 235 C35.3915625 235.48194824 34.783125 235.96389648 34.15625 236.46044922 C31.24126352 238.76894592 28.3143568 241.06135382 25.37890625 243.34375 C21.11988344 246.6702377 16.98708223 250.13921755 12.84765625 253.61328125 C4.94883195 260.23355786 -3.0821175 266.69579448 -11.08349609 273.19140625 C-15.02164653 276.38921818 -18.95245447 279.59556818 -22.875 282.8125 C-27.05486153 286.23749102 -31.26800735 289.61820649 -35.4921875 292.98828125 C-38.97653034 295.78335378 -42.42893326 298.6166464 -45.8828125 301.44921875 C-49.57910602 304.47775564 -53.28999827 307.48828508 -57 310.5 C-61.50647495 314.15882097 -66.00976129 317.82125021 -70.5 321.5 C-71.34820312 322.1909375 -72.19640625 322.881875 -73.0703125 323.59375 C-75.41164112 325.51676124 -77.73557933 327.45669948 -80.0546875 329.40625 C-81.49468411 330.60429596 -82.93478808 331.80221289 -84.375 333 C-85.05369141 333.57685547 -85.73238281 334.15371094 -86.43164062 334.74804688 C-87.08068359 335.28494141 -87.72972656 335.82183594 -88.3984375 336.375 C-89.25961182 337.09816406 -89.25961182 337.09816406 -90.13818359 337.8359375 C-92.38771777 339.24241258 -94.39364583 339.61511662 -97 340 C-93.48162762 325.07470982 -89.19865173 310.35743455 -84.99536514 295.6145668 C-84.15384983 292.6614108 -83.314241 289.70771416 -82.47464466 286.75401211 C-79.65499166 276.83451656 -76.8284999 266.91697599 -74 257 C-73.79780602 256.29101059 -73.59561203 255.58202118 -73.38729095 254.85154724 C-67.25597413 233.35240383 -61.10945518 211.85761479 -54.95959473 190.36376953 C-52.61813451 182.18023082 -50.27726872 173.99652251 -47.9375 165.8125 C-47.61238434 164.67535553 -47.28726868 163.53821106 -46.95230103 162.36660767 C-41.41721167 143.00211823 -35.92217186 123.6264136 -30.43804932 104.24743652 C-24.44093415 83.05751435 -18.40678534 61.8784597 -12.3515625 40.70507812 C-12.04020355 39.61633392 -11.7288446 38.52758972 -11.40805054 37.40585327 C-10.80374888 35.29391531 -10.19896626 33.18211489 -9.59365845 31.07046509 C-8.13405163 25.97691153 -6.6827183 20.88126243 -5.24755859 15.78076172 C-4.8318586 14.30892677 -4.8318586 14.30892677 -4.40776062 12.80735779 C-3.88534737 10.95645159 -3.36552908 9.10481037 -2.84870911 7.25233459 C-1.11211796 1.11211796 -1.11211796 1.11211796 0 0 Z " fill="#9D1537" transform="translate(247,322)"/>
<path d="M0 0 C-0.59021417 4.12673172 -1.51923776 7.82380715 -2.95507812 11.734375 C-3.3612587 12.84850769 -3.76743927 13.96264038 -4.18592834 15.11053467 C-4.62988449 16.31155823 -5.07384064 17.51258179 -5.53125 18.75 C-5.99930089 20.02760795 -6.46689608 21.30538292 -6.93406677 22.58331299 C-8.18910135 26.01224296 -9.45067686 29.4387318 -10.71360397 32.86476135 C-12.03349091 36.44854547 -13.34752229 40.03447589 -14.66235352 43.62011719 C-17.53205738 51.44220287 -20.41089449 59.26090753 -23.29209137 67.07876587 C-24.36061391 69.97869091 -25.42807303 72.87900723 -26.49560547 75.77929688 C-36.595479 103.2114866 -46.79189337 130.60793541 -57 158 C-60.36664575 156.87778475 -60.81256737 156.25417936 -62.78515625 153.45703125 C-63.31044922 152.72033203 -63.83574219 151.98363281 -64.37695312 151.22460938 C-65.21129883 150.03061523 -65.21129883 150.03061523 -66.0625 148.8125 C-66.64322266 147.99458984 -67.22394531 147.17667969 -67.82226562 146.33398438 C-69.00326228 144.66967556 -70.18117717 143.00317551 -71.35595703 141.33447266 C-73.55509155 138.21179308 -75.77723658 135.10587378 -78 132 C-78.80599599 130.86979624 -79.61198544 129.73958781 -80.41796875 128.609375 C-85.02647779 122.15782196 -89.68078393 115.73911331 -94.32666016 109.31445312 C-96.51266248 106.29091913 -98.69711062 103.26626449 -100.88134766 100.24145508 C-101.96288682 98.74377619 -103.04459331 97.24621811 -104.12646484 95.7487793 C-106.82541173 92.01292827 -109.52227542 88.27560767 -112.21484375 84.53515625 C-117.78537812 76.80163569 -123.3931599 69.09893885 -129.0625 61.4375 C-135.50917807 52.7193745 -141.82568664 43.91327604 -148 35 C-148.4031543 34.42588379 -148.80630859 33.85176758 -149.22167969 33.26025391 C-152 29.2315677 -152 29.2315677 -152 27 C-134.51549059 23.61047895 -116.99107221 20.44777469 -99.46266174 17.29546738 C-92.28474588 16.00439973 -85.10719934 14.71128032 -77.9296875 13.41796875 C-77.13204987 13.27428423 -76.33441223 13.13059971 -75.51260376 12.98256111 C-65.06848404 11.10080569 -54.62691618 9.20573089 -44.18873215 7.2913208 C-40.9617176 6.69957312 -37.73449172 6.1089793 -34.50732422 5.51806641 C-30.90327311 4.85795372 -27.29946604 4.19663231 -23.6963501 3.53143311 C-20.42831884 2.92810515 -17.15955784 2.32888913 -13.890625 1.73046875 C-12.93680939 1.55300613 -11.98299377 1.37554352 -11.00027466 1.19270325 C-10.12910004 1.03396225 -9.25792542 0.87522125 -8.36035156 0.71166992 C-7.60933167 0.57323166 -6.85831177 0.4347934 -6.08453369 0.29216003 C-4 0 -4 0 0 0 Z " fill="#D01F52" transform="translate(630,206)"/>
<path d="M0 0 C-0.62608309 2.44392083 -1.28304516 4.87558182 -1.96484375 7.3046875 C-2.52549402 9.30610318 -3.0802452 11.30939632 -3.60205078 13.32128906 C-4.26668759 15.86931244 -4.97442934 18.40264727 -5.6875 20.9375 C-5.89455566 21.76612549 -6.10161133 22.59475098 -6.31494141 23.44848633 C-6.54487793 24.23763428 -6.77481445 25.02678223 -7.01171875 25.83984375 C-7.20209717 26.54488037 -7.39247559 27.24991699 -7.58862305 27.97631836 C-11.53013991 33.6278031 -21.61944007 35.94869743 -27.84765625 38.41015625 C-28.93158157 38.84204758 -30.0155069 39.2739389 -31.13227844 39.71891785 C-34.13971177 40.91684746 -37.14829847 42.11182854 -40.15727997 43.30586243 C-45.4775743 45.4187599 -50.79408162 47.54119011 -56.11125946 49.66191483 C-57.55636372 50.23823131 -59.00151935 50.814419 -60.44672394 51.39048386 C-81.10956258 59.62696729 -101.74094853 67.94173316 -122.375 76.25 C-129.63268715 79.17218644 -136.89047066 82.09413331 -144.1484375 85.015625 C-145.01180599 85.36317526 -145.87517448 85.71072552 -146.76470566 86.0688076 C-159.13760281 91.04912186 -171.516995 96.01289167 -183.90287781 100.96081543 C-191.13265526 103.84979898 -198.35597282 106.75421159 -205.57421875 109.671875 C-208.11204932 110.69541927 -210.65008462 111.7184536 -213.18823242 112.74121094 C-214.90343621 113.43352529 -216.61791788 114.1276306 -218.33178711 114.82324219 C-220.88986725 115.86089393 -223.45048771 116.89202985 -226.01171875 117.921875 C-226.77707443 118.23421082 -227.54243011 118.54654663 -228.33097839 118.86834717 C-231.36595654 120.08272929 -233.69916441 121 -237 121 C-237 120.34 -237 119.68 -237 119 C-233.83477196 117.33059151 -230.66752835 115.66503917 -227.5 114 C-226.63246094 113.54238281 -225.76492188 113.08476562 -224.87109375 112.61328125 C-216.63928098 108.29009901 -208.32444579 104.14077949 -200 100 C-194.53288728 97.27781704 -189.06665207 94.55387791 -183.60131836 91.828125 C-181.99783781 91.02889853 -180.39399892 90.23039056 -178.78979492 89.43261719 C-169.99223789 85.05672327 -161.23296369 80.62456281 -152.55078125 76.0234375 C-141.95427566 70.40882574 -131.22229644 65.07769835 -120.47949219 59.75 C-111.43471956 55.260931 -102.42174033 50.72968632 -93.5 46 C-82.92109507 40.39180024 -72.20567198 35.06945375 -61.47949219 29.75 C-50.67458111 24.38734542 -39.94634453 18.90580452 -29.28515625 13.26269531 C-23.88703204 10.40648993 -18.4559568 7.61902533 -13 4.875 C-12.0615625 4.39546875 -11.123125 3.9159375 -10.15625 3.421875 C-8.81046875 2.74511719 -8.81046875 2.74511719 -7.4375 2.0546875 C-6.25994141 1.45889893 -6.25994141 1.45889893 -5.05859375 0.85107422 C-3 0 -3 0 0 0 Z " fill="#E1126D" transform="translate(567,371)"/>
<path d="M0 0 C3.12265393 1.38777444 5.25298689 3.00046508 7.66699219 5.40820312 C8.36741638 6.102323 9.06784058 6.79644287 9.78948975 7.51159668 C10.53442688 8.26058228 11.27936401 9.00956787 12.046875 9.78125 C12.81807678 10.55053833 13.58927856 11.31982666 14.3838501 12.11242676 C16.01015129 13.73736827 17.63393476 15.36483299 19.25537109 16.99462891 C21.74746268 19.49745175 24.25006592 21.98940563 26.75390625 24.48046875 C28.33137112 26.05925468 29.90821577 27.63866061 31.484375 29.21875 C32.23740906 29.9677356 32.99044312 30.71672119 33.76629639 31.48840332 C34.45411194 32.18252319 35.14192749 32.87664307 35.85058594 33.59179688 C36.46029236 34.20309448 37.06999878 34.81439209 37.69818115 35.44421387 C39 37 39 37 39 39 C39.57621094 39.23847656 40.15242187 39.47695312 40.74609375 39.72265625 C43.47193205 41.26745542 45.0256448 43.05799626 47.0625 45.4375 C51.4410269 50.45821084 56.09324234 55.06008701 60.91015625 59.65234375 C63 62 63 62 63 65 C34.34486382 66.33329182 5.67834372 66.10268127 -23 66 C-21.51422488 58.22685945 -18.98004193 51.05480883 -16.2109375 43.65234375 C-15.7424614 42.38744135 -15.27450352 41.12234691 -14.80703735 39.85707092 C-13.58579138 36.5557818 -12.35760498 33.25711858 -11.12786865 29.95898438 C-9.87003974 26.58166022 -8.61891125 23.20185616 -7.3671875 19.82226562 C-4.91794635 13.21242554 -2.46135169 6.60534101 0 0 Z " fill="#E1126D" transform="translate(637,207)"/>
<path d="M0 0 C34.92905565 -2.59334673 34.92905565 -2.59334673 41.671875 2.7421875 C44.34133367 5.75012818 46.13881688 9.16962133 47.85546875 12.78857422 C49.89324895 16.72590636 52.7441146 20.04691406 55.5 23.5 C56.59278431 24.93004939 57.68264932 26.36233449 58.76953125 27.796875 C62.33912796 32.46472658 66.01131386 37.04649909 69.69580078 41.6237793 C73.21312782 45.99925986 76.66121554 50.41987576 80.07324219 54.87817383 C89.60782441 67.33531277 99.29485004 79.67554192 109 92 C115.20624345 99.88123704 121.39579879 107.77526723 127.5625 115.6875 C128.1706958 116.46641602 128.7788916 117.24533203 129.40551758 118.04785156 C130.25859497 119.14371582 130.25859497 119.14371582 131.12890625 120.26171875 C131.63494385 120.91100342 132.14098145 121.56028809 132.66235352 122.22924805 C136 126.64756342 136 126.64756342 136 130 C132.86120619 128.6124182 130.77745205 127.00476592 128.390625 124.55078125 C127.38128906 123.52500977 127.38128906 123.52500977 126.3515625 122.47851562 C125.65804687 121.76373047 124.96453125 121.04894531 124.25 120.3125 C119.57659948 115.51915479 114.84939851 110.91374886 109.77246094 106.54760742 C107.57553803 104.62938507 105.53032082 102.59279223 103.5 100.5 C100.7514401 97.71378859 97.97140209 95.04691608 95 92.5 C91.20641267 89.24835372 87.72607353 85.74286906 84.21875 82.1875 C82.20569368 80.20279658 80.14553597 78.33903084 78 76.5 C75.02859791 73.95308392 72.2485599 71.28621141 69.5 68.5 C66.79196435 65.75499458 64.05830751 63.1272909 61.125 60.625 C57.23879919 57.29618257 53.66159583 53.69114601 50.07128906 50.05175781 C46.82667336 46.78012241 43.4640015 43.73051557 39.9609375 40.7421875 C36.90770829 38.02955756 34.0859685 35.09399547 31.21875 32.1875 C29.20569368 30.20279658 27.14553597 28.33903084 25 26.5 C21.2134114 23.25435263 17.73892835 19.75604653 14.23828125 16.20703125 C11.50396678 13.5108922 8.63455345 11.00601126 5.73046875 8.49609375 C3.70338169 6.74355573 1.74636327 5.03742381 0 3 C0 2.01 0 1.02 0 0 Z " fill="#9D1537" transform="translate(0,53)"/>
</svg>
