<?xml version="1.0" encoding="UTF-8"?>
<svg version="1.1" xmlns="http://www.w3.org/2000/svg" width="512" height="512">
<path d="M0 0 C-1.85630563 5.10484049 -4.55074504 9.64189023 -7.3828125 14.25 C-13.90475881 24.90365052 -19.00723751 35.85254543 -23.15527344 47.61816406 C-23.7427264 49.27457766 -24.34050837 50.92734943 -24.94628906 52.57714844 C-29.36812742 64.64967485 -32.8340918 76.70212583 -35.375 89.3125 C-35.61347656 90.49021973 -35.85195312 91.66793945 -36.09765625 92.88134766 C-39.22348968 109.27616332 -40.38785012 125.58461766 -40.3125 142.25 C-40.30976578 143.51976685 -40.30976578 143.51976685 -40.30697632 144.81518555 C-40.2579392 158.40757113 -39.54595858 171.61943526 -37 185 C-36.82839355 185.94149902 -36.65678711 186.88299805 -36.47998047 187.85302734 C-31.02537874 217.20258676 -19.79608544 244.76385222 -2.125 268.9375 C0 272 0 272 0 274 C0.66 274 1.32 274 2 274 C3.51984883 275.67535459 4.96706453 277.41705622 6.375 279.1875 C7.14585937 280.15042969 7.91671875 281.11335938 8.7109375 282.10546875 C10.14555065 283.91954443 11.56482501 285.74597407 12.9609375 287.58984375 C15.18781006 290.22199005 17.54805098 292.23660035 20.25 294.375 C24.29195933 297.60964388 28.22247746 300.91034465 32.05078125 304.39453125 C40.84453112 311.63747954 52.00393903 318.35433142 62.75390625 322.1484375 C65 323 65 323 67.5859375 324.40625 C72.26815467 326.59199898 77.06875156 327.83767234 82.0625 329.125 C83.09238037 329.39070801 84.12226074 329.65641602 85.18334961 329.93017578 C92.48219408 331.75129183 99.45719175 332.9602487 107 333 C108.13308594 333.02578125 109.26617187 333.0515625 110.43359375 333.078125 C113.96030159 333.12447822 117.47400887 333.07630277 121 333 C121.96679688 333.00644531 122.93359375 333.01289063 123.9296875 333.01953125 C145.72198947 332.41258385 169.72624903 322.43577439 186 308 C190.82051282 304 190.82051282 304 193 304 C193.3403125 303.1646875 193.3403125 303.1646875 193.6875 302.3125 C195.37367031 299.34162851 197.55387116 297.39177042 200 295 C205.56926716 289.1781885 209.82104198 282.86819489 214 276 C214.515625 275.20851563 215.03125 274.41703125 215.5625 273.6015625 C230.99482719 249.40817457 236.10076102 216.78401013 229.984375 188.9140625 C229.66108729 187.60816796 229.33268233 186.30353287 229 185 C228.81244141 184.2481543 228.62488281 183.49630859 228.43164062 182.72167969 C227.82665255 180.33011678 227.20095764 177.94533707 226.5625 175.5625 C226.36954346 174.8408667 226.17658691 174.1192334 225.9777832 173.37573242 C220.86260597 155.25261571 210.03455911 138.57885031 197.9375 124.375 C196 122 196 122 196 120 C208.3546994 119.59930705 219.43611478 121.37918773 231.25 124.875 C232.07757813 125.11943848 232.90515625 125.36387695 233.7578125 125.61572266 C248.93928824 130.28111626 262.50406556 138.29317281 275 148 C275.95003906 148.73347656 276.90007812 149.46695313 277.87890625 150.22265625 C283.43371197 154.62871303 288.89331599 159.15533368 293 165 C293 165.66 293 166.32 293 167 C293.99 167.33 294.98 167.66 296 168 C296 168.66 296 169.32 296 170 C296.66 170 297.32 170 298 170 C299.69778588 172.28074245 301.26972185 174.55477113 302.8125 176.9375 C303.49070801 177.9725769 303.49070801 177.9725769 304.18261719 179.02856445 C307.35383555 183.90731789 310.3271334 188.82938564 313 194 C313.45632813 194.81597656 313.91265625 195.63195312 314.3828125 196.47265625 C322.11536876 210.8649272 326.69191292 226.88031985 329 243 C329.13019531 243.82628906 329.26039063 244.65257812 329.39453125 245.50390625 C329.72135067 248.00952181 329.88398503 250.47496821 330 253 C330.03254883 253.64259766 330.06509766 254.28519531 330.09863281 254.94726562 C330.98037529 274.95124152 328.41295962 295.33754903 321 314 C320.33871094 315.83498047 320.33871094 315.83498047 319.6640625 317.70703125 C311.5548052 339.80532686 296.37985991 358.24984697 280.48046875 375.2734375 C278.20554781 377.77405926 276.11007822 380.36126288 274 383 C270.48275862 386 270.48275862 386 268 386 C267.60844727 386.89755005 267.60844727 386.89755005 267.20898438 387.81323242 C265.918786 390.14689697 264.72249975 391.32774243 262.65625 392.98828125 C261.99197998 393.52630371 261.32770996 394.06432617 260.64331055 394.61865234 C259.93601807 395.17762207 259.22872559 395.7365918 258.5 396.3125 C257.77530518 396.89209473 257.05061035 397.47168945 256.30395508 398.06884766 C251.0148482 402.26924614 245.64771405 406.29133444 240 410 C239.1440625 410.56976563 238.288125 411.13953125 237.40625 411.7265625 C230.4855077 416.24095475 223.32685485 420.18765276 216 424 C214.92105469 424.5775 213.84210938 425.155 212.73046875 425.75 C189.04161366 438.10460661 162.49943026 445.23575842 136 448 C134.7771228 448.1381311 134.7771228 448.1381311 133.52954102 448.27905273 C90.89997546 452.70794347 44.78993007 447.22423539 6.52734375 427.296875 C3.87688264 425.89196815 3.87688264 425.89196815 0.5 424.5625 C-16.73103547 416.87007345 -32.58519693 405.02361508 -47 393 C-47.66902344 392.46761719 -48.33804688 391.93523437 -49.02734375 391.38671875 C-50.38770176 390.30163318 -51.70136346 389.1582434 -53 388 C-53 387.34 -53 386.68 -53 386 C-53.8353125 385.6596875 -53.8353125 385.6596875 -54.6875 385.3125 C-57.65253447 383.6296426 -59.65353689 381.46378626 -62 379 C-63.1446875 377.9171875 -63.1446875 377.9171875 -64.3125 376.8125 C-66 375 -66 375 -66 373 C-66.928125 372.6596875 -66.928125 372.6596875 -67.875 372.3125 C-70.6292098 370.61137042 -70.82150461 368.94623846 -72 366 C-72.6084375 365.70609375 -73.216875 365.4121875 -73.84375 365.109375 C-76.51455088 363.7352673 -77.70681285 362.1463501 -79.5 359.75 C-80.09941406 358.94949219 -80.69882813 358.14898437 -81.31640625 357.32421875 C-87 349.47795824 -87 349.47795824 -87 347 C-87.66 347 -88.32 347 -89 347 C-90.3671875 345.0234375 -90.3671875 345.0234375 -91.875 342.375 C-93.48999623 339.55932594 -95.11649308 336.82957926 -96.94921875 334.1484375 C-99.24291976 330.62706034 -101.09906507 327.02203909 -102.9375 323.25 C-103.6391378 321.82412764 -104.34096028 320.39834615 -105.04296875 318.97265625 C-105.54642822 317.94615967 -105.54642822 317.94615967 -106.06005859 316.89892578 C-107.25815894 314.47845188 -108.50693102 312.08512222 -109.75 309.6875 C-111.84123583 305.51204592 -113.47503333 301.24437315 -115.0078125 296.8359375 C-115.78503692 294.61442203 -116.59642883 292.41769957 -117.43359375 290.21875 C-135.05647173 243.28682308 -136.67564346 185.19517046 -119 138 C-118.51347876 136.52323604 -118.03336223 135.04433113 -117.5625 133.5625 C-117.04815281 132.03946082 -116.52625577 130.51896552 -116 129 C-115.38898438 127.23076172 -115.38898438 127.23076172 -114.765625 125.42578125 C-111.33990022 115.76898575 -107.07727318 106.89019604 -102 98 C-101.37609375 96.90300781 -100.7521875 95.80601562 -100.109375 94.67578125 C-98.43118369 91.76813239 -96.72598112 88.87948335 -95 86 C-94.58234375 85.29617187 -94.1646875 84.59234375 -93.734375 83.8671875 C-87.95626425 74.35256512 -81.03182054 65.60791825 -74 57 C-73.525625 56.4121875 -73.05125 55.824375 -72.5625 55.21875 C-69.88524765 51.93911588 -67.02642031 48.95763803 -64 46 C-63.25878906 45.236875 -62.51757812 44.47375 -61.75390625 43.6875 C-60.94824219 42.8625 -60.14257812 42.0375 -59.3125 41.1875 C-58.54550781 40.39730469 -57.77851562 39.60710937 -56.98828125 38.79296875 C-55 37 -55 37 -53 37 C-52.67 36.01 -52.34 35.02 -52 34 C-40.48401585 23.07574626 -26.5745309 14.10063346 -13 6 C-11.45579533 5.02484083 -9.9137286 4.0462773 -8.375 3.0625 C-3.36363636 0 -3.36363636 0 0 0 Z " fill="#EE6321" transform="translate(136,56)"/>
<path d="M0 0 C12.3546994 -0.40069295 23.43611478 1.37918773 35.25 4.875 C36.49136719 5.24165771 36.49136719 5.24165771 37.7578125 5.61572266 C52.93928824 10.28111626 66.50406556 18.29317281 79 28 C79.95003906 28.73347656 80.90007812 29.46695313 81.87890625 30.22265625 C87.43371197 34.62871303 92.89331599 39.15533368 97 45 C97 45.66 97 46.32 97 47 C97.99 47.33 98.98 47.66 100 48 C100 48.66 100 49.32 100 50 C100.66 50 101.32 50 102 50 C103.69778588 52.28074245 105.26972185 54.55477113 106.8125 56.9375 C107.26463867 57.62755127 107.71677734 58.31760254 108.18261719 59.02856445 C111.35383555 63.90731789 114.3271334 68.82938564 117 74 C117.45632813 74.81597656 117.91265625 75.63195312 118.3828125 76.47265625 C126.11536876 90.8649272 130.69191292 106.88031985 133 123 C133.13019531 123.82628906 133.26039063 124.65257812 133.39453125 125.50390625 C133.72135067 128.00952181 133.88398503 130.47496821 134 133 C134.03254883 133.64259766 134.06509766 134.28519531 134.09863281 134.94726562 C134.98037529 154.95124152 132.41295962 175.33754903 125 194 C124.33871094 195.83498047 124.33871094 195.83498047 123.6640625 197.70703125 C115.5548052 219.80532686 100.37985991 238.24984697 84.48046875 255.2734375 C82.20554781 257.77405926 80.11007822 260.36126288 78 263 C74.48275862 266 74.48275862 266 72 266 C71.73896484 266.5983667 71.47792969 267.1967334 71.20898438 267.81323242 C69.918786 270.14689697 68.72249975 271.32774243 66.65625 272.98828125 C65.99197998 273.52630371 65.32770996 274.06432617 64.64331055 274.61865234 C63.93601807 275.17762207 63.22872559 275.7365918 62.5 276.3125 C61.77530518 276.89209473 61.05061035 277.47168945 60.30395508 278.06884766 C55.0148482 282.26924614 49.64771405 286.29133444 44 290 C43.1440625 290.56976563 42.288125 291.13953125 41.40625 291.7265625 C34.4855077 296.24095475 27.32685485 300.18765276 20 304 C18.38158203 304.86625 18.38158203 304.86625 16.73046875 305.75 C-6.95838634 318.10460661 -33.50056974 325.23575842 -60 328 C-60.81525146 328.0920874 -61.63050293 328.1841748 -62.47045898 328.27905273 C-70.69547298 329.13356973 -78.92511615 329.28485259 -87.1875 329.3125 C-87.94046356 329.31511841 -88.69342712 329.31773682 -89.46920776 329.32043457 C-100.92720436 329.32465189 -112.1923875 328.66109639 -123.5625 327.25 C-125.52062622 327.01470581 -125.52062622 327.01470581 -127.51831055 326.7746582 C-144.54557183 324.45442817 -144.54557183 324.45442817 -150 319 C-148.9797876 319.01571045 -147.9595752 319.0314209 -146.90844727 319.04760742 C-109.45271221 319.7368522 -109.45271221 319.7368522 -73 312 C-70.77103532 311.35346989 -68.541868 310.707638 -66.3125 310.0625 C-60.27325075 308.17796318 -54.67597582 305.77886316 -49 303 C-47.75007848 302.40608481 -46.5000731 301.81234608 -45.25 301.21875 C-37.70599853 297.58699619 -30.54472395 293.66349989 -23.60424805 288.96972656 C-20.49942921 286.88139699 -17.5325734 285.24524851 -14 284 C-14 283.34 -14 282.68 -14 282 C-12.48828125 280.6953125 -12.48828125 280.6953125 -10.3125 279.125 C6.09618351 266.68948828 19.49659811 251.63242313 30.11328125 234.0390625 C31.57422494 231.68582401 33.06422842 229.50140955 34.75 227.3125 C37.7373803 223.3023217 39.31762347 218.67117954 41 214 C41.66 214 42.32 214 43 214 C43.09796875 213.45472656 43.1959375 212.90945313 43.296875 212.34765625 C44.12044678 208.19429858 45.12678397 204.46149795 46.9375 200.625 C48.85658348 196.51773645 50.10076807 192.44793019 51.21484375 188.05859375 C51.77048362 185.89408618 52.37148773 183.74098905 53.00390625 181.59765625 C63.62654444 144.86919876 59.54729091 103.34430242 46 68 C45.38125 66.37771484 45.38125 66.37771484 44.75 64.72265625 C39.16573512 50.74362477 31.49831737 37.60172526 22.26953125 25.71875 C21 24 21 24 19.4375 21.125 C17.63993073 18.46772369 16.02513215 17.89936361 13 17 C13 16.34 13 15.68 13 15 C11.89591797 14.35224609 11.89591797 14.35224609 10.76953125 13.69140625 C7.65886945 11.79166498 5.92521921 9.79891496 3.6875 6.9375 C2.64142578 5.62072266 2.64142578 5.62072266 1.57421875 4.27734375 C0 2 0 2 0 0 Z " fill="#F1901C" transform="translate(332,176)"/>
<path d="M0 0 C-1.85630563 5.10484049 -4.55074504 9.64189023 -7.3828125 14.25 C-13.90475881 24.90365052 -19.00723751 35.85254543 -23.15527344 47.61816406 C-23.7427264 49.27457766 -24.34050837 50.92734943 -24.94628906 52.57714844 C-29.36812742 64.64967485 -32.8340918 76.70212583 -35.375 89.3125 C-35.61347656 90.49021973 -35.85195312 91.66793945 -36.09765625 92.88134766 C-39.22348968 109.27616332 -40.38785012 125.58461766 -40.3125 142.25 C-40.30976578 143.51976685 -40.30976578 143.51976685 -40.30697632 144.81518555 C-40.2579392 158.40757113 -39.54595858 171.61943526 -37 185 C-36.82839355 185.94149902 -36.65678711 186.88299805 -36.47998047 187.85302734 C-31.02537874 217.20258676 -19.79608544 244.76385222 -2.125 268.9375 C0 272 0 272 0 274 C0.66 274 1.32 274 2 274 C3.51984883 275.67535459 4.96706453 277.41705622 6.375 279.1875 C7.14585937 280.15042969 7.91671875 281.11335938 8.7109375 282.10546875 C10.14555065 283.91954443 11.56482501 285.74597407 12.9609375 287.58984375 C15.18781006 290.22199005 17.54805098 292.23660035 20.25 294.375 C24.29195933 297.60964388 28.22247746 300.91034465 32.05078125 304.39453125 C40.84453112 311.63747954 52.00393903 318.35433142 62.75390625 322.1484375 C65 323 65 323 67.5859375 324.40625 C72.26815467 326.59199898 77.06875156 327.83767234 82.0625 329.125 C83.09238037 329.39070801 84.12226074 329.65641602 85.18334961 329.93017578 C92.48219408 331.75129183 99.45719175 332.9602487 107 333 C108.13308594 333.02578125 109.26617187 333.0515625 110.43359375 333.078125 C113.96050444 333.12448089 117.47386641 333.0801394 121 333 C121.99 332.99484375 122.98 332.9896875 124 332.984375 C132.5779588 332.67163692 140.47657837 330.41552361 148.66210938 327.99560547 C149.58185547 327.72635254 150.50160156 327.45709961 151.44921875 327.1796875 C152.27768311 326.92944824 153.10614746 326.67920898 153.9597168 326.42138672 C156 326 156 326 158 327 C154.28038221 330.30011203 150.95923885 331.95118367 146.25 333.5 C142.13648511 334.89259619 138.1645108 336.30713678 134.25 338.1875 C130.50417636 339.9094812 126.93265063 340.72899809 122.8828125 341.43359375 C118.02665534 342.38771677 113.28220373 343.77637658 108.515625 345.09765625 C101.59649809 346.87356549 95.07061873 347.18688571 87.9609375 347.23828125 C86.88486237 347.246353 85.80878723 347.25442474 84.70010376 347.26274109 C82.41890048 347.27655202 80.13767679 347.2872875 77.85644531 347.29516602 C75.56048374 347.30659752 73.26454684 347.32690596 70.96875 347.35668945 C52.73513443 347.59278734 36.25974884 346.01569621 19 340 C18.08839111 339.69126953 17.17678223 339.38253906 16.23754883 339.06445312 C13.7610289 338.21393648 11.2865201 337.35776019 8.8125 336.5 C7.94947266 336.20480469 7.08644531 335.90960938 6.19726562 335.60546875 C1.60847265 334.01150394 -2.71843439 332.29845093 -7 330 C-7 329.34 -7 328.68 -7 328 C-7.86625 327.90589844 -8.7325 327.81179688 -9.625 327.71484375 C-24.05060998 324.65941941 -41.48216939 309.01698153 -52 299 C-52 298.34 -52 297.68 -52 297 C-52.556875 296.79375 -53.11375 296.5875 -53.6875 296.375 C-56.29065948 294.82717544 -57.85153773 292.92709872 -59.71875 290.5703125 C-61.12435912 288.79369781 -61.12435912 288.79369781 -63.4375 286.5625 C-68.7043401 281.2956599 -73.05957161 275.62595739 -77.265625 269.484375 C-78.8611525 267.19888966 -80.53218967 265.00653498 -82.25 262.8125 C-84.83561354 259.40140034 -86.39357951 255.98112903 -88 252 C-88.7726949 250.55221377 -89.56592711 249.11527569 -90.375 247.6875 C-94.43261687 240.47667484 -98.11661139 233.56200722 -100.2265625 225.51953125 C-100.99618844 222.8240311 -100.99618844 222.8240311 -102.48828125 219.703125 C-104.09997915 215.75508983 -104.88985957 212.12060704 -105.5625 207.9375 C-106.18023393 204.20638706 -106.80151407 200.58557151 -108.01953125 196.9921875 C-116.88505027 169.93646013 -110.41890739 136.9040013 -103.51904297 110.23632812 C-102.92463785 108.05792625 -102.92463785 108.05792625 -103 106 C-104.485 106.99 -104.485 106.99 -106 108 C-105.57045619 106.6016978 -105.13092966 105.20646093 -104.6875 103.8125 C-104.44386719 103.03519531 -104.20023438 102.25789063 -103.94921875 101.45703125 C-102.89753494 98.73477152 -101.56286916 96.46350563 -100 94 C-99.4328125 93.1028125 -98.865625 92.205625 -98.28125 91.28125 C-97.09375 89.42708333 -95.90625 87.57291667 -94.71875 85.71875 C-93.62473317 83.98821429 -92.55298756 82.24324665 -91.51171875 80.48046875 C-86.43620246 72.15242523 -80.15984448 64.54049928 -74 57 C-73.525625 56.4121875 -73.05125 55.824375 -72.5625 55.21875 C-69.88524765 51.93911588 -67.02642031 48.95763803 -64 46 C-63.25878906 45.236875 -62.51757812 44.47375 -61.75390625 43.6875 C-60.94824219 42.8625 -60.14257812 42.0375 -59.3125 41.1875 C-58.54550781 40.39730469 -57.77851562 39.60710937 -56.98828125 38.79296875 C-55 37 -55 37 -53 37 C-52.67 36.01 -52.34 35.02 -52 34 C-40.48401585 23.07574626 -26.5745309 14.10063346 -13 6 C-11.45579533 5.02484083 -9.9137286 4.0462773 -8.375 3.0625 C-3.36363636 0 -3.36363636 0 0 0 Z " fill="#E71B23" transform="translate(136,56)"/>
<path d="M0 0 C3.33200725 -0.03305142 6.6639715 -0.05279038 9.99609375 -0.0703125 C10.93014038 -0.07973877 11.86418701 -0.08916504 12.82653809 -0.09887695 C21.19365927 -0.13179677 28.87773454 0.91864552 37 3 C37.73444336 3.18272461 38.46888672 3.36544922 39.22558594 3.55371094 C59.27027735 8.67204095 90.77898988 17.90757776 104.36328125 34.68359375 C107.70739488 40.86263498 107.99355057 47.11083531 107 54 C105.67891885 57.57926139 104.03632829 60.77823775 102 64 C101.34 64 100.68 64 100 64 C99.7421875 64.70382813 99.484375 65.40765625 99.21875 66.1328125 C97.89084203 69.25680112 96.29060168 71.99095713 94.5 74.875 C94.15396729 75.4323584 93.80793457 75.9897168 93.45141602 76.56396484 C90.28605416 81.62322271 86.97954865 86.58596024 83.65136719 91.5390625 C80.55142228 96.15427006 77.54600084 100.82198933 74.578125 105.5234375 C72.61054988 108.61116677 70.57209789 111.64793931 68.53125 114.6875 C66.82049232 117.27109322 65.1579324 119.88221201 63.5 122.5 C62.62601562 123.87091797 62.62601562 123.87091797 61.734375 125.26953125 C60.58881056 127.07302121 59.4531663 128.88285535 58.328125 130.69921875 C57.80734375 131.52035156 57.2865625 132.34148437 56.75 133.1875 C56.29109375 133.92355469 55.8321875 134.65960938 55.359375 135.41796875 C54.91078125 135.94003906 54.4621875 136.46210938 54 137 C50.06463149 137 49.47059231 135.82857539 46.6875 133.125 C40.55223297 127.43690987 33.89671696 122.71547719 27 118 C26.11828125 117.38253906 25.2365625 116.76507813 24.328125 116.12890625 C4.48330964 102.78604126 -19.45580365 94.49981297 -43 91 C-45.08347426 90.62578375 -47.16681661 90.25083206 -49.25 89.875 C-68.18002994 86.85425054 -87.77001358 87.01901119 -106.73535156 89.68798828 C-109.12022829 90.01656444 -111.50799706 90.30473246 -113.8984375 90.58984375 C-146.06585005 94.58963384 -176.40876272 105.07495139 -206 118 C-206.66 117.34 -207.32 116.68 -208 116 C-207.34 116 -206.68 116 -206 116 C-205.75121094 115.42636719 -205.50242188 114.85273438 -205.24609375 114.26171875 C-200.67792195 105.97027212 -191.32124939 99.73183297 -184 94 C-183.03964844 93.24589844 -182.07929688 92.49179688 -181.08984375 91.71484375 C-169.71439137 82.97717743 -157.73568868 76.16114037 -144.88085938 69.92724609 C-143.14081992 69.0694229 -141.42088022 68.17114921 -139.703125 67.26953125 C-134.10703663 64.3337595 -128.84000603 62.14493161 -122.66796875 60.73828125 C-119.87309724 60.03697299 -119.87309724 60.03697299 -116.88671875 58.60546875 C-100.33898427 51.32017617 -80.80858733 49.64366811 -63 48 C-62.28730957 47.92942383 -61.57461914 47.85884766 -60.84033203 47.78613281 C-39.57719637 45.71941508 -18.2163136 47.1430787 3 49 C2.8460376 48.04859131 2.6920752 47.09718262 2.53344727 46.11694336 C1.87160869 41.46775859 1.66980731 36.81696285 1.46484375 32.12890625 C1.42186661 31.206577 1.37888947 30.28424774 1.33460999 29.33396912 C1.19909549 26.41028071 1.06822713 23.48640598 0.9375 20.5625 C0.84601077 18.57094939 0.75421707 16.57941273 0.66210938 14.58789062 C0.43788297 9.72541489 0.217821 4.86276671 0 0 Z " fill="#E41A22" transform="translate(398,78)"/>
<path d="M0 0 C1.11971191 -0.03077637 2.23942383 -0.06155273 3.39306641 -0.09326172 C9.37643313 -0.09417229 13.6806501 0.51153458 18.76708984 3.74023438 C23.86021059 9.31436349 24.02739442 16.34405467 24.4921875 23.51171875 C24.57032684 24.5961174 24.64846619 25.68051605 24.72897339 26.79777527 C25.5806148 39.30546317 26.00132894 51.83212335 26.38037109 64.36157227 C26.48109427 67.68810938 26.58704119 71.01438169 26.69632149 74.34064198 C26.80264188 77.58769322 26.90526597 80.83485894 27.0078125 84.08203125 C27.04528595 85.25409622 27.0827594 86.42616119 27.12136841 87.63374329 C27.34008201 94.92490723 27.41872959 102.20568684 27.375 109.5 C26.33730469 109.4278125 25.29960937 109.355625 24.23046875 109.28125 C12.73647293 108.56047053 1.2624586 108.38857656 -10.25 108.375 C-10.97482574 108.37250244 -11.69965149 108.37000488 -12.44644165 108.36743164 C-29.23912868 108.32002882 -45.50993485 109.05782491 -62.02197266 112.29150391 C-64.38541641 112.75202968 -66.7525649 113.18757056 -69.12109375 113.62109375 C-77.63907789 115.22565749 -85.60224311 117.28159407 -93.7097168 120.39770508 C-96.34970446 121.39590827 -98.96349455 122.20710033 -101.6875 122.9375 C-107.97170491 124.77677949 -113.75252243 127.63724706 -119.625 130.5 C-120.65343018 130.99886719 -120.65343018 130.99886719 -121.70263672 131.5078125 C-123.86770057 132.56084963 -126.02843053 133.62223116 -128.1875 134.6875 C-128.86635254 135.02031982 -129.54520508 135.35313965 -130.24462891 135.69604492 C-133.62635469 137.38436325 -136.66198282 139.15868731 -139.625 141.5 C-141.38483975 142.49190968 -143.14475831 143.48368316 -144.90625 144.47265625 C-147.34022333 145.92750849 -149.44377367 147.69117816 -151.625 149.5 C-153.01360432 150.59258402 -154.40994629 151.67538151 -155.8125 152.75 C-156.82376953 153.53117187 -156.82376953 153.53117187 -157.85546875 154.328125 C-159.625 155.5 -159.625 155.5 -161.625 155.5 C-161.625 156.16 -161.625 156.82 -161.625 157.5 C-166.09558824 161.5 -166.09558824 161.5 -168.625 161.5 C-168.625 162.16 -168.625 162.82 -168.625 163.5 C-170.26953125 165.0859375 -170.26953125 165.0859375 -172.4375 166.875 C-174.68750857 168.73566282 -176.52850285 170.36872703 -178.26171875 172.7265625 C-178.93654297 173.60441406 -178.93654297 173.60441406 -179.625 174.5 C-180.285 174.5 -180.945 174.5 -181.625 174.5 C-181.86476562 175.05945313 -182.10453125 175.61890625 -182.3515625 176.1953125 C-183.89850358 178.99499114 -185.81302481 181.04271084 -188 183.375 C-191.28165095 186.95068687 -194.05226852 190.4026869 -196.625 194.5 C-197.615 195.7065625 -197.615 195.7065625 -198.625 196.9375 C-200.45659749 199.28423428 -201.90820669 201.66311956 -203.35546875 204.2578125 C-205.09068708 207.32247502 -206.8763918 210.35484136 -208.6875 213.375 C-209.35910156 214.50679687 -210.03070313 215.63859375 -210.72265625 216.8046875 C-212.625 219.5 -212.625 219.5 -215.625 220.5 C-213.86285877 203.13032212 -206.91418723 186.69049625 -198.625 171.5 C-198.01785156 170.36820313 -197.41070312 169.23640625 -196.78515625 168.0703125 C-195.41532012 165.53692145 -194.03086521 163.01351659 -192.625 160.5 C-191.965 160.5 -191.305 160.5 -190.625 160.5 C-190.37621094 159.61570313 -190.12742188 158.73140625 -189.87109375 157.8203125 C-188.56781019 154.34761336 -187.06404986 152.19853596 -184.6875 149.375 C-183.99785156 148.54742187 -183.30820313 147.71984375 -182.59765625 146.8671875 C-181.94667969 146.08601562 -181.29570312 145.30484375 -180.625 144.5 C-180.08746094 143.73945313 -179.54992187 142.97890625 -178.99609375 142.1953125 C-178.54363281 141.63585937 -178.09117187 141.07640625 -177.625 140.5 C-176.965 140.5 -176.305 140.5 -175.625 140.5 C-175.3775 139.71625 -175.13 138.9325 -174.875 138.125 C-173.41575497 135.06058543 -172.57485044 134.88274239 -169.625 133.5 C-168.94013275 132.17592331 -168.27629797 130.84090759 -167.625 129.5 C-155.55257741 116.94635433 -141.64939474 105.39046829 -126.625 96.5 C-125.965 96.5 -125.305 96.5 -124.625 96.5 C-124.625 95.84 -124.625 95.18 -124.625 94.5 C-123.97917969 94.18289062 -123.33335937 93.86578125 -122.66796875 93.5390625 C-115.09019128 89.78645587 -107.60049894 85.88137162 -100.12573242 81.92822266 C-99.34174072 81.51362793 -98.55774902 81.0990332 -97.75 80.671875 C-96.70199219 80.1164502 -96.70199219 80.1164502 -95.6328125 79.54980469 C-94.97023438 79.20336914 -94.30765625 78.85693359 -93.625 78.5 C-92.94179688 78.12520508 -92.25859375 77.75041016 -91.5546875 77.36425781 C-89.625 76.5 -89.625 76.5 -86.625 76.5 C-89.65231324 70.25811702 -92.71777458 64.1685387 -96.484375 58.33984375 C-97.98402069 55.9208947 -99.21230505 53.41047752 -100.4453125 50.84765625 C-102.56000134 46.63928541 -104.92094142 42.55509547 -107.234375 38.453125 C-108.625 35.5 -108.625 35.5 -108.625 31.5 C-107.03515625 30.11328125 -107.03515625 30.11328125 -104.6875 28.8125 C-103.30884766 28.04679687 -103.30884766 28.04679687 -101.90234375 27.265625 C-100.82082031 26.68296875 -99.73929687 26.1003125 -98.625 25.5 C-97.37547766 24.78790302 -96.12682477 24.07427889 -94.87890625 23.359375 C-85.01357686 17.80990374 -74.97750155 13.72432295 -64.19433594 10.31298828 C-62.49610624 9.7756351 -60.80130767 9.22730186 -59.11035156 8.66748047 C-39.80796653 2.29972207 -20.26543626 0.32922688 0 0 Z " fill="#E86120" transform="translate(363.625,7.5)"/>
<path d="M0 0 C6.68627277 4.50596643 9.82030891 11.55037181 13.23046875 18.640625 C15.63063205 23.4523538 18.33635626 28.06645454 21.04296875 32.7109375 C22.76465458 35.7431603 24.33084531 38.81213092 25.875 41.9375 C26.95014102 43.96270376 28.03383515 45.98338458 29.125 48 C29.72828125 49.12277344 30.3315625 50.24554688 30.953125 51.40234375 C32.251152 53.80503188 33.57692613 56.18968946 34.921875 58.56640625 C35.24897461 59.15220459 35.57607422 59.73800293 35.91308594 60.34155273 C36.83116838 61.98408145 37.75909403 63.6210968 38.6875 65.2578125 C39.875 67.9375 39.875 67.9375 38.875 70.9375 C36.15836971 72.28832719 33.48896467 73.4785981 30.6875 74.625 C7.36214418 84.59718388 -11.80908821 99.60555397 -30.125 116.9375 C-30.805625 117.57558594 -31.48625 118.21367188 -32.1875 118.87109375 C-37.31331362 123.81892773 -41.67989346 129.38301644 -46.125 134.9375 C-46.88941406 135.86949219 -47.65382813 136.80148438 -48.44140625 137.76171875 C-49.16199219 138.64472656 -49.88257813 139.52773437 -50.625 140.4375 C-51.59953125 141.62859375 -51.59953125 141.62859375 -52.59375 142.84375 C-54.29941267 144.95277847 -54.29941267 144.95277847 -55.125 147.9375 C-56.11366964 148.94870342 -57.11536212 149.94723167 -58.125 150.9375 C-67.32528254 163.84718028 -74.8151067 178.44277368 -81.125 192.9375 C-81.63804687 194.07703125 -82.15109375 195.2165625 -82.6796875 196.390625 C-92.17290859 217.83302488 -97.45827317 241.66424766 -100.125 264.9375 C-100.785 264.9375 -101.445 264.9375 -102.125 264.9375 C-106.17713675 254.6809927 -109.23205683 244.26792429 -111.875 233.5625 C-112.16834229 232.40661377 -112.46168457 231.25072754 -112.76391602 230.05981445 C-116.57723127 214.1799937 -117.46532955 198.25297618 -117.38574219 181.97583008 C-117.37498894 179.37232276 -117.38573875 176.76950282 -117.3984375 174.16601562 C-117.41434039 158.27210266 -116.16110326 142.95459902 -112 127.5625 C-111.69578125 126.41692627 -111.3915625 125.27135254 -111.078125 124.09106445 C-105.69107849 104.46310867 -96.99860131 86.6593485 -87.125 68.9375 C-86.465 68.9375 -85.805 68.9375 -85.125 68.9375 C-84.86203125 68.22335938 -84.5990625 67.50921875 -84.328125 66.7734375 C-81.35513727 59.7656807 -76.8083304 53.39276635 -71.7265625 47.75390625 C-69.74685275 45.50862568 -67.91287028 43.16531165 -66.0625 40.8125 C-61.54993888 35.15253244 -56.68000345 30.56666954 -51.125 25.9375 C-50.320625 25.133125 -49.51625 24.32875 -48.6875 23.5 C-36.3792618 11.1917618 -18.4381717 -6.26897838 0 0 Z " fill="#EE8E1C" transform="translate(224.125,8.0625)"/>
<path d="M0 0 C0.495 2.475 0.495 2.475 1 5 C1.66 5 2.32 5 3 5 C7.66666667 5 12.33333333 5 17 5 C17 6.98 17 8.96 17 11 C20.465 10.505 20.465 10.505 24 10 C24.33 9.01 24.66 8.02 25 7 C46.00917431 6.80122324 46.00917431 6.80122324 55 8 C55.99 10.475 55.99 10.475 57 13 C48.75 13 40.5 13 32 13 C32.99 14.485 32.99 14.485 34 16 C34.24291992 18.06542969 34.24291992 18.06542969 34.23046875 20.421875 C34.22853516 21.28296875 34.22660156 22.1440625 34.22460938 23.03125 C34.21236328 23.9284375 34.20011719 24.825625 34.1875 25.75 C34.1865332 27.07257813 34.1865332 27.07257813 34.18554688 28.421875 C34.15950013 32.3115227 34.00404637 35.97302421 33.42578125 39.828125 C32.99965649 43.002559 33.29728989 44.91852119 34 48 C34.14095798 50.51826845 34.219946 53.0404687 34.25 55.5625 C34.27578125 56.86316406 34.3015625 58.16382813 34.328125 59.50390625 C33.980436 63.20844975 33.31462112 64.25099958 31 67 C31.28112064 69.00800456 31.61067967 71.01014051 32 73 C30 75 30 75 27.75341797 75.22705078 C26.38660889 75.21134033 26.38660889 75.21134033 24.9921875 75.1953125 C23.51298828 75.18564453 23.51298828 75.18564453 22.00390625 75.17578125 C20.45509766 75.15064453 20.45509766 75.15064453 18.875 75.125 C17.31458984 75.11146484 17.31458984 75.11146484 15.72265625 75.09765625 C13.14820908 75.07403747 10.57421788 75.04110149 8 75 C8.52268466 72.23723823 9.10869587 69.6739124 10 67 C9.34 67 8.68 67 8 67 C5.49229254 63.2384388 5.73780488 60.28625934 5.8125 55.9375 C5.81822021 55.17687256 5.82394043 54.41624512 5.82983398 53.63256836 C5.89402641 48.64200484 6.19145314 43.73312124 6.87890625 38.78515625 C7.15858563 36.89490341 7.15858563 36.89490341 6 35 C5.76285472 31.8597182 5.8148166 28.71076199 5.8125 25.5625 C5.80025391 24.69044922 5.78800781 23.81839844 5.77539062 22.91992188 C5.77345703 22.08138672 5.77152344 21.24285156 5.76953125 20.37890625 C5.76542236 19.6113501 5.76131348 18.84379395 5.75708008 18.05297852 C6 16 6 16 8 13 C5.03 12.67 2.06 12.34 -1 12 C-1.07822869 17.16309352 -1.04225175 21.91902274 0 27 C-1.97746603 27.73080266 -3.98072489 28.39421747 -6 29 C-6.66 28.67 -7.32 28.34 -8 28 C-8.04241723 25.66705225 -8.04092937 23.33297433 -8 21 C-7.505 20.505 -7.505 20.505 -7 20 C-7.28730055 17.66055264 -7.61936779 15.3260857 -8 13 C-11.18490007 12.7226499 -11.18490007 12.7226499 -14 15 C-20.30796655 15.87017467 -26.459069 14.4869264 -32.5625 13 C-33.38041016 12.80921875 -34.19832031 12.6184375 -35.04101562 12.421875 C-37.02943044 11.95674873 -39.01503756 11.47964573 -41 11 C-41 10.34 -41 9.68 -41 9 C-32.45393964 4.64967987 -21.58389542 0.08316226 -12 3 C-10.0625 4.5625 -10.0625 4.5625 -9 6 C-8.71125 5.030625 -8.4225 4.06125 -8.125 3.0625 C-6.33156674 -1.81962388 -4.56933421 -1.08221073 0 0 Z M14 12 C10.29329628 15.05803057 9.13662202 16.76642254 8.59765625 21.6328125 C8.24310609 29.19836446 8.24310609 29.19836446 11 36 C11.66 36 12.32 36 13 36 C13 33.69 13 31.38 13 29 C17.62 29 22.24 29 27 29 C27 31.64 27 34.28 27 37 C28.32 36.34 29.64 35.68 31 35 C31.10806144 32.08234109 31.18732877 29.16868875 31.25 26.25 C31.28351563 25.425 31.31703125 24.6 31.3515625 23.75 C31.44836957 18.75838944 31.44836957 18.75838944 29.1953125 14.3984375 C25.9718031 12.3450276 23.68213403 13.36514931 20 14 C16.5625 13.0625 16.5625 13.0625 14 12 Z M11 39 C8.74056251 47.04924606 8.80323723 54.70316995 9 63 C11.9919735 63.3365155 11.9919735 63.3365155 13.60546875 61.5390625 C14.38857422 60.59160156 14.38857422 60.59160156 15.1875 59.625 C15.98220703 58.68527344 15.98220703 58.68527344 16.79296875 57.7265625 C18.19098815 56.07791367 18.19098815 56.07791367 18 54 C21.21549219 55.37806808 22.97220001 56.88609739 25.125 59.625 C26.56168718 61.50450961 26.56168718 61.50450961 28 63 C28.66 63 29.32 63 30 63 C33.21278848 56.57442304 30.86966522 46.632535 29 40 C27.78571012 38.55611429 27.78571012 38.55611429 24.18359375 38.90234375 C22.60153318 38.90901911 21.01948841 38.92098125 19.4375 38.9375 C18.63119141 38.94201172 17.82488281 38.94652344 16.99414062 38.95117188 C14.99606244 38.96299482 12.99802217 38.98093086 11 39 Z M17 62 C17 62.33 17 62.66 17 63 C18.98 63 20.96 63 23 63 C23 62.67 23 62.34 23 62 C21.02 62 19.04 62 17 62 Z " fill="#711215" transform="translate(191,261)"/>
<path d="M0 0 C0.66 0 1.32 0 2 0 C1.77321716 3.85530826 1.44064445 6.37701992 -0.8125 9.5625 C-8.23950724 15.98245541 -18.14502918 18.86726777 -27.32446289 21.80688477 C-33.71783077 23.85948877 -39.85744422 26.2780047 -46 29 C-45.71125 29.49628906 -45.4225 29.99257813 -45.125 30.50390625 C-44.75375 31.18324219 -44.3825 31.86257813 -44 32.5625 C-43.62875 33.22378906 -43.2575 33.88507813 -42.875 34.56640625 C-41.00608722 39.76431991 -41.8798075 44.18656118 -43.77832031 49.24023438 C-48.27499248 61.37333898 -47.4118206 73.83420748 -46.96582031 86.5859375 C-47 89 -47 89 -48 90 C-51.10042773 90.32446337 -54.2020725 90.51334441 -57.3125 90.71875 C-59.91596752 90.70607799 -59.91596752 90.70607799 -61 92 C-62.69141656 91.91036938 -64.37959602 91.75422324 -66.0625 91.5625 C-66.98160156 91.46066406 -67.90070313 91.35882813 -68.84765625 91.25390625 C-69.91306641 91.12822266 -69.91306641 91.12822266 -71 91 C-71.33 89.68 -71.66 88.36 -72 87 C-71.18595703 86.60167969 -71.18595703 86.60167969 -70.35546875 86.1953125 C-69.64003906 85.84210938 -68.92460937 85.48890625 -68.1875 85.125 C-67.47980469 84.77695312 -66.77210938 84.42890625 -66.04296875 84.0703125 C-63.78753582 82.9343514 -63.78753582 82.9343514 -61 81 C-60.01 81 -59.02 81 -58 81 C-58.06058594 80.37883301 -58.12117187 79.75766602 -58.18359375 79.11767578 C-62.75545915 30.99879247 -62.75545915 30.99879247 -54.82421875 19.80859375 C-53 18 -53 18 -50 17 C-49.690625 15.88625 -49.690625 15.88625 -49.375 14.75 C-47.21100331 10.42200662 -43.46295642 8.62573544 -39 7 C-36.5 7.5625 -36.5 7.5625 -34 9 C-27.08703316 10.96094608 -27.08703316 10.96094608 -20 11 C-19.34 10.484375 -18.68 9.96875 -18 9.4375 C-17.34 8.963125 -16.68 8.48875 -16 8 C-14.8553125 8.309375 -14.8553125 8.309375 -13.6875 8.625 C-10.39940407 9.08380408 -9.8961435 8.48683198 -7.3125 6.5625 C-6.73113281 6.08941406 -6.14976562 5.61632812 -5.55078125 5.12890625 C-4 4 -4 4 -2 4 C-1.34 2.68 -0.68 1.36 0 0 Z " fill="#C32024" transform="translate(287,281)"/>
<path d="M0 0 C4.01939063 -0.22363929 8.03634772 -0.38628486 12.06054688 -0.49438477 C13.42674856 -0.53946167 14.7925203 -0.6007517 16.15722656 -0.67895508 C27.40168704 -1.30683919 27.40168704 -1.30683919 31.19824219 1.79736328 C37.39466571 10.67011441 37.7284971 20.52351787 37 31 C36.11004972 35.50210141 33.82606169 39.14978196 30.16015625 42 C25.17351965 44.30846107 19.41504616 44.50300261 14 45 C13.97421875 44.05898438 13.9484375 43.11796875 13.921875 42.1484375 C13.45071196 31.80426706 11.55057124 27.14243225 4 20 C3.67 19.67 3.34 19.34 3 19 C2.34 22.63 1.68 26.26 1 30 C-1.97 30 -4.94 30 -8 30 C-8.10853983 27.77191841 -8.18583307 25.54230068 -8.25 23.3125 C-8.29640625 22.07113281 -8.3428125 20.82976562 -8.390625 19.55078125 C-7.93889287 15.4445362 -6.93706704 13.84460381 -4 11 C-3.34 11 -2.68 11 -2 11 C-2 10.34 -2 9.68 -2 9 C2.875 9.875 2.875 9.875 4 11 C5.99958364 11.04080783 8.00045254 11.04254356 10 11 C8.88625 10.71125 7.7725 10.4225 6.625 10.125 C3 9 3 9 1 7 C0.59952556 4.67724823 0.2602896 2.34260643 0 0 Z " fill="#CE2226" transform="translate(258,217)"/>
<path d="M0 0 C18.48 0 36.96 0 56 0 C56 2.97 56 5.94 56 9 C41.15 9.33 26.3 9.66 11 10 C10.67 11.32 10.34 12.64 10 14 C8.07421875 15.59765625 8.07421875 15.59765625 5.6875 17.0625 C2.23558276 19.20689003 2.23558276 19.20689003 -0.9765625 21.68359375 C-3.55139379 23.35872531 -5.03241796 23.21937246 -8.0625 23 C-10.61768304 22.74966219 -10.61768304 22.74966219 -13 23 C-13.48082031 23.50917969 -13.96164062 24.01835937 -14.45703125 24.54296875 C-16 26 -16 26 -18.6015625 25.92578125 C-19.59929687 25.72339844 -20.59703125 25.52101563 -21.625 25.3125 C-22.68460937 25.10496094 -23.74421875 24.89742188 -24.8359375 24.68359375 C-25.88007813 24.45800781 -26.92421875 24.23242188 -28 24 C-28.92039063 23.80535156 -29.84078125 23.61070312 -30.7890625 23.41015625 C-32.86358137 22.95903072 -34.93253194 22.48240921 -37 22 C-36.76774367 18.51615511 -36.62008825 16.6000854 -34.0625 14.125 C-30.39358112 12.77723388 -27.54038162 12.96361832 -23.67578125 13.078125 C-17.33677174 12.89304443 -11.60029702 10.27123172 -5.875 7.75 C-1.10372029 5.75693379 1.9913105 5.88695789 7 7 C6.4946875 6.66226562 5.989375 6.32453125 5.46875 5.9765625 C4.49421875 5.30753906 4.49421875 5.30753906 3.5 4.625 C2.8503125 4.18414062 2.200625 3.74328125 1.53125 3.2890625 C1.0259375 2.86367188 0.520625 2.43828125 0 2 C0 1.34 0 0.68 0 0 Z " fill="#C52024" transform="translate(282,264)"/>
<path d="M0 0 C-0.63854985 5.52675903 -1.93693354 10.62367351 -3.5625 15.9375 C-3.79646484 16.71673828 -4.03042969 17.49597656 -4.27148438 18.29882812 C-4.84317421 20.20057187 -5.42095691 22.10048226 -6 24 C-5.34 24 -4.68 24 -4 24 C-3.566875 23.1028125 -3.566875 23.1028125 -3.125 22.1875 C-2 20 -2 20 0 17 C3.16015625 16.63671875 3.16015625 16.63671875 7.0625 16.6875 C8.96708984 16.69330078 8.96708984 16.69330078 10.91015625 16.69921875 C13.75317256 16.82777848 16.32678044 17.26224364 19.0859375 17.94921875 C25.48725185 19.48341806 32.01153129 19.71619275 38.5625 20.125 C39.85736328 20.21136719 41.15222656 20.29773438 42.48632812 20.38671875 C45.65720009 20.59733017 48.82834501 20.80159213 52 21 C51.90150757 21.9588208 51.90150757 21.9588208 51.80102539 22.93701172 C51.28716123 27.99637949 50.81518273 33.0532605 50.4375 38.125 C50.31181641 39.79949219 50.31181641 39.79949219 50.18359375 41.5078125 C50.12300781 42.33023438 50.06242187 43.15265625 50 44 C48.68 44.33 47.36 44.66 46 45 C45.91363281 44.443125 45.82726562 43.88625 45.73828125 43.3125 C44.96300092 39.10180316 43.91577794 35.25080126 41.9375 31.4375 C41.59589844 30.77621094 41.25429688 30.11492187 40.90234375 29.43359375 C35.57333817 25.41769016 25.06249886 28.53629956 18.93554688 29.37304688 C17.60283774 29.56100769 16.2701556 29.74915999 14.9375 29.9375 C13.60098958 30.12231065 12.26440129 30.306559 10.92773438 30.49023438 C8.39411272 30.8391307 5.86073155 31.18977953 3.32763672 31.54248047 C-0.44479373 32.06115506 -4.21972365 32.54251433 -8 33 C-8 32.34 -8 31.68 -8 31 C-8.99 30.67 -9.98 30.34 -11 30 C-12.07495117 28.3894043 -12.07495117 28.3894043 -13.04296875 26.32421875 C-13.39423828 25.57849609 -13.74550781 24.83277344 -14.10742188 24.06445312 C-14.46384766 23.28005859 -14.82027344 22.49566406 -15.1875 21.6875 C-15.73954102 20.52831055 -15.73954102 20.52831055 -16.30273438 19.34570312 C-18.08583989 15.49829734 -19 13.35544965 -19 9 C-16.91706723 7.8742531 -14.83367092 6.74937917 -12.75 5.625 C-11.58984375 4.99851562 -10.4296875 4.37203125 -9.234375 3.7265625 C-8.16703125 3.15679687 -7.0996875 2.58703125 -6 2 C-5.24203125 1.59523438 -4.4840625 1.19046875 -3.703125 0.7734375 C-2 0 -2 0 0 0 Z " fill="#BE1F23" transform="translate(285,294)"/>
<path d="M0 0 C3.47882954 0.98991084 5.73276744 2.95575575 8.47265625 5.25 C11.31746929 7.36345422 13.96088101 7.96662235 17.40234375 8.68359375 C16.41234375 12.31359375 15.42234375 15.94359375 14.40234375 19.68359375 C8.65234375 19.80859375 8.65234375 19.80859375 6.40234375 18.68359375 C6.40234375 20.00359375 6.40234375 21.32359375 6.40234375 22.68359375 C5.74234375 22.68359375 5.08234375 22.68359375 4.40234375 22.68359375 C4.40234375 23.67359375 4.40234375 24.66359375 4.40234375 25.68359375 C2.40234375 27.37109375 2.40234375 27.37109375 0.40234375 28.68359375 C1.72234375 28.68359375 3.04234375 28.68359375 4.40234375 28.68359375 C4.40234375 30.00359375 4.40234375 31.32359375 4.40234375 32.68359375 C2.42578125 34.60546875 2.42578125 34.60546875 -0.22265625 36.43359375 C-1.08117187 37.0471875 -1.9396875 37.66078125 -2.82421875 38.29296875 C-5.99501173 39.88283115 -8.09725913 39.9504862 -11.59765625 39.68359375 C-11.59765625 38.36359375 -11.59765625 37.04359375 -11.59765625 35.68359375 C-9.09765625 33.93359375 -9.09765625 33.93359375 -6.59765625 32.68359375 C-8.24765625 32.02359375 -9.89765625 31.36359375 -11.59765625 30.68359375 C-11.59765625 29.69359375 -11.59765625 28.70359375 -11.59765625 27.68359375 C-16.05265625 26.69359375 -16.05265625 26.69359375 -20.59765625 25.68359375 C-20.92765625 23.37359375 -21.25765625 21.06359375 -21.59765625 18.68359375 C-20.60765625 18.35359375 -19.61765625 18.02359375 -18.59765625 17.68359375 C-18.82453125 17.08546875 -19.05140625 16.48734375 -19.28515625 15.87109375 C-19.38828125 15.14921875 -19.49140625 14.42734375 -19.59765625 13.68359375 C-18.41015625 12.18359375 -18.41015625 12.18359375 -16.59765625 10.68359375 C-14.329477 8.5571757 -12.63204502 6.74136689 -11.03515625 4.05859375 C-8.08784151 -0.81088277 -5.08460385 -0.66750877 0 0 Z " fill="#C72025" transform="translate(244.59765625,194.31640625)"/>
<path d="M0 0 C0.268125 0.763125 0.53625 1.52625 0.8125 2.3125 C1.80853525 5.00407372 1.80853525 5.00407372 3.625 6.625 C4.07875 7.07875 4.5325 7.5325 5 8 C5 8.99 5 9.98 5 11 C3.68 11 2.36 11 1 11 C0.89748328 16.12583611 0.96409801 20.94997778 2 26 C0.02253397 26.73080266 -1.98072489 27.39421747 -4 28 C-4.66 27.67 -5.32 27.34 -6 27 C-6.04241723 24.66705225 -6.04092937 22.33297433 -6 20 C-5.505 19.505 -5.505 19.505 -5 19 C-5.28730055 16.66055264 -5.61936779 14.3260857 -6 12 C-9.18490007 11.7226499 -9.18490007 11.7226499 -12 14 C-18.30796655 14.87017467 -24.459069 13.4869264 -30.5625 12 C-31.38041016 11.80921875 -32.19832031 11.6184375 -33.04101562 11.421875 C-35.02943044 10.95674873 -37.01503756 10.47964573 -39 10 C-39 9.34 -39 8.68 -39 8 C-30.45393964 3.64967987 -19.58389542 -0.91683774 -10 2 C-8.0625 3.5625 -8.0625 3.5625 -7 5 C-6.814375 4.0409375 -6.814375 4.0409375 -6.625 3.0625 C-6.41875 2.381875 -6.2125 1.70125 -6 1 C-4 0 -4 0 0 0 Z " fill="#C32024" transform="translate(189,262)"/>
<path d="M0 0 C3.375 -0.125 3.375 -0.125 7 0 C9.38021708 2.38021708 9.19608863 3.08344167 9.5 6.3125 C10.12811203 9.29003869 10.59043902 10.63941745 12.89453125 12.66796875 C19.7065904 16.420654 26.32506126 16.75505515 34 17 C34 20.96 34 24.92 34 29 C23.82961272 27.96220538 13.66218201 23.07100742 6.68359375 15.48046875 C4.62209991 12.44323304 4.66537965 10.59716875 5 7 C2.69 6.34 0.38 5.68 -2 5 C-1.34 3.35 -0.68 1.7 0 0 Z " fill="#B91E22" transform="translate(225,233)"/>
<path d="M0 0 C2.31 0 4.62 0 7 0 C7 0.66 7 1.32 7 2 C7.66 2.33 8.32 2.66 9 3 C8.50757813 3.48082031 8.01515625 3.96164062 7.5078125 4.45703125 C5.30654821 8.1695262 5.71288243 11.46187024 5.875 15.6875 C5.95249181 18.46125114 5.99410079 21.22442036 6 24 C5.67 24.33 5.34 24.66 5 25 C5.66 25.99 6.32 26.98 7 28 C6.79614107 30.03858926 6.57893816 32.07676814 6.29296875 34.10546875 C5.6924881 40.03821759 5.92937022 46.04355524 6 52 C8.91261983 49.12551595 11.64151525 46.35153096 14 43 C17.53631503 43.55876839 18.91895128 44.65972661 21.125 47.4375 C22.70296618 49.39564974 24.21849868 51.21849868 26 53 C22.125 52.125 22.125 52.125 21 51 C20.67 51.66 20.34 52.32 20 53 C16.66666667 53 13.33333333 53 10 53 C9.525625 53.495 9.05125 53.99 8.5625 54.5 C7 56 7 56 4 56 C1.49229254 52.2384388 1.73780488 49.28625934 1.8125 44.9375 C1.82108032 43.79655884 1.82108032 43.79655884 1.82983398 42.63256836 C1.89402641 37.64200484 2.19145314 32.73312124 2.87890625 27.78515625 C3.15858563 25.89490341 3.15858563 25.89490341 2 24 C1.76285472 20.8597182 1.8148166 17.71076199 1.8125 14.5625 C1.80025391 13.69044922 1.78800781 12.81839844 1.77539062 11.91992188 C1.77345703 11.08138672 1.77152344 10.24285156 1.76953125 9.37890625 C1.76542236 8.6113501 1.76131348 7.84379395 1.75708008 7.05297852 C2 5 2 5 4 2 C2.68 1.34 1.36 0.68 0 0 Z M13 51 C13 51.33 13 51.66 13 52 C14.98 52 16.96 52 19 52 C19 51.67 19 51.34 19 51 C17.02 51 15.04 51 13 51 Z " fill="#821518" transform="translate(195,272)"/>
<path d="M0 0 C16.83 0 33.66 0 51 0 C51 1.65 51 3.3 51 5 C44.54048014 5.05075859 38.08101183 5.08575822 31.62133789 5.10986328 C29.42437823 5.11991357 27.22743193 5.13355592 25.03051758 5.15087891 C21.87057192 5.17516969 18.71080332 5.18649294 15.55078125 5.1953125 C14.57039383 5.20563507 13.59000641 5.21595764 12.57991028 5.22659302 C4.15143641 5.22797609 4.15143641 5.22797609 0 3 C0 2.01 0 1.02 0 0 Z " fill="#E3252A" transform="translate(286,266)"/>
<path d="M0 0 C18.48 0 36.96 0 56 0 C56 2.97 56 5.94 56 9 C41.15 9.33 26.3 9.66 11 10 C10.67 11.32 10.34 12.64 10 14 C9.34 13.67 8.68 13.34 8 13 C8 12.01 8 11.02 8 10 C7.67 8.68 7.34 7.36 7 6 C22.84 6.33 38.68 6.66 55 7 C55 5.35 55 3.7 55 2 C38.17 2 21.34 2 4 2 C3.67 2.66 3.34 3.32 3 4 C2.01 3.34 1.02 2.68 0 2 C0 1.34 0 0.68 0 0 Z " fill="#6E1215" transform="translate(282,264)"/>
<path d="M0 0 C5 2 5 2 6.109375 3.84765625 C7.67180969 9.24948837 8.55467025 14.38884513 9 20 C2.25 24 2.25 24 0 24 C0 16.08 0 8.16 0 0 Z " fill="#C62024" transform="translate(261,242)"/>
<path d="M0 0 C4.62 0 9.24 0 14 0 C14 2.97 14 5.94 14 9 C12.30230469 9.03867187 12.30230469 9.03867187 10.5703125 9.078125 C9.08850257 9.13439626 7.60673323 9.19174382 6.125 9.25 C5.37863281 9.26417969 4.63226563 9.27835937 3.86328125 9.29296875 C1.42861619 9.35986341 1.42861619 9.35986341 -2 10 C-2.66 11.32 -3.32 12.64 -4 14 C-4.33 11.03 -4.66 8.06 -5 5 C-2.525 5.99 -2.525 5.99 0 7 C0 4.69 0 2.38 0 0 Z " fill="#C01F24" transform="translate(204,290)"/>
<path d="M0 0 C3.28740903 2.94136598 3.95892025 4.37353377 4.25 8.8125 C4.1675 9.864375 4.085 10.91625 4 12 C0.7 11.67 -2.6 11.34 -6 11 C-6.33 9.68 -6.66 8.36 -7 7 C-7.66 7.66 -8.32 8.32 -9 9 C-9.99 9 -10.98 9 -12 9 C-12.33 8.01 -12.66 7.02 -13 6 C-8.84171349 0.3806939 -6.97526351 -1.95307378 0 0 Z " fill="#A31B1E" transform="translate(226,242)"/>
<path d="M0 0 C0.99 0.66 1.98 1.32 3 2 C5.64632287 1.6878236 5.64632287 1.6878236 8 1 C7.690625 1.5775 7.38125 2.155 7.0625 2.75 C5.80714968 5.21905868 5.80714968 5.21905868 5 9 C-1.27 9 -7.54 9 -14 9 C-12.85240511 4.40962044 -11.70960782 3.66330818 -8 1 C-8 1.66 -8 2.32 -8 3 C-5.36 3 -2.72 3 0 3 C0 2.01 0 1.02 0 0 Z " fill="#DC2429" transform="translate(215,322)"/>
<path d="M0 0 C1.16781006 0.00523682 2.33562012 0.01047363 3.53881836 0.01586914 C4.79887695 0.0190918 6.05893555 0.02231445 7.35717773 0.02563477 C8.6976732 0.03399136 10.03816799 0.04245632 11.37866211 0.05102539 C12.72306153 0.05603879 14.06746271 0.06060197 15.41186523 0.06469727 C18.71334151 0.07653051 22.01473014 0.09301568 25.31616211 0.11352539 C25.64616211 1.43352539 25.97616211 2.75352539 26.31616211 4.11352539 C25.5139624 4.13858154 24.7117627 4.1636377 23.88525391 4.18945312 C20.25789137 4.30534582 16.63079293 4.4281029 13.00366211 4.55102539 C11.74102539 4.5903418 10.47838867 4.6296582 9.17749023 4.67016602 C7.36474609 4.73300781 7.36474609 4.73300781 5.51538086 4.79711914 C3.84221802 4.85210571 3.84221802 4.85210571 2.13525391 4.90820312 C-0.7625736 5.00283748 -0.7625736 5.00283748 -3.68383789 6.11352539 C-3.72655889 4.44740634 -3.72447621 2.77969654 -3.68383789 1.11352539 C-2.68383789 0.11352539 -2.68383789 0.11352539 0 0 Z " fill="#771416" transform="translate(214.683837890625,262.886474609375)"/>
<path d="M0 0 C4.29 0 8.58 0 13 0 C13.33 1.32 13.66 2.64 14 4 C11.89930555 6.58085318 9.94443762 8.45161686 7.0625 10.125 C3.4991329 9.90903836 1.54579511 7.37221817 -1 5 C-0.67 3.35 -0.34 1.7 0 0 Z " fill="#A01A1E" transform="translate(204,302)"/>
<path d="M0 0 C0 4.95 0 9.9 0 15 C-6 15 -6 15 -7.875 13.875 C-9.58353009 11.02744985 -9.52187626 9.26172661 -9 6 C-3.93333333 0 -3.93333333 0 0 0 Z " fill="#AC1C20" transform="translate(247,231)"/>
<path d="M0 0 C0.66 0.99 1.32 1.98 2 3 C-4.69669806 6.53098625 -11.30771328 10 -19 10 C-19.0625 7.75 -19.0625 7.75 -18 5 C-15.14276695 3.29375759 -12.098131 2.19238991 -9 1 C-8.29746094 0.62875 -7.59492188 0.2575 -6.87109375 -0.125 C-4.23231142 -1.35900259 -2.71044589 -0.9272578 0 0 Z " fill="#99191C" transform="translate(276,266)"/>
<path d="M0 0 C2.31 0 4.62 0 7 0 C7 0.66 7 1.32 7 2 C7.66 2.33 8.32 2.66 9 3 C8.50757813 3.48082031 8.01515625 3.96164062 7.5078125 4.45703125 C5.30654821 8.1695262 5.71288243 11.46187024 5.875 15.6875 C5.95249181 18.46125114 5.99410079 21.22442036 6 24 C5.67 24.33 5.34 24.66 5 25 C5.66 25.99 6.32 26.98 7 28 C6.9765625 30.26171875 6.9765625 30.26171875 6.625 32.6875 C6.51414063 33.49574219 6.40328125 34.30398438 6.2890625 35.13671875 C6.19367188 35.75160156 6.09828125 36.36648438 6 37 C3.07258402 34.55537776 3.07258402 34.55537776 2.7421875 32.02734375 C2.78601563 31.33769531 2.82984375 30.64804687 2.875 29.9375 C3.30545686 26.2147732 3.30545686 26.2147732 2 24 C1.76285472 20.8597182 1.8148166 17.71076199 1.8125 14.5625 C1.80025391 13.69044922 1.78800781 12.81839844 1.77539062 11.91992188 C1.77345703 11.08138672 1.77152344 10.24285156 1.76953125 9.37890625 C1.76542236 8.6113501 1.76131348 7.84379395 1.75708008 7.05297852 C2 5 2 5 4 2 C2.68 1.34 1.36 0.68 0 0 Z " fill="#5B0F11" transform="translate(195,272)"/>
<path d="M0 0 C21.00917431 -0.19877676 21.00917431 -0.19877676 30 1 C30 1.99 30 2.98 30 4 C26.50007197 4.05869332 23.0002728 4.09382709 19.5 4.125 C18.02660156 4.15013672 18.02660156 4.15013672 16.5234375 4.17578125 C10.64081335 4.21499874 5.63635497 3.70432638 0 2 C0 1.34 0 0.68 0 0 Z " fill="#A01A1E" transform="translate(216,268)"/>
<path d="M0 0 C0 1.32 0 2.64 0 4 C-1.9765625 5.921875 -1.9765625 5.921875 -4.625 7.75 C-5.91277344 8.67039063 -5.91277344 8.67039063 -7.2265625 9.609375 C-10.39735548 11.1992374 -12.49960288 11.26689245 -16 11 C-16 9.68 -16 8.36 -16 7 C-13.5 5.25 -13.5 5.25 -11 4 C-11.99 3.34 -12.98 2.68 -14 2 C-13.0925 2.04125 -12.185 2.0825 -11.25 2.125 C-6.94065444 1.95925594 -4.38990744 0 0 0 Z " fill="#8C171A" transform="translate(249,223)"/>
<path d="M0 0 C3.375 -0.125 3.375 -0.125 7 0 C9.39763185 2.39763185 9.34280586 3.33273498 9.625 6.625 C9.69976562 7.44226563 9.77453125 8.25953125 9.8515625 9.1015625 C9.92503906 10.04128906 9.92503906 10.04128906 10 11 C9.34 10.34 8.68 9.68 8 9 C8 11.31 8 13.62 8 16 C6.5 14.875 6.5 14.875 5 13 C4.8125 9.8125 4.8125 9.8125 5 7 C2.69 6.34 0.38 5.68 -2 5 C-1.34 3.35 -0.68 1.7 0 0 Z " fill="#8D171A" transform="translate(225,233)"/>
<path d="M0 0 C0.66 0.33 1.32 0.66 2 1 C2.33 1.99 2.66 2.98 3 4 C3.99 3.34 4.98 2.68 6 2 C5.979375 2.86625 5.95875 3.7325 5.9375 4.625 C5.99738956 7.85903648 6.39580933 10.82799897 7 14 C5.02253397 14.73080266 3.01927511 15.39421747 1 16 C0.34 15.67 -0.32 15.34 -1 15 C-1.04241723 12.66705225 -1.04092937 10.33297433 -1 8 C-0.67 7.67 -0.34 7.34 0 7 C0.04092937 4.66702567 0.04241723 2.33294775 0 0 Z " fill="#8F171A" transform="translate(184,274)"/>
<path d="M0 0 C3.29680965 0.65784963 5.84117922 1.89420573 8.75 3.5625 C9.94882813 4.24505859 9.94882813 4.24505859 11.171875 4.94140625 C11.77515625 5.29074219 12.3784375 5.64007813 13 6 C11.51153846 10.71346154 11.51153846 10.71346154 8.921875 12.1640625 C7.97054687 12.57785156 7.97054687 12.57785156 7 13 C6.01364163 11.58833114 5.03618745 10.17043816 4.0625 8.75 C3.51722656 7.96109375 2.97195312 7.1721875 2.41015625 6.359375 C1.10377559 4.17363007 0.45019489 2.4846199 0 0 Z " fill="#9B191D" transform="translate(243,260)"/>
<path d="M0 0 C0.66 0 1.32 0 2 0 C1.75239109 4.20935149 1.41897739 6.47627827 -1.25 9.8125 C-3.82462064 11.86049369 -5.88245779 13.02020102 -9 14 C-8.835 13.401875 -8.67 12.80375 -8.5 12.1875 C-7.8885876 9.88655664 -7.8885876 9.88655664 -8 7 C-4.66666667 4 -4.66666667 4 -2 4 C-1.34 2.68 -0.68 1.36 0 0 Z " fill="#821518" transform="translate(287,281)"/>
<path d="M0 0 C3.96 0 7.92 0 12 0 C12 1.65 12 3.3 12 5 C11.34 5 10.68 5 10 5 C10 5.66 10 6.32 10 7 C8.68 7.33 7.36 7.66 6 8 C6 7.34 6 6.68 6 6 C3.03 5.505 3.03 5.505 0 5 C0 3.35 0 1.7 0 0 Z " fill="#D92328" transform="translate(195,267)"/>
<path d="M0 0 C2.475 0.99 2.475 0.99 5 2 C4.67 2.66 4.34 3.32 4 4 C3.67 3.67 3.34 3.34 3 3 C2.67 9.27 2.34 15.54 2 22 C2.99 22.33 3.98 22.66 5 23 C3.35 23.33 1.7 23.66 0 24 C0 16.08 0 8.16 0 0 Z " fill="#4D0D0E" transform="translate(261,242)"/>
<path d="M0 0 C4.29 0 8.58 0 13 0 C13.33 1.32 13.66 2.64 14 4 C9.38 4 4.76 4 0 4 C0 2.68 0 1.36 0 0 Z " fill="#801518" transform="translate(204,285)"/>
<path d="M0 0 C-1.55500981 3.81684226 -4.03595495 6.19195732 -7 9 C-6.01 9.66 -5.02 10.32 -4 11 C-7.3 12.32 -10.6 13.64 -14 15 C-14.33 14.34 -14.66 13.68 -15 13 C-14.34 13 -13.68 13 -13 13 C-12.7628125 12.43796875 -12.525625 11.8759375 -12.28125 11.296875 C-10.71052303 8.48105958 -8.78528536 6.52044584 -6.5 4.25 C-5.7059375 3.45078125 -4.911875 2.6515625 -4.09375 1.828125 C-2 0 -2 0 0 0 Z " fill="#740E12" transform="translate(205,181)"/>
<path d="M0 0 C-3.9050849 3.55007718 -6.97734643 4.81819916 -12 6 C-12 5.34 -12 4.68 -12 4 C-14.64 4.33 -17.28 4.66 -20 5 C-16.6109639 2.7406426 -13.32015989 1.82999933 -9.4375 0.8125 C-8.75236328 0.62236328 -8.06722656 0.43222656 -7.36132812 0.23632812 C-2.24740751 -1.12370376 -2.24740751 -1.12370376 0 0 Z " fill="#911816" transform="translate(294,383)"/>
<path d="M0 0 C0.33 1.65 0.66 3.3 1 5 C1.66 5 2.32 5 3 5 C7.66666667 5 12.33333333 5 17 5 C17 5.33 17 5.66 17 6 C12.71 6 8.42 6 4 6 C4 7.65 4 9.3 4 11 C0.46413986 7.82679218 -1.58578031 5.83256305 -2 1 C-3.65 1.33 -5.3 1.66 -7 2 C-7 1.34 -7 0.68 -7 0 C-4.3333581 -1.33332095 -2.83319697 -0.67102033 0 0 Z " fill="#300809" transform="translate(191,261)"/>
<path d="M0 0 C2.31 1.65 4.62 3.3 7 5 C6.01 5.33 5.02 5.66 4 6 C3.34 5.34 2.68 4.68 2 4 C1.67 4.66 1.34 5.32 1 6 C-1.64 6 -4.28 6 -7 6 C-6.67 4.68 -6.34 3.36 -6 2 C-4.02 2 -2.04 2 0 2 C0 1.34 0 0.68 0 0 Z M-6 4 C-6 4.33 -6 4.66 -6 5 C-4.02 5 -2.04 5 0 5 C0 4.67 0 4.34 0 4 C-1.98 4 -3.96 4 -6 4 Z " fill="#4F0D0F" transform="translate(214,319)"/>
<path d="M0 0 C9.24 0 18.48 0 28 0 C28 0.33 28 0.66 28 1 C15.625 1.495 15.625 1.495 3 2 C2.67 2.99 2.34 3.98 2 5 C1.34 5 0.68 5 0 5 C0 3.35 0 1.7 0 0 Z " fill="#C42024" transform="translate(211,264)"/>
<path d="M0 0 C0.99 0.33 1.98 0.66 3 1 C3 1.66 3 2.32 3 3 C3.804375 3.2475 4.60875 3.495 5.4375 3.75 C8 5 8 5 8.9375 6.875 C9.01313204 9.44648926 8.2016421 10.7650392 7 13 C5.82786955 11.21190303 4.66244474 9.41940875 3.5 7.625 C2.8503125 6.62726563 2.200625 5.62953125 1.53125 4.6015625 C0 2 0 2 0 0 Z " fill="#8B3E13" transform="translate(343,190)"/>
<path d="M0 0 C0.66 1.32 1.32 2.64 2 4 C-6.91 4 -15.82 4 -25 4 C-25.33 3.34 -25.66 2.68 -26 2 C-17.42 2 -8.84 2 0 2 C0 1.34 0 0.68 0 0 Z " fill="#230607" transform="translate(246,270)"/>
<path d="M0 0 C5.44693314 -0.09688221 10.63904667 -0.12862175 16 1 C16 1.66 16 2.32 16 3 C16.99 3.66 17.98 4.32 19 5 C12.51527007 4.26309887 6.30760257 2.64681249 0 1 C0 0.67 0 0.34 0 0 Z " fill="#884F10" transform="translate(168,493)"/>
<path d="M0 0 C1.85776765 3.13498292 2.20140476 5.37471432 2 9 C-0.62187494 7.95125002 -1.79371361 7.35068687 -3.25 4.875 C-3.4975 4.25625 -3.745 3.6375 -4 3 C-2.68 2.01 -1.36 1.02 0 0 Z " fill="#6A1214" transform="translate(217,310)"/>
<path d="M0 0 C1.98 0.495 1.98 0.495 4 1 C4.33 2.65 4.66 4.3 5 6 C3.02 6 1.04 6 -1 6 C-0.67 4.02 -0.34 2.04 0 0 Z " fill="#A41B1E" transform="translate(209,315)"/>
<path d="M0 0 C1.10844919 3.32534757 0.84454356 5.62182575 0 9 C0.66 9 1.32 9 2 9 C1.1875 11.4375 1.1875 11.4375 0 14 C-0.99 14.33 -1.98 14.66 -3 15 C-2.69052329 13.06201479 -2.37731166 11.12462574 -2.0625 9.1875 C-1.88847656 8.10855469 -1.71445313 7.02960938 -1.53515625 5.91796875 C-1 3 -1 3 0 0 Z " fill="#53230C" transform="translate(151,213)"/>
<path d="M0 0 C1.32 0.66 2.64 1.32 4 2 C4 6 4 6 2.5 7.75 C1.7575 8.36875 1.7575 8.36875 1 9 C0.34 8.67 -0.32 8.34 -1 8 C-0.67 5.36 -0.34 2.72 0 0 Z " fill="#771416" transform="translate(203,310)"/>
<path d="M0 0 C0.66 0.33 1.32 0.66 2 1 C1.195625 1.45375 0.39125 1.9075 -0.4375 2.375 C-3.08856572 3.74725665 -3.08856572 3.74725665 -4 6 C-2.68 6.33 -1.36 6.66 0 7 C-2.97 6.67 -5.94 6.34 -9 6 C-9 5.34 -9 4.68 -9 4 C-7.54618103 3.30300448 -6.08677047 2.61766134 -4.625 1.9375 C-3.40683594 1.36322266 -3.40683594 1.36322266 -2.1640625 0.77734375 C-1.44992188 0.52082031 -0.73578125 0.26429688 0 0 Z " fill="#570E10" transform="translate(159,266)"/>
<path d="M0 0 C0.99 0 1.98 0 3 0 C2.6875 3.375 2.6875 3.375 2 7 C1.01 7.66 0.02 8.32 -1 9 C-1.09765625 2.84765625 -1.09765625 2.84765625 -1 1 C-0.67 0.67 -0.34 0.34 0 0 Z " fill="#6D1214" transform="translate(253,219)"/>
<path d="M0 0 C0 0.99 0 1.98 0 3 C0.31088368 4.67099977 0.64080332 6.33871537 1 8 C-0.98 8.99 -2.96 9.98 -5 11 C-4.54917531 9.53932801 -4.08906463 8.08151968 -3.625 6.625 C-3.36976562 5.81289062 -3.11453125 5.00078125 -2.8515625 4.1640625 C-2 2 -2 2 0 0 Z " fill="#8A3713" transform="translate(35,153)"/>
<path d="M0 0 C3.26954202 0.56371414 4.82575883 1.49962266 7 4 C6.01 4 5.02 4 4 4 C4.33 5.65 4.66 7.3 5 9 C1.9083091 6.47043472 1.09068668 3.77545388 0 0 Z " fill="#540E10" transform="translate(243,260)"/>
<path d="M0 0 C0.66 0.33 1.32 0.66 2 1 C-0.31 3.31 -2.62 5.62 -5 8 C-5.33 7.01 -5.66 6.02 -6 5 C-4.21653709 1.96811304 -3.40424844 1.13474948 0 0 Z " fill="#99191C" transform="translate(257,227)"/>
<path d="M0 0 C1.32 0.33 2.64 0.66 4 1 C3.38125 1.5775 2.7625 2.155 2.125 2.75 C0.18652947 4.80249821 -0.90014249 6.43366582 -2 9 C-2.25 3.375 -2.25 3.375 0 0 Z " fill="#8C171A" transform="translate(240,234)"/>
<path d="M0 0 C0.6875 1.625 0.6875 1.625 1 4 C-0.4375 7.25 -0.4375 7.25 -2 10 C-2.66 9.67 -3.32 9.34 -4 9 C-2.94124926 5.59687262 -1.99097846 2.98646769 0 0 Z " fill="#E15420" transform="translate(38,149)"/>
<path d="M0 0 C-1.04874998 2.62187494 -1.64931313 3.79371361 -4.125 5.25 C-4.74375 5.4975 -5.3625 5.745 -6 6 C-3.84615385 0 -3.84615385 0 0 0 Z " fill="#7E1517" transform="translate(251,278)"/>
<path d="M0 0 C0 2.97 0 5.94 0 9 C-0.66 8.34 -1.32 7.68 -2 7 C-2 5.68 -2 4.36 -2 3 C-2.66 2.67 -3.32 2.34 -4 2 C-1 0 -1 0 0 0 Z " fill="#9D1A1D" transform="translate(222,296)"/>
<path d="M0 0 C0.66 1.32 1.32 2.64 2 4 C-1.3 3.67 -4.6 3.34 -8 3 C-8 2.67 -8 2.34 -8 2 C-5.36 2 -2.72 2 0 2 C0 1.34 0 0.68 0 0 Z " fill="#510D0F" transform="translate(246,270)"/>
</svg>
