<?xml version="1.0" encoding="UTF-8"?>
<svg version="1.1" xmlns="http://www.w3.org/2000/svg" width="399" height="351">
<path d="M0 0 C131.67 0 263.34 0 399 0 C399 115.83 399 231.66 399 351 C267.33 351 135.66 351 0 351 C0 235.17 0 119.34 0 0 Z " fill="#FDFDFD" transform="translate(0,0)"/>
<path d="M0 0 C23.41265564 9.94882861 48.47082382 15.34825623 73.29272461 20.50341797 C79.32893991 21.78344196 79.32893991 21.78344196 82.16796875 23.4453125 C84.40736952 27.33992253 84.72746758 31.59669592 83.60546875 35.9453125 C80.04662257 39.67582844 76.71815801 40.68875315 71.73046875 41.6328125 C70.55742187 41.86355469 69.384375 42.09429687 68.17578125 42.33203125 C45.20810135 46.27724541 23.45138273 43.20378414 1.22705078 36.92724609 C-6.41742144 34.86155949 -14.70900857 33.38347161 -22.39453125 35.9453125 C-20.77870434 39.17696632 -17.39372499 39.63189024 -14.14453125 40.7578125 C-13.39671387 41.01916992 -12.64889648 41.28052734 -11.87841797 41.54980469 C-2.56280201 44.70019746 6.99208903 46.91359976 16.60546875 48.9453125 C17.42289551 49.13440186 18.24032227 49.32349121 19.08251953 49.51831055 C26.84779972 51.16449128 34.55442466 51.28391385 42.45507812 51.26098633 C44.70623197 51.25784631 46.95604063 51.28129607 49.20703125 51.30664062 C56.87134825 51.34084232 64.28535572 50.90834986 71.84765625 49.61328125 C72.53908722 49.4968074 73.23051819 49.38033356 73.94290161 49.2603302 C79.44233053 48.21713111 83.96365499 46.67833814 87.85546875 42.5703125 C91.10493326 37.69611574 91.84871718 33.98610984 91.73046875 28.1328125 C91.71242187 26.97136719 91.694375 25.80992187 91.67578125 24.61328125 C91.65257812 23.73285156 91.629375 22.85242188 91.60546875 21.9453125 C98.37633747 18.40676804 105.29694187 15.25544951 112.28662109 12.1809082 C116.49375824 10.33006212 120.68781401 8.45654886 124.86328125 6.53515625 C125.73807129 6.13458008 126.61286133 5.73400391 127.51416016 5.32128906 C129.18804693 4.55357841 130.85976813 3.78112022 132.52880859 3.00292969 C148.79820967 -4.42931276 148.79820967 -4.42931276 155.60546875 -2.0546875 C160.18173994 1.09785487 160.18173994 1.09785487 161.60546875 3.9453125 C162.24943053 8.54503951 162.22566279 11.91878444 159.79296875 15.9453125 C156.40733656 19.40660128 152.53540803 22.37752542 148.7578125 25.39453125 C145.33731151 28.13503362 142.03920504 31.00932796 138.73046875 33.8828125 C132.81859783 38.98179117 126.74510865 43.82508526 120.50195312 48.51269531 C118.37463013 50.11968956 116.26377046 51.74718119 114.15234375 53.375 C88.81398955 72.79765553 61.84060029 90.23809897 31.60546875 100.9453125 C30.57550781 101.32429688 29.54554688 101.70328125 28.484375 102.09375 C6.24035668 109.29909323 -16.76047381 98.93950608 -36.34594727 88.98413086 C-54.34842515 79.85326013 -71.36304664 73.9732563 -91.54882812 71.93261719 C-92.53818359 71.82981445 -93.52753906 71.72701172 -94.546875 71.62109375 C-95.43366943 71.53770752 -96.32046387 71.45432129 -97.23413086 71.3684082 C-99.39453125 70.9453125 -99.39453125 70.9453125 -101.39453125 68.9453125 C-101.46972656 65.93383789 -101.46972656 65.93383789 -101.22265625 62.04296875 C-101.18085739 61.34140152 -101.13905853 60.63983429 -101.09599304 59.91700745 C-100.95590592 57.61316115 -100.80053631 55.3106313 -100.64453125 53.0078125 C-100.54428238 51.42305976 -100.44475916 49.83826096 -100.34594727 48.25341797 C-100.04442797 43.48295521 -99.7208876 38.71412959 -99.39453125 33.9453125 C-99.29984726 32.53923335 -99.20527817 31.13314645 -99.11083984 29.72705078 C-98.85832116 26.00759374 -98.5982488 22.28881233 -98.33203125 18.5703125 C-98.25307617 17.46179932 -98.17412109 16.35328613 -98.09277344 15.21118164 C-98.01575195 14.18758545 -97.93873047 13.16398926 -97.859375 12.109375 C-97.79355225 11.22717285 -97.72772949 10.3449707 -97.65991211 9.43603516 C-97.38907704 6.89412219 -96.93472065 4.44267336 -96.39453125 1.9453125 C-95.62882812 2.27015625 -95.62882812 2.27015625 -94.84765625 2.6015625 C-86.92787604 5.63466981 -78.73446929 6.47185703 -70.64453125 3.5078125 C-65.2772778 1.09429106 -60.17192018 -1.89923244 -55.10253906 -4.88061523 C-36.24642803 -15.87379328 -18.35206173 -7.84019309 0 0 Z " fill="#1E3544" transform="translate(150.39453125,245.0546875)"/>
<path d="M0 0 C1.34752602 0.01441132 1.34752602 0.01441132 2.72227478 0.02911377 C5.67113564 0.06191213 8.61983932 0.10231657 11.56860352 0.14282227 C13.62125608 0.16714214 15.67391434 0.19098475 17.72657776 0.21437073 C23.11390715 0.27702586 28.50113478 0.34614461 33.8883667 0.41662598 C40.36034996 0.49994752 46.83243137 0.57521204 53.30449677 0.65183258 C63.12308993 0.76897089 72.94150306 0.8963202 82.76000977 1.02172852 C82.76000977 24.12172852 82.76000977 47.22172852 82.76000977 71.02172852 C71.54000977 71.35172852 60.32000977 71.68172852 48.76000977 72.02172852 C38.55243836 76.94205228 38.55243836 76.94205228 30.19750977 83.33422852 C29.11114395 84.29485298 28.02388879 85.25447253 26.93579102 86.21313477 C26.40679199 86.68509277 25.87779297 87.15705078 25.33276367 87.64331055 C22.91291626 89.76415166 20.39692276 91.76151086 17.88500977 93.77172852 C11.93442994 98.63568072 6.82500554 103.51820549 2.26000977 109.70922852 C-1.77998553 115.05039346 -6.47860255 118.19529436 -13.22045898 119.36547852 C-18.10092621 119.71099832 -20.7782397 119.10554826 -24.55249023 115.89672852 C-28.9740983 111.47512045 -32.39148004 107.85087832 -32.86499023 101.39672852 C-32.37662268 90.53868992 -24.67803484 81.24884434 -18.23999023 73.02172852 C-17.51875977 72.05106445 -17.51875977 72.05106445 -16.78295898 71.06079102 C-12.50533517 65.61205982 -6.91460306 61.90914122 -1.23999023 58.02172852 C-1.73755115 55.26531436 -1.73755115 55.26531436 -3.23999023 53.02172852 C-7.25988905 52.4735605 -8.93255701 52.82452879 -12.38842773 55.04125977 C-13.48065515 55.95259172 -14.55563616 56.88488368 -15.61499023 57.83422852 C-16.1837085 58.33414307 -16.75242676 58.83405762 -17.33837891 59.34912109 C-27.15758765 68.23901435 -32.67267305 79.22079289 -38.23999023 91.02172852 C-45.23388934 90.41337031 -51.56852037 88.04825609 -58.17358398 85.76782227 C-59.40665787 85.34751236 -60.63973175 84.92720245 -61.91017151 84.49415588 C-65.16870844 83.383362 -68.4246624 82.26518212 -71.68011475 81.14538574 C-75.01037894 80.00134204 -78.34305967 78.86438365 -81.67553711 77.72680664 C-88.19938871 75.49866518 -94.72053596 73.26270269 -101.23999023 71.02172852 C-101.26212375 69.60497086 -101.27777513 68.18811117 -101.29077148 66.77124023 C-101.30019775 65.98224335 -101.30962402 65.19324646 -101.31933594 64.38034058 C-101.19819004 60.7791856 -100.34118752 57.55997079 -99.23999023 54.14672852 C-99.01851318 53.45836914 -98.79703613 52.77000977 -98.56884766 52.06079102 C-93.34243076 36.93363904 -81.44025554 28.15140043 -67.61499023 21.14672852 C-66.13869141 20.38972656 -66.13869141 20.38972656 -64.63256836 19.61743164 C-44.29396697 9.36451241 -23.17198681 -0.35921987 0 0 Z " fill="#1D3443" transform="translate(260.239990234375,25.978271484375)"/>
<path d="M0 0 C3.28287097 0.62110991 6.3654329 1.63029012 9.5244751 2.71115112 C10.55453674 3.05940948 10.55453674 3.05940948 11.60540771 3.41470337 C13.08486304 3.91569191 14.5631793 4.42005468 16.04043579 4.92749023 C20.05725077 6.30693562 24.08261854 7.66110151 28.10650635 9.01974487 C28.93865158 9.30153091 29.77079681 9.58331696 30.62815857 9.87364197 C39.34499294 12.82076491 48.098597 15.65069606 56.85650635 18.47286987 C73.99879488 24.00537176 91.09163664 29.68092343 108.16900635 35.41036987 C108.29090332 36.30675171 108.41280029 37.20313354 108.53839111 38.12667847 C108.7065332 39.30053101 108.87467529 40.47438354 109.0479126 41.68380737 C109.29263306 43.43056763 109.29263306 43.43056763 109.54229736 45.21261597 C110.4636889 49.9139741 112.15088085 52.6914018 115.8291626 55.82443237 C116.27131104 56.34779175 116.71345947 56.87115112 117.16900635 57.41036987 C116.24204165 64.36260508 113.73595059 70.90532534 111.4776001 77.52365112 C109.57822841 83.11226804 107.87461094 88.75995914 106.16900635 94.41036987 C105.58892822 94.50833862 105.0088501 94.60630737 104.41119385 94.70724487 C99.03006805 95.73729536 95.57269443 97.18815908 91.16900635 100.41036987 C90.50900635 100.41036987 89.84900635 100.41036987 89.16900635 100.41036987 C88.85963135 101.02911987 88.55025635 101.64786987 88.23150635 102.28536987 C87.54400635 103.66036987 86.85650635 105.03536987 86.16900635 106.41036987 C78.78619563 105.84037346 72.17359175 103.67121097 65.16900635 101.34786987 C63.93150635 100.94374878 62.69400635 100.53962769 61.41900635 100.1232605 C52.68193525 97.26765407 43.96418191 94.35275419 35.24884033 91.43161011 C27.59364394 88.87019239 19.91762383 86.37734949 12.23150635 83.91036987 C11.07288086 83.53847534 9.91425537 83.16658081 8.72052002 82.78341675 C2.77428444 80.87797031 -3.17517687 78.9830487 -9.12786865 77.09786987 C-10.28681641 76.72984253 -11.44576416 76.36181519 -12.63983154 75.9826355 C-14.85168998 75.28067132 -17.06438895 74.58134881 -19.27801514 73.88497925 C-20.25842773 73.57367065 -21.23884033 73.26236206 -22.2489624 72.94161987 C-23.11287598 72.66898315 -23.97678955 72.39634644 -24.86688232 72.115448 C-26.83099365 71.41036987 -26.83099365 71.41036987 -27.83099365 70.41036987 C-28.12903416 68.53950175 -28.39418326 66.66335284 -28.64349365 64.78536987 C-29.57430456 58.9434895 -30.79360836 53.81933062 -35.64349365 49.97286987 C-36.83099365 48.41036987 -36.83099365 48.41036987 -36.69036865 45.24240112 C-35.8133312 39.15782563 -33.86056841 33.3413676 -31.92254639 27.52658081 C-31.48452097 26.19304767 -31.06110206 24.85463263 -30.65203857 23.51193237 C-27.23582266 12.30532698 -27.23582266 12.30532698 -23.81634521 10.12692261 C-21.6864624 9.60177612 -21.6864624 9.60177612 -17.83099365 9.41036987 C-12.8127221 7.50342668 -10.55511908 5.13448846 -7.71380615 0.73849487 C-5.07450112 -1.12325557 -3.07126372 -0.44723666 0 0 Z " fill="#377CBD" transform="translate(138.83099365234375,117.58963012695313)"/>
<path d="M0 0 C4.90313001 0.81552696 9.53810911 2.36845755 14.2578125 3.88671875 C15.6375676 4.32720047 15.6375676 4.32720047 17.04519653 4.77658081 C20.07270085 5.74408944 23.09887427 6.71568889 26.125 7.6875 C28.23401234 8.36266487 30.34306229 9.03771223 32.45214844 9.71264648 C48.45933029 14.84062904 64.44749669 20.02689289 80.42236328 25.25463867 C81.6642894 25.65991539 81.6642894 25.65991539 82.93130493 26.07337952 C84.55115981 26.60394747 86.1696745 27.13862745 87.78671265 27.67771912 C91.95910895 29.05889387 96.13248601 30.32445502 100.38085938 31.45263672 C101.25691833 31.69642563 102.13297729 31.94021454 103.0355835 32.19139099 C104.70753165 32.65322955 106.38721493 33.0882135 108.07427979 33.49134827 C110.31702874 34.12529127 112.07062862 34.68935431 114 36 C115.31910146 38.61424692 115.65922085 41.11721193 116 44 C116.31669001 45.33738413 116.64542023 46.67215887 117 48 C112.15707858 47.34086787 107.67674923 46.0234473 103.06640625 44.453125 C102.31141342 44.20004578 101.55642059 43.94696655 100.77854919 43.68621826 C98.37174773 42.87838895 95.96710235 42.06434899 93.5625 41.25 C91.98256332 40.7183295 90.40248624 40.187076 88.82226562 39.65625 C85.70909965 38.60981885 82.59646305 37.56183962 79.484375 36.51220703 C78.73567139 36.25973206 77.98696777 36.00725708 77.21557617 35.74713135 C75.76242303 35.25710249 74.30929708 34.76699297 72.85620117 34.27679443 C65.89651825 31.93171949 58.94406092 29.62114671 51.875 27.625 C41.81265425 24.73652332 31.91048178 21.36673266 22 18 C21.61134766 19.62808594 21.61134766 19.62808594 21.21484375 21.2890625 C20.03609705 24.8897357 19.4516752 26.12579264 16.5625 28.375 C15.96566406 28.85710937 15.36882812 29.33921875 14.75390625 29.8359375 C10.95468305 32.35747094 7.42354229 32.16085608 3 32 C2.34 31.67 1.68 31.34 1 31 C0.84942139 31.58450928 0.69884277 32.16901855 0.54370117 32.77124023 C-2.10823645 42.78914861 -5.31621856 52.63000309 -8.46508789 62.49975586 C-9.21217869 64.8441405 -9.95585121 67.18958887 -10.69921875 69.53515625 C-10.93041916 70.25590836 -11.16161957 70.97666046 -11.39982605 71.71925354 C-12.58958018 75.28939505 -12.58958018 75.28939505 -13 79 C-12.071875 79.598125 -11.14375 80.19625 -10.1875 80.8125 C-6.77009481 83.15777807 -5.47014078 84.16129908 -4 88 C-3.58959036 93.10731995 -3.5570407 98.05437336 -5 103 C-4.31550781 103.12076904 -3.63101563 103.24153809 -2.92578125 103.3659668 C0.40664856 104.08812302 3.57064505 105.08666972 6.8125 106.14453125 C7.78775635 106.46111946 7.78775635 106.46111946 8.78271484 106.78410339 C10.85601392 107.45759397 12.92806384 108.1348294 15 108.8125 C17.70786799 109.69544433 20.41628573 110.57668683 23.125 111.45703125 C23.79607788 111.67541656 24.46715576 111.89380188 25.15856934 112.11880493 C29.25032075 113.4461671 33.35283196 114.72948994 37.46875 115.98046875 C45.91260627 118.55930679 54.26727109 121.40246071 62.63427734 124.21826172 C70.66348236 126.91800589 78.70101004 129.54470165 86.80664062 132.00830078 C93.78035408 134.17399069 100.68303694 136.56203751 107.59765625 138.90820312 C108.74105469 139.29298828 109.88445312 139.67777344 111.0625 140.07421875 C112.08472656 140.42057373 113.10695312 140.76692871 114.16015625 141.1237793 C116.76554062 141.92765864 119.3179823 142.52172735 122 143 C122.1546875 141.9171875 122.1546875 141.9171875 122.3125 140.8125 C123.50843583 135.92003526 125.11394407 133.63046287 129.25 130.6875 C132.8874369 128.77630434 135.89055493 128.60486105 140 129 C140.99 129.33 141.98 129.66 143 130 C143.08507812 129.10152344 143.17015625 128.20304688 143.2578125 127.27734375 C144.08275465 121.52156318 146.07032689 116.07031057 147.875 110.5625 C148.22691406 109.46873047 148.57882813 108.37496094 148.94140625 107.24804688 C150.82321616 101.4382211 152.83134423 95.70800496 155 90 C155.71584671 87.67692228 156.36439225 85.34685939 157 83 C156.44570313 82.55269531 155.89140625 82.10539062 155.3203125 81.64453125 C147.4410288 75.06911478 147.4410288 75.06911478 146.79296875 69.08984375 C146.56451733 64.56312126 147.00698682 61.59161581 150 58 C151.96147874 56.61061923 153.96166576 55.2739589 156 54 C157.02104551 53.02149805 158.02641818 52.02573799 159 51 C160.50109768 51.4337188 162.00081177 51.87222635 163.5 52.3125 C164.3353125 52.55613281 165.170625 52.79976562 166.03125 53.05078125 C169.74266426 54.23745712 173.3593121 55.6114043 177 57 C176.09255091 60.29427661 175.17230492 63.58485456 174.25 66.875 C173.87101562 68.25171875 173.87101562 68.25171875 173.484375 69.65625 C173.09765625 71.02910156 173.09765625 71.02910156 172.703125 72.4296875 C172.47270508 73.25710449 172.24228516 74.08452148 172.00488281 74.93701172 C171.13683636 77.5829084 170.15932138 80.1085963 169.10546875 82.68359375 C166.98393071 87.92127381 165.26143871 93.23145505 163.609375 98.6328125 C163.30346939 99.62058182 162.99756378 100.60835114 162.68238831 101.62605286 C162.03454636 103.71822501 161.3883 105.81089182 160.74356079 107.90402222 C159.07972046 113.29794756 157.39590991 118.6856425 155.71484375 124.07421875 C153.14434685 132.31958008 153.14434685 132.31958008 150.58642578 140.56884766 C149.51440187 144.03130922 148.41700008 147.48524625 147.3125 150.9375 C147.0227832 151.88705566 146.73306641 152.83661133 146.43457031 153.81494141 C144.50948884 159.73325073 144.50948884 159.73325073 142.35253906 160.86254883 C138.89975376 161.06428379 135.96644988 159.96547484 132.74609375 158.859375 C131.66618164 158.50283844 131.66618164 158.50283844 130.56445312 158.13909912 C129.00458701 157.62289729 127.44627611 157.1019774 125.88937378 156.5769043 C122.55199342 155.45135934 119.20745108 154.34789018 115.86305237 153.2434082 C114.13143141 152.67144449 112.40018308 152.09835148 110.66929626 151.52416992 C102.99887503 148.9837754 95.29466288 146.5609721 87.57809448 144.16516113 C68.96094235 138.38012987 50.47679373 132.21617508 32 126 C26.10542525 124.0170692 20.21009954 122.03641873 14.3125 120.0625 C13.26956787 119.71333527 13.26956787 119.71333527 12.20556641 119.3571167 C3.39182967 116.41079705 -5.43918899 113.59818044 -14.37890625 111.05859375 C-20.64834279 109.22578113 -26.8172426 107.10417068 -33 105 C-30.32975284 93.54039177 -26.98152303 82.44604777 -23.1875 71.3125 C-22.65030854 69.71986487 -22.11377557 68.12700748 -21.57788086 66.53393555 C-20.28565087 62.69593818 -18.98750931 58.85998084 -17.68664551 55.02490234 C-16.1375613 50.45668744 -14.59579667 45.88603715 -13.0625 41.3125 C-12.78962158 40.49869873 -12.51674316 39.68489746 -12.2355957 38.84643555 C-10.27831516 32.95757936 -8.49654203 27.02774435 -6.78271484 21.06396484 C-4.73462407 13.97020106 -2.38950927 6.98550157 0 0 Z " fill="#3A7DBE" transform="translate(107,90)"/>
<path d="M0 0 C0.76171509 -0.00145523 1.52343018 -0.00291046 2.30822754 -0.00440979 C3.9153222 -0.00275314 5.5224331 0.00878215 7.12939453 0.02954102 C9.58564826 0.05849824 12.03974269 0.05014629 14.49609375 0.03710938 C16.0599063 0.04334724 17.62371204 0.05173857 19.1875 0.0625 C19.91988892 0.05956436 20.65227783 0.05662872 21.40686035 0.05360413 C24.2433283 0.10593511 26.66145128 0.31333564 29.28761292 1.42356873 C32.2740207 4.85044308 31.64116695 8.66879705 31.59545898 13.06054688 C31.60086197 14.0412767 31.60626495 15.02200653 31.61183167 16.03245544 C31.62436038 19.28105656 31.60779999 22.52877861 31.58984375 25.77734375 C31.58999864 28.0303146 31.59148597 30.28328573 31.59425354 32.53625488 C31.5956394 37.26078045 31.58304802 41.98500312 31.56030273 46.70947266 C31.53191784 52.77275114 31.53465308 58.83552612 31.54739285 64.89884186 C31.55433986 69.55190347 31.54657189 74.20484821 31.53413582 78.8578949 C31.52961182 81.09386243 31.52929276 83.32984246 31.53320122 85.56581116 C31.53610381 88.68801699 31.51965164 91.80952308 31.49780273 94.93164062 C31.50230438 95.86056625 31.50680603 96.78949188 31.51144409 97.74656677 C31.50153946 98.59618484 31.49163483 99.44580292 31.48143005 100.32116699 C31.47900016 101.05931389 31.47657026 101.79746078 31.47406673 102.55797577 C30.97715267 105.09028108 30.15236511 105.97077214 28.09375 107.49609375 C25.25907474 107.80653496 22.64845714 107.94030068 19.8125 107.9296875 C19.0026062 107.93492935 18.1927124 107.9401712 17.35827637 107.9455719 C15.64690294 107.95199192 13.93548538 107.95065532 12.22412109 107.94213867 C9.60304411 107.93362394 6.98414308 107.96239497 4.36328125 107.99414062 C2.70052149 107.9957526 1.03775786 107.99517517 -0.625 107.9921875 C-1.40943481 108.00342148 -2.19386963 108.01465546 -3.0020752 108.02622986 C-8.35946674 107.9574649 -8.35946674 107.9574649 -10.61158752 106.05714417 C-12.6005414 102.1226738 -12.33193875 98.3675059 -12.31030273 94.01757812 C-12.31716599 93.0578157 -12.32402924 92.09805328 -12.33110046 91.10920715 C-12.34940564 87.93593565 -12.34552595 84.76315673 -12.33984375 81.58984375 C-12.34440343 79.38553709 -12.34970835 77.18123186 -12.35572815 74.97692871 C-12.36466632 70.35679347 -12.36222762 65.73683102 -12.35229492 61.11669922 C-12.3407985 55.19136229 -12.36102387 49.2666207 -12.39021206 43.341362 C-12.40854235 38.7894918 -12.40828801 34.23776514 -12.40257454 29.68586731 C-12.40242097 27.5009528 -12.40849472 25.31602878 -12.42086601 23.13114929 C-12.4357158 20.0785872 -12.42514319 17.02713628 -12.40795898 13.97460938 C-12.41762695 13.06955154 -12.42729492 12.16449371 -12.43725586 11.23200989 C-12.36539568 5.14714912 -12.36539568 5.14714912 -10.10011292 1.93504333 C-6.86328018 -0.18798773 -3.742654 -0.05740788 0 0 Z " fill="#1E3545" transform="translate(366.90625,5.50390625)"/>
<path d="M0 0 C7.54385572 0.55109675 14.7557699 1.88895347 22.125 3.5625 C23.176875 3.79646484 24.22875 4.03042969 25.3125 4.27148438 C27.87620856 4.84249219 30.43837214 5.4197538 33 6 C33.18577059 14.95333144 32.59920756 23.8116654 31.90625 32.73046875 C31.79378927 34.21687653 31.68169449 35.70331204 31.56994629 37.18977356 C31.27766136 41.06478717 30.9804718 44.93940886 30.68218994 48.81396484 C30.37755813 52.78264894 30.07766203 56.75169071 29.77734375 60.72070312 C29.18947849 68.48082243 28.59642107 76.24053307 28 84 C22.56930732 84.06905079 17.2574316 83.93773148 11.84765625 83.37890625 C10.57728516 83.24806641 9.30691406 83.11722656 7.99804688 82.98242188 C6.69931641 82.84384766 5.40058594 82.70527344 4.0625 82.5625 C2.72334083 82.42610266 1.38414827 82.29003259 0.04492188 82.15429688 C-9.74175824 81.12912088 -9.74175824 81.12912088 -12 80 C-12.16463767 74.4098029 -11.54532236 69.19616027 -10.625 63.6875 C-10.49867187 62.89666016 -10.37234375 62.10582031 -10.2421875 61.29101562 C-9.57401675 57.17842465 -8.82737443 53.09288955 -7.98828125 49.01171875 C-6.98444178 44.07169613 -6.24432725 39.11835373 -5.5625 34.125 C-5.30651908 32.29680078 -5.04999354 30.46867775 -4.79296875 28.640625 C-4.59840088 27.25133789 -4.59840088 27.25133789 -4.39990234 25.83398438 C-3.74294099 21.17830217 -3.06350089 16.52611128 -2.375 11.875 C-2.2519751 11.02824707 -2.1289502 10.18149414 -2.00219727 9.30908203 C-1.52475807 6.09781746 -1.02886437 3.08659311 0 0 Z " fill="#1E3545" transform="translate(12,234)"/>
<path d="M0 0 C6.08598805 4.89525126 11.39189954 10.4335288 12.875 18.3125 C13.83984108 27.70764003 13.05915535 35.97122205 7.109375 43.56640625 C1.49380908 49.56887139 -5.07635527 53.76927111 -13.38671875 54.515625 C-23.27157489 54.70663671 -30.84126099 52.1191382 -38.125 45.3125 C-44.71195521 37.88963677 -45.77777551 29.94079053 -45.48828125 20.296875 C-45.03593869 13.51333496 -42.63484503 8.82234503 -37.84765625 4.03515625 C-25.98820121 -6.07004966 -13.79073816 -7.4469986 0 0 Z " fill="#F8FBFC" transform="translate(195.125,145.6875)"/>
<path d="M0 0 C2.97 0.495 2.97 0.495 6 1 C6.2475 1.886875 6.495 2.77375 6.75 3.6875 C7.81921448 7.06487647 7.81921448 7.06487647 10.125 9.5625 C12.26340185 12.34242241 12.39033395 13.58457791 12 17 C9.36 17 6.72 17 4 17 C3.6596875 15.7934375 3.6596875 15.7934375 3.3125 14.5625 C2.879375 13.716875 2.44625 12.87125 2 12 C-0.54775306 11.10613836 -0.54775306 11.10613836 -3 11 C-1.64914883 15.30491033 0.03902029 17.08612936 3.625 19.75 C7.77751221 23.28732522 7.77751221 23.28732522 8.73046875 26.33984375 C8.87165204 30.38037517 8.28845248 32.53847604 6.125 36 C2.17322183 39.71932063 -0.7686532 39.08437656 -6 39 C-6.33 40.32 -6.66 41.64 -7 43 C-8.98 42.67 -10.96 42.34 -13 42 C-12.896875 41.278125 -12.79375 40.55625 -12.6875 39.8125 C-12.71968637 36.76804582 -12.71968637 36.76804582 -15.4375 34.6875 C-18.88685439 31.06988442 -18.75101299 28.89674444 -19 24 C-16.03 24 -13.06 24 -10 24 C-9.34 25.98 -8.68 27.96 -8 30 C-6.35 30.33 -4.7 30.66 -3 31 C-3 29.68 -3 28.36 -3 27 C-4.41897168 25.60923406 -4.41897168 25.60923406 -6.3125 24.5625 C-9.56236622 22.39811541 -11.49457374 20.71928841 -13 17 C-13.4898067 13.63257892 -13.7490388 11.24007534 -11.9453125 8.25390625 C-10.16770219 6.06081898 -8.54414063 4.27207031 -6 3 C-4.00039988 2.960008 -1.99952758 2.95653201 0 3 C0 2.01 0 1.02 0 0 Z " fill="#3C7FBE" transform="translate(182,149)"/>
<path d="M0 0 C2.13914895 1.60191976 2.88865087 2.49614518 3.46875 5.12109375 C3.55229432 11.31381615 3.55229432 11.31381615 0.9375 14.5625 C-2.80023996 16.39160679 -4.88971216 16.73397997 -9 16 C-12 13.4375 -12 13.4375 -14 10 C-14.1477901 5.71408714 -13.66807245 3.80978479 -10.9375 0.5 C-6.71446317 -1.65644434 -4.59313809 -1.11124309 0 0 Z " fill="#F5F8FB" transform="translate(240,181)"/>
<path d="M0 0 C2.9375 1.5 2.9375 1.5 5 4 C5.79190864 8.98902441 5.80380719 10.83082591 2.9375 15 C0 17 0 17 -3.5 17.6875 C-7 17 -7 17 -10 14.4375 C-12 11 -12 11 -12.0625 7.375 C-9.9608226 0.69908356 -6.9417779 -0.97428462 0 0 Z " fill="#F5F9FB" transform="translate(126,144)"/>
<path d="M0 0 C3.37503669 1.1858237 5.64722731 2.27573689 8 5 C7.34 6.32 6.68 7.64 6 9 C1.25 8.25 1.25 8.25 -1 6 C-1.1875 3.4375 -1.1875 3.4375 -1 1 C-0.67 0.67 -0.34 0.34 0 0 Z " fill="#EBF2F7" transform="translate(173,172)"/>
<path d="M0 0 C2.375 -0.1875 2.375 -0.1875 5 0 C7 3 7 3 7 6 C8.65 6 10.3 6 12 6 C12 6.33 12 6.66 12 7 C10.35 7 8.7 7 7 7 C6.67 7.66 6.34 8.32 6 9 C1.3125 5.484375 1.3125 5.484375 0 4 C0 2.68 0 1.36 0 0 Z " fill="#E6EFF5" transform="translate(179,160)"/>
<path d="M0 0 C0.66 0.33 1.32 0.66 2 1 C-2.95 5.95 -7.9 10.9 -13 16 C-13.66 15.67 -14.32 15.34 -15 15 C-10.3143947 9.52331848 -5.59753384 4.54799625 0 0 Z " fill="#DFE4E4" transform="translate(248,80)"/>
<path d="M0 0 C0.66 0.33 1.32 0.66 2 1 C-2.95 5.95 -7.9 10.9 -13 16 C-13 11.08924079 -9.30469813 8.39044878 -6 5 C-4.05397986 3.23549584 -2.07285289 1.6178364 0 0 Z " fill="#3A4F5B" transform="translate(254,87)"/>
<path d="M0 0 C0.66 0.33 1.32 0.66 2 1 C-2.29 5.29 -6.58 9.58 -11 14 C-11 9.40845608 -8.09282279 7.18698368 -5 4 C-3.3719908 2.61973133 -1.71956118 1.26438322 0 0 Z " fill="#394F5A" transform="translate(179,55)"/>
<path d="M0 0 C0.66 0.33 1.32 0.66 2 1 C-0.97 3.97 -3.94 6.94 -7 10 C-7.33 9.34 -7.66 8.68 -8 8 C-5.58443874 4.80800833 -3.31996462 2.25283313 0 0 Z " fill="#DFEBF2" transform="translate(162,146)"/>
</svg>
