<?xml version="1.0" encoding="UTF-8"?>
<svg version="1.1" xmlns="http://www.w3.org/2000/svg" width="362" height="429">
<path d="M0 0 C119.46 0 238.92 0 362 0 C362 141.57 362 283.14 362 429 C242.54 429 123.08 429 0 429 C0 287.43 0 145.86 0 0 Z " fill="#A4D968" transform="translate(0,0)"/>
<path d="M0 0 C119.46 0 238.92 0 362 0 C362 141.57 362 283.14 362 429 C310.19 429 258.38 429 205 429 C205 428.67 205 428.34 205 428 C205.88445801 427.96036133 206.76891602 427.92072266 207.68017578 427.87988281 C225.39953362 427.04803123 242.63682777 425.8724137 260 422 C261.5299155 421.67562834 263.05986261 421.35140569 264.58984375 421.02734375 C280.04864171 417.65980948 294.10626667 412.51932561 308 405 C308.9384375 404.4946875 309.876875 403.989375 310.84375 403.46875 C325.49949649 395.12053998 336.48487342 383.4266305 345 369 C345.46277344 368.27296875 345.92554688 367.5459375 346.40234375 366.796875 C349.99579392 360.8988109 351.78493441 354.73550503 353.47216797 348.0708313 C353.81603481 346.7217464 354.16662027 345.37435059 354.52490234 344.02902222 C357.5242643 332.67894247 358.58331757 321.99188873 358.41162109 310.26635742 C358.37477017 307.67131507 358.37060624 305.07770098 358.37109375 302.48242188 C358.33145495 293.13904557 357.73835863 284.20582395 356 275 C355.81179688 273.72769531 355.62359375 272.45539063 355.4296875 271.14453125 C352.67047439 254.56982154 347.83056285 237.62860931 340.2890625 222.5859375 C339.06662866 220.13366113 338.07998151 217.69099378 337.125 215.125 C327.21076275 189.93308567 309.80014362 166.20473781 291 147 C290.25621094 146.2059375 289.51242187 145.411875 288.74609375 144.59375 C276.81426581 132.11257455 261.88026711 121.853777 247.0234375 113.19140625 C245.31393656 112.18484682 243.65064086 111.10042724 242 110 C249.86990762 109.62716187 257.4529871 111.03841801 265.1875 112.3125 C268.05685756 112.77615155 270.9268714 113.23567932 273.796875 113.6953125 C274.855933 113.86582375 274.855933 113.86582375 275.93638611 114.03977966 C282.73246231 115.12944067 289.5433669 116.10217514 296.3659668 117.01098633 C300.19849603 117.53604079 303.94147698 118.18363125 307.7109375 119.05859375 C314.21423843 120.55174543 320.33044237 121.23943747 326.5 118.375 C330.12702777 114.92932362 331.7156776 111.94963934 332.4375 107 C331.86194625 103.05334571 330.56674431 101.03956563 328 98 C322.26060199 94.22531128 315.65953487 93.75117865 309.0078125 92.7734375 C307.74790497 92.58028961 306.48799744 92.38714172 305.18991089 92.18814087 C301.85019691 91.67818137 298.50939121 91.17712515 295.16772461 90.68023682 C291.7863865 90.17497591 288.40699982 89.65699335 285.02734375 89.140625 C270.53548123 86.91300251 270.53548123 86.91300251 256 85 C259.05029781 82.96646813 260.46908492 82.58921621 263.99951172 82.0703125 C265.01842499 81.91675293 266.03733826 81.76319336 267.08712769 81.60498047 C268.19017242 81.44658691 269.29321716 81.28819336 270.4296875 81.125 C272.14165817 80.87000732 272.14165817 80.87000732 273.88821411 80.60986328 C277.54946636 80.06613797 281.21215545 79.53288232 284.875 79 C287.30479105 78.64132581 289.73447992 78.28195865 292.1640625 77.921875 C296.67759749 77.2534589 301.19177041 76.58968704 305.70654297 75.9296875 C306.73189148 75.77677246 307.75723999 75.62385742 308.81365967 75.46630859 C311.0648567 75.13685461 313.31845767 74.82363216 315.57354736 74.52197266 C317.31822296 74.27906494 317.31822296 74.27906494 319.09814453 74.03125 C320.15260773 73.89009766 321.20707092 73.74894531 322.29348755 73.60351562 C326.9927996 72.55563267 328.75393043 69.83943604 331.3125 66.0625 C332.48299278 62.55102165 332.6277984 59.62548883 331.27734375 56.12890625 C329.83988387 53.32964227 328.59297275 51.32766765 325.80859375 49.7890625 C314.87267321 46.71666201 300.64510963 50.70433607 289.73144531 52.62744141 C284.05525521 53.6094781 278.76117798 54.21440158 273 54 C274.3032274 50.44635414 275.95011091 47.22680985 277.81835938 43.93847656 C283.75416406 33.39995457 289.09661905 21.37416341 287 9 C285.67050314 5.85642332 284.13222196 3.56611098 281 2 C261.70090333 0.97926057 243.07267553 3.56004043 224.43774414 8.40356445 C221.0758723 9.22610355 217.68900461 9.88306422 214.28808594 10.5222168 C208.92389203 11.64233283 203.712919 13.44688984 198.50390625 15.12890625 C186.35177373 18.95223726 173.98751852 21.26896264 161.45751953 23.50683594 C158.87957053 23.97159302 158.87957053 23.97159302 156 25 C130.44676346 27.05776924 107.55979964 20.38415391 86.80078125 5.4140625 C83.37602031 3.05260829 81.24150076 1.60217289 77 2.1875 C76.01 2.455625 75.02 2.72375 74 3 C68.58830543 16.30374914 70.72551716 29.02991235 76 42 C80.496101 51.71202113 86.44255264 60.56899625 93 69 C93.63164063 69.81210938 94.26328125 70.62421875 94.9140625 71.4609375 C96.09269646 72.97059207 97.27350087 74.47855603 98.45703125 75.984375 C100.44257239 78.5781452 102.23768077 81.250782 104 84 C103.525625 84.598125 103.05125 85.19625 102.5625 85.8125 C99.45705052 90.16012927 99.33787044 94.83901754 100 100 C102.15528055 103.61779234 104.1511441 105.42115594 108 107 C110.81496741 107.45275278 110.81496741 107.45275278 113.75 107.625 C114.73484375 107.69976562 115.7196875 107.77453125 116.734375 107.8515625 C117.48203125 107.90054688 118.2296875 107.94953125 119 108 C116.40900431 110.01079229 113.8215386 111.73959553 110.9453125 113.3125 C95.60396906 121.84773184 82.65147239 131.88822335 70 144 C69.49726562 144.47550293 68.99453125 144.95100586 68.4765625 145.44091797 C60.80712192 152.72348004 54.15208208 160.4012822 48 169 C47.55269531 169.62422852 47.10539062 170.24845703 46.64453125 170.89160156 C29.56755451 194.8926466 15.91672821 220.49977844 8 249 C7.78730469 249.64066406 7.57460937 250.28132812 7.35546875 250.94140625 C4.3830322 260.08125127 2.7959121 269.57454841 1 279 C0.67 279 0.34 279 0 279 C0 186.93 0 94.86 0 0 Z " fill="#F6F6F6" transform="translate(0,0)"/>
<path d="M0 0 C-3.02630138 3.22805481 -6.20929757 6.01125793 -9.6875 8.75 C-23.85169744 19.96419472 -36.39942022 32.37064964 -47 47 C-47.71953857 47.97694824 -47.71953857 47.97694824 -48.45361328 48.97363281 C-55.36580132 58.37207557 -61.53581624 67.94207683 -67.04345703 78.2265625 C-67.9244134 79.8598619 -68.83397481 81.47764664 -69.74609375 83.09375 C-73.02471193 88.91513689 -75.66923668 94.74464257 -78 101 C-78.474375 102.22976562 -78.94875 103.45953125 -79.4375 104.7265625 C-82.27696249 112.12330857 -84.88968863 119.53096598 -87.140625 127.1328125 C-87.73271366 129.10823556 -88.3613421 131.07295067 -89.01953125 133.02734375 C-95.71558832 153.3289351 -96.59279214 174.97047689 -96.06933594 196.15429688 C-96.01332881 198.4529556 -95.98748743 200.74778422 -95.9765625 203.046875 C-95.29667156 224.90798361 -85.90471626 248.00541319 -71 264 C-70.32710937 264.75152344 -69.65421875 265.50304687 -68.9609375 266.27734375 C-56.59277059 279.43257582 -39.83476428 287.9504343 -23 294 C-22.09378906 294.33644531 -21.18757813 294.67289062 -20.25390625 295.01953125 C-9.04278663 298.9947888 2.52361014 300.85133901 14.25 302.5625 C15.03366943 302.67730713 15.81733887 302.79211426 16.62475586 302.91040039 C18.3656078 303.15414392 20.10847945 303.38365257 21.85253906 303.60327148 C24.09721318 303.88620628 26.33857431 304.19596245 28.57714844 304.52368164 C44.49916529 306.67275656 60.59581292 306.33927218 76.62841797 306.31567383 C80.02145744 306.3110691 83.41413617 306.31787398 86.80712891 306.33618164 C113.49674107 306.47877889 140.65876083 306.54007798 166.6640625 299.76953125 C169.59968207 299.092345 172.0089269 298.83382927 175 299 C165.8172349 309.85235875 142.66555192 312.96935203 129.30340672 315.24349785 C125.32431477 315.93050353 121.36980584 316.72220003 117.40989685 317.51248169 C109.79568793 318.96844015 102.24886574 319.74774491 94.50415039 320.17529297 C93.82146343 320.21481512 93.13877648 320.25433727 92.43540204 320.29505706 C72.0638956 321.44862317 51.65448821 321.25659602 31.2585361 321.20278788 C25.60124136 321.19006874 19.94394318 321.18909369 14.28663635 321.18673706 C3.63105056 321.18058327 -7.02449295 321.16425741 -17.68006033 321.14403808 C-29.83536467 321.12148614 -41.9906713 321.11063774 -54.14599144 321.10064721 C-79.09735084 321.07988386 -104.04867303 321.04483003 -129 321 C-129.11749248 301.85699695 -129.20530753 282.7140684 -129.25906086 263.57077789 C-129.28469761 254.67954865 -129.31956509 245.78854514 -129.37719727 236.89746094 C-129.42748268 229.13599458 -129.45939614 221.37469191 -129.47044247 213.61306715 C-129.47688606 209.51414147 -129.49171461 205.4156835 -129.52865028 201.31690979 C-129.70920457 180.45259906 -129.82073811 159.38200586 -121 140 C-120.55947034 138.28167669 -120.16241287 136.55154065 -119.8125 134.8125 C-113.12122865 106.96705308 -96.91365303 79.93923772 -79.33154297 57.68994141 C-78.16295571 56.2068169 -77.01886065 54.7044624 -75.87890625 53.19921875 C-61.31711749 34.49313924 -43.21942355 19.19593388 -23 7 C-22.43361816 6.64856934 -21.86723633 6.29713867 -21.28369141 5.93505859 C-14.11410011 1.51809661 -8.51205812 -1.21051842 0 0 Z " fill="#8ECF43" transform="translate(129,108)"/>
<path d="M0 0 C4.8103816 1.19768685 8.05713711 3.38975753 12.078125 6.203125 C33.22783657 20.38167721 57.6793496 26.59730288 83.03125 21.94140625 C88.67066615 20.77120232 94.25089787 19.38697439 99.828125 17.953125 C101.54902344 17.54513672 101.54902344 17.54513672 103.3046875 17.12890625 C109.30905576 15.69811326 115.25328304 14.03113848 121.203125 12.390625 C122.34648315 12.07544922 122.34648315 12.07544922 123.51293945 11.75390625 C126.62836409 10.88528449 129.69753681 9.99904037 132.75 8.92578125 C137.00449917 7.58140271 141.32383172 6.78603665 145.703125 5.953125 C152.81037214 4.59876864 152.81037214 4.59876864 159.83984375 2.8984375 C164.4338527 1.72054559 169.04993702 1.2529223 173.765625 0.828125 C174.67570313 0.7461084 175.58578125 0.6640918 176.5234375 0.57958984 C182.45367431 0.08023413 188.37748358 -0.30458852 194.328125 -0.421875 C195.01511475 -0.44781738 195.70210449 -0.47375977 196.40991211 -0.50048828 C199.84541402 -0.51339561 201.73457378 -0.10521601 204.671875 1.7265625 C208.11456249 5.28151154 209.12823588 7.90042114 209.203125 12.828125 C208.64021575 34.13424029 193.99155738 54.54073045 180.8828125 70.40625 C178.84830816 72.75756556 178.84830816 72.75756556 177.80085087 74.92047215 C176.35633267 77.41415413 175.05389694 79.10619203 172.828125 80.953125 C168.23125518 82.13027371 163.7291677 81.95420069 159.00756836 81.84545898 C157.59610008 81.84156208 156.18461823 81.84121222 154.77314758 81.84413147 C150.95011629 81.8421598 147.12913563 81.79106676 143.3066299 81.73134494 C139.30257516 81.67749259 135.2984421 81.66996737 131.29408264 81.6577301 C123.71014013 81.62772292 116.12713045 81.55779694 108.54362637 81.47273546 C98.24558859 81.35904376 87.94727282 81.30040651 77.64880097 81.24147809 C75.17468487 81.22732015 72.70056995 81.21297781 70.22645569 81.19850159 C69.42417134 81.1938478 68.621887 81.189194 67.79529101 81.18439919 C63.02970768 81.15546975 58.2643366 81.11647413 53.49891078 81.06817138 C50.53453202 81.03838415 47.57012635 81.01221692 44.60571098 80.98636436 C42.57777016 80.96710806 40.54988318 80.94242065 38.52200317 80.91757202 C37.31216263 80.90738541 36.10232208 80.89719879 34.8558197 80.88670349 C33.80631606 80.87539115 32.75681242 80.86407881 31.67550564 80.85242367 C28.94556252 80.94897167 26.48354863 81.33300188 23.828125 81.953125 C11.70968315 67.45026751 -0.58096542 52.27888419 -6.171875 33.953125 C-6.46835938 33.14746094 -6.76484375 32.34179688 -7.0703125 31.51171875 C-10.28982477 22.31100249 -10.34931279 12.86655871 -7.12109375 3.66015625 C-5.33104788 0.44102027 -3.53606187 -0.05225707 0 0 Z " fill="#A4D968" transform="translate(79.171875,1.046875)"/>
<path d="M0 0 C3.33167251 0.53189859 5.01387129 1.86619114 7.2265625 4.35546875 C8.15884885 7.17255493 8.34532022 9.7293881 8.32421875 12.68359375 C8.32099609 13.4828125 8.31777344 14.28203125 8.31445312 15.10546875 C8.30188477 16.34296875 8.30188477 16.34296875 8.2890625 17.60546875 C8.28455078 18.4459375 8.28003906 19.28640625 8.27539062 20.15234375 C8.26364211 22.22008276 8.24570772 24.28778499 8.2265625 26.35546875 C9.4640625 26.41734375 10.7015625 26.47921875 11.9765625 26.54296875 C22.70976103 27.77492393 33.1056708 33.10041983 39.97265625 41.48828125 C41.54676484 43.74149405 42.93270265 45.92811478 44.2265625 48.35546875 C44.56929199 48.98267822 44.91202148 49.6098877 45.26513672 50.25610352 C48.34988685 56.40571544 48.83791321 61.72737765 48.7265625 68.54296875 C48.74976563 69.9805957 48.74976563 69.9805957 48.7734375 71.44726562 C48.73773682 77.90462689 47.88901003 81.69302122 43.2265625 86.35546875 C40.17258698 86.79715942 37.27626173 86.83263258 34.2265625 86.35546875 C31.47086803 84.1738773 29.79067503 82.48369381 28.2265625 79.35546875 C28.02640445 75.87494266 27.88150678 72.40103137 27.796875 68.91601562 C27.54682782 62.97218569 26.57070066 58.09399982 22.578125 53.4296875 C22.00835937 52.97207031 21.43859375 52.51445312 20.8515625 52.04296875 C20.00464844 51.33720703 20.00464844 51.33720703 19.140625 50.6171875 C13.23009634 46.72106351 7.38519375 46.95551609 0.5390625 46.91796875 C-0.49927734 46.88509766 -1.53761719 46.85222656 -2.60742188 46.81835938 C-11.4471721 46.75739558 -17.76914403 49.134624 -24.6484375 54.66796875 C-29.64001797 60.98084993 -31.52782598 66.16461282 -31.21875 74.32421875 C-30.13051074 81.7318825 -26.50316174 87.35288654 -20.91015625 92.19921875 C-14.50130361 95.66726332 -7.66970522 95.57233821 -0.5859375 95.66796875 C11.54354722 96.04506215 21.30386829 99.1472587 31.2265625 106.35546875 C32.2578125 107.09796875 33.2890625 107.84046875 34.3515625 108.60546875 C43.5448696 117.39906684 48.17698104 128.5774088 48.5390625 141.16796875 C48.25287645 154.41669941 43.52319522 165.84754892 34.2265625 175.35546875 C25.84691491 182.09404151 18.76726879 185.15019048 8.2265625 186.35546875 C8.26136719 187.65742188 8.29617187 188.959375 8.33203125 190.30078125 C8.36018151 192.02733079 8.38748034 193.75389436 8.4140625 195.48046875 C8.43919922 196.33640625 8.46433594 197.19234375 8.49023438 198.07421875 C8.55008838 203.26156586 8.20307549 206.90110665 5.2265625 211.35546875 C1.23935581 214.01360654 -2.08318563 214.20361556 -6.7734375 213.35546875 C-9.89875388 210.4645511 -11.63975737 207.70220187 -11.88696289 203.36254883 C-11.88172607 202.62415771 -11.87648926 201.8857666 -11.87109375 201.125 C-11.86787109 200.32255859 -11.86464844 199.52011719 -11.86132812 198.69335938 C-11.84875977 197.44329102 -11.84875977 197.44329102 -11.8359375 196.16796875 C-11.83142578 195.32298828 -11.82691406 194.47800781 -11.82226562 193.60742188 C-11.81049153 191.5234072 -11.7925564 189.43942898 -11.7734375 187.35546875 C-13.00707031 187.22591797 -13.00707031 187.22591797 -14.265625 187.09375 C-25.59415712 185.6678724 -35.07823381 182.25229784 -42.55078125 173.203125 C-48.56732773 165.1513831 -52.5432399 156.73419142 -52.10546875 146.51953125 C-51.485592 142.47939336 -49.58324613 140.16527738 -46.7734375 137.35546875 C-42.33619519 136.52729975 -38.8016941 136.75192683 -34.8984375 139.04296875 C-32.694473 142.47856047 -32.16971892 144.71056051 -31.3984375 148.66796875 C-29.8576234 156.35462894 -26.73076577 160.65871573 -20.30859375 165.03515625 C-15.06411516 166.99386759 -10.07720969 166.86852109 -4.5234375 166.85546875 C-3.44191406 166.88382813 -2.36039063 166.9121875 -1.24609375 166.94140625 C7.03102799 166.96137518 13.8896588 165.31182552 20.13525391 159.61425781 C25.74645251 153.61774854 27.83845599 147.27767114 27.5703125 139.1328125 C26.68394022 131.97132736 23.70982441 127.09160697 18.10546875 122.64453125 C17.48542969 122.21914063 16.86539063 121.79375 16.2265625 121.35546875 C15.56527344 120.81535156 14.90398437 120.27523437 14.22265625 119.71875 C9.52723859 117.58224314 4.82438848 117.95468591 -0.2734375 117.91796875 C-15.05125377 117.53183693 -28.28355175 115.12109438 -39.05859375 103.99609375 C-49.6169801 91.28655952 -52.8714751 79.57205627 -51.98193359 63.27880859 C-51.53279946 59.1356251 -49.87499876 55.87681388 -47.7734375 52.35546875 C-47.32613281 51.40027344 -46.87882813 50.44507813 -46.41796875 49.4609375 C-41.04145105 39.30813092 -32.21239427 32.25326798 -21.44140625 28.5546875 C-18.11885478 27.6485371 -15.22839116 27.35546875 -11.7734375 27.35546875 C-11.79664063 26.04191406 -11.81984375 24.72835937 -11.84375 23.375 C-11.86251401 21.63932862 -11.88071354 19.90365107 -11.8984375 18.16796875 C-11.91519531 17.30365234 -11.93195313 16.43933594 -11.94921875 15.54882812 C-11.9908383 10.11747651 -11.80762062 6.04223663 -8.421875 1.5703125 C-5.71584132 -0.42394455 -3.25572002 -0.11135199 0 0 Z " fill="#FDFEFC" transform="translate(180.7734375,161.64453125)"/>
<path d="M0 0 C3.08284147 3.95236086 4.35069771 6.53599285 4.0625 11.5625 C3.25622522 16.33499516 1.52336215 18.71686709 -2 22 C-6.5419882 24.35164623 -11.30630645 24.67679914 -16.3125 25.25 C-28.05410097 26.68190256 -39.74273359 28.41865447 -51.4375 30.1875 C-52.35391266 30.3258728 -53.27032532 30.46424561 -54.21450806 30.60681152 C-59.47678867 31.40159374 -64.73859725 32.19942775 -70 33 C-66.19241176 33.61829571 -62.38459029 34.2351374 -58.57662964 34.85113525 C-56.49242213 35.18872744 -54.40844298 35.52770633 -52.32446289 35.86669922 C-44.89857966 37.07104235 -37.4691974 38.23824651 -30.02734375 39.33984375 C-27.8636986 39.66388644 -25.70015142 39.98857666 -23.53662109 40.31338501 C-22.14572645 40.51986363 -20.75428433 40.72268979 -19.36230469 40.92172241 C-17.40557293 41.20170597 -15.45078011 41.49513872 -13.49609375 41.7890625 C-12.38419678 41.95100098 -11.2722998 42.11293945 -10.12670898 42.27978516 C-4.11752851 43.6639565 -0.50353762 45.93933454 3 51 C4.76004416 54.52008832 3.92086734 58.27267981 3 62 C0.85664811 65.81307921 -1.95339152 68.34388801 -6 70 C-13.87361748 71.28487875 -21.84800746 69.19107005 -29.53833008 67.63647461 C-36.96186379 66.14864518 -44.39051073 65.0530837 -51.89648438 64.07714844 C-58.57682908 63.20590234 -65.22691337 62.21301162 -71.86962891 61.08959961 C-74.24286386 60.69905674 -76.62038133 60.3497937 -79 60 C-80.05566162 59.83475327 -81.11132324 59.66950653 -82.19897461 59.49925232 C-95.70137341 57.62850762 -109.15656238 57.71747047 -122.7672441 57.7270093 C-126.20638054 57.72625076 -129.64544747 57.71111298 -133.08454895 57.69662476 C-144.74815513 57.6500027 -156.41174387 57.62562856 -168.07543945 57.61914062 C-174.54963375 57.61538787 -181.02363418 57.59736182 -187.49774534 57.56404626 C-190.91051479 57.54719429 -194.32293171 57.53798112 -197.73573875 57.54698563 C-201.52879733 57.55403717 -205.32103297 57.53681787 -209.11401367 57.51416016 C-210.23457657 57.52233261 -211.35513947 57.53050507 -212.50965881 57.53892517 C-220.01344165 57.45904645 -223.31416887 56.31724801 -228.875 51.3125 C-231.19668307 46.54015146 -230.53928111 41.58788326 -228.875 36.6875 C-226.61795392 33.45240063 -224.65859215 31.435642 -221 30 C-216.43936099 29.41336342 -211.90785654 29.48488337 -207.31542969 29.5300293 C-205.91879106 29.52952011 -204.52215215 29.52726191 -203.1255188 29.52339172 C-199.34467513 29.51798483 -195.56432376 29.53734765 -191.78356838 29.56149268 C-187.82604452 29.58281794 -183.8685219 29.58219496 -179.91094971 29.58418274 C-173.26997421 29.59062399 -166.62918333 29.61185152 -159.98828125 29.64331055 C-151.45780631 29.68366696 -142.92745138 29.7010088 -134.39689255 29.71061993 C-127.0654853 29.71891275 -119.73410358 29.73614813 -112.40271854 29.75565743 C-110.04377661 29.76172672 -107.6848337 29.76686736 -105.32588959 29.7720089 C-101.62571418 29.78077824 -97.92559846 29.79507352 -94.22546005 29.8137188 C-92.21488376 29.82278216 -90.20428756 29.82702304 -88.19369507 29.83114624 C-87.00480682 29.83830154 -85.81591858 29.84545685 -84.59100342 29.85282898 C-83.03472292 29.8592392 -83.03472292 29.8592392 -81.44700241 29.86577892 C-79 30 -79 30 -77 31 C-76.74347656 30.43152344 -76.48695313 29.86304688 -76.22265625 29.27734375 C-74.86708866 26.7524367 -73.27382093 24.76237538 -71.4375 22.5625 C-67.68838581 17.96349521 -64.28928074 13.20317212 -60.97045898 8.29125977 C-59.42356112 6.01032328 -57.9545444 3.9545444 -56 2 C-54.06778063 1.96984157 -52.13450429 1.94919287 -50.20263672 1.99682617 C-46.77473633 2.00176551 -43.43684926 1.45111489 -40.0625 0.90625 C-38.97594116 0.73977966 -38.97594116 0.73977966 -37.86743164 0.56994629 C-35.57736971 0.21894822 -33.28858961 -0.13953504 -31 -0.5 C-27.98018322 -0.9756371 -24.9592828 -1.44328639 -21.9375 -1.90625 C-21.26017822 -2.0156189 -20.58285645 -2.12498779 -19.88500977 -2.2376709 C-12.86025661 -3.31244689 -6.08089887 -4.28426966 0 0 Z " fill="#FC947A" transform="translate(329,51)"/>
<path d="M0 0 C2.22467305 3.33700957 2.82106561 5.92156866 3.75 9.8125 C6.62160681 21.13617527 10.95444132 31.60002095 18 41 C18.80050781 42.10408203 18.80050781 42.10408203 19.6171875 43.23046875 C39.56556535 69.93555522 72.85904279 82.58329301 104.89746094 87.65478516 C106.45111792 87.90987932 108.00082415 88.18930882 109.54785156 88.48193359 C118.24805139 90.07386618 126.93713147 90.63979713 135.75 91.125 C137.23701361 91.21165051 138.72399322 91.29888651 140.2109375 91.38671875 C143.80692608 91.5978773 147.40330569 91.80117811 151 92 C151 92.33 151 92.66 151 93 C101.17 93 51.34 93 0 93 C0 62.31 0 31.62 0 0 Z " fill="#F5F6F5" transform="translate(0,336)"/>
<path d="M0 0 C8.656861 -0.20796753 16.88507854 0.2984241 25.43359375 1.64453125 C27.11594872 1.90021126 27.11594872 1.90021126 28.83229065 2.16105652 C31.17824156 2.52028846 33.5234538 2.88437594 35.86791992 3.25317383 C39.45083687 3.81458979 43.03655999 4.35449498 46.62304688 4.89257812 C48.91426023 5.24611677 51.20528337 5.60089082 53.49609375 5.95703125 C54.56178085 6.11653763 55.62746796 6.27604401 56.72544861 6.44038391 C63.26364904 7.48749684 68.70068609 8.45211162 73.3125 13.5625 C76.14438931 17.65300678 76.17547353 19.8267005 75.57421875 24.67578125 C74.62759775 28.50734245 72.8467544 30.28565278 70 33 C61.82245542 37.9166642 51.18573186 34.39804448 42.44628906 32.63427734 C36.08831228 31.36157239 29.74198831 30.33580422 23.3125 29.5 C14.78121326 28.37936159 6.26121832 27.20267319 -2.25 25.9375 C-3.95675903 25.69386719 -3.95675903 25.69386719 -5.69799805 25.4453125 C-7.27834839 25.20748047 -7.27834839 25.20748047 -8.890625 24.96484375 C-9.82938477 24.8268335 -10.76814453 24.68882324 -11.73535156 24.54663086 C-14 24 -14 24 -16 22 C-15.41992188 21.97421875 -14.83984375 21.9484375 -14.2421875 21.921875 C-8.77236619 21.52472626 -5.34809912 20.60574073 -1 17 C1.08182246 13.8772663 1.25407348 13.17155089 1.1875 9.625 C1.18105469 8.87476562 1.17460937 8.12453125 1.16796875 7.3515625 C0.98824263 4.8353968 0.51328241 2.46733956 0 0 Z " fill="#FC7B5B" transform="translate(257,86)"/>
<path d="M0 0 C4.11886444 0.97118488 6.64084414 2.44521123 10.0859375 4.875 C11.12492187 5.596875 12.16390625 6.31875 13.234375 7.0625 C15.7109375 8.875 15.7109375 8.875 16.7109375 9.875 C16.80643395 11.68094393 16.89531521 13.48750248 16.94921875 15.29516602 C17.71191217 38.59494831 29.23788651 57.89545946 44.3359375 75.125 C46.7109375 77.875 46.7109375 77.875 46.7109375 79.875 C45.46957031 79.93558594 44.22820312 79.99617188 42.94921875 80.05859375 C41.30728173 80.14303623 39.66535518 80.22768236 38.0234375 80.3125 C37.20681641 80.35181641 36.39019531 80.39113281 35.54882812 80.43164062 C31.51437939 80.64398003 27.65346441 80.91947922 23.7109375 81.875 C11.59249565 67.37214251 -0.69815292 52.20075919 -6.2890625 33.875 C-6.58554688 33.06933594 -6.88203125 32.26367188 -7.1875 31.43359375 C-10.40701227 22.23287749 -10.46650029 12.78843371 -7.23828125 3.58203125 C-5.40156526 0.27896586 -3.61833106 -0.13751377 0 0 Z " fill="#8ECF44" transform="translate(79.2890625,1.125)"/>
<path d="M0 0 C0.66 0 1.32 0 2 0 C2 30.36 2 60.72 2 92 C1.01 92.495 1.01 92.495 0 93 C-0.46898963 95.8159849 -0.46898963 95.8159849 -0.625 99.0625 C-0.74875 101.021875 -0.8725 102.98125 -1 105 C-5.62 105 -10.24 105 -15 105 C-15 100.71 -15 96.42 -15 92 C-20.445 92.495 -20.445 92.495 -26 93 C-26.144375 94.794375 -26.28875 96.58875 -26.4375 98.4375 C-26.875 103.875 -26.875 103.875 -28 105 C-30.18639453 105.07258946 -32.37500389 105.08373783 -34.5625 105.0625 C-35.76003906 105.05347656 -36.95757812 105.04445313 -38.19140625 105.03515625 C-39.58166016 105.01775391 -39.58166016 105.01775391 -41 105 C-41 101.7 -41 98.4 -41 95 C-37.63085938 93.2421875 -37.63085938 93.2421875 -34.26171875 91.484375 C-29.44396208 88.32246216 -28.36259689 84.45038758 -27 79 C-23.04 79 -19.08 79 -15 79 C-15 65.8 -15 52.6 -15 39 C-10.38 39 -5.76 39 -1 39 C-1 35.04 -1 31.08 -1 27 C-2.39025391 27.01740234 -2.39025391 27.01740234 -3.80859375 27.03515625 C-5.00613281 27.04417969 -6.20367187 27.05320312 -7.4375 27.0625 C-8.63246094 27.07410156 -9.82742188 27.08570312 -11.05859375 27.09765625 C-14 27 -14 27 -15 26 C-15.14393457 21.66469082 -15.04212061 17.33842269 -15 13 C-10.38 13 -5.76 13 -1 13 C-1.020625 11.040625 -1.04125 9.08125 -1.0625 7.0625 C-1.08377188 5.04167124 -1.07244053 3.01964199 -1 1 C-0.67 0.67 -0.34 0.34 0 0 Z " fill="#FAFAF9" transform="translate(360,27)"/>
<path d="M0 0 C4.62 0 9.24 0 14 0 C14 3.96 14 7.92 14 12 C17.96 12 21.92 12 26 12 C26 8.04 26 4.08 26 0 C30.62 0 35.24 0 40 0 C40 3.63 40 7.26 40 11 C41.98 11 43.96 11 46 11 C46 11.33 46 11.66 46 12 C44.47632813 12.38091797 44.47632813 12.38091797 42.921875 12.76953125 C42.26243896 12.93445068 41.60300293 13.09937012 40.92358398 13.26928711 C39.45446009 13.63644432 37.98521859 14.00313123 36.51586914 14.36938477 C33.36578535 15.15510831 30.21712497 15.94376202 27.07421875 16.7578125 C24.05647896 17.53571876 21.02877744 18.26615524 18 19 C17.21302734 19.20302734 16.42605469 19.40605469 15.61523438 19.61523438 C-3.05588526 24.3960273 -22.27096118 27.03930618 -41 21 C-40.34 20.67 -39.68 20.34 -39 20 C-39.061875 18.824375 -39.061875 18.824375 -39.125 17.625 C-39 15 -39 15 -37 13 C-34.3984375 12.8046875 -34.3984375 12.8046875 -31.375 12.875 C-29.87066406 12.90207031 -29.87066406 12.90207031 -28.3359375 12.9296875 C-27.56507813 12.95289063 -26.79421875 12.97609375 -26 13 C-26 16.3 -26 19.6 -26 23 C-21.38 23 -16.76 23 -12 23 C-12.020625 21.535625 -12.04125 20.07125 -12.0625 18.5625 C-12.08392007 17.04167482 -12.07179964 15.51928038 -12 14 C-10.33657163 12.33657163 -8.2174291 12.63951903 -5.9375 12.4375 C-3.4934375 12.2209375 -3.4934375 12.2209375 -1 12 C-0.67 8.04 -0.34 4.08 0 0 Z " fill="#EFEFEE" transform="translate(161,1)"/>
<path d="M0 0 C2.22467305 3.33700957 2.82106561 5.92156866 3.75 9.8125 C6.43655502 20.40645614 10.31976364 30.33395377 16.80078125 39.23046875 C18 41 18 41 19 44 C14.73840618 46.13079691 8.59236298 45.04502317 4 45 C4 49.62 4 54.24 4 59 C8.29 59 12.58 59 17 59 C17.87890625 67.49609375 17.87890625 67.49609375 18 70 C15.53910088 72.46089912 8.03154122 71.77662328 5 72 C4.67 76.29 4.34 80.58 4 85 C8.29 85 12.58 85 17 85 C17 87.64 17 90.28 17 93 C11.39 93 5.78 93 0 93 C0 62.31 0 31.62 0 0 Z " fill="#F0F1EF" transform="translate(0,336)"/>
<path d="M0 0 C2.83203125 0.03255208 5.6640625 0.06510417 8.49609375 0.09765625 C8.49609375 4.38765625 8.49609375 8.67765625 8.49609375 13.09765625 C4.20609375 13.09765625 -0.08390625 13.09765625 -4.50390625 13.09765625 C-3.54901495 0.13841712 -3.54901495 0.13841712 0 0 Z M-13.78125 13 C-10.68880208 13.03255208 -7.59635417 13.06510417 -4.50390625 13.09765625 C-4.17390625 17.38765625 -3.84390625 21.67765625 -3.50390625 26.09765625 C0.45609375 26.09765625 4.41609375 26.09765625 8.49609375 26.09765625 C8.82609375 30.38765625 9.15609375 34.67765625 9.49609375 39.09765625 C13.45609375 39.09765625 17.41609375 39.09765625 21.49609375 39.09765625 C21.82609375 34.80765625 22.15609375 30.51765625 22.49609375 26.09765625 C26.45609375 26.09765625 30.41609375 26.09765625 34.49609375 26.09765625 C34.52295313 28.24342262 34.54242463 30.3892827 34.55859375 32.53515625 C34.57019531 33.73011719 34.58179688 34.92507812 34.59375 36.15625 C34.49609375 39.09765625 34.49609375 39.09765625 33.49609375 40.09765625 C29.82693605 40.24075912 26.16893934 40.13987287 22.49609375 40.09765625 C22.49609375 44.05765625 22.49609375 48.01765625 22.49609375 52.09765625 C17.87609375 52.09765625 13.25609375 52.09765625 8.49609375 52.09765625 C8.49609375 48.13765625 8.49609375 44.17765625 8.49609375 40.09765625 C4.53609375 39.76765625 0.57609375 39.43765625 -3.50390625 39.09765625 C-3.83390625 34.80765625 -4.16390625 30.51765625 -4.50390625 26.09765625 C-8.79390625 26.09765625 -13.08390625 26.09765625 -17.50390625 26.09765625 C-17.6015625 16.8203125 -17.6015625 16.8203125 -17.50390625 14.09765625 C-16.50390625 13.09765625 -16.50390625 13.09765625 -13.78125 13 Z " fill="#EFEFEF" transform="translate(21.50390625,13.90234375)"/>
<path d="M0 0 C2.48958243 0.00502455 4.97916585 0.00958577 7.46875 0.01367188 C13.52085787 0.02460294 19.57291793 0.0418151 25.625 0.0625 C25.625 4.0225 25.625 7.9825 25.625 12.0625 C21.88131258 13.93434371 20.7849209 14.30249767 16.875 14.1875 C16.07578125 14.16945313 15.2765625 14.15140625 14.453125 14.1328125 C13.84984375 14.10960937 13.2465625 14.08640625 12.625 14.0625 C12.295 15.0525 11.965 16.0425 11.625 17.0625 C3.1616948 14.70387396 -3.49800105 10.56437315 -10.60546875 5.4609375 C-14.01541078 3.09970105 -16.14742233 1.66659428 -20.375 2.25 C-21.365 2.518125 -22.355 2.78625 -23.375 3.0625 C-23.61734375 3.77277344 -23.8596875 4.48304688 -24.109375 5.21484375 C-24.61210938 6.59349609 -24.61210938 6.59349609 -25.125 8 C-25.44984375 8.91652344 -25.7746875 9.83304688 -26.109375 10.77734375 C-27.375 13.0625 -27.375 13.0625 -29.1875 13.90625 C-33.31010248 14.20072161 -37.27848238 13.54761393 -41.375 13.0625 C-41.375 9.1025 -41.375 5.1425 -41.375 1.0625 C-27.59010694 -0.23047003 -13.83292958 -0.0487075 0 0 Z M-41.375 13.0625 C-41.375 17.6825 -41.375 22.3025 -41.375 27.0625 C-45.335 27.0625 -49.295 27.0625 -53.375 27.0625 C-53.47265625 17.78515625 -53.47265625 17.78515625 -53.375 15.0625 C-51.72089777 13.40839777 -49.64451073 13.70309542 -47.375 13.5 C-46.4675 13.41621094 -45.56 13.33242187 -44.625 13.24609375 C-42.375 13.0625 -42.375 13.0625 -41.375 13.0625 Z " fill="#FDFDFD" transform="translate(97.375,-0.0625)"/>
<path d="M0 0 C2.83203125 0.03255208 5.6640625 0.06510417 8.49609375 0.09765625 C8.49609375 4.38765625 8.49609375 8.67765625 8.49609375 13.09765625 C4.20609375 13.09765625 -0.08390625 13.09765625 -4.50390625 13.09765625 C-3.54901495 0.13841712 -3.54901495 0.13841712 0 0 Z M-13.78125 13 C-10.68880208 13.03255208 -7.59635417 13.06510417 -4.50390625 13.09765625 C-4.17390625 17.38765625 -3.84390625 21.67765625 -3.50390625 26.09765625 C0.45609375 26.09765625 4.41609375 26.09765625 8.49609375 26.09765625 C8.82609375 30.38765625 9.15609375 34.67765625 9.49609375 39.09765625 C13.45609375 39.09765625 17.41609375 39.09765625 21.49609375 39.09765625 C21.82609375 34.80765625 22.15609375 30.51765625 22.49609375 26.09765625 C26.45609375 26.09765625 30.41609375 26.09765625 34.49609375 26.09765625 C34.99109375 32.53265625 34.99109375 32.53265625 35.49609375 39.09765625 C32.97133913 40.36003356 31.18408909 40.19622029 28.37109375 40.16015625 C26.76234375 40.13953125 25.15359375 40.11890625 23.49609375 40.09765625 C23.16609375 44.05765625 22.83609375 48.01765625 22.49609375 52.09765625 C17.87609375 52.09765625 13.25609375 52.09765625 8.49609375 52.09765625 C8.49609375 48.13765625 8.49609375 44.17765625 8.49609375 40.09765625 C4.53609375 39.76765625 0.57609375 39.43765625 -3.50390625 39.09765625 C-3.83390625 34.80765625 -4.16390625 30.51765625 -4.50390625 26.09765625 C-8.79390625 26.09765625 -13.08390625 26.09765625 -17.50390625 26.09765625 C-17.6015625 16.8203125 -17.6015625 16.8203125 -17.50390625 14.09765625 C-16.50390625 13.09765625 -16.50390625 13.09765625 -13.78125 13 Z " fill="#EFEFEF" transform="translate(21.50390625,118.90234375)"/>
<path d="M0 0 C23.1 0 46.2 0 70 0 C70 0.33 70 0.66 70 1 C65.38 1 60.76 1 56 1 C56 4.96 56 8.92 56 13 C52.04 13 48.08 13 44 13 C44 9.04 44 5.08 44 1 C39.38 1 34.76 1 30 1 C30 4.96 30 8.92 30 13 C26.37 13 22.74 13 19 13 C18.90912109 14.39025391 18.90912109 14.39025391 18.81640625 15.80859375 C18.73261719 17.00613281 18.64882813 18.20367188 18.5625 19.4375 C18.48128906 20.63246094 18.40007813 21.82742187 18.31640625 23.05859375 C18 26 18 26 17 27 C12.66469082 27.14393457 8.33842269 27.04212061 4 27 C4 22.71 4 18.42 4 14 C8.19921875 13.70703125 8.19921875 13.70703125 12.3984375 13.4140625 C15.15508879 13.23636036 15.15508879 13.23636036 17 11 C17.24287489 8.55987051 17.24287489 8.55987051 17.125 5.875 C17.08375 4.26625 17.0425 2.6575 17 1 C12.71 1 8.42 1 4 1 C4 4.96 4 8.92 4 13 C3.01 13.495 3.01 13.495 2 14 C1.34 13.67 0.68 13.34 0 13 C0 8.71 0 4.42 0 0 Z " fill="#FEFEFE" transform="translate(0,0)"/>
<path d="M0 0 C14.19 0 28.38 0 43 0 C43 4.29 43 8.58 43 13 C42.01 13 41.02 13 40 13 C40 9.04 40 5.08 40 1 C35.38 1 30.76 1 26 1 C26 4.96 26 8.92 26 13 C22.37 13 18.74 13 15 13 C14.93941406 13.92683594 14.87882812 14.85367187 14.81640625 15.80859375 C14.73261719 17.00613281 14.64882813 18.20367188 14.5625 19.4375 C14.48128906 20.63246094 14.40007812 21.82742187 14.31640625 23.05859375 C14 26 14 26 13 27 C8.66469082 27.14393457 4.33842269 27.04212061 0 27 C0 22.71 0 18.42 0 14 C4.19921875 13.70703125 4.19921875 13.70703125 8.3984375 13.4140625 C11.15508879 13.23636036 11.15508879 13.23636036 13 11 C13.24287489 8.55987051 13.24287489 8.55987051 13.125 5.875 C13.08375 4.26625 13.0425 2.6575 13 1 C8.71 1 4.42 1 0 1 C0 0.67 0 0.34 0 0 Z " fill="#FEFEFE" transform="translate(319,0)"/>
<path d="M0 0 C4.29 0 8.58 0 13 0 C13.33 3.96 13.66 7.92 14 12 C17.96 12 21.92 12 26 12 C26 16.62 26 21.24 26 26 C18.02306805 26.70126874 18.02306805 26.70126874 14 26 C12.10273949 24.1289086 11.20761109 22.35659923 10.04296875 19.97265625 C8.34182975 16.75514615 6.40483269 16.11430888 3 15 C-0.98404698 14.19910963 -4.97458794 13.553657 -9 13 C-9 12.67 -9 12.34 -9 12 C-6.03 12 -3.06 12 0 12 C0 8.04 0 4.08 0 0 Z " fill="#F1EFEF" transform="translate(319,80)"/>
<path d="M0 0 C4.62 0 9.24 0 14 0 C14 3.63 14 7.26 14 11 C15.98 11 17.96 11 20 11 C20 11.33 20 11.66 20 12 C18.47632813 12.38091797 18.47632813 12.38091797 16.921875 12.76953125 C16.26131104 12.93469238 15.60074707 13.09985352 14.92016602 13.27001953 C13.46235918 13.63443024 12.00451353 13.99868576 10.54663086 14.36279297 C7.22418854 15.19276483 3.90230786 16.02467424 0.58203125 16.86328125 C-2.27652016 17.5843906 -5.13796796 18.2928605 -8 19 C-9.19882813 19.31130859 -9.19882813 19.31130859 -10.421875 19.62890625 C-15.73243754 20.9382346 -20.52894082 21.17368442 -26 21 C-26 18.03 -26 15.06 -26 12 C-17.42 12 -8.84 12 0 12 C0 8.04 0 4.08 0 0 Z " fill="#FDFDFD" transform="translate(187,1)"/>
<path d="M0 0 C1.08174162 3.36541838 0.92538169 4.29847322 0 8 C-3.96 8 -7.92 8 -12 8 C-12 10.64 -12 13.28 -12 16 C-36.75 16 -61.5 16 -87 16 C-87 15.67 -87 15.34 -87 15 C-86.11554199 14.96036133 -85.23108398 14.92072266 -84.31982422 14.87988281 C-66.60046638 14.04803123 -49.36317223 12.8724137 -32 9 C-30.4700845 8.67562834 -28.94013739 8.35140569 -27.41015625 8.02734375 C-18.04213079 5.98194144 -9.03474253 3.20884596 0 0 Z " fill="#EDF0EA" transform="translate(292,413)"/>
<path d="M0 0 C1.19625 0.268125 2.3925 0.53625 3.625 0.8125 C3.81901633 2.62431405 4.00504375 4.43698532 4.1875 6.25 C4.29191406 7.25933594 4.39632813 8.26867187 4.50390625 9.30859375 C4.54386719 10.13488281 4.58382813 10.96117187 4.625 11.8125 C2.16410088 14.27339912 -5.34345878 13.58912328 -8.375 13.8125 C-8.705 18.1025 -9.035 22.3925 -9.375 26.8125 C-13.665 26.8125 -17.955 26.8125 -22.375 26.8125 C-22.705 22.1925 -23.035 17.5725 -23.375 12.8125 C-22.50617188 12.29300781 -21.63734375 11.77351563 -20.7421875 11.23828125 C-19.57759398 10.53473243 -18.41356732 9.83024471 -17.25 9.125 C-16.64905518 8.762854 -16.04811035 8.40070801 -15.42895508 8.02758789 C-12.36495646 6.15062266 -9.61393465 4.27999402 -7.0625 1.75 C-4.06485985 -0.41108941 -3.49340598 -0.41313323 0 0 Z " fill="#EFEFEE" transform="translate(328.375,394.1875)"/>
<path d="M0 0 C0 0.33 0 0.66 0 1 C2.64 1.33 5.28 1.66 8 2 C8 5.96 8 9.92 8 14 C3.12934334 13.32491294 -1.74125934 12.64943807 -6.61181641 11.97363281 C-8.26219293 11.74468997 -9.91258312 11.51584568 -11.56298828 11.28710938 C-21.71194017 9.88044613 -31.85847242 8.45940566 -42 7 C-38.51414914 4.67609943 -35.4912288 4.27333891 -31.4453125 3.7109375 C-30.70675018 3.60278717 -29.96818787 3.49463684 -29.20724487 3.38320923 C-27.64600801 3.15616106 -26.08422977 2.9328091 -24.52197266 2.71289062 C-22.13962882 2.37706216 -19.75925092 2.02937604 -17.37890625 1.6796875 C-15.85947649 1.46023368 -14.33994812 1.2414613 -12.8203125 1.0234375 C-12.11182159 0.92034271 -11.40333069 0.81724792 -10.67337036 0.71102905 C-7.08766722 0.21032397 -3.62112827 -0.11516577 0 0 Z " fill="#FEFCFC" transform="translate(298,78)"/>
<path d="M0 0 C4.29 0 8.58 0 13 0 C14.5456757 4.63702711 14.05735628 9.12471651 14 14 C17.96 14 21.92 14 26 14 C26 17.96 26 21.92 26 26 C22.04 26 18.08 26 14 26 C12.17910521 22.35821043 12.94878887 17.99446852 13 14 C8.71 14 4.42 14 0 14 C0 9.38 0 4.76 0 0 Z " fill="#FEFEFE" transform="translate(4,66)"/>
<path d="M0 0 C4.29 0 8.58 0 13 0 C14.5456757 4.63702711 14.05735628 9.12471651 14 14 C17.96 14 21.92 14 26 14 C26.09765625 22.49609375 26.09765625 22.49609375 26 25 C25 26 25 26 22.49609375 26.09765625 C21.48675781 26.08605469 20.47742188 26.07445312 19.4375 26.0625 C18.42558594 26.05347656 17.41367187 26.04445312 16.37109375 26.03515625 C15.19740234 26.01775391 15.19740234 26.01775391 14 26 C12.17910521 22.35821043 12.94878887 17.99446852 13 14 C8.71 14 4.42 14 0 14 C0 9.38 0 4.76 0 0 Z " fill="#FEFEFE" transform="translate(4,171)"/>
<path d="M0 0 C4.62 0 9.24 0 14 0 C14 3.96 14 7.92 14 12 C17.63 12 21.26 12 25 12 C25 12.33 25 12.66 25 13 C21.7 13.33 18.4 13.66 15 14 C14.67 16.97 14.34 19.94 14 23 C9.38 23 4.76 23 0 23 C0 19.7 0 16.4 0 13 C-3.63 13 -7.26 13 -11 13 C-11 12.67 -11 12.34 -11 12 C-7.37 12 -3.74 12 0 12 C0 8.04 0 4.08 0 0 Z " fill="#F6F6F6" transform="translate(135,1)"/>
<path d="M0 0 C4.29 0 8.58 0 13 0 C14.5456757 4.63702711 14.05735628 9.12471651 14 14 C17.96 14 21.92 14 26 14 C26 17.96 26 21.92 26 26 C22.04 26 18.08 26 14 26 C12.73762269 23.47524538 12.90143596 21.68799534 12.9375 18.875 C12.94652344 17.96492188 12.95554687 17.05484375 12.96484375 16.1171875 C12.97644531 15.41851562 12.98804688 14.71984375 13 14 C12.22914063 14.03480469 11.45828125 14.06960937 10.6640625 14.10546875 C9.66117187 14.13253906 8.65828125 14.15960938 7.625 14.1875 C6.12839844 14.23970703 6.12839844 14.23970703 4.6015625 14.29296875 C3.74304688 14.19628906 2.88453125 14.09960938 2 14 C-1.04424687 9.43362969 -0.12783166 5.43284541 0 0 Z " fill="#FEFEFD" transform="translate(319,171)"/>
<path d="M0 0 C4.62 0 9.24 0 14 0 C14 3.96 14 7.92 14 12 C17.96 12 21.92 12 26 12 C26 16.62 26 21.24 26 26 C22.04 26 18.08 26 14 26 C13.67 21.71 13.34 17.42 13 13 C8.71 12.67 4.42 12.34 0 12 C0 8.04 0 4.08 0 0 Z " fill="#EFEFEF" transform="translate(30,80)"/>
<path d="M0 0 C4.62 0 9.24 0 14 0 C14.33 3.63 14.66 7.26 15 11 C8.97702359 13.40919056 6.29211237 12.83894832 0 12 C0 8.04 0 4.08 0 0 Z M0 12 C0 16.62 0 21.24 0 26 C-3.96 26 -7.92 26 -12 26 C-12.09765625 16.72265625 -12.09765625 16.72265625 -12 14 C-10.34589777 12.34589777 -8.26951073 12.64059542 -6 12.4375 C-5.0925 12.35371094 -4.185 12.26992187 -3.25 12.18359375 C-1 12 -1 12 0 12 Z " fill="#EFEFEF" transform="translate(56,1)"/>
<path d="M0 0 C3.09244792 0.03255208 6.18489583 0.06510417 9.27734375 0.09765625 C9.27734375 4.05765625 9.27734375 8.01765625 9.27734375 12.09765625 C4.65734375 12.09765625 0.03734375 12.09765625 -4.72265625 12.09765625 C-3.7601331 0.13486848 -3.7601331 0.13486848 0 0 Z M-16.72265625 12.09765625 C-12.76265625 12.09765625 -8.80265625 12.09765625 -4.72265625 12.09765625 C-3.59765625 22.72265625 -3.59765625 22.72265625 -4.72265625 26.09765625 C-8.68265625 26.09765625 -12.64265625 26.09765625 -16.72265625 26.09765625 C-16.72265625 21.47765625 -16.72265625 16.85765625 -16.72265625 12.09765625 Z " fill="#EFEFEF" transform="translate(86.72265625,79.90234375)"/>
<path d="M0 0 C3.3 0 6.6 0 10 0 C10.33 3.96 10.66 7.92 11 12 C14.96 12 18.92 12 23 12 C23 16.62 23 21.24 23 26 C20.36 26 17.72 26 15 26 C14.67 26.66 14.34 27.32 14 28 C13.49210937 26.87722656 12.98421875 25.75445312 12.4609375 24.59765625 C7.4699312 13.67841189 7.4699312 13.67841189 1.03125 3.56640625 C0 2 0 2 0 0 Z " fill="#EEEFED" transform="translate(322,185)"/>
<path d="M0 0 C1.2684375 0.26731934 2.536875 0.53463867 3.84375 0.81005859 C4.51857422 0.95626648 5.19339844 1.10247437 5.88867188 1.25311279 C23.12433308 4.95414174 40.14202012 6.31321016 57.734375 6.953125 C57.734375 7.283125 57.734375 7.613125 57.734375 7.953125 C35.294375 7.953125 12.854375 7.953125 -10.265625 7.953125 C-10.265625 5.643125 -10.265625 3.333125 -10.265625 0.953125 C-6.57003912 -1.49489212 -4.22219506 -0.94246514 0 0 Z " fill="#EEEFED" transform="translate(93.265625,421.046875)"/>
<path d="M0 0 C4.29 0 8.58 0 13 0 C13.87890625 8.49609375 13.87890625 8.49609375 14 11 C11.53910088 13.46089912 4.03154122 12.77662328 1 13 C0.67 17.29 0.34 21.58 0 26 C-1.32 26 -2.64 26 -4 26 C-4 21.38 -4 16.76 -4 12 C-2.68 12 -1.36 12 0 12 C0 8.04 0 4.08 0 0 Z " fill="#EFEFEF" transform="translate(4,185)"/>
<path d="M0 0 C4.29 0 8.58 0 13 0 C13.87890625 8.49609375 13.87890625 8.49609375 14 11 C11.53910088 13.46089912 4.03154122 12.77662328 1 13 C0.67 17.29 0.34 21.58 0 26 C-1.32 26 -2.64 26 -4 26 C-4 21.38 -4 16.76 -4 12 C-2.68 12 -1.36 12 0 12 C0 8.04 0 4.08 0 0 Z " fill="#EFEFEF" transform="translate(4,80)"/>
<path d="M0 0 C4.62 0 9.24 0 14 0 C14 3.96 14 7.92 14 12 C14.99 12 15.98 12 17 12 C17 16.62 17 21.24 17 26 C16.01 26 15.02 26 14 26 C13.67 21.71 13.34 17.42 13 13 C8.71 12.67 4.42 12.34 0 12 C0 8.04 0 4.08 0 0 Z " fill="#EFEFEF" transform="translate(345,185)"/>
<path d="M0 0 C4.62 0 9.24 0 14 0 C14 3.96 14 7.92 14 12 C14.99 12 15.98 12 17 12 C17 16.62 17 21.24 17 26 C16.01 26 15.02 26 14 26 C13.67 21.71 13.34 17.42 13 13 C8.71 12.67 4.42 12.34 0 12 C0 8.04 0 4.08 0 0 Z " fill="#EFEFEF" transform="translate(345,80)"/>
<path d="M0 0 C3.96 0 7.92 0 12 0 C12.33 3.96 12.66 7.92 13 12 C6.20692992 13.23510365 -0.10151834 14.26532622 -7 14 C-5.23104283 9.01475706 -2.6020365 4.5878012 0 0 Z " fill="#EFEDEB" transform="translate(280,40)"/>
<path d="M0 0 C5.41148855 -0.10528188 10.41817412 0.22873776 15.78125 1.09375 C16.82968079 1.26022034 16.82968079 1.26022034 17.89929199 1.43005371 C20.10050339 1.7809107 22.3002198 2.14029055 24.5 2.5 C26.00511723 2.74145399 27.51032498 2.98234445 29.015625 3.22265625 C32.67815097 3.80860274 36.33938887 4.40219346 40 5 C39.34 5.33 38.68 5.66 38 6 C38 6.66 38 7.32 38 8 C34.73086376 9.03115279 32.13958652 8.9638984 28.75 8.5625 C27.85796875 8.46066406 26.9659375 8.35882813 26.046875 8.25390625 C25.37140625 8.17011719 24.6959375 8.08632812 24 8 C24.33 10.31 24.66 12.62 25 15 C22.16265236 13.62421956 19.46544552 12.11624733 16.77734375 10.46875 C15.59881836 9.74751953 15.59881836 9.74751953 14.39648438 9.01171875 C13.58501953 8.51285156 12.77355469 8.01398438 11.9375 7.5 C11.12216797 7.00113281 10.30683594 6.50226563 9.46679688 5.98828125 C6.27833876 4.03381144 3.11218465 2.07478976 0 0 Z " fill="#FDFBFA" transform="translate(242,110)"/>
<path d="M0 0 C4.62 0 9.24 0 14 0 C14 4.62 14 9.24 14 14 C9.38 14 4.76 14 0 14 C0 9.38 0 4.76 0 0 Z " fill="#FEFEFE" transform="translate(345,381)"/>
<path d="M0 0 C4.62 0 9.24 0 14 0 C14 4.62 14 9.24 14 14 C9.38 14 4.76 14 0 14 C0 9.38 0 4.76 0 0 Z " fill="#FEFEFE" transform="translate(56,92)"/>
<path d="M0 0 C4.62 0 9.24 0 14 0 C14 4.62 14 9.24 14 14 C9.38 14 4.76 14 0 14 C0 9.38 0 4.76 0 0 Z " fill="#FEFEFE" transform="translate(30,66)"/>
<path d="M0 0 C10.05859375 -0.09765625 10.05859375 -0.09765625 13 0 C14 1 14 1 14.09765625 3.94140625 C14.06510417 7.29427083 14.03255208 10.64713542 14 14 C9.38 14 4.76 14 0 14 C0 9.38 0 4.76 0 0 Z " fill="#FEFEFE" transform="translate(345,407)"/>
<path d="M0 0 C10.05859375 -0.09765625 10.05859375 -0.09765625 13 0 C14 1 14 1 14.09765625 3.94140625 C14.06510417 7.29427083 14.03255208 10.64713542 14 14 C9.38 14 4.76 14 0 14 C0 9.38 0 4.76 0 0 Z " fill="#FEFEFE" transform="translate(30,407)"/>
<path d="M0 0 C10.05859375 -0.09765625 10.05859375 -0.09765625 13 0 C14 1 14 1 14.09765625 3.94140625 C14.06510417 7.29427083 14.03255208 10.64713542 14 14 C9.38 14 4.76 14 0 14 C0 9.38 0 4.76 0 0 Z " fill="#FEFEFE" transform="translate(345,197)"/>
<path d="M0 0 C10.05859375 -0.09765625 10.05859375 -0.09765625 13 0 C14 1 14 1 14.09765625 3.94140625 C14.06510417 7.29427083 14.03255208 10.64713542 14 14 C9.38 14 4.76 14 0 14 C0 9.38 0 4.76 0 0 Z " fill="#FEFEFE" transform="translate(345,92)"/>
<path d="M0 0 C4.62 0 9.24 0 14 0 C14 4.62 14 9.24 14 14 C3.94140625 14.09765625 3.94140625 14.09765625 1 14 C0 13 0 13 -0.09765625 10.05859375 C-0.06510417 6.70572917 -0.03255208 3.35286458 0 0 Z " fill="#FEFEFE" transform="translate(56,66)"/>
<path d="M0 0 C4.62 0 9.24 0 14 0 C14.09765625 10.05859375 14.09765625 10.05859375 14 13 C13 14 13 14 10.3125 14.1328125 C9.219375 14.13023437 8.12625 14.12765625 7 14.125 C5.906875 14.12757813 4.81375 14.13015625 3.6875 14.1328125 C1 14 1 14 0 13 C-0.14393457 8.66469082 -0.04212061 4.33842269 0 0 Z " fill="#FEFEFE" transform="translate(345,145)"/>
<path d="M0 0 C4.62 0 9.24 0 14 0 C14.09765625 10.05859375 14.09765625 10.05859375 14 13 C13 14 13 14 10.3125 14.1328125 C9.219375 14.13023437 8.12625 14.12765625 7 14.125 C5.906875 14.12757813 4.81375 14.13015625 3.6875 14.1328125 C1 14 1 14 0 13 C-0.14393457 8.66469082 -0.04212061 4.33842269 0 0 Z " fill="#FEFEFE" transform="translate(30,145)"/>
<path d="M0 0 C4.62 0 9.24 0 14 0 C14.09765625 10.05859375 14.09765625 10.05859375 14 13 C13 14 13 14 10.3125 14.1328125 C9.219375 14.13023438 8.12625 14.12765625 7 14.125 C5.906875 14.12757812 4.81375 14.13015625 3.6875 14.1328125 C1 14 1 14 0 13 C-0.14393457 8.66469082 -0.04212061 4.33842269 0 0 Z " fill="#FEFEFE" transform="translate(345,40)"/>
<path d="M0 0 C4.62 0 9.24 0 14 0 C14.09765625 10.05859375 14.09765625 10.05859375 14 13 C13 14 13 14 10.3125 14.1328125 C9.219375 14.13023438 8.12625 14.12765625 7 14.125 C5.906875 14.12757812 4.81375 14.13015625 3.6875 14.1328125 C1 14 1 14 0 13 C-0.14393457 8.66469082 -0.04212061 4.33842269 0 0 Z " fill="#FEFEFE" transform="translate(30,40)"/>
<path d="M0 0 C0 1.98 0 3.96 0 6 C3.96 6 7.92 6 12 6 C12 9.96 12 13.92 12 18 C8.04 18 4.08 18 0 18 C-1.26237731 15.47524538 -1.09856404 13.68799534 -1.0625 10.875 C-1.05347656 9.96492188 -1.04445313 9.05484375 -1.03515625 8.1171875 C-1.02355469 7.41851562 -1.01195312 6.71984375 -1 6 C-3.31 6 -5.62 6 -8 6 C-3.375 0 -3.375 0 0 0 Z " fill="#FFFFFF" transform="translate(333,389)"/>
<path d="M0 0 C4.29 0 8.58 0 13 0 C13.33 3.63 13.66 7.26 14 11 C10.25631258 12.87184371 9.1599209 13.23999767 5.25 13.125 C4.45078125 13.10695313 3.6515625 13.08890625 2.828125 13.0703125 C2.22484375 13.04710937 1.6215625 13.02390625 1 13 C0.67 13.99 0.34 14.98 0 16 C-2.97 15.01 -5.94 14.02 -9 13 C-5 12 -5 12 -1 12 C-0.67 8.04 -0.34 4.08 0 0 Z " fill="#EEEFEE" transform="translate(109,1)"/>
<path d="M0 0 C0.66 0 1.32 0 2 0 C2 4.29 2 8.58 2 13 C1.01 13.495 1.01 13.495 0 14 C-0.46898963 16.8159849 -0.46898963 16.8159849 -0.625 20.0625 C-0.69976562 21.16722656 -0.77453125 22.27195313 -0.8515625 23.41015625 C-0.90054687 24.26480469 -0.94953125 25.11945313 -1 26 C-3.31 26 -5.62 26 -8 26 C-8.33 26.66 -8.66 27.32 -9 28 C-9.6700834 25.87607494 -10.33596797 23.75082476 -11 21.625 C-11.37125 20.44164062 -11.7425 19.25828125 -12.125 18.0390625 C-13 15 -13 15 -13 13 C-9.04 13 -5.08 13 -1 13 C-1.020625 11.040625 -1.04125 9.08125 -1.0625 7.0625 C-1.08377188 5.04167124 -1.07244053 3.01964199 -1 1 C-0.67 0.67 -0.34 0.34 0 0 Z " fill="#EFEFEE" transform="translate(360,224)"/>
<path d="M0 0 C1.4540625 0.0309375 1.4540625 0.0309375 2.9375 0.0625 C2.67784932 1.75175678 2.40413334 3.43885305 2.125 5.125 C1.97417969 6.06472656 1.82335938 7.00445312 1.66796875 7.97265625 C0.9375 11.0625 0.9375 11.0625 -0.46875 14.15625 C-2.80278477 19.34910252 -3.65840762 24.94310224 -4.75 30.5 C-4.97494141 31.61310547 -5.19988281 32.72621094 -5.43164062 33.87304688 C-5.98203203 36.60158297 -6.52544215 39.33131384 -7.0625 42.0625 C-7.3925 42.0625 -7.7225 42.0625 -8.0625 42.0625 C-8.0625 32.4925 -8.0625 22.9225 -8.0625 13.0625 C-6.7425 13.0625 -5.4225 13.0625 -4.0625 13.0625 C-4.07410156 12.20785156 -4.08570313 11.35320312 -4.09765625 10.47265625 C-4.11119141 8.81556641 -4.11119141 8.81556641 -4.125 7.125 C-4.13660156 6.02285156 -4.14820313 4.92070312 -4.16015625 3.78515625 C-4.02168594 -0.07539595 -3.9087853 0.07977113 0 0 Z " fill="#F0F2EE" transform="translate(8.0625,236.9375)"/>
<path d="M0 0 C-0.33 4.29 -0.66 8.58 -1 13 C-5.62 13 -10.24 13 -15 13 C-15 9.04 -15 5.08 -15 1 C-10.73840618 -1.13079691 -4.59236298 -0.04502317 0 0 Z " fill="#EFEFEF" transform="translate(360,53)"/>
<path d="M0 0 C3.96 0 7.92 0 12 0 C12 4.62 12 9.24 12 14 C8.04 14 4.08 14 0 14 C-1.125 2.25 -1.125 2.25 0 0 Z " fill="#EFEFEF" transform="translate(333,171)"/>
<path d="M0 0 C3.96 0 7.92 0 12 0 C12 4.62 12 9.24 12 14 C8.04 14 4.08 14 0 14 C-1.125 2.25 -1.125 2.25 0 0 Z " fill="#EFEFEF" transform="translate(18,171)"/>
<path d="M0 0 C4.29 0 8.58 0 13 0 C13 4.29 13 8.58 13 13 C8.71 13 4.42 13 0 13 C0 8.71 0 4.42 0 0 Z " fill="#FFFFFF" transform="translate(319,145)"/>
<path d="M0 0 C4.29 0 8.58 0 13 0 C13 4.29 13 8.58 13 13 C8.71 13 4.42 13 0 13 C0 8.71 0 4.42 0 0 Z " fill="#FFFFFF" transform="translate(4,145)"/>
<path d="M0 0 C4.29 0 8.58 0 13 0 C13 4.29 13 8.58 13 13 C8.71 13 4.42 13 0 13 C0 8.71 0 4.42 0 0 Z " fill="#FFFEFE" transform="translate(293,119)"/>
<path d="M0 0 C3.96 0 7.92 0 12 0 C13.125 10.625 13.125 10.625 12 14 C8.04 14 4.08 14 0 14 C0 9.38 0 4.76 0 0 Z " fill="#EFEFEF" transform="translate(70,66)"/>
<path d="M0 0 C3.96 0 7.92 0 12 0 C12 4.62 12 9.24 12 14 C8.04 14 4.08 14 0 14 C-1.125 2.25 -1.125 2.25 0 0 Z " fill="#EFEFEF" transform="translate(18,66)"/>
<path d="M0 0 C4.29 0 8.58 0 13 0 C13 4.29 13 8.58 13 13 C8.71 13 4.42 13 0 13 C0 8.71 0 4.42 0 0 Z " fill="#FFFFFF" transform="translate(4,40)"/>
<path d="M0 0 C4.29 0 8.58 0 13 0 C13 4.29 13 8.58 13 13 C8.71 13 4.42 13 0 13 C0 8.71 0 4.42 0 0 Z " fill="#FFFFFF" transform="translate(293,14)"/>
<path d="M0 0 C4.29 0 8.58 0 13 0 C13 4.29 13 8.58 13 13 C9.04 13 5.08 13 1 13 C-0.45781334 8.62655999 -0.0598032 4.60484643 0 0 Z " fill="#FDFDFD" transform="translate(332,132)"/>
<path d="M0 0 C4.29 0 8.58 0 13 0 C13 4.29 13 8.58 13 13 C9.04 13 5.08 13 1 13 C-0.45781334 8.62655999 -0.0598032 4.60484643 0 0 Z " fill="#FDFDFD" transform="translate(17,132)"/>
<path d="M0 0 C4.29 0 8.58 0 13 0 C13 4.29 13 8.58 13 13 C9.04 13 5.08 13 1 13 C-0.45781334 8.62655999 -0.0598032 4.60484643 0 0 Z " fill="#FDFDFD" transform="translate(332,27)"/>
<path d="M0 0 C4.29 0 8.58 0 13 0 C13 4.29 13 8.58 13 13 C9.04 13 5.08 13 1 13 C-0.45781334 8.62655999 -0.0598032 4.60484643 0 0 Z " fill="#FDFDFD" transform="translate(17,27)"/>
<path d="M0 0 C4.29 0 8.58 0 13 0 C13 3.63 13 7.26 13 11 C14.98 11 16.96 11 19 11 C19 11.33 19 11.66 19 12 C12.41560686 13.1181045 6.64071597 12.74708055 0 12 C0 8.04 0 4.08 0 0 Z " fill="#EEEFEE" transform="translate(188,1)"/>
<path d="M0 0 C4.29 0 8.58 0 13 0 C14.42857143 10.71428571 14.42857143 10.71428571 12 15 C11.34 14.34 10.68 13.68 10 13 C7.56747339 12.53837573 7.56747339 12.53837573 4.875 12.375 C3.26625 12.25125 1.6575 12.1275 0 12 C0 8.04 0 4.08 0 0 Z " fill="#EFEFEE" transform="translate(4,211)"/>
<path d="M0 0 C4.62 0 9.24 0 14 0 C14 4.62 14 9.24 14 14 C7.84576594 13.63074596 5.27296499 12.17122773 1 8 C0 6 0 6 0 0 Z " fill="#FCFDFB" transform="translate(266,118)"/>
<path d="M0 0 C0 0.33 0 0.66 0 1 C2.64 1.33 5.28 1.66 8 2 C8 5.96 8 9.92 8 14 C2.72 13.34 -2.56 12.68 -8 12 C-7.01 11.67 -6.02 11.34 -5 11 C-5.33 8.36 -5.66 5.72 -6 3 C-8.97 2.505 -8.97 2.505 -12 2 C-12 1.67 -12 1.34 -12 1 C-7.95858806 0.36605303 -4.0934693 -0.12404452 0 0 Z " fill="#F0ECEB" transform="translate(298,78)"/>
<path d="M0 0 C1.51400391 0.01740234 1.51400391 0.01740234 3.05859375 0.03515625 C4.07050781 0.04417969 5.08242187 0.05320312 6.125 0.0625 C7.29869141 0.07990234 7.29869141 0.07990234 8.49609375 0.09765625 C8.66461622 1.70162902 8.83084261 3.30584315 8.99609375 4.91015625 C9.08890625 5.80347656 9.18171875 6.69679688 9.27734375 7.6171875 C9.49609375 10.09765625 9.49609375 10.09765625 9.49609375 13.09765625 C6.76767314 14.46186656 4.88656057 13.97572836 1.87109375 13.66015625 C0.86820312 13.55832031 -0.1346875 13.45648438 -1.16796875 13.3515625 C-1.93882813 13.26777344 -2.7096875 13.18398437 -3.50390625 13.09765625 C-3.53077178 11.11856227 -3.55024 9.13936654 -3.56640625 7.16015625 C-3.57800781 6.05800781 -3.58960937 4.95585938 -3.6015625 3.8203125 C-3.46938887 0.13531158 -3.46938887 0.13531158 0 0 Z " fill="#EFEFEF" transform="translate(73.50390625,118.90234375)"/>
<path d="M0 0 C1.010625 0.33 2.02125 0.66 3.0625 1 C3.0625 5.62 3.0625 10.24 3.0625 15 C-0.8975 15 -4.8575 15 -8.9375 15 C-8.9375 13.02 -8.9375 11.04 -8.9375 9 C-9.5975 8.67 -10.2575 8.34 -10.9375 8 C-5.17820022 0 -5.17820022 0 0 0 Z " fill="#EEEFEE" transform="translate(341.9375,380)"/>
<path d="M0 0 C4.29 0 8.58 0 13 0 C13.33 3.63 13.66 7.26 14 11 C8.66063922 13.66968039 5.84477941 12.76904992 0 12 C0 8.04 0 4.08 0 0 Z " fill="#EFEFEF" transform="translate(4,106)"/>
<path d="M0 0 C4.29 0 8.58 0 13 0 C13.33 3.63 13.66 7.26 14 11 C8.66063922 13.66968039 5.84477941 12.76904992 0 12 C0 8.04 0 4.08 0 0 Z " fill="#EFEFEF" transform="translate(319,1)"/>
<path d="M0 0 C4.29 0 8.58 0 13 0 C13.33 3.63 13.66 7.26 14 11 C8.66063922 13.66968039 5.84477941 12.76904992 0 12 C0 8.04 0 4.08 0 0 Z " fill="#EFEFEF" transform="translate(4,1)"/>
<path d="M0 0 C0.99773437 0.02320313 1.99546875 0.04640625 3.0234375 0.0703125 C4.52777344 0.09738281 4.52777344 0.09738281 6.0625 0.125 C6.83335937 0.14820313 7.60421875 0.17140625 8.3984375 0.1953125 C8.3984375 3.4953125 8.3984375 6.7953125 8.3984375 10.1953125 C15.3284375 10.1953125 22.2584375 10.1953125 29.3984375 10.1953125 C29.3984375 10.5253125 29.3984375 10.8553125 29.3984375 11.1953125 C4.62216863 11.81448108 4.62216863 11.81448108 -6.6015625 8.1953125 C-5.9415625 7.8653125 -5.2815625 7.5353125 -4.6015625 7.1953125 C-4.6428125 6.4115625 -4.6840625 5.6278125 -4.7265625 4.8203125 C-4.55196808 1.15382969 -3.65338939 0.27427848 0 0 Z " fill="#E7EDDF" transform="translate(126.6015625,13.8046875)"/>
<path d="M0 0 C3.96 0 7.92 0 12 0 C12 3.96 12 7.92 12 12 C8.04 12 4.08 12 0 12 C0 8.04 0 4.08 0 0 Z " fill="#FFFFFF" transform="translate(333,159)"/>
<path d="M0 0 C3.96 0 7.92 0 12 0 C12 3.96 12 7.92 12 12 C8.04 12 4.08 12 0 12 C0 8.04 0 4.08 0 0 Z " fill="#FFFFFF" transform="translate(18,159)"/>
<path d="M0 0 C3.96 0 7.92 0 12 0 C12 3.96 12 7.92 12 12 C8.04 12 4.08 12 0 12 C0 8.04 0 4.08 0 0 Z " fill="#FFFFFF" transform="translate(70,106)"/>
<path d="M0 0 C3.96 0 7.92 0 12 0 C12 3.96 12 7.92 12 12 C8.04 12 4.08 12 0 12 C0 8.04 0 4.08 0 0 Z " fill="#FFFFFF" transform="translate(44,106)"/>
<path d="M0 0 C3.96 0 7.92 0 12 0 C12 3.96 12 7.92 12 12 C8.04 12 4.08 12 0 12 C0 8.04 0 4.08 0 0 Z " fill="#FFFFFF" transform="translate(333,80)"/>
<path d="M0 0 C3.96 0 7.92 0 12 0 C12 3.96 12 7.92 12 12 C8.04 12 4.08 12 0 12 C0 8.04 0 4.08 0 0 Z " fill="#FFFFFF" transform="translate(44,80)"/>
<path d="M0 0 C3.96 0 7.92 0 12 0 C12 3.96 12 7.92 12 12 C8.04 12 4.08 12 0 12 C0 8.04 0 4.08 0 0 Z " fill="#FFFFFF" transform="translate(333,54)"/>
<path d="M0 0 C3.96 0 7.92 0 12 0 C12 3.96 12 7.92 12 12 C8.04 12 4.08 12 0 12 C0 8.04 0 4.08 0 0 Z " fill="#FEFFFE" transform="translate(70,54)"/>
<path d="M0 0 C3.96 0 7.92 0 12 0 C12 3.96 12 7.92 12 12 C8.04 12 4.08 12 0 12 C0 8.04 0 4.08 0 0 Z " fill="#FFFFFF" transform="translate(44,54)"/>
<path d="M0 0 C3.96 0 7.92 0 12 0 C12 3.96 12 7.92 12 12 C8.04 12 4.08 12 0 12 C0 8.04 0 4.08 0 0 Z " fill="#FFFFFF" transform="translate(18,54)"/>
<path d="M0 0 C4.29 0 8.58 0 13 0 C14.26237731 2.52475462 14.09856404 4.31200466 14.0625 7.125 C14.05347656 8.03507812 14.04445313 8.94515625 14.03515625 9.8828125 C14.02355469 10.58148438 14.01195312 11.28015625 14 12 C10.09224671 12 8.26345037 11.47934752 4.75 10 C3.85796875 9.62875 2.9659375 9.2575 2.046875 8.875 C1.37140625 8.58625 0.6959375 8.2975 0 8 C0 5.36 0 2.72 0 0 Z " fill="#FEFCFC" transform="translate(319,40)"/>
<path d="M0 0 C4.29 0 8.58 0 13 0 C13 3.3 13 6.6 13 10 C8.59085217 11.10228696 4.51617599 11.07654536 0 11 C0 7.37 0 3.74 0 0 Z " fill="#FEFCFC" transform="translate(293,40)"/>
<path d="M0 0 C2.31 0 4.62 0 7 0 C7.02685938 2.14576637 7.04633088 4.29162645 7.0625 6.4375 C7.07410156 7.63246094 7.08570313 8.82742188 7.09765625 10.05859375 C7 13 7 13 6 14 C4.14712498 14.07226502 2.29166122 14.0838122 0.4375 14.0625 C-0.57441406 14.05347656 -1.58632813 14.04445313 -2.62890625 14.03515625 C-3.41136719 14.02355469 -4.19382812 14.01195312 -5 14 C-4.46515599 8.65155992 -2.53309233 4.64203897 0 0 Z " fill="#FCFDFB" transform="translate(352,355)"/>
<path d="M0 0 C4.29 0 8.58 0 13 0 C13 4.29 13 8.58 13 13 C8 13 8 13 5.76171875 11.171875 C5.07722656 10.37265625 4.39273437 9.5734375 3.6875 8.75 C2.64142578 7.56664062 2.64142578 7.56664062 1.57421875 6.359375 C0 4 0 4 0 0 Z " fill="#FDFEFD" transform="translate(293,145)"/>
<path d="M0 0 C16.5 0 33 0 50 0 C50 0.33 50 0.66 50 1 C45.38 1 40.76 1 36 1 C36 4.96 36 8.92 36 13 C34.68 13 33.36 13 32 13 C31.82984375 12.45730469 31.6596875 11.91460937 31.484375 11.35546875 C31.24203125 10.64003906 30.9996875 9.92460937 30.75 9.1875 C30.51796875 8.47980469 30.2859375 7.77210937 30.046875 7.04296875 C28.71851188 4.45067803 27.48683526 3.51785616 25 2 C22.20236557 1.49888483 22.20236557 1.49888483 19.140625 1.48828125 C18.02558594 1.45283203 16.91054688 1.41738281 15.76171875 1.38085938 C14.60285156 1.35830078 13.44398438 1.33574219 12.25 1.3125 C10.48849609 1.26125977 10.48849609 1.26125977 8.69140625 1.20898438 C5.79436611 1.12654827 2.89762702 1.05738189 0 1 C0 0.67 0 0.34 0 0 Z " fill="#FDFEFC" transform="translate(256,0)"/>
<path d="M0 0 C1.65322266 0.01740234 1.65322266 0.01740234 3.33984375 0.03515625 C4.99693359 0.04869141 4.99693359 0.04869141 6.6875 0.0625 C7.54214844 0.07410156 8.39679688 0.08570313 9.27734375 0.09765625 C9.27734375 2.73765625 9.27734375 5.37765625 9.27734375 8.09765625 C6.28253458 8.96999745 3.64158464 9.20595391 0.52734375 9.16015625 C-0.271875 9.15113281 -1.07109375 9.14210938 -1.89453125 9.1328125 C-2.4978125 9.12121094 -3.10109375 9.10960937 -3.72265625 9.09765625 C-3.8203125 2.9453125 -3.8203125 2.9453125 -3.72265625 1.09765625 C-2.72265625 0.09765625 -2.72265625 0.09765625 0 0 Z " fill="#F0EEED" transform="translate(309.72265625,39.90234375)"/>
<path d="M0 0 C-0.99 0.33 -1.98 0.66 -3 1 C-3.33 3.31 -3.66 5.62 -4 8 C-8.29 8 -12.58 8 -17 8 C-17 5.36 -17 2.72 -17 0 C-14.9174133 -0.19561869 -12.83388144 -0.38119313 -10.75 -0.5625 C-9.58984375 -0.66691406 -8.4296875 -0.77132813 -7.234375 -0.87890625 C-4.48128523 -0.98198087 -2.580018 -0.86213473 0 0 Z " fill="#FEFEFE" transform="translate(87,421)"/>
<path d="M0 0 C0 0.33 0 0.66 0 1 C-1.98 1 -3.96 1 -6 1 C-6 3.31 -6 5.62 -6 8 C-7.0621875 7.86722656 -8.124375 7.73445313 -9.21875 7.59765625 C-9.90453125 7.51193359 -10.5903125 7.42621094 -11.296875 7.33789062 C-14.86458333 6.89192708 -18.43229167 6.44596354 -22 6 C-22.76441406 5.90444824 -23.52882813 5.80889648 -24.31640625 5.71044922 C-27.15820312 5.35522461 -27.15820312 5.35522461 -30 5 C-27.17031897 3.11354598 -26.03546458 2.65444762 -22.83203125 2.1484375 C-21.61483398 1.95507812 -21.61483398 1.95507812 -20.37304688 1.7578125 C-19.10557617 1.56832031 -19.10557617 1.56832031 -17.8125 1.375 C-16.98685547 1.2409375 -16.16121094 1.106875 -15.31054688 0.96875 C-10.14464916 0.17086509 -5.22568824 -0.13260109 0 0 Z " fill="#F3E7E5" transform="translate(286,80)"/>
<path d="M0 0 C0.27585937 0.56460938 0.55171875 1.12921875 0.8359375 1.7109375 C2.43898878 4.8632464 4.21459288 7.91093906 5.9765625 10.9765625 C7 13 7 13 7 15 C3.37 15 -0.26 15 -4 15 C-4 10.71 -4 6.42 -4 2 C-2.68 2 -1.36 2 0 2 C0 1.34 0 0.68 0 0 Z " fill="#ECEEEA" transform="translate(74,38)"/>
<path d="M0 0 C4.29 0 8.58 0 13 0 C13 2.64 13 5.28 13 8 C8.71 8 4.42 8 0 8 C0 5.36 0 2.72 0 0 Z " fill="#EFEFEF" transform="translate(319,421)"/>
<path d="M0 0 C4.29 0 8.58 0 13 0 C13 2.64 13 5.28 13 8 C8.71 8 4.42 8 0 8 C0 5.36 0 2.72 0 0 Z " fill="#EFEFEF" transform="translate(4,421)"/>
<path d="M0 0 C1.65322266 0.01740234 1.65322266 0.01740234 3.33984375 0.03515625 C4.99693359 0.04869141 4.99693359 0.04869141 6.6875 0.0625 C7.54214844 0.07410156 8.39679688 0.08570313 9.27734375 0.09765625 C9.27734375 2.73765625 9.27734375 5.37765625 9.27734375 8.09765625 C4.98734375 8.09765625 0.69734375 8.09765625 -3.72265625 8.09765625 C-3.76507348 5.7647085 -3.76358562 3.43063058 -3.72265625 1.09765625 C-2.72265625 0.09765625 -2.72265625 0.09765625 0 0 Z " fill="#EFEFEF" transform="translate(296.72265625,420.90234375)"/>
<path d="M0 0 C4.29 0 8.58 0 13 0 C13 1.65 13 3.3 13 5 C13.99 5.33 14.98 5.66 16 6 C8.08 7.485 8.08 7.485 0 9 C0 6.03 0 3.06 0 0 Z " fill="#EDEFEC" transform="translate(214,1)"/>
<path d="M0 0 C4.29 0 8.58 0 13 0 C11.87951514 4.48193945 11.1609391 5.07229855 7.625 7.75 C6.83351563 8.36359375 6.04203125 8.9771875 5.2265625 9.609375 C3 11 3 11 0 11 C0 7.37 0 3.74 0 0 Z " fill="#FCFDFA" transform="translate(83,119)"/>
<path d="M0 0 C3.96 0 7.92 0 12 0 C12 2.64 12 5.28 12 8 C8.04 8 4.08 8 0 8 C0 5.36 0 2.72 0 0 Z " fill="#FFFFFF" transform="translate(333,421)"/>
<path d="M0 0 C3.96 0 7.92 0 12 0 C12 2.64 12 5.28 12 8 C8.04 8 4.08 8 0 8 C0 5.36 0 2.72 0 0 Z " fill="#FFFFFF" transform="translate(44,421)"/>
<path d="M0 0 C3.96 0 7.92 0 12 0 C12 2.64 12 5.28 12 8 C8.04 8 4.08 8 0 8 C0 5.36 0 2.72 0 0 Z " fill="#FFFFFF" transform="translate(18,421)"/>
<path d="M0 0 C2.31 0 4.62 0 7 0 C7 4.29 7 8.58 7 13 C5.68 13.33 4.36 13.66 3 14 C0.56574762 9.03006806 -0.34615998 5.65394631 0 0 Z " fill="#FCFDFC" transform="translate(352,250)"/>
<path d="M0 0 C5.28 0.66 10.56 1.32 16 2 C15.01 2.495 15.01 2.495 14 3 C14 3.66 14 4.32 14 5 C10.73086376 6.03115279 8.13958652 5.9638984 4.75 5.5625 C3.85796875 5.46066406 2.9659375 5.35882813 2.046875 5.25390625 C1.37140625 5.17011719 0.6959375 5.08632812 0 5 C0 3.35 0 1.7 0 0 Z M0 5 C0.33 7.31 0.66 9.62 1 12 C-2.11197356 10.50164236 -5.08835016 8.86022073 -8 7 C-8 6.67 -8 6.34 -8 6 C-1.125 5 -1.125 5 0 5 Z " fill="#F0EBE9" transform="translate(266,113)"/>
<path d="M0 0 C20.79 1.485 20.79 1.485 42 3 C42 3.33 42 3.66 42 4 C28.14 4 14.28 4 0 4 C0 2.68 0 1.36 0 0 Z " fill="#EDF4E4" transform="translate(109,425)"/>
<path d="M0 0 C4.95 0 9.9 0 15 0 C15 3.3 15 6.6 15 10 C13.43467742 9.08816161 11.87287486 8.17027948 10.3125 7.25 C9.44238281 6.73953125 8.57226562 6.2290625 7.67578125 5.703125 C5 4 5 4 0 0 Z " fill="#EBEEE8" transform="translate(81,1)"/>
<path d="M0 0 C2.64 0 5.28 0 8 0 C8 3.96 8 7.92 8 12 C6.68 12 5.36 12 4 12 C3.32645501 10.56570999 2.66140299 9.12742943 2 7.6875 C1.62875 6.88699219 1.2575 6.08648437 0.875 5.26171875 C0 3 0 3 0 0 Z " fill="#FCFEFB" transform="translate(337,211)"/>
<path d="M0 0 C0 2.31 0 4.62 0 7 C-3.96 7 -7.92 7 -12 7 C-12 5.02 -12 3.04 -12 1 C-10.37512529 0.83211627 -8.75009558 0.66573213 -7.125 0.5 C-6.22007812 0.4071875 -5.31515625 0.314375 -4.3828125 0.21875 C-2 0 -2 0 0 0 Z " fill="#FDFEFC" transform="translate(266,422)"/>
<path d="M0 0 C4.92127034 -0.16682272 8.50343896 -0.24828052 13 2 C13 3.32 13 4.64 13 6 C8.71 6 4.42 6 0 6 C0 4.02 0 2.04 0 0 Z " fill="#FCFDFB" transform="translate(96,423)"/>
<path d="M0 0 C0.33 1.32 0.66 2.64 1 4 C1.99 4.33 2.98 4.66 4 5 C3.67 8.96 3.34 12.92 3 17 C0.69 17 -1.62 17 -4 17 C-2.68 11.39 -1.36 5.78 0 0 Z " fill="#EAEFE5" transform="translate(356,338)"/>
<path d="M0 0 C1.4540625 0.0309375 1.4540625 0.0309375 2.9375 0.0625 C2.68072411 1.81461782 2.40647047 3.56417936 2.125 5.3125 C1.97417969 6.28703125 1.82335937 7.2615625 1.66796875 8.265625 C0.90531736 11.18572338 -0.10024101 12.80455815 -2.0625 15.0625 C-2.0625 14.4025 -2.0625 13.7425 -2.0625 13.0625 C-2.7225 13.0625 -3.3825 13.0625 -4.0625 13.0625 C-4.08936553 11.08340602 -4.10883375 9.10421029 -4.125 7.125 C-4.13660156 6.02285156 -4.14820313 4.92070312 -4.16015625 3.78515625 C-4.02168594 -0.07539595 -3.9087853 0.07977113 0 0 Z " fill="#EAEEE6" transform="translate(8.0625,236.9375)"/>
<path d="M0 0 C4.22496527 4.22496527 7 7.86959474 7 14 C4.69 13.67 2.38 13.34 0 13 C0 8.71 0 4.42 0 0 Z " fill="#FAFCF7" transform="translate(4,355)"/>
<path d="M0 0 C1.51400391 0.01740234 1.51400391 0.01740234 3.05859375 0.03515625 C4.07050781 0.04417969 5.08242187 0.05320312 6.125 0.0625 C7.29869141 0.07990234 7.29869141 0.07990234 8.49609375 0.09765625 C8.49609375 1.08765625 8.49609375 2.07765625 8.49609375 3.09765625 C9.15609375 3.42765625 9.81609375 3.75765625 10.49609375 4.09765625 C8.91379315 4.43585791 7.3302 4.76801564 5.74609375 5.09765625 C4.42351562 5.37609375 4.42351562 5.37609375 3.07421875 5.66015625 C0.49609375 6.09765625 0.49609375 6.09765625 -3.50390625 6.09765625 C-3.54662725 4.4315372 -3.54454457 2.7638274 -3.50390625 1.09765625 C-2.50390625 0.09765625 -2.50390625 0.09765625 0 0 Z " fill="#EAEEE6" transform="translate(178.50390625,13.90234375)"/>
<path d="M0 0 C0 1.65 0 3.3 0 5 C-3.96 5 -7.92 5 -12 5 C-12.66 3.68 -13.32 2.36 -14 1 C-9.27685687 0.22887459 -4.78478822 -0.09764874 0 0 Z " fill="#F1E8E6" transform="translate(319,75)"/>
<path d="M0 0 C0.33 0 0.66 0 1 0 C1 3.96 1 7.92 1 12 C4.63 12 8.26 12 12 12 C9.49484216 14.50515784 7.38931835 15.05099086 4 16 C2.68 16 1.36 16 0 16 C0 15.01 0 14.02 0 13 C-5.94 13.495 -5.94 13.495 -12 14 C-12 13.34 -12 12.68 -12 12 C-8.04 12 -4.08 12 0 12 C0 8.04 0 4.08 0 0 Z " fill="#F7F8F7" transform="translate(187,1)"/>
<path d="M0 0 C4.62 1.32 9.24 2.64 14 4 C13.67 4.66 13.34 5.32 13 6 C8.71 6 4.42 6 0 6 C0 4.02 0 2.04 0 0 Z " fill="#EBEEE9" transform="translate(70,415)"/>
<path d="M0 0 C0.33 0 0.66 0 1 0 C1 1.65 1 3.3 1 5 C1.66 5 2.32 5 3 5 C3 9.62 3 14.24 3 19 C2.34 19 1.68 19 1 19 C1 20.65 1 22.3 1 24 C0.67 24 0.34 24 0 24 C0 16.08 0 8.16 0 0 Z " fill="#E1ECD4" transform="translate(359,297)"/>
<path d="M0 0 C2.64 0 5.28 0 8 0 C7.01 0.33 6.02 0.66 5 1 C5 4.96 5 8.92 5 13 C4.01 12.67 3.02 12.34 2 12 C0.65743047 7.68964518 0 4.52218352 0 0 Z " fill="#E8EEE1" transform="translate(354,263)"/>
<path d="M0 0 C1.32 0 2.64 0 4 0 C4 3.96 4 7.92 4 12 C3.01 12.495 3.01 12.495 2 13 C1.34 12.67 0.68 12.34 0 12 C0 8.04 0 4.08 0 0 Z " fill="#FDFDFD" transform="translate(0,211)"/>
<path d="M0 0 C1.32 0 2.64 0 4 0 C4 3.96 4 7.92 4 12 C3.01 12.495 3.01 12.495 2 13 C1.34 12.67 0.68 12.34 0 12 C0 8.04 0 4.08 0 0 Z " fill="#FDFDFD" transform="translate(0,106)"/>
<path d="M0 0 C1.32 0 2.64 0 4 0 C4 3.96 4 7.92 4 12 C2.68 12 1.36 12 0 12 C0 8.04 0 4.08 0 0 Z " fill="#FEFEFE" transform="translate(0,395)"/>
<path d="M0 0 C1.32 0 2.64 0 4 0 C4 3.96 4 7.92 4 12 C2.68 12 1.36 12 0 12 C0 8.04 0 4.08 0 0 Z " fill="#FEFEFE" transform="translate(0,185)"/>
<path d="M0 0 C1.32 0 2.64 0 4 0 C4 3.96 4 7.92 4 12 C2.68 12 1.36 12 0 12 C0 8.04 0 4.08 0 0 Z " fill="#FEFEFE" transform="translate(0,80)"/>
<path d="M0 0 C0 2.31 0 4.62 0 7 C-2.97 7 -5.94 7 -9 7 C-6.82616588 2.86971516 -4.97872903 0 0 0 Z " fill="#FBFDF9" transform="translate(319,400)"/>
<path d="M0 0 C0 5.28 0 10.56 0 16 C-0.33 16 -0.66 16 -1 16 C-1 12.7 -1 9.4 -1 6 C-3.31 6 -5.62 6 -8 6 C-3.375 0 -3.375 0 0 0 Z " fill="#F9FAF8" transform="translate(333,389)"/>
<path d="M0 0 C5.15171623 -0.09038099 9.91913204 0.15318867 15 1 C14.01 1.33 13.02 1.66 12 2 C12 3.65 12 5.3 12 7 C8.04 5.02 4.08 3.04 0 1 C0 0.67 0 0.34 0 0 Z " fill="#EAE2D4" transform="translate(242,110)"/>
<path d="M0 0 C4.29 0.66 8.58 1.32 13 2 C13 2.66 13 3.32 13 4 C8.71 4 4.42 4 0 4 C0 2.68 0 1.36 0 0 Z " fill="#EFEFEE" transform="translate(109,425)"/>
<path d="M0 0 C0.66 0 1.32 0 2 0 C2 4.29 2 8.58 2 13 C1.01 13 0.02 13 -1 13 C-1.02686553 11.02090602 -1.04633375 9.04171029 -1.0625 7.0625 C-1.07410156 5.96035156 -1.08570313 4.85820312 -1.09765625 3.72265625 C-1 1 -1 1 0 0 Z " fill="#FEFEFE" transform="translate(360,342)"/>
<path d="M0 0 C0.66 0 1.32 0 2 0 C2 4.29 2 8.58 2 13 C1.01 13 0.02 13 -1 13 C-1.02686553 11.02090602 -1.04633375 9.04171029 -1.0625 7.0625 C-1.07410156 5.96035156 -1.08570313 4.85820312 -1.09765625 3.72265625 C-1 1 -1 1 0 0 Z " fill="#FEFEFE" transform="translate(360,237)"/>
<path d="M0 0 C0.66 0 1.32 0 2 0 C2 4.29 2 8.58 2 13 C1.01 13 0.02 13 -1 13 C-1.02686553 11.02090602 -1.04633375 9.04171029 -1.0625 7.0625 C-1.07410156 5.96035156 -1.08570313 4.85820312 -1.09765625 3.72265625 C-1 1 -1 1 0 0 Z " fill="#FEFEFE" transform="translate(360,132)"/>
<path d="M0 0 C0 2.64 0 5.28 0 8 C-2.31 8.33 -4.62 8.66 -7 9 C-5.99432671 5.98298013 -3.90847918 0 0 0 Z " fill="#FAFCF6" transform="translate(280,45)"/>
<path d="M0 0 C0.66 0 1.32 0 2 0 C2 4.29 2 8.58 2 13 C1.01 13 0.02 13 -1 13 C-1.02686553 11.02090602 -1.04633375 9.04171029 -1.0625 7.0625 C-1.07410156 5.96035156 -1.08570313 4.85820312 -1.09765625 3.72265625 C-1 1 -1 1 0 0 Z " fill="#FEFEFE" transform="translate(360,27)"/>
<path d="M0 0 C0.99 0 1.98 0 3 0 C3 3.96 3 7.92 3 12 C2.01 12 1.02 12 0 12 C0 8.04 0 4.08 0 0 Z " fill="#FFFFFF" transform="translate(359,395)"/>
<path d="M0 0 C0.99 0 1.98 0 3 0 C3 3.96 3 7.92 3 12 C2.01 12 1.02 12 0 12 C0 8.04 0 4.08 0 0 Z " fill="#FFFFFF" transform="translate(359,369)"/>
<path d="M0 0 C0.99 0 1.98 0 3 0 C3 3.96 3 7.92 3 12 C2.01 12 1.02 12 0 12 C0 8.04 0 4.08 0 0 Z " fill="#FFFFFF" transform="translate(359,264)"/>
<path d="M0 0 C0.99 0 1.98 0 3 0 C3 3.96 3 7.92 3 12 C2.01 12 1.02 12 0 12 C0 8.04 0 4.08 0 0 Z " fill="#FFFFFF" transform="translate(359,211)"/>
<path d="M0 0 C0.99 0 1.98 0 3 0 C3 3.96 3 7.92 3 12 C2.01 12 1.02 12 0 12 C0 8.04 0 4.08 0 0 Z " fill="#FFFFFF" transform="translate(359,185)"/>
<path d="M0 0 C2.31 0 4.62 0 7 0 C7 2.97 7 5.94 7 9 C4.03595495 6.19195732 1.55500981 3.81684226 0 0 Z " fill="#ECEFEA" transform="translate(312,171)"/>
<path d="M0 0 C0.99 0 1.98 0 3 0 C3 3.96 3 7.92 3 12 C2.01 12 1.02 12 0 12 C0 8.04 0 4.08 0 0 Z " fill="#FFFFFF" transform="translate(359,159)"/>
<path d="M0 0 C0.99 0 1.98 0 3 0 C3 3.96 3 7.92 3 12 C2.01 12 1.02 12 0 12 C0 8.04 0 4.08 0 0 Z " fill="#FFFFFF" transform="translate(359,106)"/>
<path d="M0 0 C0.99 0 1.98 0 3 0 C3 3.96 3 7.92 3 12 C2.01 12 1.02 12 0 12 C0 8.04 0 4.08 0 0 Z " fill="#FFFFFF" transform="translate(359,80)"/>
<path d="M0 0 C2.6486859 3.19668988 4.93992341 6.39486597 7 10 C4.69 10 2.38 10 0 10 C0 6.7 0 3.4 0 0 Z " fill="#E7ECE1" transform="translate(83,56)"/>
<path d="M0 0 C0.99 0 1.98 0 3 0 C3 3.96 3 7.92 3 12 C2.01 12 1.02 12 0 12 C0 8.04 0 4.08 0 0 Z " fill="#FFFFFF" transform="translate(359,54)"/>
<path d="M0 0 C0.66 0 1.32 0 2 0 C2 4.29 2 8.58 2 13 C1.01 13.33 0.02 13.66 -1 14 C-1.18451025 4.58997722 -1.18451025 4.58997722 0 0 Z " fill="#FCFDFB" transform="translate(360,316)"/>
<path d="M0 0 C1.98 0 3.96 0 6 0 C4.6302836 3.99500618 2.74277578 6.80009492 0 10 C0 6.7 0 3.4 0 0 Z " fill="#EAEDE5" transform="translate(30,185)"/>
<path d="M0 0 C1.32 0 2.64 0 4 0 C4 2.64 4 5.28 4 8 C2.68 8 1.36 8 0 8 C0 5.36 0 2.72 0 0 Z " fill="#FEFEFE" transform="translate(0,421)"/>
<path d="M0 0 C4.62 0 9.24 0 14 0 C14.33 0.66 14.66 1.32 15 2 C10.05 2.33 5.1 2.66 0 3 C0 2.01 0 1.02 0 0 Z " fill="#EAEEE7" transform="translate(240,1)"/>
<path d="M0 0 C0.99 0 1.98 0 3 0 C3 3.96 3 7.92 3 12 C2.34 12 1.68 12 1 12 C0.01751476 7.9472484 -0.08159574 4.16138263 0 0 Z " fill="#FCFEFB" transform="translate(359,290)"/>
<path d="M0 0 C3.3 0 6.6 0 10 0 C6.68366796 2.48724903 3.70626844 4.23109915 0 6 C0 4.02 0 2.04 0 0 Z " fill="#E9EDE5" transform="translate(109,108)"/>
<path d="M0 0 C0 2.31 0 4.62 0 7 C-1.98 7 -3.96 7 -6 7 C-5.60799596 4.15797072 -5.2043974 3.17884772 -3 1.25 C-1 0 -1 0 0 0 Z " fill="#FBFDF8" transform="translate(345,374)"/>
<path d="M0 0 C0.99 0 1.98 0 3 0 C2.03644647 10.55808656 2.03644647 10.55808656 1 15 C0.67 15 0.34 15 0 15 C0 10.05 0 5.1 0 0 Z " fill="#F6FAF1" transform="translate(0,264)"/>
<path d="M0 0 C2.64 0 5.28 0 8 0 C8.33 1.98 8.66 3.96 9 6 C5.88802644 4.50164236 2.91164984 2.86022073 0 1 C0 0.67 0 0.34 0 0 Z " fill="#E7EDE1" transform="translate(258,119)"/>
<path d="M0 0 C3.625 -0.1875 3.625 -0.1875 7 0 C7.33 1.32 7.66 2.64 8 4 C4.7 3.67 1.4 3.34 -2 3 C-1.34 2.01 -0.68 1.02 0 0 Z " fill="#FCF6F4" transform="translate(299,77)"/>
<path d="M0 0 C0.99 0 1.98 0 3 0 C3 2.64 3 5.28 3 8 C2.01 8 1.02 8 0 8 C0 5.36 0 2.72 0 0 Z " fill="#FFFFFF" transform="translate(359,421)"/>
<path d="M0 0 C-2.17424117 2.50037734 -3.73045798 3.43628586 -7 4 C-7 3.34 -7 2.68 -7 2 C-7.66 1.67 -8.32 1.34 -9 1 C-5.92677456 0.08941469 -3.19902639 -0.08886184 0 0 Z " fill="#95D250" transform="translate(304,407)"/>
</svg>
