<?xml version="1.0" encoding="UTF-8"?>
<svg version="1.1" xmlns="http://www.w3.org/2000/svg" width="399" height="351">
<path d="M0 0 C25.10434533 10.2573922 50.2009315 17.4001245 76.66015625 23.08691406 C77.32803162 23.23050354 77.99590698 23.37409302 78.684021 23.52203369 C82.6754696 24.37979211 86.6675468 25.23457656 90.66015625 26.08691406 C90.66015625 26.74691406 90.66015625 27.40691406 90.66015625 28.08691406 C91.32015625 28.08691406 91.98015625 28.08691406 92.66015625 28.08691406 C95.24200393 33.14733551 96.48055025 36.41156807 94.66015625 42.08691406 C90.4174546 45.49883258 86.72765925 46.81214626 81.41015625 47.77441406 C80.75047852 47.89469971 80.09080078 48.01498535 79.41113281 48.13891602 C55.36029682 52.3968178 31.39998415 48.63869072 8.02392578 42.32763672 C1.41390596 40.54492964 -3.6151626 39.64591096 -10.33984375 41.08691406 C-10.33984375 41.74691406 -10.33984375 42.40691406 -10.33984375 43.08691406 C-8.09796756 43.76443438 -5.85478028 44.43676855 -3.609375 45.10253906 C-1.28818688 45.8013914 1.02636009 46.5224732 3.3359375 47.25878906 C30.27077282 55.7257233 65.47201265 62.034125 92.66015625 51.08691406 C96.99360825 48.64934731 98.64207274 45.90524228 100.1640625 41.31347656 C101.2453043 36.46065905 101.23068815 31.79850976 99.66015625 27.08691406 C104.27391324 24.06803603 109.21689372 22.07342112 114.28515625 19.96191406 C121.52686196 16.91247557 128.65336982 13.70370599 135.72265625 10.27441406 C156.1196148 0.48379029 156.1196148 0.48379029 165.66015625 2.08691406 C168.92801158 3.40796196 170.20471081 4.30615045 171.97265625 7.33691406 C173.51343393 13.50002478 172.87845225 17.66119708 169.66015625 23.08691406 C167.03125 25.64160156 167.03125 25.64160156 164.09765625 27.96191406 C163.12699219 28.74308594 162.15632812 29.52425781 161.15625 30.32910156 C158.66015625 32.08691406 158.66015625 32.08691406 156.66015625 32.08691406 C156.66015625 32.74691406 156.66015625 33.40691406 156.66015625 34.08691406 C154.61225676 35.83186984 152.55462575 37.46797884 150.41015625 39.08691406 C144.4517527 43.65813156 138.68280736 48.390972 132.98828125 53.28613281 C130.66015625 55.08691406 130.66015625 55.08691406 128.66015625 55.08691406 C128.66015625 55.74691406 128.66015625 56.40691406 128.66015625 57.08691406 C127.11328125 58.27832031 127.11328125 58.27832031 124.91015625 59.64941406 C121.06534787 62.12021569 117.41520496 64.74737941 113.78515625 67.52441406 C106.85599376 72.76332108 99.86012303 78.05043262 91.66015625 81.08691406 C91.66015625 81.74691406 91.66015625 82.40691406 91.66015625 83.08691406 C34.53042707 115.06263508 34.53042707 115.06263508 1.66015625 107.08691406 C-11.62398 103.30536531 -24.22906562 96.76212432 -36.46484375 90.46191406 C-48.5949193 84.37631684 -61.57717032 79.03722932 -75.33984375 79.08691406 C-75.83484375 78.59191406 -75.83484375 78.59191406 -76.33984375 78.08691406 C-79.6366923 77.8008239 -82.933655 77.63801259 -86.23828125 77.46582031 C-89.33984375 77.08691406 -89.33984375 77.08691406 -92.33984375 75.08691406 C-92.45775631 72.32980067 -92.38154496 69.83475665 -92.15625 67.09863281 C-92.09965714 66.26547043 -92.04306427 65.43230804 -91.98475647 64.57389832 C-91.78690013 61.74338141 -91.56441046 58.91543091 -91.33984375 56.08691406 C-91.1830262 54.00442497 -91.02662523 51.92190448 -90.87060547 49.83935547 C-90.36396474 43.19067215 -89.82217843 36.54505785 -89.27734375 29.89941406 C-89.08894829 27.57716825 -88.90079577 25.25490272 -88.71289062 22.93261719 C-88.2580003 17.31715305 -87.80014391 11.70193721 -87.33984375 6.08691406 C-84.63825186 6.58838012 -82.27062843 7.11492979 -79.71484375 8.14941406 C-69.95489992 10.86050957 -62.15762369 8.62617443 -53.33984375 4.08691406 C-51.64035761 3.08616244 -49.95218332 2.06588867 -48.27734375 1.02441406 C-31.55354656 -9.23249483 -17.22565816 -7.1285471 0 0 Z " fill="#1C3342" transform="translate(140.33984375,239.9130859375)"/>
<path d="M0 0 C1.02017212 0.00499512 2.04034424 0.00999023 3.09143066 0.01513672 C6.66398878 0.0373826 10.236188 0.07350084 13.80859375 0.11328125 C14.82601717 0.12456747 14.82601717 0.12456747 15.8639946 0.1360817 C26.69950902 0.25812087 37.53447995 0.41396702 48.3694458 0.57684326 C52.49367428 0.63845436 56.61793212 0.69803457 60.7421875 0.7578125 C68.76435208 0.87437356 76.7864827 0.99309257 84.80859375 1.11328125 C86.25816831 4.01243036 85.92792299 6.52756425 85.92211914 9.76611328 C85.92226517 10.44915527 85.92241119 11.13219727 85.92256165 11.8359375 C85.92186398 14.09768835 85.9140784 16.35935725 85.90625 18.62109375 C85.9043853 20.18765213 85.90296164 21.75421109 85.90196228 23.32077026 C85.89814118 27.44718023 85.88831435 31.57355509 85.8772583 35.69995117 C85.86703545 39.90933762 85.86246278 44.11872972 85.85742188 48.328125 C85.84669173 56.58985987 85.82962017 64.8515662 85.80859375 73.11328125 C84.94693604 73.10280762 84.08527832 73.09233398 83.19750977 73.08154297 C79.96021536 73.04718925 76.72301478 73.02225112 73.4855957 73.00341797 C72.09200966 72.99344195 70.69844409 72.97985624 69.30493164 72.96240234 C53.10548059 72.76477718 42.56820389 75.76317354 30.359375 86.77734375 C28.80859375 88.11328125 28.80859375 88.11328125 25.68359375 90.17578125 C22.62903027 92.23429142 20.38982494 94.48424948 17.80859375 97.11328125 C16.71156684 98.19077206 15.61251012 99.2661991 14.51171875 100.33984375 C13.3606148 101.47259296 12.20957398 102.60540633 11.05859375 103.73828125 C10.46949219 104.310625 9.88039063 104.88296875 9.2734375 105.47265625 C8.71269531 106.02695313 8.15195312 106.58125 7.57421875 107.15234375 C7.06665039 107.64943848 6.55908203 108.1465332 6.03613281 108.65869141 C4.56899446 110.21512332 4.56899446 110.21512332 3.80859375 113.11328125 C3.14859375 113.11328125 2.48859375 113.11328125 1.80859375 113.11328125 C1.57398438 113.726875 1.339375 114.34046875 1.09765625 114.97265625 C-1.31271783 118.97533806 -5.88247024 119.87311758 -10.19140625 121.11328125 C-15.17150213 122.00099887 -19.20985916 121.23280935 -23.5234375 118.44921875 C-27.80157225 115.02270333 -32.02118892 110.57429546 -33.19140625 105.11328125 C-33.78776801 93.37688189 -25.05094545 81.96579468 -18.19140625 73.11328125 C-17.53140625 73.11328125 -16.87140625 73.11328125 -16.19140625 73.11328125 C-15.95164062 72.53578125 -15.711875 71.95828125 -15.46484375 71.36328125 C-13.93989311 68.66888993 -12.17100977 67.11586763 -9.81640625 65.11328125 C-6.81849966 62.54651173 -3.95119134 59.93607513 -1.19140625 57.11328125 C-2.18140625 56.12328125 -3.17140625 55.13328125 -4.19140625 54.11328125 C-10.47872749 56.24628011 -14.49248088 60.57986167 -19.19140625 65.11328125 C-19.89910156 65.76039062 -20.60679687 66.4075 -21.3359375 67.07421875 C-26.86482783 72.59220397 -29.60526802 78.89891009 -32.40283203 86.08178711 C-32.70946777 86.84499268 -33.01610352 87.60819824 -33.33203125 88.39453125 C-33.59532227 89.08611328 -33.85861328 89.77769531 -34.12988281 90.49023438 C-35.19140625 92.11328125 -35.19140625 92.11328125 -36.88525391 92.96313477 C-40.2093554 93.17955679 -42.7813226 92.2490421 -45.94921875 91.234375 C-46.60574936 91.02708771 -47.26227997 90.81980042 -47.93870544 90.60623169 C-50.06794788 89.93109189 -52.19211769 89.24133391 -54.31640625 88.55078125 C-55.77442117 88.08446331 -57.23267398 87.61888854 -58.69116211 87.15405273 C-62.23466859 86.02151371 -65.77395087 84.87646481 -69.31134033 83.72497559 C-70.98796948 83.17947102 -72.66555115 82.63689608 -74.34326172 82.09472656 C-76.81561244 81.29473087 -79.28571006 80.48849321 -81.75390625 79.67578125 C-82.4288916 79.45398193 -83.10387695 79.23218262 -83.79931641 79.00366211 C-88.03963562 77.58021217 -92.09448184 75.8958373 -96.19140625 74.11328125 C-98.18404216 73.42491612 -100.18181962 72.75046726 -102.19140625 72.11328125 C-101.82879995 58.10349225 -96.83430095 45.04082752 -87.09375 34.9375 C-81.94336481 30.11412339 -76.38402349 26.45658885 -70.19140625 23.11328125 C-69.24523437 22.59378906 -68.2990625 22.07429688 -67.32421875 21.5390625 C-56.54179691 15.88422268 -45.18857022 11.60901573 -33.86401367 7.17895508 C-31.65769366 6.2992084 -29.48063668 5.38190548 -27.30859375 4.421875 C-18.37971772 0.67353732 -9.55908744 -0.09309061 0 0 Z " fill="#1C3342" transform="translate(259.19140625,24.88671875)"/>
<path d="M0 0 C8.38481562 1.37590038 16.28880921 3.9002668 24.33203125 6.5859375 C25.72055159 7.04467967 27.1092533 7.50287317 28.49812317 7.96055603 C32.18113278 9.17570491 35.86183969 10.39768675 39.54212189 11.62106705 C43.33515538 12.88063387 47.13023811 14.13399046 50.92529297 15.38745117 C52.43982172 15.88773389 53.95434809 16.38802378 55.46887207 16.88832092 C56.21450912 17.13461809 56.96014618 17.38091526 57.7283783 17.63467598 C59.97402493 18.37677681 62.21940467 19.11968019 64.46472168 19.86277771 C72.83860754 22.63319174 81.21863223 25.38282019 89.61328125 28.08984375 C90.94982506 28.52094452 90.94982506 28.52094452 92.31336975 28.96075439 C95.5202325 29.99391312 98.72756807 31.02553125 101.93667603 32.05169678 C104.0132278 32.71572952 106.0887061 33.38302427 108.1640625 34.05078125 C109.28248535 34.40825439 110.4009082 34.76572754 111.55322266 35.1340332 C114 36 114 36 115 37 C115.10668305 38.68618487 115.18497589 40.37419536 115.25 42.0625 C115.71286197 47.80348157 117.38151815 51.56579103 121 56 C121.53415527 56.44021484 122.06831055 56.88042969 122.61865234 57.33398438 C124 59 124 59 124.00488281 60.98828125 C122.23848392 68.42904119 120.09749103 75.7219927 117.75 83 C117.38003906 84.22589844 117.01007813 85.45179688 116.62890625 86.71484375 C116.25121094 87.88144531 115.87351563 89.04804688 115.484375 90.25 C115.15147461 91.30703125 114.81857422 92.3640625 114.47558594 93.453125 C113 96 113 96 109.9753418 97.32373047 C108.993479 97.54689941 108.01161621 97.77006836 107 98 C100.6616638 99.72971418 97.72612461 101.91081308 94.03125 107.453125 C92 109 92 109 88.67578125 109.02734375 C82.87252925 107.98003088 77.31482168 105.9419453 71.75335693 104.02438354 C68.10802362 102.76822066 64.4536028 101.53886672 60.80078125 100.3046875 C60.01948853 100.03992111 59.2381958 99.77515472 58.43322754 99.50236511 C49.68760491 96.54351905 40.90989382 93.68437865 32.1289978 90.83224487 C29.38215532 89.93982469 26.63597199 89.04539992 23.88989258 88.15063477 C15.40497419 85.38849601 6.91415619 82.64757676 -1.59375 79.95703125 C-3.05912308 79.49174709 -4.5244564 79.02633771 -5.98974609 78.56079102 C-8.68281718 77.70515987 -11.37870976 76.85938806 -14.07666016 76.01928711 C-15.25019043 75.64682861 -16.4237207 75.27437012 -17.6328125 74.890625 C-18.65262207 74.57125977 -19.67243164 74.25189453 -20.72314453 73.92285156 C-23 73 -23 73 -24 71 C-23.95875 69.96875 -23.9175 68.9375 -23.875 67.875 C-24.01960533 63.39223473 -24.84752484 59.93643317 -27 56 C-27.9075 55.175 -28.815 54.35 -29.75 53.5 C-30.4925 52.675 -31.235 51.85 -32 51 C-31.67897174 45.53926222 -30.45259751 40.61876352 -28.71484375 35.4375 C-28.3840255 34.42236328 -28.3840255 34.42236328 -28.04652405 33.38671875 C-27.350292 31.25551887 -26.64410463 29.12778039 -25.9375 27 C-25.45962003 25.54318719 -24.9824005 24.08615756 -24.50585938 22.62890625 C-23.34485305 19.08340226 -22.17490336 15.54092661 -21 12 C-20.32960693 11.88897949 -19.65921387 11.77795898 -18.96850586 11.66357422 C-12.29975503 10.53162761 -12.29975503 10.53162761 -6.5625 7.125 C-5.94503906 6.63257812 -5.32757813 6.14015625 -4.69140625 5.6328125 C-2.88593589 3.8898873 -1.48338712 2.01923507 0 0 Z M22 38 C17.59346386 44.76676526 16.21144614 52.51224594 17.5625 60.4375 C19.83825775 69.00153576 24.19925124 75.38294841 31.8515625 79.8828125 C39.33625154 83.7748508 47.39140443 84.2066882 55.5625 82.0625 C62.93149723 79.22623128 69.31463324 73.42051175 72.625 66.25 C75.07179023 58.75816134 75.36044779 50.48826829 72.375 43.125 C68.00172226 34.83399429 62.71564195 30.48050388 54 27 C41.27019321 23.2193431 30.36959622 28.36042848 22 38 Z M-17 32 C-18.19308162 35.65878362 -18.32667744 37.29997692 -16.6875 40.8125 C-15.18421412 43.08915626 -15.18421412 43.08915626 -13 44 C-9.40129038 44.39116409 -7.65560381 44.47841359 -4.6875 42.3125 C-2.77321372 39.6892188 -2.07921625 38.2478662 -2 35 C-3.75113525 31.28738773 -3.75113525 31.28738773 -7 29 C-11.34074258 28.62254412 -13.99693858 28.66326509 -17 32 Z M95 68 C93.74588432 71.36174137 93.74588432 71.36174137 94 75 C96.43072497 78.46194162 97.87821287 79.79395747 102.0625 80.5625 C105.04892256 80.18486055 105.04892256 80.18486055 107.375 78.4375 C109.62340519 75.06489221 109.56783945 72.97487617 109 69 C107.52006844 66.43661311 107.52006844 66.43661311 105 65 C100.70383802 64.37347638 97.91449678 64.65372592 95 68 Z " fill="#3579BB" transform="translate(133,116)"/>
<path d="M0 0 C6.69087774 1.24693441 13.04764193 3.20219465 19.49609375 5.3515625 C20.50301773 5.68299759 21.50994171 6.01443268 22.54737854 6.35591125 C24.71634732 7.07016675 26.88470023 7.78629469 29.05249023 8.50411987 C34.84331678 10.42163942 40.63842166 12.32613002 46.43359375 14.23046875 C47.62673187 14.62281204 48.81987 15.01515533 50.04916382 15.41938782 C58.49039999 18.19011344 66.9451691 20.91604101 75.41015625 23.61328125 C76.56067978 23.97995911 77.71120331 24.34663696 78.89659119 24.72442627 C84.43136468 26.48679075 89.9677884 28.24383796 95.50561523 29.99658203 C97.50376466 30.63176935 99.50189402 31.26701977 101.5 31.90234375 C102.40802872 32.1880574 103.31605743 32.47377106 104.25160217 32.7681427 C105.08638596 33.03406723 105.92116974 33.29999176 106.78125 33.57397461 C107.50376953 33.80249619 108.22628906 34.03101776 108.97070312 34.26646423 C111.09796375 35.03541124 113.042832 35.86317368 115 37 C115.79296875 39.0234375 115.79296875 39.0234375 116.1875 41.375 C116.32542969 42.14585937 116.46335938 42.91671875 116.60546875 43.7109375 C116.73566406 44.46632812 116.86585938 45.22171875 117 46 C117.32151658 47.33623201 117.65097942 48.67068682 118 50 C111.06628981 49.38879144 104.80342468 47.06462334 98.25 44.8125 C95.58058407 43.90672349 92.90942967 43.00612141 90.23828125 42.10546875 C89.52152725 41.86324585 88.80477325 41.62102295 88.06629944 41.37145996 C79.1600605 38.36770357 70.22278739 35.4589698 61.28479004 32.55136108 C58.49381255 31.64332119 55.7034336 30.73345946 52.91308594 29.82348633 C38.17918456 23.95131795 38.17918456 23.95131795 23 21 C22.4740625 22.299375 22.4740625 22.299375 21.9375 23.625 C19.33023123 28.16669399 15.71729259 31.6413537 11 34 C9.45976004 34.06950541 7.91665012 34.08452357 6.375 34.0625 C5.14910156 34.04896484 5.14910156 34.04896484 3.8984375 34.03515625 C3.27195313 34.02355469 2.64546875 34.01195312 2 34 C1.79431396 34.68288086 1.58862793 35.36576172 1.37670898 36.06933594 C-3.08523734 50.83940501 -7.75844862 65.48745461 -13 80 C-12.22011719 80.28230469 -11.44023438 80.56460938 -10.63671875 80.85546875 C-6.58273129 82.6151996 -4.8631006 85.52039897 -2.6875 89.25 C-1.56926995 93.72292021 -1.91884851 98.83769701 -4 103 C-3.12867432 103.22151733 -3.12867432 103.22151733 -2.23974609 103.44750977 C7.08798302 105.90027893 16.21486623 108.93195475 25.375 111.9375 C27.21338773 112.53838934 29.0518503 113.13904977 30.89038086 113.73950195 C41.22973255 117.1185124 51.56406516 120.51285022 61.89898682 123.90538025 C64.66110615 124.81206855 67.42327366 125.71860986 70.18548584 126.62501526 C71.56652934 127.07821346 72.94757182 127.53141475 74.32861328 127.98461914 C75.01122475 128.20861924 75.69383621 128.43261934 76.39713287 128.66340733 C80.47510724 130.00179635 84.55257498 131.34171544 88.62964535 132.68285561 C90.57987794 133.32420053 92.53029642 133.96497659 94.48078918 134.60552979 C96.8758862 135.3921586 99.27067442 136.17972855 101.66508484 136.96844482 C108.08333381 139.07475304 114.51783759 141.09906142 121 143 C121.3403125 141.6696875 121.3403125 141.6696875 121.6875 140.3125 C123.62331533 135.42687083 126.6907959 132.87280273 131 130 C135.04794905 129.19041019 138.05102453 128.84568409 142 130 C142.27706787 128.85184814 142.55413574 127.70369629 142.83959961 126.52075195 C143.92523272 122.18256656 145.21251188 117.92887491 146.56640625 113.66796875 C146.80536118 112.90954178 147.0443161 112.15111481 147.29051208 111.3697052 C148.04562965 108.97493199 148.80403548 106.581215 149.5625 104.1875 C150.07508151 102.56321784 150.58745316 100.93886944 151.09960938 99.31445312 C154.73018385 87.80944845 154.73018385 87.80944845 156 84 C155.44570313 83.55269531 154.89140625 83.10539062 154.3203125 82.64453125 C146.69721783 76.28290954 146.69721783 76.28290954 146 72 C145.88443696 67.02253459 146.02218234 63.26541109 149.125 59.25 C150.07375 58.5075 151.0225 57.765 152 57 C152.7425 56.14148438 152.7425 56.14148438 153.5 55.265625 C155.27102818 53.34133476 156.62308941 52.10833471 159 51 C162.95299625 51.27402776 166.34290748 52.53072822 170 54 C170.73476563 54.27070313 171.46953125 54.54140625 172.2265625 54.8203125 C176.80514706 56.61029412 176.80514706 56.61029412 178 59 C177.55993652 60.99739075 177.55993652 60.99739075 176.75585938 63.48364258 C176.30913879 64.88330009 176.30913879 64.88330009 175.85339355 66.31123352 C175.52021118 67.32872177 175.18702881 68.34621002 174.84375 69.39453125 C174.50380005 70.45169846 174.1638501 71.50886566 173.81359863 72.59806824 C172.71598677 76.00515763 171.60801912 79.40878272 170.5 82.8125 C169.78319835 85.03429373 169.06704527 87.25629682 168.3515625 89.47851562 C165.05659309 99.69164338 161.71225799 109.88643668 158.29296875 120.05859375 C156.17984484 126.34864575 154.16034383 132.65516813 152.26953125 139.015625 C152.06218353 139.70806808 151.85483582 140.40051117 151.64120483 141.11393738 C150.81484676 143.87547381 149.98958274 146.63690915 149.18969727 149.40625 C148.58569236 151.48925325 147.96095415 153.56503195 147.33203125 155.640625 C146.97858643 156.84235352 146.6251416 158.04408203 146.26098633 159.28222656 C145 162 145 162 143.15405273 162.72743225 C139.48927441 163.19116295 136.17180497 161.74602182 132.73046875 160.60546875 C131.91148605 160.34307404 131.09250336 160.08067932 130.248703 159.81033325 C127.55838415 158.94579285 124.8730453 158.06674537 122.1875 157.1875 C120.30124219 156.57809646 118.41468282 155.96962561 116.52783203 155.36206055 C112.7454176 154.14240329 108.96490007 152.91713356 105.18603516 151.68652344 C100.90256064 150.29189479 96.61505431 148.91087112 92.32421875 147.5390625 C73.15008106 141.40248018 54.02660148 135.10873052 34.89575195 128.83886719 C23.882921 125.23017008 12.8685841 121.62657162 1.84375 118.0546875 C0.44726479 117.60205284 0.44726479 117.60205284 -0.97743225 117.14027405 C-5.27376641 115.74810517 -9.57077764 114.35808443 -13.86889648 112.97143555 C-15.38006384 112.48231556 -16.89121401 111.99314246 -18.40234375 111.50390625 C-19.06129639 111.29220795 -19.72024902 111.08050964 -20.39916992 110.86239624 C-24.98855266 109.37399776 -29.49291578 107.71774253 -34 106 C-32.76184563 100.02572197 -31.24464052 94.22652092 -29.3828125 88.41796875 C-29.12958725 87.61810043 -28.876362 86.81823212 -28.61546326 85.99412537 C-27.78954593 83.39054766 -26.9575548 80.78896212 -26.125 78.1875 C-25.54413995 76.36313425 -24.96333011 74.53875251 -24.38256836 72.71435547 C-20.05374468 59.14932456 -15.5895538 45.6314054 -11.05395508 32.13427734 C-8.13913277 23.45626781 -5.2808102 14.76505702 -2.60961914 6.00830078 C-1.09981904 1.09981904 -1.09981904 1.09981904 0 0 Z " fill="#3679BA" transform="translate(107,89)"/>
<path d="M0 0 C1.11140099 -0.0049926 1.11140099 -0.0049926 2.24525452 -0.01008606 C3.81120178 -0.01514478 5.37715981 -0.01749471 6.94311523 -0.01733398 C9.33530478 -0.01951996 11.72703268 -0.03768495 14.11914062 -0.05664062 C15.64192551 -0.05957489 17.16471258 -0.06155947 18.6875 -0.0625 C19.40115219 -0.06968552 20.11480438 -0.07687103 20.8500824 -0.08427429 C24.50909376 -0.06749021 27.36141578 0.02475744 30.41015625 2.16796875 C31.56164953 4.47095531 31.53352613 5.75792973 31.53041077 8.3187561 C31.53178543 9.1881633 31.5331601 10.0575705 31.53457642 10.95332336 C31.5291835 12.38722664 31.5291835 12.38722664 31.52368164 13.85009766 C31.52382767 14.85500748 31.52397369 15.8599173 31.52412415 16.89527893 C31.52342554 20.22838473 31.51563558 23.56143517 31.5078125 26.89453125 C31.50594813 29.20095794 31.50452432 31.50738503 31.50352478 33.81381226 C31.49970107 39.89328092 31.48987201 45.97272581 31.4788208 52.05218506 C31.46860355 58.25223468 31.46402649 64.45228814 31.45898438 70.65234375 C31.44824963 82.82422921 31.43117494 94.99609701 31.41015625 107.16796875 C27.38173481 109.40605402 23.80937585 109.47421681 19.28515625 109.46875 C18.10928955 109.47517769 18.10928955 109.47517769 16.90966797 109.48173523 C15.25554366 109.48746728 13.60139416 109.48798708 11.94726562 109.48364258 C9.41883365 109.48047961 6.89156892 109.50396481 4.36328125 109.52929688 C2.75390772 109.53156972 1.14453106 109.53227343 -0.46484375 109.53125 C-1.59623779 109.54506462 -1.59623779 109.54506462 -2.75048828 109.55915833 C-5.93111504 109.53115762 -8.21773869 109.37114792 -11.03515625 107.83276367 C-13.51730911 105.17481764 -13.71564423 102.63357172 -13.73028564 99.15835571 C-13.73599579 98.34528458 -13.74170593 97.53221344 -13.74758911 96.69450378 C-13.74870697 95.8061232 -13.74982483 94.91774261 -13.75097656 94.00244141 C-13.75594147 93.06393845 -13.76090637 92.12543549 -13.76602173 91.15849304 C-13.78064285 88.04966502 -13.78744498 84.94088802 -13.79296875 81.83203125 C-13.79871986 79.6735331 -13.8044776 77.51503498 -13.8102417 75.35653687 C-13.82075128 70.82883465 -13.82659436 66.3011502 -13.83007812 61.7734375 C-13.83556536 55.97048161 -13.8595986 50.16776006 -13.88805008 44.3648777 C-13.90666827 39.90564283 -13.91188161 35.44646452 -13.913414 30.98719406 C-13.91644247 28.84775892 -13.9244775 26.70832481 -13.93759918 24.56892776 C-13.95464371 21.57653176 -13.95278331 18.58470994 -13.94628906 15.59228516 C-13.95550385 14.70795303 -13.96471863 13.82362091 -13.97421265 12.91249084 C-13.94226627 8.21611378 -13.7545524 4.9185133 -10.58984375 1.16796875 C-7.0072599 -0.02622587 -3.72951663 0.00579912 0 0 Z " fill="#1C3342" transform="translate(367.58984375,4.83203125)"/>
<path d="M0 0 C32.35483871 6.35483871 32.35483871 6.35483871 34 8 C33.9595241 10.9372271 33.84826748 13.84180503 33.6875 16.7734375 C33.61583618 18.16422012 33.61583618 18.16422012 33.54272461 19.58309937 C32.92774726 31.0372873 32.10807934 42.47826457 31.27050781 53.91796875 C30.99584347 57.68196096 30.72823507 61.44641573 30.4609375 65.2109375 C30.28687929 67.61200972 30.11241583 70.0130526 29.9375 72.4140625 C29.85830322 73.53575836 29.77910645 74.65745422 29.69750977 75.81314087 C29.62072998 76.84627411 29.5439502 77.87940735 29.46484375 78.94384766 C29.399021 79.85091461 29.33319824 80.75798157 29.26538086 81.6925354 C29 84 29 84 28 87 C14.58721653 86.36752728 1.31578484 84.67575558 -12 83 C-12.31476446 73.28843892 -11.37620992 64.00300295 -9.8828125 54.43359375 C-9.66275616 52.98211772 -9.44335778 51.5305418 -9.22457886 50.07887268 C-8.76826555 47.06520551 -8.30540074 44.05264562 -7.83740234 41.04077148 C-7.23877013 37.18584655 -6.65499908 33.32884513 -6.07577705 29.47096157 C-5.62625044 26.48561006 -5.16998923 23.5013191 -4.71157455 20.51732063 C-4.49365045 19.09466688 -4.27757672 17.67172837 -4.06341934 16.24850273 C-3.7639881 14.2667764 -3.45472083 12.28654381 -3.14501953 10.30639648 C-2.97181183 9.18200668 -2.79860413 8.05761688 -2.62014771 6.89915466 C-2.05725331 4.26765592 -1.33877985 2.31559232 0 0 Z " fill="#1C3342" transform="translate(12,232)"/>
<path d="M0 0 C5.875 0.875 5.875 0.875 7 2 C7.04063832 3.66617115 7.042721 5.33388095 7 7 C7.61875 7.226875 8.2375 7.45375 8.875 7.6875 C11.69339387 9.42827269 12.11944786 10.84468818 13 14 C13.125 16.8125 13.125 16.8125 13 19 C10.03 19.33 7.06 19.66 4 20 C4.825 20.639375 5.65 21.27875 6.5 21.9375 C9.47266279 25.57901192 9.62779316 27.30560893 9.36328125 31.84765625 C8.86697196 34.78815538 7.88233987 36.69936238 6 39 C3.09907498 40.93395001 2.10325263 41.30131941 -1.1875 41.625 C-2.445625 41.74875 -3.70375 41.8725 -5 42 C-5.33 42.99 -5.66 43.98 -6 45 C-8.3431213 44.74438677 -10.67843403 44.40729228 -13 44 C-14 42 -14 42 -14 38 C-14.804375 37.2575 -15.60875 36.515 -16.4375 35.75 C-19.87623181 32.05965366 -19.83467363 29.95979109 -20 25 C-19 24 -19 24 -16.93359375 23.90234375 C-15.69802734 23.91974609 -15.69802734 23.91974609 -14.4375 23.9375 C-13.61121094 23.94652344 -12.78492188 23.95554688 -11.93359375 23.96484375 C-10.97646484 23.98224609 -10.97646484 23.98224609 -10 24 C-10.66 23.154375 -11.32 22.30875 -12 21.4375 C-14.30636893 17.4734284 -14.57402898 15.5102277 -14 11 C-12.47546518 7.05414516 -11.33128069 6.16564034 -7.5 4.25 C-5.34077156 3.47884698 -3.17514367 2.72504789 -1 2 C-0.67 1.34 -0.34 0.68 0 0 Z M-2 13 C-2 13.99 -2 14.98 -2 16 C-1.34 16 -0.68 16 0 16 C0 16.66 0 17.32 0 18 C0.99 18.33 1.98 18.66 3 19 C2.67 17.35 2.34 15.7 2 14 C0.68 13.67 -0.64 13.34 -2 13 Z M-9 25 C-9.25030977 27.41619823 -9.25030977 27.41619823 -9 30 C-6.28450846 32.30671915 -6.28450846 32.30671915 -3.8125 31.625 C-3.214375 31.41875 -2.61625 31.2125 -2 31 C-3.13719419 27.58841744 -4.04342944 26.88145399 -7 25 C-7.66 25 -8.32 25 -9 25 Z " fill="#3778B8" transform="translate(182,148)"/>
<path d="M0 0 C8.01091642 2.08030399 15.84967294 4.53329402 23.6875 7.1875 C24.78255859 7.55552734 25.87761719 7.92355469 27.00585938 8.30273438 C29.67152163 9.19904876 32.3361985 10.09817383 35 11 C35 11.66 35 12.32 35 13 C31.78056587 12.20658495 28.57648435 11.36293379 25.375 10.5 C24.41335937 10.2421875 23.45171875 9.984375 22.4609375 9.71875 C20 9 20 9 18 8 C15.8480563 11.22791555 15.79913557 12.28400809 16 16 C15.29875 15.7834375 14.5975 15.566875 13.875 15.34375 C5.43002662 12.8653339 -1.33865516 12.55644253 -10 14 C-10.33 13.34 -10.66 12.68 -11 12 C-7.3708749 10.18543745 -2.87695764 10.62827609 1.14648438 10.48242188 C4.90245082 10.29995971 6.80446232 10.13035846 10 8 C9.67 7.34 9.34 6.68 9 6 C6.42048126 5.30906104 6.42048126 5.30906104 3.4375 4.875 C2.42558594 4.70742187 1.41367188 4.53984375 0.37109375 4.3671875 C-0.41136719 4.24601563 -1.19382813 4.12484375 -2 4 C-2.33 4.99 -2.66 5.98 -3 7 C-3.99 7.33 -4.98 7.66 -6 8 C-6.33 7.01 -6.66 6.02 -7 5 C-2.25 2 -2.25 2 0 2 C0 1.34 0 0.68 0 0 Z " fill="#3B77B2" transform="translate(178,130)"/>
<path d="M0 0 C7.88446274 0.9097457 7.88446274 0.9097457 11 3 C11.79296875 5.0234375 11.79296875 5.0234375 12.1875 7.375 C12.32542969 8.14585937 12.46335938 8.91671875 12.60546875 9.7109375 C12.80076172 10.84402344 12.80076172 10.84402344 13 12 C13.32151658 13.33623201 13.65097942 14.67068682 14 16 C7.58008874 15.42934122 1.98410537 13.32655091 -4 11 C-3.25 5.25 -3.25 5.25 -1 3 C-1 3.99 -1 4.98 -1 6 C-0.34 6 0.32 6 1 6 C1.33 6.66 1.66 7.32 2 8 C2.99 8.33 3.98 8.66 5 9 C5 8.01 5 7.02 5 6 C6.32 6 7.64 6 9 6 C9.33 5.34 9.66 4.68 10 4 C6.7 3.01 3.4 2.02 0 1 C0 0.67 0 0.34 0 0 Z " fill="#3978B3" transform="translate(211,123)"/>
<path d="M0 0 C5.875 0.875 5.875 0.875 7 2 C7.04063832 3.66617115 7.042721 5.33388095 7 7 C7.61875 7.226875 8.2375 7.45375 8.875 7.6875 C11.69339387 9.42827269 12.11944786 10.84468818 13 14 C13 15.65 13 17.3 13 19 C9.7 19 6.4 19 3 19 C2.731875 18.195625 2.46375 17.39125 2.1875 16.5625 C1.795625 15.716875 1.40375 14.87125 1 14 C0.01 13.67 -0.98 13.34 -2 13 C-1.34 11.35 -0.68 9.7 0 8 C0.99 8 1.98 8 3 8 C4.85776765 11.13498292 5.20140476 13.37471432 5 17 C5.66 16.67 6.32 16.34 7 16 C8.21185923 12.36442231 7.59260392 11.36216382 6 8 C5.67 7.67 5.34 7.34 5 7 C4.95936168 5.33382885 4.957279 3.66611905 5 2 C3.35 2 1.7 2 0 2 C0 1.34 0 0.68 0 0 Z " fill="#3F77AB" transform="translate(182,148)"/>
<path d="M0 0 C8.26218593 1.59445693 16.06288986 4.26018069 24 7 C24 7.33 24 7.66 24 8 C21.03 8 18.06 8 15 8 C14.67 8.66 14.34 9.32 14 10 C12.68 10 11.36 10 10 10 C10 10.99 10 11.98 10 13 C5.31034294 14.11658501 2.46236469 13.80619523 -2 12 C-2 11.67 -2 11.34 -2 11 C-0.88625 10.896875 0.2275 10.79375 1.375 10.6875 C2.57125 10.460625 3.7675 10.23375 5 10 C5.66 9.01 6.32 8.02 7 7 C9.625 6.8125 9.625 6.8125 12 7 C12 6.34 12 5.68 12 5 C11.21753906 4.80664062 10.43507812 4.61328125 9.62890625 4.4140625 C8.61699219 4.15367187 7.60507813 3.89328125 6.5625 3.625 C5.55316406 3.36976563 4.54382813 3.11453125 3.50390625 2.8515625 C1 2 1 2 0 0 Z " fill="#3F78AF" transform="translate(194,222)"/>
<path d="M0 0 C0.33 0.66 0.66 1.32 1 2 C0.01 2.495 0.01 2.495 -1 3 C-1.33 3.99 -1.66 4.98 -2 6 C-1.34 6.33 -0.68 6.66 0 7 C-0.99 8.485 -0.99 8.485 -2 10 C-0.02 9.67 1.96 9.34 4 9 C4.66 10.65 5.32 12.3 6 14 C5.175 14.45375 4.35 14.9075 3.5 15.375 C2.675 15.91125 1.85 16.4475 1 17 C1 17.66 1 18.32 1 19 C-1.32758311 18.06896676 -2.74357132 17.34617872 -4.25 15.3125 C-5.67476621 10.91947086 -5.61873982 7.29372871 -3.625 3.125 C-2 1 -2 1 0 0 Z " fill="#367AB9" transform="translate(173,153)"/>
<path d="M0 0 C6.95776959 1.36874156 13.38603107 3.4533129 20 6 C19.38461538 11.53846154 19.38461538 11.53846154 17.4375 13.875 C16.963125 14.24625 16.48875 14.6175 16 15 C16.99 15.99 17.98 16.98 19 18 C17.5608866 17.71640113 16.12374482 17.42278601 14.6875 17.125 C13.88699219 16.96257812 13.08648437 16.80015625 12.26171875 16.6328125 C10 16 10 16 7 14 C8.98 13.67 10.96 13.34 13 13 C13.66 10.69 14.32 8.38 15 6 C13.68 6 12.36 6 11 6 C11 5.34 11 4.68 11 4 C7.37 3.34 3.74 2.68 0 2 C0 1.34 0 0.68 0 0 Z " fill="#3E77AF" transform="translate(173,215)"/>
<path d="M0 0 C0.66 0 1.32 0 2 0 C1.51696726 4.31013828 0.3982201 6.0235163 -2.9375 8.75 C-3.64777344 9.34296875 -4.35804687 9.9359375 -5.08984375 10.546875 C-9.30691011 13.75495002 -12.81800233 13.07402854 -18 13 C-18.99 16.3 -19.98 19.6 -21 23 C-21.33 23 -21.66 23 -22 23 C-22 21.02 -22 19.04 -22 17 C-22.99 16.67 -23.98 16.34 -25 16 C-24.0409375 15.5978125 -24.0409375 15.5978125 -23.0625 15.1875 C-20.66868314 14.11332248 -20.66868314 14.11332248 -20 11 C-17.5821355 10.4540306 -15.24790905 10.01259083 -12.76953125 9.88671875 C-10.42276536 9.75272722 -8.27806538 9.58717577 -6 9 C-4.08255407 6.55690423 -4.08255407 6.55690423 -3 4 C-2.01 4 -1.02 4 0 4 C0 2.68 0 1.36 0 0 Z " fill="#417AAF" transform="translate(127,110)"/>
<path d="M0 0 C4.42847957 1.47615986 6.85876061 5.02796114 9 9 C10.25917862 13.41103565 10.21834862 17.88365839 10.25 22.4375 C10.270625 23.17548828 10.29125 23.91347656 10.3125 24.67382812 C10.34737904 29.57869251 9.50392378 32.66456163 7 37 C6.30092586 39.73572585 6.30092586 39.73572585 6 42 C4.68 41.67 3.36 41.34 2 41 C2.34933594 40.39671875 2.69867188 39.7934375 3.05859375 39.171875 C3.51363281 38.37265625 3.96867188 37.5734375 4.4375 36.75 C4.88996094 35.96109375 5.34242188 35.1721875 5.80859375 34.359375 C9.10345153 27.83447631 9.23208869 19.31550234 7.24609375 12.359375 C5.32086133 7.92001553 2.81703588 3.92372854 0 0 Z " fill="#4678A7" transform="translate(198,149)"/>
<path d="M0 0 C7.88446274 0.9097457 7.88446274 0.9097457 11 3 C11.79296875 5.0234375 11.79296875 5.0234375 12.1875 7.375 C12.39439453 8.53128906 12.39439453 8.53128906 12.60546875 9.7109375 C12.80076172 10.84402344 12.80076172 10.84402344 13 12 C13.32151658 13.33623201 13.65097942 14.67068682 14 16 C11.69 15.67 9.38 15.34 7 15 C6.67386382 10.32538149 7.29417212 7.83325617 10 4 C6.7 3.01 3.4 2.02 0 1 C0 0.67 0 0.34 0 0 Z " fill="#3D73A4" transform="translate(211,123)"/>
<path d="M0 0 C0.66 0.33 1.32 0.66 2 1 C0.9318153 6.11365014 -0.23107476 11.07227969 -2 16 C-2.33 16 -2.66 16 -3 16 C-3 13.69 -3 11.38 -3 9 C-3.66 9 -4.32 9 -5 9 C-5.33 9.66 -5.66 10.32 -6 11 C-6.625 9.125 -6.625 9.125 -7 7 C-6.34 6.34 -5.68 5.68 -5 5 C-4.34 4.01 -3.68 3.02 -3 2 C-2.34 2 -1.68 2 -1 2 C-0.67 1.34 -0.34 0.68 0 0 Z " fill="#3D77AF" transform="translate(271,182)"/>
<path d="M0 0 C2.33333333 2.33333333 4.66666667 4.66666667 7 7 C6.5700708 13.49807284 4.20415481 19.91653272 2 26 C0.77755925 21.97111077 1.62215825 19.98043171 3 16 C3.44239354 13.3360215 3.72188983 10.68839835 4 8 C3.01 7.67 2.02 7.34 1 7 C0.67 4.69 0.34 2.38 0 0 Z " fill="#4077A9" transform="translate(250,168)"/>
<path d="M0 0 C0.66 0.33 1.32 0.66 2 1 C2 9.25 2 17.5 2 26 C0.68 25.67 -0.64 25.34 -2 25 C-1.34 16.75 -0.68 8.5 0 0 Z " fill="#283843" transform="translate(52,258)"/>
<path d="M0 0 C1.66611905 -0.042721 3.33382885 -0.04063832 5 0 C5.33 0.33 5.66 0.66 6 1 C7.423125 1.12375 7.423125 1.12375 8.875 1.25 C15.705066 2.11259633 21.92567961 5.94150144 28 9 C26 10 26 10 23.38623047 9.28735352 C22.30744629 8.90506592 21.22866211 8.52277832 20.1171875 8.12890625 C18.95058594 7.71962891 17.78398437 7.31035156 16.58203125 6.88867188 C15.35871094 6.45103516 14.13539063 6.01339844 12.875 5.5625 C11.02841797 4.9118457 11.02841797 4.9118457 9.14453125 4.24804688 C6.09391626 3.17205477 3.04595357 2.08910366 0 1 C0 0.67 0 0.34 0 0 Z " fill="#4576A8" transform="translate(144,217)"/>
<path d="M0 0 C1.32 0.33 2.64 0.66 4 1 C4 1.66 4 2.32 4 3 C8.455 3.99 8.455 3.99 13 5 C13 5.99 13 6.98 13 8 C6.54945018 6.64746536 0.28894321 4.96939767 -6 3 C-6 2.67 -6 2.34 -6 2 C-4.02 2 -2.04 2 0 2 C0 1.34 0 0.68 0 0 Z " fill="#417AAD" transform="translate(186,209)"/>
<path d="M0 0 C0.99 0.495 0.99 0.495 2 1 C2 4.63 2 8.26 2 12 C3.2065625 11.87625 3.2065625 11.87625 4.4375 11.75 C10.53158135 12.17765483 15.61063876 15.29312625 21 18 C18.39131631 19.30434185 17.62668499 18.75663594 14.90234375 17.85546875 C14.10119141 17.59056641 13.30003906 17.32566406 12.47460938 17.05273438 C11.63736328 16.76720703 10.80011719 16.48167969 9.9375 16.1875 C8.67583008 15.77661133 8.67583008 15.77661133 7.38867188 15.35742188 C6.58880859 15.08865234 5.78894531 14.81988281 4.96484375 14.54296875 C4.2287085 14.29571045 3.49257324 14.04845215 2.73413086 13.79370117 C1 13 1 13 0 11 C-0.07033769 9.12620395 -0.0843022 7.24998898 -0.0625 5.375 C-0.05347656 4.37210938 -0.04445313 3.36921875 -0.03515625 2.3359375 C-0.02355469 1.56507813 -0.01195313 0.79421875 0 0 Z " fill="#4877A6" transform="translate(109,176)"/>
<path d="M0 0 C2.97 0 5.94 0 9 0 C9.33 2.31 9.66 4.62 10 7 C9.34 7 8.68 7 8 7 C8 6.01 8 5.02 8 4 C6.88625 4.5878125 6.88625 4.5878125 5.75 5.1875 C4.8425 5.455625 3.935 5.72375 3 6 C0.6875 4.625 0.6875 4.625 -1 3 C-0.67 2.01 -0.34 1.02 0 0 Z " fill="#3476BD" transform="translate(163,174)"/>
<path d="M0 0 C12.66970387 3.07517084 12.66970387 3.07517084 18 5 C16 6 14 7 12 8 C11.34 7.01 10.68 6.02 10 5 C8.02 5.33 6.04 5.66 4 6 C3.67 5.01 3.34 4.02 3 3 C1.50014391 1.33289654 1.50014391 1.33289654 0 0 Z " fill="#3B76A9" transform="translate(214,142)"/>
<path d="M0 0 C1.2077558 3.62326739 0.54311128 4.64146369 -1 8 C-6.46864457 6.98408579 -11.76390013 5.92908943 -17 4 C-17 3.67 -17 3.34 -17 3 C-12.78121808 2.80377759 -9.82989106 3.19769832 -6 5 C-5.67 4.01 -5.34 3.02 -5 2 C-4.01 2.99 -3.02 3.98 -2 5 C-1.34 3.35 -0.68 1.7 0 0 Z " fill="#4678A8" transform="translate(252,244)"/>
<path d="M0 0 C0.66 0.33 1.32 0.66 2 1 C1.01127542 3.69652159 0.40787547 4.79023547 -2.1875 6.125 C-3.5796875 6.558125 -3.5796875 6.558125 -5 7 C-6.5159375 7.556875 -6.5159375 7.556875 -8.0625 8.125 C-13.24011827 9.59774475 -18.67102111 9.15750677 -24 9 C-24 8.67 -24 8.34 -24 8 C-23.0821875 7.90203125 -22.164375 7.8040625 -21.21875 7.703125 C-9.57937656 6.33386256 -9.57937656 6.33386256 0 0 Z " fill="#4478A4" transform="translate(198,191)"/>
<path d="M0 0 C5.12895153 0.7450477 10.13235018 2.25263853 15 4 C11.42355152 5.2380014 8.66305234 4.74926071 5 4 C5 3.34 5 2.68 5 2 C3.05159545 2.11014539 3.05159545 2.11014539 1 3 C-0.3581216 5.30441164 -0.3581216 5.30441164 -1.25 8.0625 C-1.58515625 8.98160156 -1.9203125 9.90070313 -2.265625 10.84765625 C-2.50796875 11.55792969 -2.7503125 12.26820312 -3 13 C-4.39943663 10.20112673 -3.54753576 8.87861172 -2.625 5.9375 C-2.34914063 5.03902344 -2.07328125 4.14054687 -1.7890625 3.21484375 C-1 1 -1 1 0 0 Z " fill="#487AA6" transform="translate(107,89)"/>
<path d="M0 0 C0.33 0 0.66 0 1 0 C1.33 2.31 1.66 4.62 2 7 C0.02 7.33 -1.96 7.66 -4 8 C-4 7.34 -4 6.68 -4 6 C-7.0745356 6.7763932 -7.0745356 6.7763932 -9 9 C-9 8.34 -9 7.68 -9 7 C-10.98 7.33 -12.96 7.66 -15 8 C-13.02741645 5.33121049 -11.89126876 4.97627682 -8.5625 4.25 C-5.60048953 4.04213962 -3.74202541 4.01287085 -1 5 C-0.67 3.35 -0.34 1.7 0 0 Z " fill="#4478A8" transform="translate(250,214)"/>
<path d="M0 0 C0.33 0 0.66 0 1 0 C1.02578125 0.80824219 1.0515625 1.61648437 1.078125 2.44921875 C1.35835665 9.0810715 1.35835665 9.0810715 3.8125 15.125 C5.82357891 16.84878192 7.54105449 18.03398569 10 19 C9.67 19.99 9.34 20.98 9 22 C-0.26343316 14.52462487 -0.26343316 14.52462487 -1 10 C-0.83914405 6.63759174 -0.47864262 3.33109388 0 0 Z " fill="#4276A6" transform="translate(254,151)"/>
<path d="M0 0 C1.65 0 3.3 0 5 0 C4.61328125 0.40089844 4.2265625 0.80179688 3.828125 1.21484375 C-1.37248539 6.89174766 -5.00031731 13.25245919 -6 21 C-6.33 21 -6.66 21 -7 21 C-6.58411954 14.80481527 -5.39748106 9.73310689 -3 4 C-2.01 4 -1.02 4 0 4 C0 2.68 0 1.36 0 0 Z " fill="#4176A4" transform="translate(157,147)"/>
<path d="M0 0 C1.46109063 0.25554054 2.91888096 0.53000372 4.375 0.8125 C5.59316406 1.03873047 5.59316406 1.03873047 6.8359375 1.26953125 C9 2 9 2 11 5 C10.3203125 7.91796875 10.3203125 7.91796875 9.125 11.1875 C8.73570312 12.27417969 8.34640625 13.36085937 7.9453125 14.48046875 C7.63335937 15.31191406 7.32140625 16.14335937 7 17 C6.67 17 6.34 17 6 17 C6.09539062 16.15695313 6.19078125 15.31390625 6.2890625 14.4453125 C6.39992188 13.34960938 6.51078125 12.25390625 6.625 11.125 C6.74101562 10.03445312 6.85703125 8.94390625 6.9765625 7.8203125 C6.98429687 6.88960937 6.99203125 5.95890625 7 5 C4.64046906 2.64046906 3.22104383 2.50858587 0 2 C0 1.34 0 0.68 0 0 Z " fill="#4677A3" transform="translate(274,143)"/>
<path d="M0 0 C0.66 0 1.32 0 2 0 C1.51696726 4.31013828 0.3982201 6.0235163 -2.9375 8.75 C-3.64777344 9.34296875 -4.35804687 9.9359375 -5.08984375 10.546875 C-9.09181066 13.59131608 -12.08713186 13.07923981 -17 13 C-17 12.67 -17 12.34 -17 12 C-15.1746875 11.5978125 -15.1746875 11.5978125 -13.3125 11.1875 C-9.77798174 10.29760356 -6.94238275 9.22907784 -4 7 C-3.67 6.01 -3.34 5.02 -3 4 C-2.01 4 -1.02 4 0 4 C0 2.68 0 1.36 0 0 Z " fill="#4477A3" transform="translate(127,110)"/>
<path d="M0 0 C2.97 0.495 2.97 0.495 6 1 C6 1.66 6 2.32 6 3 C6.66 3 7.32 3 8 3 C8.66 4.65 9.32 6.3 10 8 C9.34 8 8.68 8 8 8 C8 7.34 8 6.68 8 6 C7.2575 5.896875 6.515 5.79375 5.75 5.6875 C2.82985982 4.95746496 1.26812446 3.93210602 -1 2 C-0.67 1.34 -0.34 0.68 0 0 Z " fill="#1B2D37" transform="translate(225,265)"/>
<path d="M0 0 C1.5 1.3125 1.5 1.3125 3 3 C3 3.99 3 4.98 3 6 C2.01 6.495 2.01 6.495 1 7 C1.165 7.598125 1.33 8.19625 1.5 8.8125 C2 11 2 11 2 14 C0.68 13.01 -0.64 12.02 -2 11 C-1.125 3.375 -1.125 3.375 0 0 Z " fill="#447AAC" transform="translate(103,156)"/>
<path d="M0 0 C0.94314127 3.41610225 1.08065117 6.45134864 1 10 C0.01 10.33 -0.98 10.66 -2 11 C-2.66 14.3 -3.32 17.6 -4 21 C-4.66 21 -5.32 21 -6 21 C-4.29977612 13.87352969 -2.42080258 6.9165788 0 0 Z " fill="#4977A6" transform="translate(111,131)"/>
<path d="M0 0 C2.475 0.495 2.475 0.495 5 1 C5.33 1.99 5.66 2.98 6 4 C5.01 4.33 4.02 4.66 3 5 C3.33 5.66 3.66 6.32 4 7 C3.34 7 2.68 7 2 7 C2 7.99 2 8.98 2 10 C1.34 10 0.68 10 0 10 C0 6.7 0 3.4 0 0 Z " fill="#263845" transform="translate(53,246)"/>
<path d="M0 0 C0.33 0.66 0.66 1.32 1 2 C0.01 2.495 0.01 2.495 -1 3 C-1.33 3.99 -1.66 4.98 -2 6 C-1.34 6.33 -0.68 6.66 0 7 C-1.98 7.99 -1.98 7.99 -4 9 C-3.649375 9.763125 -3.29875 10.52625 -2.9375 11.3125 C-2 14 -2 14 -3 17 C-5.33991708 13.34387956 -5.37437949 10.26792624 -5 6 C-2.8 1.4 -2.8 1.4 0 0 Z " fill="#4279A8" transform="translate(173,153)"/>
<path d="M0 0 C4.875 3.75 4.875 3.75 6 6 C0.88634986 4.9318153 -4.07227969 3.76892524 -9 2 C-5.67465243 0.89155081 -3.37817425 1.15545644 0 2 C0 1.34 0 0.68 0 0 Z " fill="#3E76AB" transform="translate(162,201)"/>
<path d="M0 0 C2.32472205 2.85306797 3.7508258 5.54074837 5 9 C3.02 8.34 1.04 7.68 -1 7 C-1 8.65 -1 10.3 -1 12 C-1.66 12 -2.32 12 -3 12 C-2.68950274 10.56206608 -2.3765224 9.1246682 -2.0625 7.6875 C-1.88847656 6.88699219 -1.71445313 6.08648437 -1.53515625 5.26171875 C-1 3 -1 3 0 0 Z " fill="#3F79AF" transform="translate(82,165)"/>
<path d="M0 0 C0.99 0.66 1.98 1.32 3 2 C0.78310181 7.06398064 -1.47638811 12.07895682 -4 17 C-5 15 -5 15 -4.00390625 11.5234375 C-3.53099953 10.13802064 -3.05018356 8.75528453 -2.5625 7.375 C-2.31951172 6.66859375 -2.07652344 5.9621875 -1.82617188 5.234375 C-1.22412795 3.48726713 -0.61291983 1.74332214 0 0 Z " fill="#4777A5" transform="translate(95,124)"/>
<path d="M0 0 C0.99 0.33 1.98 0.66 3 1 C4.15957207 4.47871621 3.77456651 5.34219645 2.5625 8.6875 C2.13130859 9.89986328 2.13130859 9.89986328 1.69140625 11.13671875 C1.46324219 11.75160156 1.23507812 12.36648437 1 13 C0.67 13 0.34 13 0 13 C0.020625 11.9275 0.04125 10.855 0.0625 9.75 C0.01345128 6.8070768 -0.28127127 4.77223939 -1 2 C-0.67 1.34 -0.34 0.68 0 0 Z " fill="#407DB1" transform="translate(273,169)"/>
<path d="M0 0 C0.33 0.66 0.66 1.32 1 2 C1.66 2 2.32 2 3 2 C3.33 2.66 3.66 3.32 4 4 C6.01669827 5.13350534 6.01669827 5.13350534 8 6 C3.28596212 5.52060632 -0.66579301 5.03165952 -5 3 C-3 1 -3 1 0 0 Z " fill="#4578AD" transform="translate(217,219)"/>
<path d="M0 0 C4.29 1.32 8.58 2.64 13 4 C11.02 4.99 11.02 4.99 9 6 C6.75 5.125 6.75 5.125 5 4 C4.67 4.66 4.34 5.32 4 6 C3.67 5.01 3.34 4.02 3 3 C2.01 2.67 1.02 2.34 0 2 C0 1.34 0 0.68 0 0 Z " fill="#4077AB" transform="translate(104,192)"/>
<path d="M0 0 C0.99773438 0.02320313 1.99546875 0.04640625 3.0234375 0.0703125 C4.52777344 0.09738281 4.52777344 0.09738281 6.0625 0.125 C6.83335938 0.14820313 7.60421875 0.17140625 8.3984375 0.1953125 C8.7284375 1.1853125 9.0584375 2.1753125 9.3984375 3.1953125 C2.4684375 2.7003125 2.4684375 2.7003125 -4.6015625 2.1953125 C-2.6015625 0.1953125 -2.6015625 0.1953125 0 0 Z " fill="#283841" transform="translate(20.6015625,314.8046875)"/>
<path d="M0 0 C1.32 0.33 2.64 0.66 4 1 C4.06058594 1.74765625 4.12117187 2.4953125 4.18359375 3.265625 C4.26738281 4.25046875 4.35117188 5.2353125 4.4375 6.25 C4.51871094 7.22453125 4.59992188 8.1990625 4.68359375 9.203125 C4.95074584 11.56461753 5.35371968 13.71901065 6 16 C5.34 16 4.68 16 4 16 C2.35555479 12.71110958 2.6009589 9.06675313 2.37890625 5.43359375 C2.19134766 4.22896484 2.19134766 4.22896484 2 3 C1.34 2.67 0.68 2.34 0 2 C0 1.34 0 0.68 0 0 Z " fill="#3E72A4" transform="translate(244,152)"/>
<path d="M0 0 C0.66 0.33 1.32 0.66 2 1 C1.4740625 1.804375 1.4740625 1.804375 0.9375 2.625 C-0.30135166 5.7634242 0.22572541 7.76212444 1 11 C1.33 11.66 1.66 12.32 2 13 C-1 12 -1 12 -2.6875 9.625 C-4 7 -4 7 -4 4 C-3.01 4 -2.02 4 -1 4 C-0.67 2.68 -0.34 1.36 0 0 Z " fill="#4075AB" transform="translate(116,146)"/>
<path d="M0 0 C5.14812503 0.78001894 10.26216007 2.26216007 14 6 C8.88634986 4.9318153 3.92772031 3.76892524 -1 2 C-0.67 1.34 -0.34 0.68 0 0 Z " fill="#273A45" transform="translate(193,107)"/>
<path d="M0 0 C0.99 0.33 1.98 0.66 3 1 C3 2.65 3 4.3 3 6 C4.65 5.67 6.3 5.34 8 5 C8 5.99 8 6.98 8 8 C5.6568787 7.74438677 3.32156597 7.40729228 1 7 C-0.231394 4.53721199 -0.07159196 2.7204945 0 0 Z " fill="#477AA5" transform="translate(168,185)"/>
<path d="M0 0 C0 0.99 0 1.98 0 3 C1.32 3.33 2.64 3.66 4 4 C0.44757118 5.18414294 -0.69830562 4.69535532 -4.1875 3.5625 C-5.08855469 3.27503906 -5.98960937 2.98757812 -6.91796875 2.69140625 C-7.60503906 2.46324219 -8.29210937 2.23507813 -9 2 C-9 1.67 -9 1.34 -9 1 C-2.25 0 -2.25 0 0 0 Z " fill="#487CAD" transform="translate(231,242)"/>
<path d="M0 0 C0.99 0.33 1.98 0.66 3 1 C-1.30769231 5.92307692 -1.30769231 5.92307692 -4.8125 6.3125 C-5.8953125 6.1578125 -5.8953125 6.1578125 -7 6 C-7.33 5.34 -7.66 4.68 -8 4 C-6.02 4 -4.04 4 -2 4 C-1.34 2.68 -0.68 1.36 0 0 Z " fill="#4178A7" transform="translate(187,183)"/>
<path d="M0 0 C1.28132812 0.00902344 2.56265625 0.01804688 3.8828125 0.02734375 C4.87023437 0.03894531 5.85765625 0.05054688 6.875 0.0625 C6.875 0.3925 6.875 0.7225 6.875 1.0625 C1.925 1.7225 -3.025 2.3825 -8.125 3.0625 C-8.455 2.4025 -8.785 1.7425 -9.125 1.0625 C-6.12186252 -0.43906874 -3.33432478 -0.03031204 0 0 Z " fill="#4378A6" transform="translate(176.125,140.9375)"/>
<path d="M0 0 C-0.72316406 0.61488281 -0.72316406 0.61488281 -1.4609375 1.2421875 C-2.09257812 1.78101563 -2.72421875 2.31984375 -3.375 2.875 C-4.00148437 3.40867188 -4.62796875 3.94234375 -5.2734375 4.4921875 C-6.55836651 5.61432007 -7.79371975 6.79371975 -9 8 C-9 6.35 -9 4.7 -9 3 C-8.34 3 -7.68 3 -7 3 C-7 2.34 -7 1.68 -7 1 C-3.375 -1.125 -3.375 -1.125 0 0 Z " fill="#4977AA" transform="translate(234,216)"/>
<path d="M0 0 C0.33 0 0.66 0 1 0 C0.87431641 1.26457031 0.87431641 1.26457031 0.74609375 2.5546875 C0.64425781 3.65039062 0.54242188 4.74609375 0.4375 5.875 C0.33308594 6.96554688 0.22867188 8.05609375 0.12109375 9.1796875 C-0.22639404 11.95152023 -0.22639404 11.95152023 1 14 C-0.32 13.67 -1.64 13.34 -3 13 C-2.68817931 11.58318366 -2.37551263 10.16655349 -2.0625 8.75 C-1.88847656 7.96109375 -1.71445313 7.1721875 -1.53515625 6.359375 C-1.052444 4.23121297 -0.53836822 2.11467158 0 0 Z " fill="#4B78A5" transform="translate(76,182)"/>
<path d="M0 0 C0.66 0 1.32 0 2 0 C1.71640113 1.4391134 1.42278601 2.87625518 1.125 4.3125 C0.88136719 5.51326172 0.88136719 5.51326172 0.6328125 6.73828125 C0 9 0 9 -2 12 C-2.17835515 7.45194365 -1.99785435 4.1205746 0 0 Z " fill="#4376A8" transform="translate(97,151)"/>
<path d="M0 0 C0.556875 0.721875 1.11375 1.44375 1.6875 2.1875 C3.97909334 4.97457299 6.41459857 7.48641528 9 10 C4.27745665 8.50867052 4.27745665 8.50867052 2.875 5.9375 C2.441875 4.9784375 2.441875 4.9784375 2 4 C1.01 3.67 0.02 3.34 -1 3 C-0.67 2.01 -0.34 1.02 0 0 Z " fill="#4775A7" transform="translate(154,185)"/>
<path d="M0 0 C0.928125 0.20625 1.85625 0.4125 2.8125 0.625 C2.4825 1.615 2.1525 2.605 1.8125 3.625 C-0.8275 2.965 -3.4675 2.305 -6.1875 1.625 C-3.1875 -0.375 -3.1875 -0.375 0 0 Z " fill="#202F39" transform="translate(167.1875,283.375)"/>
<path d="M0 0 C1 2 1 2 0.44140625 4.1640625 C0.15136719 4.97617188 -0.13867188 5.78828125 -0.4375 6.625 C-0.72496094 7.44226563 -1.01242187 8.25953125 -1.30859375 9.1015625 C-1.53675781 9.72804687 -1.76492188 10.35453125 -2 11 C-2.87840996 7.90279155 -2.99435406 6.09354597 -2 3 C-2.66 2.67 -3.32 2.34 -4 2 C-2.68 1.34 -1.36 0.68 0 0 Z " fill="#437BAC" transform="translate(263,211)"/>
<path d="M0 0 C2.23551759 3.35327639 2.17283528 3.90743657 1.625 7.6875 C1.51414062 8.49574219 1.40328125 9.30398437 1.2890625 10.13671875 C1.19367188 10.75160156 1.09828125 11.36648437 1 12 C-1.58464442 7.61991557 -0.81479148 4.88874887 0 0 Z " fill="#4575A7" transform="translate(103,178)"/>
<path d="M0 0 C2.46800047 1.15173355 4.04783565 2.04783565 6 4 C5.01 4.66 4.02 5.32 3 6 C1.68 5.34 0.36 4.68 -1 4 C-0.67 2.68 -0.34 1.36 0 0 Z " fill="#172F3A" transform="translate(123,234)"/>
<path d="M0 0 C2.475 0.99 2.475 0.99 5 2 C2.03312999 3.64826111 -0.65626525 4.44271087 -4 5 C-2.68 3.35 -1.36 1.7 0 0 Z " fill="#3B6DA4" transform="translate(266,140)"/>
<path d="M0 0 C1.98 0.66 3.96 1.32 6 2 C5.34 3.65 4.68 5.3 4 7 C1.77810176 4.77810176 1.07401108 2.91517292 0 0 Z " fill="#3D77AF" transform="translate(163,195)"/>
<path d="M0 0 C0 3 0 3 -1.375 4.6875 C-3 6 -3 6 -5 6 C-4.75 4.125 -4.75 4.125 -4 2 C-1.9375 0.75 -1.9375 0.75 0 0 Z " fill="#2A3B44" transform="translate(360,5)"/>
<path d="M0 0 C4.08072342 0.55144911 4.91330796 0.91330796 8 4 C3.545 3.01 3.545 3.01 -1 2 C-0.67 1.34 -0.34 0.68 0 0 Z " fill="#4A80B0" transform="translate(128,211)"/>
<path d="M0 0 C1.65 0.33 3.3 0.66 5 1 C5 1.66 5 2.32 5 3 C2.69 3.33 0.38 3.66 -2 4 C-1.34 2.68 -0.68 1.36 0 0 Z " fill="#4076AB" transform="translate(122,198)"/>
<path d="M0 0 C0.99 0.33 1.98 0.66 3 1 C0.82575883 3.50037734 -0.73045798 4.43628586 -4 5 C-2.25 1.125 -2.25 1.125 0 0 Z " fill="#4275A0" transform="translate(259,146)"/>
<path d="M0 0 C2.97 0.99 5.94 1.98 9 3 C9 3.33 9 3.66 9 4 C5.37471432 4.20140476 3.13498292 3.85776765 0 2 C0 1.34 0 0.68 0 0 Z " fill="#42739E" transform="translate(181,131)"/>
<path d="" fill="#000000" transform="translate(0,0)"/>
</svg>
