<?xml version="1.0" encoding="UTF-8"?>
<svg version="1.1" xmlns="http://www.w3.org/2000/svg" width="362" height="429">
<path d="M0 0 C3.62777041 1.15740188 6.29996917 3.43304194 9.328125 5.69140625 C31.42701549 20.94110419 58.03854767 25.12239728 84.2578125 20.703125 C98.40928396 17.91240668 112.29056036 13.86005757 126.17700195 9.99023438 C147.65393234 4.03407811 169.32535817 -0.2126127 191.65234375 -0.6484375 C192.45591309 -0.67462158 193.25948242 -0.70080566 194.08740234 -0.7277832 C197.58732855 -0.7379203 199.79699042 -0.61388209 202.69140625 1.4375 C206.75219623 7.29864021 207.07938175 12.78682315 206.27734375 19.7265625 C203.45256083 31.57751225 198.01871408 42.614507 191.27734375 52.7265625 C191.96135254 52.61586426 192.64536133 52.50516602 193.35009766 52.39111328 C199.96953095 51.32145204 206.59061836 50.26273364 213.21337891 49.21386719 C215.68755597 48.8203646 218.16032292 48.41951954 220.6328125 48.015625 C238.86922337 45.17198127 238.86922337 45.17198127 245.83984375 48.3515625 C249.60658626 52.02172187 251.06279444 55.01016799 251.71484375 60.2265625 C251.11033072 65.06266673 249.12013715 67.85563485 245.7421875 71.28515625 C241.91966644 73.52051326 237.9318971 73.88996232 233.58984375 74.5390625 C232.58630859 74.69793945 231.58277344 74.85681641 230.54882812 75.02050781 C226.79422512 75.60682206 223.03630489 76.16907491 219.27734375 76.7265625 C218.4561908 76.8487616 217.63503784 76.97096069 216.78900146 77.09686279 C203.9564101 79.00545076 191.11852862 80.87674978 178.27734375 82.7265625 C182.06569902 83.34593927 185.85448753 83.96260439 189.64358521 84.5774231 C191.02380103 84.80174808 192.40390806 85.02674345 193.78390503 85.25241089 C202.00274051 86.59586404 210.2247365 87.87863949 218.47265625 89.03125 C219.9708222 89.24428262 221.46895095 89.45757702 222.96704102 89.67114258 C225.13950571 89.98081507 227.31199687 90.28538295 229.48751831 90.57284546 C231.51466487 90.84094785 233.53842263 91.12772405 235.5625 91.41796875 C236.7162915 91.57467041 237.87008301 91.73137207 239.05883789 91.89282227 C243.99360094 93.17115162 247.3231155 95.29522013 250.15234375 99.5390625 C251.47262313 103.27985407 251.77011513 105.78439147 251.27734375 109.7265625 C249.22353172 113.54078484 247.17187738 116.72666685 243.27734375 118.7265625 C235.9846928 119.98372743 229.70182912 119.3402077 222.4375 118.14453125 C220.75605141 117.88317131 220.75605141 117.88317131 219.04063416 117.61653137 C215.4718761 117.06001424 211.90585388 116.48790043 208.33984375 115.9140625 C203.66493967 115.17274298 198.98901422 114.43812037 194.3125 113.70703125 C193.18953522 113.53066132 192.06657043 113.35429138 190.90957642 113.1725769 C181.72375154 111.74939955 172.52815112 110.62585201 163.27734375 109.7265625 C164.18758301 110.21713135 165.09782227 110.7077002 166.03564453 111.21313477 C179.94491707 118.779536 192.37943548 128.24063922 203.75146484 139.25195312 C204.80791897 140.27291039 205.87123792 141.28679395 206.93994141 142.29492188 C248.45233261 181.47831227 275.80816086 241.44828426 278.40136719 298.45288086 C278.78447797 312.1703752 278.12286117 325.29472946 275.27734375 338.7265625 C275.14344238 339.38946289 275.00954102 340.05236328 274.87158203 340.73535156 C270.15004612 363.43306238 255.81574582 385.87368637 236.5 398.92773438 C232.18120741 401.68769896 227.75191671 404.22889126 223.27734375 406.7265625 C222.55933594 407.13648438 221.84132813 407.54640625 221.1015625 407.96875 C219.19175592 408.99352426 217.27057196 409.87382578 215.27734375 410.7265625 C214.23578125 411.17386719 213.19421875 411.62117188 212.12109375 412.08203125 C177.44501398 426.29194277 138.71090954 428.107975 101.73706055 427.98730469 C97.84603267 427.97657956 93.95546724 427.98728027 90.06445312 428 C43.69078701 428.02558043 -14.79111507 425.50447819 -50.72265625 391.7265625 C-51.64304687 390.89640625 -52.5634375 390.06625 -53.51171875 389.2109375 C-64.79022689 378.58490504 -72.76462919 365.40163038 -77.72265625 350.7265625 C-78.07569824 349.71078125 -78.42874023 348.695 -78.79248047 347.6484375 C-82.4829504 335.33483751 -82.33015069 323.03597773 -82.24414062 310.26513672 C-82.22277618 306.49771151 -82.24398646 302.73220969 -82.26953125 298.96484375 C-82.28614688 284.73531488 -81.26064952 271.51696995 -77.72265625 257.7265625 C-77.47128906 256.6756543 -77.21992187 255.62474609 -76.9609375 254.54199219 C-76.35076321 252.08414516 -75.68552245 249.6563646 -74.97265625 247.2265625 C-74.72370605 246.3703833 -74.47475586 245.5142041 -74.21826172 244.63208008 C-69.62975238 229.33938192 -63.23763074 214.79141561 -55.72265625 200.7265625 C-55.20300293 199.74526367 -55.20300293 199.74526367 -54.67285156 198.74414062 C-41.72282376 174.45543341 -24.38588147 150.01021872 -2.72265625 132.7265625 C-2.23893555 132.33049805 -1.75521484 131.93443359 -1.25683594 131.52636719 C10.10270541 122.22849783 21.88043388 113.86938523 35.27734375 107.7265625 C34.19066406 107.59701172 34.19066406 107.59701172 33.08203125 107.46484375 C26.63365346 106.52767951 22.75270678 105.55524366 18.27734375 100.7265625 C16.728333 96.07953025 16.24880576 91.19235881 18.171875 86.58203125 C19.1312631 84.91750985 20.19610276 83.3146352 21.27734375 81.7265625 C20.74367188 81.16710937 20.21 80.60765625 19.66015625 80.03125 C2.95953396 62.05930006 -12.14638868 39.34203014 -11.9453125 14.03515625 C-11.65135673 9.66707664 -10.86654426 5.58203189 -8.72265625 1.7265625 C-5.41689643 -0.47727738 -3.86272718 -0.60071345 0 0 Z " fill="#A4D867" transform="translate(81.72265625,1.2734375)"/>
<path d="M0 0 C3.62777041 1.15740188 6.29996917 3.43304194 9.328125 5.69140625 C31.42701549 20.94110419 58.03854767 25.12239728 84.2578125 20.703125 C98.40928396 17.91240668 112.29056036 13.86005757 126.17700195 9.99023438 C147.65393234 4.03407811 169.32535817 -0.2126127 191.65234375 -0.6484375 C192.85769775 -0.68771362 192.85769775 -0.68771362 194.08740234 -0.7277832 C197.58732855 -0.7379203 199.79699042 -0.61388209 202.69140625 1.4375 C206.75219623 7.29864021 207.07938175 12.78682315 206.27734375 19.7265625 C204.14306175 28.68062 200.57567838 36.6546451 196.04492188 44.62792969 C193.99211724 48.24544549 192.46112651 51.73812521 191.27734375 55.7265625 C190.61734375 55.7265625 189.95734375 55.7265625 189.27734375 55.7265625 C189.23609375 56.6134375 189.19484375 57.5003125 189.15234375 58.4140625 C187.99327837 62.80195285 185.79949538 63.97928423 182.27734375 66.7265625 C181.22629992 68.36151957 180.21746057 70.02539874 179.27734375 71.7265625 C177.71484375 73.5390625 177.71484375 73.5390625 176.27734375 74.7265625 C175.61734375 74.7265625 174.95734375 74.7265625 174.27734375 74.7265625 C173.96796875 75.5309375 173.65859375 76.3353125 173.33984375 77.1640625 C172.27734375 79.7265625 172.27734375 79.7265625 171.27734375 80.7265625 C169.36223748 80.85729461 167.44233123 80.91795193 165.52307129 80.95207214 C164.27257996 80.97631256 163.02208862 81.00055298 161.73370361 81.02552795 C160.33484157 81.04738428 158.93597671 81.06906092 157.53710938 81.09057617 C156.07374563 81.1165099 154.61038713 81.14274165 153.14703369 81.16925049 C139.76182944 81.40424584 126.37521582 81.56905494 112.98880768 81.71796703 C103.09412402 81.82889132 93.20106211 81.97250452 83.30751276 82.1592409 C76.35140695 82.28766739 69.39542703 82.37740902 62.43841314 82.43908483 C58.28391768 82.47703165 54.13130592 82.53210085 49.97773743 82.62923241 C46.06380006 82.72003679 42.15219241 82.76272857 38.23723602 82.76953125 C36.80559817 82.78025127 35.37396361 82.80802805 33.94304657 82.85470009 C23.17135851 83.19146783 23.17135851 83.19146783 18.46269226 79.5496006 C16.17885871 77.04344803 14.20294219 74.51356849 12.27734375 71.7265625 C11.36357473 70.57711758 10.44734703 69.42961743 9.52734375 68.28515625 C-2.86599646 51.09369995 -13.19038932 32.53656097 -11.72265625 10.7265625 C-10.25146949 3.5126743 -8.47458881 -1.31792882 0 0 Z " fill="#A4D867" transform="translate(81.72265625,1.2734375)"/>
<path d="M0 0 C-2.46425853 3.6963878 -4.91785739 4.67893046 -8.80859375 6.62109375 C-11.20363324 8.12813286 -12.35174909 9.73665837 -14 12 C-14.66 12 -15.32 12 -16 12 C-16 12.66 -16 13.32 -16 14 C-19.46153846 17 -19.46153846 17 -22 17 C-22 17.66 -22 18.32 -22 19 C-23.5390625 20.48046875 -23.5390625 20.48046875 -25.625 22.1875 C-29.08787267 25.1100663 -31.97510908 28.15830902 -34.7734375 31.71484375 C-35.17820312 32.13894531 -35.58296875 32.56304687 -36 33 C-36.66 33 -37.32 33 -38 33 C-38 34.32 -38 35.64 -38 37 C-39.64351457 38.36176922 -41.31522656 39.68962066 -43 41 C-45.61786703 44.16174522 -47.69745523 47.09236568 -49 51 C-49.99 51.66 -50.98 52.32 -52 53 C-52.71247732 54.6476038 -53.37400383 56.31763529 -54 58 C-55.5 60.8125 -55.5 60.8125 -57 63 C-57.66 63 -58.32 63 -59 63 C-59.268125 63.721875 -59.53625 64.44375 -59.8125 65.1875 C-61 68 -61 68 -62.4375 70.375 C-64.27900179 73.46872301 -65.59039926 76.69050262 -67 80 C-67.66 80.99 -68.32 81.98 -69 83 C-69.66 83 -70.32 83 -71 83 C-71.08636719 83.59425781 -71.17273438 84.18851562 -71.26171875 84.80078125 C-72.28301388 90.82548555 -74.11440676 95.87312263 -76.7578125 101.37109375 C-78.3995142 104.84551275 -79.70385083 108.38442599 -81 112 C-81.99 112 -82.98 112 -84 112 C-84.103125 113.27875 -84.20625 114.5575 -84.3125 115.875 C-85.71925134 128.71925134 -85.71925134 128.71925134 -89 132 C-89.84855718 136.42812866 -90.48673993 140.89226122 -91.15673828 145.35058594 C-91.49144257 147.5682994 -91.83698951 149.7841198 -92.18359375 152 C-95.0474797 170.66779924 -95.55834117 189.04816666 -94.125 207.875 C-94.00741333 209.46223877 -94.00741333 209.46223877 -93.88745117 211.08154297 C-93.38276834 217.22193142 -92.48575561 223.01952153 -91 229 C-90.34 229 -89.68 229 -89 229 C-88.34 232.63 -87.68 236.26 -87 240 C-86.34 240 -85.68 240 -85 240 C-84.34 242.31 -83.68 244.62 -83 247 C-82.34 247 -81.68 247 -81 247 C-80.66226563 247.71027344 -80.32453125 248.42054688 -79.9765625 249.15234375 C-79.30753906 250.53099609 -79.30753906 250.53099609 -78.625 251.9375 C-78.18414062 252.85402344 -77.74328125 253.77054688 -77.2890625 254.71484375 C-76.20800838 257.12903802 -76.20800838 257.12903802 -74 258 C-73.56429687 258.763125 -73.12859375 259.52625 -72.6796875 260.3125 C-70.81326429 263.29877714 -68.92627653 264.88839946 -66.125 267 C-62.48019645 269.81019636 -59.25488493 272.74511507 -56 276 C-54.3603125 277.0828125 -54.3603125 277.0828125 -52.6875 278.1875 C-51.800625 278.785625 -50.91375 279.38375 -50 280 C-50 280.66 -50 281.32 -50 282 C-49.278125 282.103125 -48.55625 282.20625 -47.8125 282.3125 C-45 283 -45 283 -42.6875 284.4375 C-39.19273053 286.46934272 -35.94231863 287.13135352 -32 288 C-32 288.66 -32 289.32 -32 290 C-31.18208984 290.16435547 -31.18208984 290.16435547 -30.34765625 290.33203125 C-29.59355469 290.49058594 -28.83945313 290.64914062 -28.0625 290.8125 C-26.96615234 291.03873047 -26.96615234 291.03873047 -25.84765625 291.26953125 C-22.64206549 292.09181585 -19.54575152 293.12698757 -16.41186523 294.1862793 C-1.30855761 299.28186836 13.36446742 302.21698707 29.24365234 303.70629883 C31.21519614 303.91637564 33.1805855 304.18779538 35.13867188 304.49926758 C40.1547007 305.14974021 45.14336765 305.3639124 50.1953125 305.5546875 C51.28433868 305.59673309 52.37336487 305.63877869 53.49539185 305.68209839 C65.11789386 306.09401659 76.73648939 306.15161529 88.36523438 306.13037109 C91.94925947 306.12488636 95.53316557 306.1304242 99.1171875 306.13671875 C101.40885444 306.13605986 103.70052131 306.13478266 105.9921875 306.1328125 C107.59028763 306.13584885 107.59028763 306.13584885 109.22067261 306.13894653 C110.20085358 306.13579437 111.18103455 306.13264221 112.19091797 306.12939453 C113.05039032 306.12859894 113.90986267 306.12780334 114.79537964 306.12698364 C117.17701534 306.08607924 117.17701534 306.08607924 120 305 C122.50283518 304.8191759 124.99425503 304.6765558 127.5 304.5625 C133.10452889 304.26196729 138.44828739 303.66558017 143.953125 302.53125 C147.99252379 301.82694457 152.0459845 301.46256606 156.125 301.0625 C162.48714541 300.4245151 168.00258188 299.31479296 174 297 C174.99 297 175.98 297 177 297 C177 297.66 177 298.32 177 299 C140.61797248 318.70693157 95.84621677 320.39255026 55.4597168 320.26074219 C51.56868892 320.25001706 47.67812349 320.26071777 43.78710938 320.2734375 C-2.58655674 320.29901793 -61.06845882 317.77791569 -97 284 C-97.92039062 283.16984375 -98.84078125 282.3396875 -99.7890625 281.484375 C-111.06757064 270.85834254 -119.04197294 257.67506788 -124 243 C-124.52956299 241.47632813 -124.52956299 241.47632813 -125.06982422 239.921875 C-128.76029415 227.60827501 -128.60749444 215.30941523 -128.52148438 202.53857422 C-128.50011993 198.77114901 -128.52133021 195.00564719 -128.546875 191.23828125 C-128.56349063 177.00875238 -127.53799327 163.79040745 -124 150 C-123.74863281 148.9490918 -123.49726562 147.89818359 -123.23828125 146.81542969 C-122.62810696 144.35758266 -121.9628662 141.9298021 -121.25 139.5 C-121.0010498 138.6438208 -120.75209961 137.7876416 -120.49560547 136.90551758 C-115.90709613 121.61281942 -109.51497449 107.06485311 -102 93 C-101.65356445 92.34580078 -101.30712891 91.69160156 -100.95019531 91.01757812 C-88.00016751 66.72887091 -70.66322522 42.28365622 -49 25 C-48.27441895 24.40590332 -48.27441895 24.40590332 -47.53417969 23.79980469 C-26.43919909 6.53340564 -26.43919909 6.53340564 -15 3 C-14.071875 2.46375 -13.14375 1.9275 -12.1875 1.375 C-8.02053002 -0.42251646 -4.46911013 -0.26814661 0 0 Z " fill="#8CCE43" transform="translate(128,109)"/>
<path d="M0 0 C3.51647559 0.06596563 4.75816226 0.1155294 7.6875 2.1875 C9.83210046 5.45102244 10.24823193 8.0134418 10.22265625 11.82421875 C10.21943359 12.67177734 10.21621094 13.51933594 10.21289062 14.39257812 C10.20032227 15.71418945 10.20032227 15.71418945 10.1875 17.0625 C10.18298828 17.95517578 10.17847656 18.84785156 10.17382812 19.76757812 C10.16204983 21.97011987 10.14560164 24.17252599 10.125 26.375 C10.70290283 26.42035889 11.28080566 26.46571777 11.8762207 26.51245117 C24.09850259 27.64056463 34.59867956 32.80587921 42.51953125 42.23046875 C48.85590752 50.69438742 50.49692469 59.58388699 50.5625 69.9375 C50.59537109 70.85724609 50.62824219 71.77699219 50.66210938 72.72460938 C50.69677147 77.10778902 50.62160212 80.40494284 47.9140625 83.984375 C44.16152946 87.20083189 42.18561795 87.18887607 37.4375 86.90625 C35.125 86.375 35.125 86.375 32.5625 84.0625 C29.84006073 78.97272224 29.84226533 74.15744401 29.6953125 68.53125 C29.4351298 62.76386683 28.34306683 57.96624869 24.4765625 53.44921875 C23.90679687 52.99160156 23.33703125 52.53398437 22.75 52.0625 C21.90308594 51.35673828 21.90308594 51.35673828 21.0390625 50.63671875 C15.24813211 46.81943198 9.64295264 47.00855833 2.9375 47 C1.4515332 46.96326172 1.4515332 46.96326172 -0.06445312 46.92578125 C-8.32514712 46.89328016 -14.9005908 48.75358116 -21.8125 53.3125 C-27.06016215 58.56016215 -28.43929381 64.52626197 -29.25 71.6875 C-28.3914335 80.13007061 -25.73617622 86.47537589 -19.265625 92.03515625 C-13.46514505 95.28607884 -7.64495961 95.5343202 -1.16113281 95.54907227 C13.72445806 95.6208132 25.57185664 99.26886032 37.0078125 109.203125 C46.94896844 119.40106357 50.46829646 129.96734562 50.50561523 144.05761719 C50.22707729 156.3804718 44.32933452 166.4367314 36.125 175.375 C29.01437222 181.83284883 19.84895703 186.375 10.125 186.375 C10.14071045 186.95467529 10.1564209 187.53435059 10.17260742 188.1315918 C10.23522791 190.77512739 10.27407518 193.41850655 10.3125 196.0625 C10.33763672 196.97451172 10.36277344 197.88652344 10.38867188 198.82617188 C10.48343071 207.5123981 10.48343071 207.5123981 7.125 211.375 C6.465 211.375 5.805 211.375 5.125 211.375 C5.125 212.035 5.125 212.695 5.125 213.375 C1.74415708 213.66533956 -1.50345509 213.81430648 -4.875 213.375 C-7.65918268 210.794538 -9.77505886 208.19113472 -9.98852539 204.31201172 C-9.98328857 203.48459473 -9.97805176 202.65717773 -9.97265625 201.8046875 C-9.96943359 200.90878906 -9.96621094 200.01289063 -9.96289062 199.08984375 C-9.95032227 197.68412109 -9.95032227 197.68412109 -9.9375 196.25 C-9.93298828 195.30511719 -9.92847656 194.36023438 -9.92382812 193.38671875 C-9.91202357 191.04941613 -9.89555759 188.71223939 -9.875 186.375 C-10.53886719 186.39240234 -11.20273438 186.40980469 -11.88671875 186.42773438 C-22.29016022 186.58720319 -29.47951106 183.60466415 -37.4765625 176.84375 C-43.96837719 170.16162153 -49.07181376 161.78120325 -49.875 152.375 C-49.97748047 151.30958984 -49.97748047 151.30958984 -50.08203125 150.22265625 C-50.30853225 145.71780307 -49.60648631 142.94694364 -46.875 139.375 C-44.39423136 136.89423136 -43.43281791 137.02408443 -40 136.9375 C-39.13632813 136.89753906 -38.27265625 136.85757813 -37.3828125 136.81640625 C-34.875 137.375 -34.875 137.375 -32.640625 139.50390625 C-30.68891441 142.67759494 -30.09999583 145.08915589 -29.5 148.75 C-28.0578871 155.57497283 -25.97610657 159.55815102 -20.20581055 163.52148438 C-14.30777272 166.79544552 -9.02138073 166.94611725 -2.375 166.8125 C-0.88419922 166.82313477 -0.88419922 166.82313477 0.63671875 166.83398438 C9.74484269 166.75577723 16.58945064 164.79659743 23.359375 158.453125 C28.19383876 152.76300394 29.79052186 146.04436552 29.4453125 138.69140625 C28.57404475 132.3906529 25.49537754 127.84470431 21.125 123.375 C16.15134712 119.86550111 11.63112431 118.28627907 5.59765625 118.19921875 C-10.72005529 117.80861107 -24.65912838 115.77010928 -37.16015625 104.2734375 C-46.93033196 93.93713946 -50.30417186 82.49954022 -50.31396484 68.53637695 C-49.94215968 56.40445953 -44.29319405 46.85763375 -35.9296875 38.41015625 C-28.54921834 31.56513289 -20.06422272 27.20565004 -9.875 27.375 C-9.89071045 26.79532471 -9.9064209 26.21564941 -9.92260742 25.6184082 C-9.98522791 22.97487261 -10.02407518 20.33149345 -10.0625 17.6875 C-10.08763672 16.77548828 -10.11277344 15.86347656 -10.13867188 14.92382812 C-10.19342942 9.90438674 -10.18340308 6.43640524 -6.875 2.375 C-4.38459058 -0.11540942 -3.44345643 0.05108986 0 0 Z " fill="#FCFEF9" transform="translate(178.875,161.625)"/>
<path d="M0 0 C3.76674251 3.67015937 5.22295069 6.65860549 5.875 11.875 C5.27048697 16.71110423 3.2802934 19.50407235 -0.09765625 22.93359375 C-3.92017731 25.16895076 -7.90794665 25.53839982 -12.25 26.1875 C-13.75530273 26.42581543 -13.75530273 26.42581543 -15.29101562 26.66894531 C-19.04561863 27.25525956 -22.80353886 27.81751241 -26.5625 28.375 C-27.79422943 28.55829865 -27.79422943 28.55829865 -29.05084229 28.74530029 C-41.88343365 30.65388826 -54.72131513 32.52518728 -67.5625 34.375 C-63.77414473 34.99437677 -59.98535622 35.61104189 -56.19625854 36.2258606 C-54.81604272 36.45018558 -53.43593569 36.67518095 -52.05593872 36.90084839 C-43.83710324 38.24430154 -35.61510725 39.52707699 -27.3671875 40.6796875 C-25.86902155 40.89272012 -24.3708928 41.10601452 -22.87280273 41.31958008 C-20.70033804 41.62925257 -18.52784688 41.93382045 -16.35232544 42.22128296 C-14.32517888 42.48938535 -12.30142112 42.77616155 -10.27734375 43.06640625 C-9.12355225 43.22310791 -7.96976074 43.37980957 -6.78100586 43.54125977 C-1.84624281 44.81958912 1.48327175 46.94365763 4.3125 51.1875 C5.63277938 54.92829157 5.93027138 57.43282897 5.4375 61.375 C3.38368797 65.18922234 1.33203363 68.37510435 -2.5625 70.375 C-9.72818247 71.59466221 -15.87833459 71.03389676 -23.015625 69.86328125 C-24.11050232 69.69378464 -25.20537964 69.52428802 -26.33343506 69.34965515 C-29.82827332 68.80653839 -33.32036719 68.24772355 -36.8125 67.6875 C-44.81406417 66.42641502 -52.81838441 65.18379367 -60.82485008 63.95423889 C-63.19622249 63.58673761 -65.56673097 63.21358129 -67.93599892 62.83274841 C-85.23069086 60.06368336 -102.08517911 58.80261312 -119.59477043 58.85857964 C-123.65257545 58.87149226 -127.70971788 58.86016149 -131.76747131 58.84254456 C-139.61837568 58.81225756 -147.46914682 58.81020816 -155.32009888 58.81219482 C-165.39621886 58.81360543 -175.47224184 58.80318658 -185.54828936 58.7636171 C-188.92061374 58.75119338 -192.29268301 58.74543124 -195.6650219 58.75512505 C-199.39913854 58.76433779 -203.13284366 58.7558816 -206.86694336 58.74389648 C-207.96865372 58.75161575 -209.07036407 58.75933502 -210.20545959 58.76728821 C-216.67846215 58.72432481 -221.22215208 58.13942587 -226.375 53.875 C-228.47014584 51.22849999 -228.78726442 48.45223468 -228.9375 45.1875 C-228.98648438 44.47207031 -229.03546875 43.75664063 -229.0859375 43.01953125 C-228.22476642 38.6686893 -226.93129955 35.37584851 -223.5625 32.375 C-218.8695457 31.16604414 -214.17635987 31.35626827 -209.36474609 31.4543457 C-207.90091171 31.45492557 -206.43707216 31.4519147 -204.97325134 31.44558716 C-201.82537529 31.43950541 -198.6789985 31.45844147 -195.531353 31.49678993 C-190.55636757 31.55692125 -185.58237038 31.55938912 -180.60708618 31.55375671 C-171.84550295 31.55114949 -163.08467583 31.59685558 -154.32330322 31.65356445 C-141.12474226 31.73879153 -127.92616385 31.78908932 -114.72732413 31.78911275 C-109.77939669 31.79098778 -104.832528 31.81936455 -99.88485312 31.86853564 C-96.81125903 31.8944935 -93.73786452 31.90018578 -90.66417122 31.9005928 C-89.23664583 31.90513266 -87.80911839 31.91833621 -86.38176155 31.94073677 C-84.43679738 31.97016892 -82.49141235 31.96619912 -80.54623413 31.96040344 C-79.45671637 31.96802861 -78.3671986 31.97565378 -77.24466515 31.98351002 C-74.35410924 31.64173754 -74.35410924 31.64173754 -72.87992287 28.99856853 C-72.22779855 27.69990211 -72.22779855 27.69990211 -71.5625 26.375 C-69.56584402 24.70432867 -67.56598966 23.03747014 -65.5625 21.375 C-64.87981862 20.04979497 -64.2117959 18.71687818 -63.5625 17.375 C-62.7375 16.75625 -61.9125 16.1375 -61.0625 15.5 C-58.11215983 12.99221085 -57.48776214 11.07604856 -56.5625 7.375 C-55.9025 7.375 -55.2425 7.375 -54.5625 7.375 C-54.2325 6.385 -53.9025 5.395 -53.5625 4.375 C-45.43837741 2.85089368 -37.29626763 1.49576073 -29.125 0.25 C-27.98740234 0.06824219 -26.84980469 -0.11351562 -25.67773438 -0.30078125 C-6.90451386 -3.14942737 -6.90451386 -3.14942737 0 0 Z " fill="#FB9479" transform="translate(327.5625,49.625)"/>
<path d="M0 0 C2.16932124 0.0641466 4.33671723 0.20099682 6.5 0.375 C7.6859375 0.46523437 8.871875 0.55546875 10.09375 0.6484375 C13 1 13 1 14 2 C15.72243264 2.07829239 17.44544114 2.148775 19.16918945 2.1887207 C28.89616295 2.44445238 38.46497124 3.58385365 48.08203125 4.98791504 C49.56221829 5.2033166 51.0431879 5.41341105 52.52490234 5.61804199 C54.64045202 5.91271293 56.75176875 6.22858177 58.86328125 6.55078125 C60.09344971 6.73294189 61.32361816 6.91510254 62.59106445 7.1027832 C67.61300388 8.4245355 70.98678189 10.48017284 73.875 14.8125 C75.19527938 18.55329157 75.49277138 21.05782897 75 25 C72.94618797 28.81422234 70.89453363 32.00010435 67 34 C59.60022635 35.2835772 53.15225582 34.59407159 45.7734375 33.41796875 C44.62638336 33.24372879 43.47932922 33.06948883 42.29751587 32.88996887 C39.88468152 32.5211917 37.47268711 32.14688096 35.06152344 31.76733398 C31.3813701 31.18850192 27.69889369 30.62698846 24.015625 30.06835938 C21.66390698 29.70673911 19.31233892 29.344142 16.9609375 28.98046875 C15.31851578 28.72876167 15.31851578 28.72876167 13.64291382 28.4719696 C8.28578699 27.62418194 3.18014433 26.60306257 -2 25 C-4.13957089 24.59077865 -6.28560701 24.21350002 -8.4375 23.875 C-9.48808594 23.70742187 -10.53867188 23.53984375 -11.62109375 23.3671875 C-12.40613281 23.24601562 -13.19117188 23.12484375 -14 23 C-14 22.67 -14 22.34 -14 22 C-10.04 21.505 -10.04 21.505 -6 21 C-6 20.34 -6 19.68 -6 19 C-4.68 18.67 -3.36 18.34 -2 18 C-2 17.34 -2 16.68 -2 16 C-1.34 16 -0.68 16 0 16 C0.02715383 14.25008666 0.04646551 12.50005055 0.0625 10.75 C0.07410156 9.77546875 0.08570313 8.8009375 0.09765625 7.796875 C0.01180181 5.33800393 -0.3986897 3.36190351 -1 1 C-0.67 0.67 -0.34 0.34 0 0 Z " fill="#FC795A" transform="translate(258,86)"/>
<path d="M0 0 C4.7099683 1.52265307 8.43214887 4.79637463 12.33203125 7.75390625 C12.99203125 8.08390625 13.65203125 8.41390625 14.33203125 8.75390625 C14.14769531 9.37652344 13.96335937 9.99914063 13.7734375 10.640625 C13.14853411 15.04812941 13.74120629 19.16588596 14.26953125 23.56640625 C14.41938477 24.89188477 14.41938477 24.89188477 14.57226562 26.24414062 C14.81868119 28.41494438 15.0721316 30.58468262 15.33203125 32.75390625 C15.99203125 32.75390625 16.65203125 32.75390625 17.33203125 32.75390625 C17.57953125 33.92953125 17.82703125 35.10515625 18.08203125 36.31640625 C18.82928729 39.35381388 19.79268574 41.81863069 21.39453125 44.50390625 C23.00528162 47.20581009 23.60186578 48.83324438 24.33203125 51.75390625 C24.76515625 52.18703125 25.19828125 52.62015625 25.64453125 53.06640625 C28.15338962 55.57526462 29.64222663 58.66728733 31.33203125 61.75390625 C33.33387723 65.34054696 35.39146922 67.89983134 38.33203125 70.75390625 C43.33203125 76.28247768 43.33203125 76.28247768 43.33203125 78.75390625 C42.33042969 78.80289063 41.32882813 78.851875 40.296875 78.90234375 C38.95440366 78.97744704 37.61195695 79.05299151 36.26953125 79.12890625 C34.95855469 79.19851562 33.64757812 79.268125 32.296875 79.33984375 C28.35066168 79.75196061 25.09086052 80.55147192 21.33203125 81.75390625 C3.9147331 63.49519273 -12.0979155 40.1514904 -11.890625 14.0625 C-11.59666923 9.69442039 -10.81185676 5.60937564 -8.66796875 1.75390625 C-5.3811412 -0.43731211 -3.84423294 -0.56344045 0 0 Z " fill="#8DCD44" transform="translate(81.66796875,1.24609375)"/>
<path d="M0 0 C0.99 0.495 0.99 0.495 2 1 C1.67 1.66 1.34 2.32 1 3 C0.34 3 -0.32 3 -1 3 C-1.04125 3.886875 -1.0825 4.77375 -1.125 5.6875 C-2.28406538 10.07539035 -4.47784837 11.25272173 -8 14 C-9.05104383 15.63495707 -10.05988318 17.29883624 -11 19 C-12.5625 20.8125 -12.5625 20.8125 -14 22 C-14.66 22 -15.32 22 -16 22 C-16.309375 22.804375 -16.61875 23.60875 -16.9375 24.4375 C-18 27 -18 27 -19 28 C-20.87294784 28.09652596 -22.74958244 28.12187266 -24.62501526 28.12025452 C-26.45715576 28.12231651 -26.45715576 28.12231651 -28.3263092 28.12442017 C-29.69223047 28.12088056 -31.05815148 28.11724574 -32.42407227 28.11352539 C-33.85277301 28.11324352 -35.2814739 28.11340124 -36.71017456 28.1139679 C-40.60049972 28.11425589 -44.49079431 28.10835887 -48.38111234 28.10139394 C-52.44238205 28.0951607 -56.50365239 28.09455663 -60.56492615 28.09336853 C-68.26078933 28.09025512 -75.95663838 28.08204161 -83.65249532 28.07201904 C-92.41172114 28.06085819 -101.17094761 28.05534753 -109.93017876 28.05032361 C-127.95346053 28.03985901 -145.97672913 28.02225939 -164 28 C-162 26 -162 26 -159.64670181 25.75111103 C-158.15679041 25.75192818 -158.15679041 25.75192818 -156.63677979 25.75276184 C-155.49837646 25.74856735 -154.35997314 25.74437286 -153.18707275 25.74005127 C-151.93198914 25.74567078 -150.67690552 25.75129028 -149.38378906 25.75708008 C-148.06664917 25.75518173 -146.74950928 25.75328339 -145.39245605 25.75132751 C-141.77240647 25.7464699 -138.15247969 25.75414771 -134.53244495 25.76428056 C-130.7449183 25.7730537 -126.95739558 25.77130371 -123.16986084 25.7709198 C-116.80430036 25.77185726 -110.43878745 25.78054959 -104.07324219 25.79418945 C-96.71949762 25.80988887 -89.36580527 25.81518851 -82.01204515 25.8144539 C-74.18200051 25.81377739 -66.35197594 25.82072784 -58.52193737 25.8299005 C-56.26792257 25.83202908 -54.01391103 25.83274133 -51.75989532 25.83313942 C-48.21079612 25.8341469 -44.66174046 25.84027657 -41.11265564 25.85030556 C-39.19345547 25.85460273 -37.27424636 25.85406052 -35.3550415 25.85336304 C-33.63051758 25.85976051 -33.63051758 25.85976051 -31.87115479 25.86628723 C-30.87637241 25.86796308 -29.88159004 25.86963892 -28.85666275 25.87136555 C-25.83794377 26.00729733 -22.96812382 26.44579268 -20 27 C-19.938125 26.278125 -19.87625 25.55625 -19.8125 24.8125 C-18.73829749 21.09410668 -16.81565434 19.6236779 -14 17 C-13.13172479 15.97006394 -12.2774382 14.92817328 -11.4375 13.875 C-9 11 -9 11 -6.8125 9.4375 C-4.47943973 7.58714185 -4.032746 5.75398934 -3 3 C-1.375 1.1875 -1.375 1.1875 0 0 Z " fill="#C8BC6D" transform="translate(272,54)"/>
<path d="M0 0 C0.66 0.33 1.32 0.66 2 1 C1.278125 1.556875 0.55625 2.11375 -0.1875 2.6875 C-2.98408534 4.91062821 -2.98408534 4.91062821 -5.26953125 7.26953125 C-8.80647945 10.80647945 -12.49243499 14.16477815 -16.18359375 17.5390625 C-20.78523027 21.76174072 -25.28100192 26.03095577 -29.3125 30.8125 C-29.82425781 31.41707031 -30.33601563 32.02164063 -30.86328125 32.64453125 C-31.23839844 33.09183594 -31.61351563 33.53914063 -32 34 C-32.33 32.68 -32.66 31.36 -33 30 C-32.319375 29.505 -31.63875 29.01 -30.9375 28.5 C-27.81280589 25.84068587 -25.33505774 22.97362726 -22.74609375 19.8046875 C-20.94144197 17.93947694 -19.37302283 17.00736637 -17 16 C-17 15.34 -17 14.68 -17 14 C-13.53846154 11 -13.53846154 11 -11 11 C-11 10.34 -11 9.68 -11 9 C-7.67294903 5.28153127 -4.18597423 2.62840242 0 0 Z M-35 34 C-34.34 34.33 -33.68 34.66 -33 35 C-35.97 37.475 -35.97 37.475 -39 40 C-37.84826645 37.53199953 -36.95216435 35.95216435 -35 34 Z " fill="#9BD559" transform="translate(123,112)"/>
<path d="M0 0 C0.84240234 -0.01313232 1.68480469 -0.02626465 2.55273438 -0.03979492 C3.34873047 -0.04084229 4.14472656 -0.04188965 4.96484375 -0.04296875 C5.68148193 -0.04707764 6.39812012 -0.05118652 7.13647461 -0.05541992 C9.0625 0.1875 9.0625 0.1875 12.0625 2.1875 C12.0625 2.8475 12.0625 3.5075 12.0625 4.1875 C11.4025 4.1875 10.7425 4.1875 10.0625 4.1875 C10.0625 3.5275 10.0625 2.8675 10.0625 2.1875 C5.64531944 2.29734901 1.2289929 2.42798753 -3.1875 2.5625 C-5.06888672 2.60890625 -5.06888672 2.60890625 -6.98828125 2.65625 C-8.19355469 2.69492187 -9.39882813 2.73359375 -10.640625 2.7734375 C-12.30593262 2.82056885 -12.30593262 2.82056885 -14.00488281 2.86865234 C-16.86723814 3.17986081 -18.45728418 3.82261946 -20.9375 5.1875 C-23.84765625 5.34765625 -23.84765625 5.34765625 -27 5.25 C-30.41328827 5.15295967 -32.68195729 5.1023191 -35.9375 6.1875 C-38.27049825 6.22704234 -40.60458189 6.23151732 -42.9375 6.1875 C-40.19075315 4.68755549 -37.83154556 3.84376903 -34.7421875 3.37109375 C-33.94941406 3.24710205 -33.15664062 3.12311035 -32.33984375 2.99536133 C-31.08880859 2.81203247 -31.08880859 2.81203247 -29.8125 2.625 C-28.95011719 2.49569092 -28.08773437 2.36638184 -27.19921875 2.2331543 C-24.77983987 1.87560048 -22.35908466 1.52973912 -19.9375 1.1875 C-19.01195312 1.05085937 -18.08640625 0.91421875 -17.1328125 0.7734375 C-11.44695798 0.06523498 -5.72259635 0.05690686 0 0 Z " fill="#ABD07A" transform="translate(272.9375,0.8125)"/>
<path d="M0 0 C1.2065625 0.0309375 1.2065625 0.0309375 2.4375 0.0625 C1.0279679 3.46886923 -0.29290054 5.30194644 -3.5625 7.0625 C-12.52867499 8.91485264 -21.21888183 7.04831852 -30.125 5.625 C-31.72184185 5.37849676 -33.31884637 5.13304482 -34.91601562 4.88867188 C-38.8001602 4.29206328 -42.68182091 3.68123275 -46.5625 3.0625 C-46.5625 2.7325 -46.5625 2.4025 -46.5625 2.0625 C-44.41673363 2.03564062 -42.27087355 2.01616912 -40.125 2 C-38.93003906 1.98839844 -37.73507812 1.97679688 -36.50390625 1.96484375 C-33.5625 2.0625 -33.5625 2.0625 -32.5625 3.0625 C-30.03653741 3.29903523 -27.53142793 3.48423692 -25 3.625 C-24.28908203 3.66818359 -23.57816406 3.71136719 -22.84570312 3.75585938 C-21.08488088 3.86221777 -19.3237168 3.96288846 -17.5625 4.0625 C-17.5625 4.7225 -17.5625 5.3825 -17.5625 6.0625 C-12.6125 5.7325 -7.6625 5.4025 -2.5625 5.0625 C-3.0575 3.0825 -3.0575 3.0825 -3.5625 1.0625 C-2.5625 0.0625 -2.5625 0.0625 0 0 Z " fill="#E57E69" transform="translate(328.5625,112.9375)"/>
<path d="M0 0 C1.65 0 3.3 0 5 0 C2.40213004 3.1751744 -0.05662718 3.9949104 -4 5 C-7.8363339 5.31178945 -11.65264891 5.32465977 -15.5 5.3125 C-17.02947266 5.33666992 -17.02947266 5.33666992 -18.58984375 5.36132812 C-24.23964375 5.3650016 -28.21644561 5.10439574 -33 2 C-30.62423232 1.20807744 -29.18139699 0.96319677 -26.70043945 1.46655273 C-23.88413092 2.02288888 -21.3483505 2.11367794 -18.48046875 2.09765625 C-16.9480957 2.09282227 -16.9480957 2.09282227 -15.38476562 2.08789062 C-13.80211914 2.07532227 -13.80211914 2.07532227 -12.1875 2.0625 C-10.57584961 2.05573242 -10.57584961 2.05573242 -8.93164062 2.04882812 C-6.28770317 2.03707729 -3.64388048 2.02064787 -1 2 C-0.67 1.34 -0.34 0.68 0 0 Z " fill="#B5D889" transform="translate(192,324)"/>
<path d="M0 0 C12.88834449 0.40721468 25.34663057 2.6269779 38 5 C38 5.33 38 5.66 38 6 C36.39592672 6.02708567 34.7917215 6.04643483 33.1875 6.0625 C31.84751953 6.07990234 31.84751953 6.07990234 30.48046875 6.09765625 C28 6 28 6 25 5 C22.19209526 4.97039859 19.4000277 5.06585928 16.59375 5.16015625 C14 5 14 5 11 3 C8.26127045 2.54227937 8.26127045 2.54227937 5.3125 2.375 C4.31863281 2.30023438 3.32476562 2.22546875 2.30078125 2.1484375 C1.54152344 2.09945312 0.78226562 2.05046875 0 2 C0 1.34 0 0.68 0 0 Z " fill="#EB8269" transform="translate(284,89)"/>
<path d="M0 0 C-1.98 0.66 -3.96 1.32 -6 2 C-6.01981934 2.65597168 -6.03963867 3.31194336 -6.06005859 3.98779297 C-6.15512507 6.95061069 -6.26487752 9.91270532 -6.375 12.875 C-6.42140625 14.42380859 -6.42140625 14.42380859 -6.46875 16.00390625 C-6.50742188 16.99003906 -6.54609375 17.97617187 -6.5859375 18.9921875 C-6.6173584 19.90339355 -6.6487793 20.81459961 -6.68115234 21.75341797 C-7 24 -7 24 -9 26 C-9.99 26 -10.98 26 -12 26 C-12 26.66 -12 27.32 -12 28 C-14.40545638 29.20272819 -15.94996953 29.10071472 -18.625 29.0625 C-19.85089844 29.04896484 -19.85089844 29.04896484 -21.1015625 29.03515625 C-21.72804687 29.02355469 -22.35453125 29.01195312 -23 29 C-23 28.34 -23 27.68 -23 27 C-19.7 27 -16.4 27 -13 27 C-13 26.34 -13 25.68 -13 25 C-12.34 25 -11.68 25 -11 25 C-8.45484458 20.08557388 -8.55846879 15.0960069 -8.375 9.6875 C-8.33632812 8.75615234 -8.29765625 7.82480469 -8.2578125 6.86523438 C-8.16393687 4.57701593 -8.07825491 2.28879705 -8 0 C-4.90279155 -0.87840996 -3.09354597 -0.99435406 0 0 Z " fill="#B2D688" transform="translate(197,348)"/>
<path d="M0 0 C0.66 0.33 1.32 0.66 2 1 C1.67 1.66 1.34 2.32 1 3 C0.34 3 -0.32 3 -1 3 C-1.04125 3.886875 -1.0825 4.77375 -1.125 5.6875 C-2.28406538 10.07539035 -4.47784837 11.25272173 -8 14 C-9.02304948 15.65261839 -10.02616054 17.31791365 -11 19 C-13.1875 20.8125 -13.1875 20.8125 -15 22 C-14.56483807 17.06816484 -12.31967925 14.55128477 -9 11 C-8.278125 10.484375 -7.55625 9.96875 -6.8125 9.4375 C-4.47943973 7.58714185 -4.032746 5.75398934 -3 3 C-1.375 1.1875 -1.375 1.1875 0 0 Z " fill="#D7B16F" transform="translate(272,54)"/>
<path d="M0 0 C0.66 0 1.32 0 2 0 C1.83757812 0.82757813 1.67515625 1.65515625 1.5078125 2.5078125 C0.95366014 6.31867564 0.84954377 10.03474642 0.875 13.875 C0.87693359 14.57882813 0.87886719 15.28265625 0.88085938 16.0078125 C0.92044195 20.75772193 1.2198489 25.31909339 2 30 C1.34 30.33 0.68 30.66 0 31 C0 28.69 0 26.38 0 24 C-0.66 24 -1.32 24 -2 24 C-2.05425013 21.12474331 -2.09379277 18.25052354 -2.125 15.375 C-2.14175781 14.56675781 -2.15851563 13.75851563 -2.17578125 12.92578125 C-2.21420986 8.19906185 -1.82737094 4.44612298 0 0 Z " fill="#ADD77E" transform="translate(129,218)"/>
<path d="M0 0 C0.90492188 0.02320313 1.80984375 0.04640625 2.7421875 0.0703125 C4.10730469 0.09738281 4.10730469 0.09738281 5.5 0.125 C6.19867188 0.14820313 6.89734375 0.17140625 7.6171875 0.1953125 C7.6171875 0.5253125 7.6171875 0.8553125 7.6171875 1.1953125 C6.99070313 1.23269531 6.36421875 1.27007812 5.71875 1.30859375 C4.90148437 1.37433594 4.08421875 1.44007813 3.2421875 1.5078125 C2.02402344 1.59482422 2.02402344 1.59482422 0.78125 1.68359375 C-1.76202588 2.02521778 -1.76202588 2.02521778 -3.3828125 5.1953125 C-4.0428125 5.1953125 -4.7028125 5.1953125 -5.3828125 5.1953125 C-5.29521992 7.73851766 -5.18827837 10.27848183 -5.0703125 12.8203125 C-5.04775391 13.53316406 -5.02519531 14.24601562 -5.00195312 14.98046875 C-4.76020037 19.7715688 -3.68203346 22.90600953 -1.3828125 27.1953125 C-1.7128125 27.8553125 -2.0428125 28.5153125 -2.3828125 29.1953125 C-5.41500565 24.40249107 -6.97804696 20.96322139 -7.3828125 15.1953125 C-7.46015625 14.18404297 -7.46015625 14.18404297 -7.5390625 13.15234375 C-7.74510479 8.57648798 -7.16438899 5.83275868 -4.3828125 2.1953125 C-2.3828125 0.1953125 -2.3828125 0.1953125 0 0 Z " fill="#EAFAD8" transform="translate(136.3828125,298.8046875)"/>
<path d="M0 0 C0 0.66 0 1.32 0 2 C-0.99 2 -1.98 2 -3 2 C-3.268125 2.639375 -3.53625 3.27875 -3.8125 3.9375 C-5 6 -5 6 -8 7 C-12.59669485 13.53047682 -12.76163779 21.28898238 -13 29 C-15.52826571 25.20760144 -15.36444901 23.51916778 -15 19 C-13.02401801 11.09607205 -10.3630087 5.63005984 -3.62109375 0.91796875 C-2 0 -2 0 0 0 Z " fill="#B2D784" transform="translate(164,211)"/>
<path d="M0 0 C0 3.78374009 -1.10336895 5.74863249 -3 9 C-5 10.5 -5 10.5 -7 12 C-8.01691264 13.99145391 -9.01642648 15.99187074 -10 18 C-11.31387169 19.35251497 -12.64426252 20.68945377 -14 22 C-14.33 22.99 -14.66 23.98 -15 25 C-15.66 25 -16.32 25 -17 25 C-15.45262907 20.42704346 -13.00531581 16.91780322 -10.1875 13.0625 C-9.76146484 12.46759766 -9.33542969 11.87269531 -8.89648438 11.25976562 C-6.08353899 7.36590023 -3.11172048 3.65920451 0 0 Z " fill="#9ACA5B" transform="translate(54,160)"/>
<path d="M0 0 C0.33 0 0.66 0 1 0 C1.14611313 3.37453898 1.23433467 6.74825766 1.3125 10.125 C1.35439453 11.07632813 1.39628906 12.02765625 1.43945312 13.0078125 C1.57770859 20.97132725 1.57770859 20.97132725 -1.1953125 24.64453125 C-4.21898972 27.18391476 -5.31714743 27.75572486 -9.1875 27.5625 C-10.04730469 27.54316406 -10.90710938 27.52382812 -11.79296875 27.50390625 C-14 27 -14 27 -16 24 C-12.37 24.66 -8.74 25.32 -5 26 C-5 25.01 -5 24.02 -5 23 C-4.34 23 -3.68 23 -3 23 C-0.65079126 18.31113215 -0.56954075 13.8225651 -0.375 8.6875 C-0.31699219 7.43356445 -0.31699219 7.43356445 -0.2578125 6.15429688 C-0.16404841 4.10320741 -0.08095755 2.05163485 0 0 Z " fill="#EBFAD6" transform="translate(228,221)"/>
<path d="M0 0 C1.11544189 0.07855225 1.11544189 0.07855225 2.25341797 0.15869141 C3.05908203 0.21025391 3.86474609 0.26181641 4.69482422 0.31494141 C5.95746094 0.41162109 5.95746094 0.41162109 7.24560547 0.51025391 C8.09509766 0.56697266 8.94458984 0.62369141 9.81982422 0.68212891 C11.92073997 0.82376368 14.02077881 0.97829717 16.12060547 1.13525391 C16.12060547 1.46525391 16.12060547 1.79525391 16.12060547 2.13525391 C4.38525317 3.67251643 -7.04502903 4.40489768 -18.87939453 4.13525391 C-18.87939453 3.80525391 -18.87939453 3.47525391 -18.87939453 3.13525391 C-17.81978516 3.08626953 -16.76017578 3.03728516 -15.66845703 2.98681641 C-14.28040956 2.91178681 -12.89239002 2.83623906 -11.50439453 2.76025391 C-10.45638672 2.71384766 -10.45638672 2.71384766 -9.38720703 2.66650391 C-5.47942262 2.44105481 -3.28652898 0.23652079 0 0 Z " fill="#8FC556" transform="translate(228.87939453125,423.86474609375)"/>
<path d="M0 0 C0.66 0.33 1.32 0.66 2 1 C1.06558465 2.27310312 0.12732889 3.543388 -0.8125 4.8125 C-1.59560547 5.87404297 -1.59560547 5.87404297 -2.39453125 6.95703125 C-4 9 -4 9 -5.6015625 10.59765625 C-7.19068525 12.07688622 -7.19068525 12.07688622 -8.5625 14.625 C-10 17 -10 17 -12 18 C-10.17301482 10.69205928 -5.4604995 5.04046107 0 0 Z " fill="#EDFAE1" transform="translate(145,198)"/>
<path d="M0 0 C5.25629735 6.10408724 5.5317879 11.13448596 5 19 C4 22.625 4 22.625 3 25 C1.74566542 21.23699626 1.89304578 17.72789091 1.9375 13.8125 C1.94201172 13.06291016 1.94652344 12.31332031 1.95117188 11.54101562 C1.96293646 9.69397617 1.98087135 7.84697787 2 6 C1.34 6 0.68 6 0 6 C0 4.02 0 2.04 0 0 Z " fill="#B5D88D" transform="translate(204,289)"/>
<path d="M0 0 C0.33 0 0.66 0 1 0 C0.67352516 3.00078998 0.33790914 6.00047774 0 9 C-0.08378906 9.7734375 -0.16757813 10.546875 -0.25390625 11.34375 C-0.88650307 16.88650307 -0.88650307 16.88650307 -2 18 C-2.24346865 20.22277862 -2.38327516 22.44424927 -2.5234375 24.67578125 C-3.08682349 27.42344241 -4.19383795 28.8895914 -6 31 C-4.8405039 20.38145673 -2.78890139 10.30268913 0 0 Z " fill="#97C65C" transform="translate(6,251)"/>
<path d="M0 0 C3.91304179 1.26909463 5.85610288 2.46256976 8 6 C9.20643566 9.61930698 9.32268559 12.19231005 9 16 C7 19.4375 7 19.4375 5 22 C5 19 5 19 5.5625 15.75 C6.02405414 11.79382163 6.03643274 8.84960732 5 5 C2.53884453 3.15565651 2.53884453 3.15565651 0 2 C0 1.34 0 0.68 0 0 Z " fill="#EA9A8A" transform="translate(324,49)"/>
<path d="M0 0 C1.22625047 2.45250093 1.03425355 3.84310435 0.87890625 6.5703125 C0.83056641 7.46621094 0.78222656 8.36210937 0.73242188 9.28515625 C0.67634766 10.22230469 0.62027344 11.15945312 0.5625 12.125 C0.51029297 13.06988281 0.45808594 14.01476562 0.40429688 14.98828125 C0.27443481 17.32579841 0.13784835 19.66294021 0 22 C-3.96 22.66 -7.92 23.32 -12 24 C-11.505 22.515 -11.505 22.515 -11 21 C-7.7 21 -4.4 21 -1 21 C-1.01740234 18.85177734 -1.01740234 18.85177734 -1.03515625 16.66015625 C-1.04453255 14.79427213 -1.05363292 12.92838661 -1.0625 11.0625 C-1.07087891 10.11697266 -1.07925781 9.17144531 -1.08789062 8.19726562 C-1.09111328 7.29814453 -1.09433594 6.39902344 -1.09765625 5.47265625 C-1.10289307 4.64000244 -1.10812988 3.80734863 -1.11352539 2.94946289 C-1 1 -1 1 0 0 Z " fill="#B2D08A" transform="translate(169,167)"/>
<path d="M0 0 C0.33 0.66 0.66 1.32 1 2 C3.87038648 2.39793161 3.87038648 2.39793161 7.3125 2.5 C13.98889794 2.87661732 20.43378848 3.76131907 27 5 C27 5.33 27 5.66 27 6 C25.02090602 6.02686553 23.04171029 6.04633375 21.0625 6.0625 C19.96035156 6.07410156 18.85820312 6.08570312 17.72265625 6.09765625 C15 6 15 6 14 5 C11.47403741 4.76346477 8.96892793 4.57826308 6.4375 4.4375 C5.72658203 4.39431641 5.01566406 4.35113281 4.28320312 4.30664062 C2.52238088 4.20028223 0.7612168 4.09961154 -1 4 C-0.67 2.68 -0.34 1.36 0 0 Z " fill="#E6846C" transform="translate(257,83)"/>
<path d="M0 0 C0.28875 0.598125 0.5775 1.19625 0.875 1.8125 C2.04742026 4.19327792 2.04742026 4.19327792 4 7 C4.66 7 5.32 7 6 7 C6.66 10.3 7.32 13.6 8 17 C5.20341062 14.20341062 3.64519465 11.92239034 1.75 8.5 C1.20859375 7.5409375 0.6671875 6.581875 0.109375 5.59375 C-1 3 -1 3 0 0 Z " fill="#94C754" transform="translate(78,43)"/>
<path d="M0 0 C2.31 0 4.62 0 7 0 C7.02505615 0.58491211 7.0501123 1.16982422 7.07592773 1.77246094 C7.19222962 4.43184471 7.31480067 7.09090403 7.4375 9.75 C7.47681641 10.67039062 7.51613281 11.59078125 7.55664062 12.5390625 C7.59853516 13.42851562 7.64042969 14.31796875 7.68359375 15.234375 C7.72025146 16.05131836 7.75690918 16.86826172 7.79467773 17.70996094 C7.99134275 19.9034423 8.40300594 21.88396413 9 24 C8.01 24 7.02 24 6 24 C5.67 16.41 5.34 8.82 5 1 C3.35 1 1.7 1 0 1 C0 0.67 0 0.34 0 0 Z " fill="#B5D58D" transform="translate(162,348)"/>
<path d="M0 0 C5.36095277 1.58921525 10.70843973 3.18972938 16 5 C15.67 5.66 15.34 6.32 15 7 C12.9375 7.625 12.9375 7.625 11 8 C10.67 7.34 10.34 6.68 10 6 C8.6078125 5.8453125 8.6078125 5.8453125 7.1875 5.6875 C3.18836508 4.82494149 2.21861852 3.32792778 0 0 Z " fill="#A9D375" transform="translate(105,16)"/>
<path d="M0 0 C0 0.66 0 1.32 0 2 C-8.261959 6.40774487 -8.261959 6.40774487 -13 7 C-13 6.34 -13 5.68 -13 5 C-12.01 4.67 -11.02 4.34 -10 4 C-9.67 3.34 -9.34 2.68 -9 2 C-5.82954062 0.75938546 -3.41761705 0 0 0 Z " fill="#97C858" transform="translate(305,406)"/>
<path d="M0 0 C0 1.66666667 0 3.33333333 0 5 C-1.43931117 4.54738642 -2.87638999 4.08767021 -4.3125 3.625 C-5.11300781 3.36976563 -5.91351563 3.11453125 -6.73828125 2.8515625 C-9 2 -9 2 -12 0 C-3.42857143 -1.28571429 -3.42857143 -1.28571429 0 0 Z " fill="#B0D87F" transform="translate(206,259)"/>
<path d="M0 0 C0.99 0.66 1.98 1.32 3 2 C3.1875 5.125 3.1875 5.125 3 8 C2.34 8 1.68 8 1 8 C0.67 7.34 0.34 6.68 0 6 C-1.32 7.65 -2.64 9.3 -4 11 C-3.39301257 6.87248551 -1.96189209 3.6678852 0 0 Z " fill="#94CD55" transform="translate(21,212)"/>
<path d="M0 0 C0.33 0 0.66 0 1 0 C0.94199219 0.6290625 0.88398437 1.258125 0.82421875 1.90625 C0.46453137 8.73003351 1.80339626 12.63434236 6 18 C2.18948693 16.24432972 0.68377479 14.95687077 -1 11 C-1.36610104 7.22131431 -1.7246216 3.4492432 0 0 Z " fill="#E99F8B" transform="translate(100,88)"/>
<path d="M0 0 C4.18423892 3.50897269 8.19588166 7.08060535 12 11 C9.03 10.505 9.03 10.505 6 10 C6 9.34 6 8.68 6 8 C4.68 7.67 3.36 7.34 2 7 C1.34 4.69 0.68 2.38 0 0 Z " fill="#B2D681" transform="translate(137,333)"/>
<path d="M0 0 C0.66 0.33 1.32 0.66 2 1 C1.21753906 1.47050781 0.43507813 1.94101563 -0.37109375 2.42578125 C-1.38300781 3.04839844 -2.39492187 3.67101562 -3.4375 4.3125 C-4.44683594 4.92738281 -5.45617187 5.54226562 -6.49609375 6.17578125 C-9.26270603 7.82051965 -9.26270603 7.82051965 -10 11 C-11.65 11 -13.3 11 -15 11 C-10.78910208 6.22764902 -5.76853414 2.71580545 0 0 Z " fill="#99C55E" transform="translate(107,114)"/>
<path d="M0 0 C0.80824219 0.34933594 1.61648437 0.69867188 2.44921875 1.05859375 C3.51785156 1.51363281 4.58648437 1.96867187 5.6875 2.4375 C7.27111328 3.11619141 7.27111328 3.11619141 8.88671875 3.80859375 C11.61972529 4.85447455 14.12042337 5.53520748 17 6 C17 6.33 17 6.66 17 7 C10.83275229 7.44051769 6.07762523 6.78605971 1 3 C0.67 2.01 0.34 1.02 0 0 Z " fill="#B1D681" transform="translate(151,272)"/>
<path d="M0 0 C2.29633824 3.44450737 2.54016485 5.93812283 3 10 C1.68 10.33 0.36 10.66 -1 11 C-1.66 9.68 -2.32 8.36 -3 7 C-2.34 7 -1.68 7 -1 7 C-0.67 4.69 -0.34 2.38 0 0 Z " fill="#AAD472" transform="translate(347,239)"/>
<path d="M0 0 C1 2 1 2 0.47094727 3.78759766 C0.17244873 4.48933105 -0.1260498 5.19106445 -0.43359375 5.9140625 C-0.75263672 6.67460937 -1.07167969 7.43515625 -1.40039062 8.21875 C-1.74263672 9.0128125 -2.08488281 9.806875 -2.4375 10.625 C-2.77587891 11.42679688 -3.11425781 12.22859375 -3.46289062 13.0546875 C-4.30166778 15.03939964 -5.14995245 17.02008875 -6 19 C-7.26286699 14.88421424 -6.42575401 12.88896757 -4.6875 8.9375 C-4.23761719 7.89464844 -3.78773437 6.85179687 -3.32421875 5.77734375 C-2 3 -2 3 0 0 Z " fill="#97D355" transform="translate(55,197)"/>
<path d="M0 0 C0.92399724 2.50718765 1.16892656 3.60065169 0.109375 6.10546875 C-0.33921875 6.79253906 -0.7878125 7.47960937 -1.25 8.1875 C-1.90742187 9.22970703 -1.90742187 9.22970703 -2.578125 10.29296875 C-4 12 -4 12 -7 13 C-5.35821735 8.22390502 -2.73453298 4.20617096 0 0 Z " fill="#9ACA5C" transform="translate(36,185)"/>
<path d="M0 0 C0.66 0.33 1.32 0.66 2 1 C1.67 1.66 1.34 2.32 1 3 C0.34 3 -0.32 3 -1 3 C-1.0825 3.928125 -1.165 4.85625 -1.25 5.8125 C-2 9 -2 9 -4.0625 10.875 C-5.0215625 11.431875 -5.0215625 11.431875 -6 12 C-4.94505122 7.25273049 -3.76801786 3.25419724 0 0 Z " fill="#E4A572" transform="translate(272,54)"/>
<path d="M0 0 C-1.06541016 0.30744141 -1.06541016 0.30744141 -2.15234375 0.62109375 C-3.53099609 1.02521484 -3.53099609 1.02521484 -4.9375 1.4375 C-6.31228516 1.83775391 -6.31228516 1.83775391 -7.71484375 2.24609375 C-9.9402493 2.79026051 -9.9402493 2.79026051 -11 4 C-13.67058851 4.14115161 -16.32432238 4.04247107 -19 4 C-15.91450652 2.33354243 -12.87324675 1.26238404 -9.5 0.3125 C-8.5615625 0.04050781 -7.623125 -0.23148438 -6.65625 -0.51171875 C-3.99233534 -1.00140894 -2.52388628 -0.88693174 0 0 Z " fill="#AED379" transform="translate(209,13)"/>
<path d="M0 0 C1.43791516 0.14168137 2.8753237 0.28851043 4.3125 0.4375 C5.11300781 0.51871094 5.91351563 0.59992188 6.73828125 0.68359375 C9 1 9 1 12 2 C12 3.65 12 5.3 12 7 C11.67 6.34 11.34 5.68 11 5 C10.01 4.67 9.02 4.34 8 4 C8 3.34 8 2.68 8 2 C5.03 2 2.06 2 -1 2 C-0.67 1.34 -0.34 0.68 0 0 Z " fill="#B4D888" transform="translate(136,297)"/>
<path d="M0 0 C1.65 1.65 3.3 3.3 5 5 C4.67 5.66 4.34 6.32 4 7 C4.66 7 5.32 7 6 7 C6 7.66 6 8.32 6 9 C6.66 9.33 7.32 9.66 8 10 C7.01 11.485 7.01 11.485 6 13 C4.99491199 11.21118264 3.99607264 9.41885304 3 7.625 C2.1646875 6.12839844 2.1646875 6.12839844 1.3125 4.6015625 C0 2 0 2 0 0 Z " fill="#95C956" transform="translate(8,360)"/>
<path d="M0 0 C-4.58921384 3.15654048 -8.29370646 5.57202798 -14 6 C-10.96095324 2.3278185 -4.86447691 -2.43223845 0 0 Z " fill="#E5F7D1" transform="translate(162,191)"/>
<path d="M0 0 C0 0.99 0 1.98 0 3 C-6.625 3.25 -6.625 3.25 -10 1 C-6.52674819 -0.1577506 -3.63932552 -0.06866652 0 0 Z " fill="#F39A87" transform="translate(312,49)"/>
<path d="M0 0 C2.475 0.99 2.475 0.99 5 2 C5 2.66 5 3.32 5 4 C6.29233607 5.37310707 7.62437146 6.71034824 9 8 C8.67 8.66 8.34 9.32 8 10 C6.84806377 8.90220176 5.70365063 7.79650554 4.5625 6.6875 C3.92441406 6.07261719 3.28632813 5.45773437 2.62890625 4.82421875 C1 3 1 3 0 0 Z " fill="#95C758" transform="translate(19,379)"/>
<path d="M0 0 C1.98 0 3.96 0 6 0 C6.33 1.32 6.66 2.64 7 4 C7.66 4 8.32 4 9 4 C9 4.66 9 5.32 9 6 C4.64464931 4.83857315 2.35380297 3.92300495 0 0 Z " fill="#B3D786" transform="translate(157,251)"/>
<path d="M0 0 C0.90105469 0.02707031 1.80210937 0.05414063 2.73046875 0.08203125 C3.76107422 0.13423828 3.76107422 0.13423828 4.8125 0.1875 C4.8125 1.1775 4.8125 2.1675 4.8125 3.1875 C4.4825 2.5275 4.1525 1.8675 3.8125 1.1875 C-1.92616286 1.42876997 -1.92616286 1.42876997 -6.6875 4.25 C-7.43 5.2090625 -7.43 5.2090625 -8.1875 6.1875 C-8.1875 3.1875 -8.1875 3.1875 -7.01171875 1.51171875 C-4.56536496 -0.26411409 -2.9895229 -0.11647492 0 0 Z " fill="#E6F9D4" transform="translate(179.1875,161.8125)"/>
<path d="M0 0 C0.33 0 0.66 0 1 0 C1.28875 1.175625 1.5775 2.35125 1.875 3.5625 C2.83313721 7.4018927 3.89205511 11.2013318 5 15 C2.18059121 12.45343722 0.43747986 10.8279488 0 7 C-0.03888349 4.66699067 -0.0448635 2.33290199 0 0 Z " fill="#B5D689" transform="translate(149,306)"/>
<path d="M0 0 C6.4 0.49230769 6.4 0.49230769 9.4375 3.0625 C10.2109375 4.0215625 10.2109375 4.0215625 11 5 C9.53890937 4.74445946 8.08111904 4.46999628 6.625 4.1875 C5.81289062 4.03667969 5.00078125 3.88585937 4.1640625 3.73046875 C2 3 2 3 0 0 Z " fill="#AED57B" transform="translate(191,209)"/>
<path d="M0 0 C0.33 0 0.66 0 1 0 C1 1.98 1 3.96 1 6 C1.66 6 2.32 6 3 6 C1.87548273 8.9719385 0.77706209 11.33440687 -1 14 C-0.67 9.38 -0.34 4.76 0 0 Z " fill="#F5FDE7" transform="translate(209,298)"/>
<path d="M0 0 C0.99 0 1.98 0 3 0 C7.57142857 7.28571429 7.57142857 7.28571429 7 12 C6.58621094 11.14148438 6.58621094 11.14148438 6.1640625 10.265625 C5.00532152 8.01035733 3.73124294 5.89143622 2.375 3.75 C1.92898437 3.04359375 1.48296875 2.3371875 1.0234375 1.609375 C0.68570313 1.07828125 0.34796875 0.5471875 0 0 Z " fill="#F1FDE0" transform="translate(202,286)"/>
<path d="M0 0 C0.28875 0.598125 0.5775 1.19625 0.875 1.8125 C2.04742026 4.19327792 2.04742026 4.19327792 4 7 C3.625 9.1875 3.625 9.1875 3 11 C2.16121545 9.71186658 1.32913217 8.41936744 0.5 7.125 C0.0359375 6.40570313 -0.428125 5.68640625 -0.90625 4.9453125 C-2 3 -2 3 -2 1 C-1.34 0.67 -0.68 0.34 0 0 Z " fill="#AFD783" transform="translate(222,201)"/>
<path d="M0 0 C1.98 0 3.96 0 6 0 C6 1.32 6 2.64 6 4 C6.66 4 7.32 4 8 4 C7.67 4.66 7.34 5.32 7 6 C5.83054208 5.19152271 4.66449539 4.37810888 3.5 3.5625 C2.8503125 3.11003906 2.200625 2.65757812 1.53125 2.19140625 C1.0259375 1.79824219 0.520625 1.40507812 0 1 C0 0.67 0 0.34 0 0 Z " fill="#B2D682" transform="translate(208,265)"/>
<path d="M0 0 C2.64 0 5.28 0 8 0 C8 0.66 8 1.32 8 2 C8.66 2 9.32 2 10 2 C10 2.66 10 3.32 10 4 C6.7 3.01 3.4 2.02 0 1 C0 0.67 0 0.34 0 0 Z " fill="#B8DB8A" transform="translate(198,189)"/>
<path d="M0 0 C4.455 2.97 4.455 2.97 9 6 C8.01 6.33 7.02 6.66 6 7 C5.01 6.34 4.02 5.68 3 5 C3 4.34 3 3.68 3 3 C2.01 2.67 1.02 2.34 0 2 C0 1.34 0 0.68 0 0 Z " fill="#EFFCDE" transform="translate(207,265)"/>
<path d="M0 0 C6.875 3.75 6.875 3.75 8 6 C6.35 6 4.7 6 3 6 C2.67 4.68 2.34 3.36 2 2 C1.34 2 0.68 2 0 2 C0 1.34 0 0.68 0 0 Z " fill="#AED17A" transform="translate(256,118)"/>
<path d="M0 0 C0.6875 1.8125 0.6875 1.8125 1 4 C-0.3125 5.75 -0.3125 5.75 -2 7 C-2.66 7 -3.32 7 -4 7 C-4.33 7.66 -4.66 8.32 -5 9 C-5 8.01 -5 7.02 -5 6 C-4.34 5.67 -3.68 5.34 -3 5 C-1.9590934 3.35857037 -0.95495674 1.69287785 0 0 Z " fill="#BCC86D" transform="translate(267,58)"/>
<path d="M0 0 C-3.08809695 1.76462683 -4.23312136 2 -8 2 C-8 1.34 -8 0.68 -8 0 C-5.13822943 -1.43088528 -3.06624227 -0.59991697 0 0 Z " fill="#AAD678" transform="translate(156,346)"/>
<path d="M0 0 C2.64 0 5.28 0 8 0 C4.81237635 2.12508244 2.73487777 2.5020163 -1 3 C-0.67 2.01 -0.34 1.02 0 0 Z " fill="#ABD479" transform="translate(158,188)"/>
<path d="M0 0 C1.2065625 0.0309375 1.2065625 0.0309375 2.4375 0.0625 C1.7775 1.3825 1.1175 2.7025 0.4375 4.0625 C-0.5525 4.0625 -1.5425 4.0625 -2.5625 4.0625 C-2.8925 3.0725 -3.2225 2.0825 -3.5625 1.0625 C-2.5625 0.0625 -2.5625 0.0625 0 0 Z " fill="#F07D64" transform="translate(328.5625,112.9375)"/>
</svg>
