<?xml version="1.0" encoding="UTF-8"?>
<svg version="1.1" xmlns="http://www.w3.org/2000/svg" width="236" height="241">
<path d="M0 0 C77.88 0 155.76 0 236 0 C236 79.53 236 159.06 236 241 C158.12 241 80.24 241 0 241 C0 161.47 0 81.94 0 0 Z " fill="#28A439" transform="translate(0,0)"/>
<path d="M0 0 C0 0.66 0 1.32 0 2 C0.680625 2.185625 1.36125 2.37125 2.0625 2.5625 C8.21999447 5.57574197 12.60083391 11.15343433 16 17 C16 17.66 16 18.32 16 19 C16.66 19 17.32 19 18 19 C27.18347014 39.0121074 30.14682532 56.65356122 23 78 C19.89973615 86.16098866 14.72775286 93.4507816 9 100 C8.34 100 7.68 100 7 100 C7 100.66 7 101.32 7 102 C2.53119707 106.06254812 -2.70020849 109.16082598 -8 112 C-8.56847656 112.32742187 -9.13695312 112.65484375 -9.72265625 112.9921875 C-23.78843079 120.69700667 -39.81983479 122.02590722 -55.375 118.77734375 C-59.47273969 117.56387619 -63.31536898 115.84567849 -67.17578125 114.0234375 C-72.73716844 112.0081077 -76.73876087 113.01551025 -82.0625 115.25 C-90.49994805 118.64814842 -98.97809859 121.65545433 -108 123 C-107.32368237 119.11856386 -106.22107586 115.56024721 -104.8984375 111.8515625 C-104.28742188 110.09585938 -104.28742188 110.09585938 -103.6640625 108.3046875 C-102.80626491 105.8560653 -101.93909903 103.41070445 -101.0625 100.96875 C-100.45535156 99.20917969 -100.45535156 99.20917969 -99.8359375 97.4140625 C-99.46001465 96.3513916 -99.0840918 95.2887207 -98.69677734 94.19384766 C-97.58171849 89.08270542 -98.38945601 84.61933066 -100.875 80.0625 C-108.23004543 64.30552311 -107.39845024 46.14090551 -102 30 C-100.50096075 26.23753889 -98.85960622 22.59727105 -97 19 C-96.34 19 -95.68 19 -95 19 C-94.76925781 18.11828125 -94.53851563 17.2365625 -94.30078125 16.328125 C-92.8184218 12.53542153 -91.08678732 10.58408596 -88.1875 7.75 C-87.33542969 6.89921875 -86.48335937 6.0484375 -85.60546875 5.171875 C-83.09559988 3.07969045 -81.08566581 1.9971631 -78 1 C-78 0.34 -78 -0.32 -78 -1 C-52.21734521 -14.93388661 -25.1871041 -16.79140273 0 0 Z " fill="#29A439" transform="translate(160,66)"/>
<path d="M0 0 C0.74068726 -0.00189835 1.48137451 -0.00379669 2.24450684 -0.00575256 C4.66913766 -0.00942877 7.09346267 0.00119355 9.51806641 0.01245117 C11.20960454 0.01364427 12.90114335 0.01409586 14.59268188 0.01383972 C18.12465607 0.01539881 21.65652806 0.02364848 25.18847656 0.03710938 C29.72490341 0.05417667 34.26121898 0.05792119 38.79767418 0.05716419 C42.2839566 0.05743535 45.77021451 0.06290654 49.2564888 0.07016563 C50.9303125 0.07335492 52.60413897 0.07532031 54.27796555 0.07605934 C56.6072342 0.07821575 58.93638209 0.08694232 61.265625 0.09765625 C62.30972031 0.09697647 62.30972031 0.09697647 63.37490845 0.09628296 C68.13014656 0.12843757 68.13014656 0.12843757 69.24462891 1.24291992 C70.95235248 1.33005824 72.6636154 1.34992 74.37353516 1.34057617 C75.40800781 1.33735352 76.44248047 1.33413086 77.50830078 1.33081055 C78.59691406 1.32243164 79.68552734 1.31405273 80.80712891 1.30541992 C81.89960937 1.3009082 82.99208984 1.29639648 84.11767578 1.29174805 C86.82671386 1.27991819 89.5356449 1.26343535 92.24462891 1.24291992 C91.58462891 3.22291992 90.92462891 5.20291992 90.24462891 7.24291992 C89.33712891 6.99541992 88.42962891 6.74791992 87.49462891 6.49291992 C86.42212891 6.41041992 85.34962891 6.32791992 84.24462891 6.24291992 C83.66712891 6.86166992 83.08962891 7.48041992 82.49462891 8.11791992 C78.98804918 11.42968966 74.90993733 11.06485471 70.24462891 11.24291992 C70.73962891 13.22291992 70.73962891 13.22291992 71.24462891 15.24291992 C69.92462891 15.90291992 68.60462891 16.56291992 67.24462891 17.24291992 C67.24462891 17.90291992 67.24462891 18.56291992 67.24462891 19.24291992 C65.59462891 18.91291992 63.94462891 18.58291992 62.24462891 18.24291992 C62.24462891 18.90291992 62.24462891 19.56291992 62.24462891 20.24291992 C60.58930268 21.26158221 58.92202752 22.26102805 57.24462891 23.24291992 C56.91462891 23.90291992 56.58462891 24.56291992 56.24462891 25.24291992 C55.28556641 25.36666992 55.28556641 25.36666992 54.30712891 25.49291992 C53.62650391 25.74041992 52.94587891 25.98791992 52.24462891 26.24291992 C51.96876953 27.17620117 51.69291016 28.10948242 51.40869141 29.07104492 C50.02857018 32.8316437 48.88983176 33.63071363 45.55712891 35.74291992 C40.43012434 39.25122688 35.90078936 43.11929524 31.36962891 47.36791992 C30.73968018 47.95379883 30.10973145 48.53967773 29.46069336 49.14331055 C26.58544291 51.8604203 23.90047254 54.58420493 21.42431641 57.67260742 C20.70501953 58.52081055 19.98572266 59.36901367 19.24462891 60.24291992 C18.58462891 60.24291992 17.92462891 60.24291992 17.24462891 60.24291992 C17.24462891 60.90291992 17.24462891 61.56291992 17.24462891 62.24291992 C16.08523687 63.40016891 14.92207686 64.55384219 13.7421875 65.69018555 C10.84685704 68.69219104 8.48711147 72.11231161 6.05712891 75.49291992 C5.49195557 76.27272217 4.92678223 77.05252441 4.34448242 77.85595703 C-0.04234393 84.00814565 -3.93534268 90.36585313 -7.50805664 97.02319336 C-10.31541961 102.0987206 -10.31541961 102.0987206 -12.88793945 102.94189453 C-13.50419189 103.04123291 -14.12044434 103.14057129 -14.75537109 103.24291992 C-14.87912109 103.86166992 -15.00287109 104.48041992 -15.13037109 105.11791992 C-15.75537109 107.24291992 -15.75537109 107.24291992 -17.75537109 109.24291992 C-18.08537109 110.23291992 -18.41537109 111.22291992 -18.75537109 112.24291992 C-19.4959375 112.93514648 -19.4959375 112.93514648 -20.25146484 113.64135742 C-22.15313621 115.66651394 -22.3624618 117.15314997 -22.81787109 119.86791992 C-23.22802734 122.28198242 -23.22802734 122.28198242 -23.75537109 124.24291992 C-24.74537109 124.73791992 -24.74537109 124.73791992 -25.75537109 125.24291992 C-26.41537109 124.91291992 -27.07537109 124.58291992 -27.75537109 124.24291992 C-27.09537109 121.93291992 -26.43537109 119.62291992 -25.75537109 117.24291992 C-28.23037109 117.73791992 -28.23037109 117.73791992 -30.75537109 118.24291992 C-30.75537109 121.21291992 -30.75537109 124.18291992 -30.75537109 127.24291992 C-31.08537109 127.24291992 -31.41537109 127.24291992 -31.75537109 127.24291992 C-31.82494738 113.95158724 -31.87822127 100.66029804 -31.91080761 87.36882019 C-31.9264491 81.19674232 -31.94765998 75.02478925 -31.98168945 68.8527832 C-32.01433653 62.89407121 -32.03223552 56.93547911 -32.04000282 50.97668457 C-32.04553669 48.70575067 -32.05634297 46.43482316 -32.07256126 44.16394043 C-32.09440622 40.97788421 -32.09733501 37.79232049 -32.09594727 34.60620117 C-32.10673309 33.67183731 -32.11751892 32.73747345 -32.12863159 31.77479553 C-32.0844971 22.38223096 -29.12704078 15.18861391 -22.75537109 8.24291992 C-15.93696519 1.97885596 -9.27605098 -0.07621794 0 0 Z " fill="#A9DBAF" transform="translate(43.75537109375,11.757080078125)"/>
<path d="M0 0 C0 0.66 0 1.32 0 2 C0.680625 2.185625 1.36125 2.37125 2.0625 2.5625 C8.21999447 5.57574197 12.60083391 11.15343433 16 17 C16 17.66 16 18.32 16 19 C16.66 19 17.32 19 18 19 C27.18347014 39.0121074 30.14682532 56.65356122 23 78 C19.89973615 86.16098866 14.72775286 93.4507816 9 100 C8.34 100 7.68 100 7 100 C7 100.66 7 101.32 7 102 C2.53119707 106.06254812 -2.70020849 109.16082598 -8 112 C-8.56847656 112.32742187 -9.13695312 112.65484375 -9.72265625 112.9921875 C-23.78843079 120.69700667 -39.81983479 122.02590722 -55.375 118.77734375 C-59.47273969 117.56387619 -63.31536898 115.84567849 -67.17578125 114.0234375 C-72.73716844 112.0081077 -76.73876087 113.01551025 -82.0625 115.25 C-90.49994805 118.64814842 -98.97809859 121.65545433 -108 123 C-107.32368237 119.11856386 -106.22107586 115.56024721 -104.8984375 111.8515625 C-104.28742188 110.09585938 -104.28742188 110.09585938 -103.6640625 108.3046875 C-102.80626491 105.8560653 -101.93909903 103.41070445 -101.0625 100.96875 C-100.45535156 99.20917969 -100.45535156 99.20917969 -99.8359375 97.4140625 C-99.46001465 96.3513916 -99.0840918 95.2887207 -98.69677734 94.19384766 C-97.58171849 89.08270542 -98.38945601 84.61933066 -100.875 80.0625 C-108.23004543 64.30552311 -107.39845024 46.14090551 -102 30 C-100.50096075 26.23753889 -98.85960622 22.59727105 -97 19 C-96.34 19 -95.68 19 -95 19 C-94.76925781 18.11828125 -94.53851563 17.2365625 -94.30078125 16.328125 C-92.8184218 12.53542153 -91.08678732 10.58408596 -88.1875 7.75 C-87.33542969 6.89921875 -86.48335937 6.0484375 -85.60546875 5.171875 C-83.09559988 3.07969045 -81.08566581 1.9971631 -78 1 C-78 0.34 -78 -0.32 -78 -1 C-52.21734521 -14.93388661 -25.1871041 -16.79140273 0 0 Z M-71 8 C-71.96292969 8.62648438 -71.96292969 8.62648438 -72.9453125 9.265625 C-82.30442504 15.65184297 -88.48590661 24.33026567 -92 35 C-92.34160156 35.79664063 -92.68320313 36.59328125 -93.03515625 37.4140625 C-97.57475847 49.58093161 -95.62075382 64.21266303 -91 76 C-89.71950061 78.40889526 -88.40048121 80.69020915 -86.85546875 82.9375 C-84.55567967 88.48219695 -88.46663668 95.71922069 -90.2578125 101.07421875 C-91.28867834 104.03360682 -91.28867834 104.03360682 -90 107 C-89.21351074 106.71950806 -89.21351074 106.71950806 -88.41113281 106.43334961 C-86.02783443 105.59034082 -83.63913842 104.76380477 -81.25 103.9375 C-80.425 103.64294922 -79.6 103.34839844 -78.75 103.04492188 C-77.55117187 102.6340332 -77.55117187 102.6340332 -76.328125 102.21484375 C-75.22839355 101.82993774 -75.22839355 101.82993774 -74.10644531 101.43725586 C-70.28259271 100.64350064 -67.45556465 102.16521158 -64.125 103.9375 C-51.89960474 110.16297803 -36.24431234 111.14945946 -23.0625 107.3125 C-8.37246379 102.12033203 3.57139289 93.1748455 10.46875 78.9765625 C16.67134023 64.66011877 19.05463169 49.2037142 13.3125 34.3125 C11.07418765 28.86246348 8.53990206 23.71986941 5 19 C4.34 19 3.68 19 3 19 C2.7525 18.4225 2.505 17.845 2.25 17.25 C0.80606301 14.65091342 -0.73521987 12.92163162 -3 11 C-3.99 11 -4.98 11 -6 11 C-6 10.34 -6 9.68 -6 9 C-26.12049728 -3.09649135 -51.01270139 -6.58300757 -71 8 Z " fill="#F2FBF2" transform="translate(160,66)"/>
<path d="M0 0 C-1.875 4.75 -1.875 4.75 -3 7 C-4.32 7 -5.64 7 -7 7 C-7.33 6.67 -7.66 6.34 -8 6 C-8.33 6.66 -8.66 7.32 -9 8 C-7.35 8 -5.7 8 -4 8 C-3.67 9.32 -3.34 10.64 -3 12 C-2.04738281 11.94199219 -1.09476563 11.88398437 -0.11328125 11.82421875 C10.04396843 11.45885006 10.04396843 11.45885006 14.3125 13.875 C16.63608994 18.17794433 16.89672699 22.16494553 17 27 C14.87838666 24.87838666 14.07013751 23.2266841 12.875 20.5 C12.52179688 19.7059375 12.16859375 18.911875 11.8046875 18.09375 C11 16 11 16 11 14 C5.21087469 13.85229775 5.21087469 13.85229775 0.32421875 16.51953125 C-3.39155217 21.72599493 -4.75371908 26.57700263 -4 33 C-0.11655039 47.94015008 12.03653785 60.29893337 25 68 C33.2710172 71.95703412 40.74804187 74.91715063 50 74 C53.78457727 72.50045052 56.84075404 70.55169866 60 68 C60.66 68.66 61.32 69.32 62 70 C61.625 72.125 61.625 72.125 61 74 C62.32 74 63.64 74 65 74 C65 74.66 65 75.32 65 76 C66.485 76.495 66.485 76.495 68 77 C68.33 78.65 68.66 80.3 69 82 C55.53943418 94.57650323 41.21673158 99.61005902 22.92822266 99.09765625 C15.3053798 98.71159179 6.76482654 96.7994864 0.5625 92.1875 C-3.55360606 90.28003622 -6.79504993 91.72447814 -11 93 C-12.14597656 93.34160156 -13.29195312 93.68320313 -14.47265625 94.03515625 C-17.65583078 95.00153894 -20.83019505 95.99075762 -24 97 C-23.14156893 92.07159574 -22.26597887 87.37383072 -20.3125 82.75 C-18.85935993 78.59817124 -18.67588113 77.13787147 -20 73 C-20.77331427 71.4283361 -21.56727467 69.86675936 -22.375 68.3125 C-29.02712811 55.33602981 -30.29833157 40.03133525 -26 26 C-22.66349154 16.02559576 -15.74614952 5.63797779 -7 -0.375 C-4.38450987 -1.19234067 -2.60483034 -0.72356398 0 0 Z " fill="#2AA33A" transform="translate(93,76)"/>
<path d="M0 0 C1.21236328 0.04060547 1.21236328 0.04060547 2.44921875 0.08203125 C3.06410156 0.11683594 3.67898437 0.15164062 4.3125 0.1875 C11.05431818 13.37659091 11.05431818 13.37659091 10.3125 19.1875 C8.97916667 20.52083333 7.64583333 21.85416667 6.3125 23.1875 C6.82137109 29.67289968 11.42184701 34.49574515 16.015625 38.7734375 C20.34862788 42.11430421 25.08115713 43.72841797 30.3125 45.1875 C30.84037109 44.41212891 30.84037109 44.41212891 31.37890625 43.62109375 C32.90618999 41.58338621 34.38045541 39.84905835 36.3125 38.1875 C42.75737078 37.68201994 48.63953264 41.40743824 54.3125 44.1875 C55.02419687 50.94862026 55.02419687 50.94862026 53.15234375 54.20703125 C49.73584205 58.35751286 46.86102751 60.72560489 41.421875 61.43359375 C28.75558157 62.18537016 17.02799649 55.40923466 7.74804688 47.3984375 C-1.61401258 39.00890738 -11.36626833 28.22787018 -12.1875 15.0625 C-11.26191911 7.88924812 -8.25128783 -0.35875164 0 0 Z " fill="#F1FAF2" transform="translate(99.6875,89.8125)"/>
<path d="M0 0 C0.33 0 0.66 0 1 0 C1.495 5.445 1.495 5.445 2 11 C1.34 11 0.68 11 0 11 C0 15.29 0 19.58 0 24 C0.66 24 1.32 24 2 24 C2.103125 23.360625 2.20625 22.72125 2.3125 22.0625 C2.539375 21.381875 2.76625 20.70125 3 20 C3.99 19.67 4.98 19.34 6 19 C4.63912664 22.78471745 2.90678334 25.8006692 0.5625 29.0625 C-0.33275391 30.31740234 -0.33275391 30.31740234 -1.24609375 31.59765625 C-1.82488281 32.39042969 -2.40367187 33.18320313 -3 34 C-3.52722656 34.76183594 -4.05445313 35.52367187 -4.59765625 36.30859375 C-5.06042969 36.86675781 -5.52320313 37.42492187 -6 38 C-6.66 38 -7.32 38 -8 38 C-8 38.66 -8 39.32 -8 40 C-12.46880293 44.06254812 -17.70020849 47.16082598 -23 50 C-23.56847656 50.32742187 -24.13695312 50.65484375 -24.72265625 50.9921875 C-39.24795775 58.94872208 -55.03906371 59.70240912 -70.99609375 56.6328125 C-73 56 -73 56 -75 54 C-74.33097656 54.0721875 -73.66195312 54.144375 -72.97265625 54.21875 C-63.96506318 55.08928248 -55.03743859 55.09637079 -46 55 C-45.87625 54.38125 -45.7525 53.7625 -45.625 53.125 C-45 51 -45 51 -43 49 C-50.59 48.67 -58.18 48.34 -66 48 C-66.33 47.34 -66.66 46.68 -67 46 C-66.4016333 46.02094727 -65.8032666 46.04189453 -65.18676758 46.06347656 C-45.32224746 46.66629884 -29.06627271 44.1280799 -14 30 C-6.57953704 21.41729585 -2.33053245 11.0170625 0 0 Z " fill="#ECFAEE" transform="translate(175,128)"/>
<path d="M0 0 C0.99 0.33 1.98 0.66 3 1 C3.6875 3.0625 3.6875 3.0625 4 5 C3.01 5.33 2.02 5.66 1 6 C1 6.66 1 7.32 1 8 C-0.375 9.625 -0.375 9.625 -2 11 C-2.66 11 -3.32 11 -4 11 C-5.11785113 13.11785113 -5.11785113 13.11785113 -6 16 C-7.5625 17.6875 -7.5625 17.6875 -9 19 C-9 18.34 -9 17.68 -9 17 C-9.66 17 -10.32 17 -11 17 C-10.938125 18.423125 -10.938125 18.423125 -10.875 19.875 C-10.85515492 24.70727658 -11.94225804 29.30627004 -13 34 C-13.66 34 -14.32 34 -15 34 C-15.20155442 43.87616661 -15.11665835 53.32192334 -13.4375 63.08203125 C-13.0334305 65.77703053 -12.91958628 68.28101103 -13 71 C-12.34 71.33 -11.68 71.66 -11 72 C-11.495 72.99 -11.495 72.99 -12 74 C-11.34 74 -10.68 74 -10 74 C-10.33 75.98 -10.66 77.96 -11 80 C-11.66 80 -12.32 80 -13 80 C-13 79.34 -13 78.68 -13 78 C-13.598125 77.979375 -14.19625 77.95875 -14.8125 77.9375 C-17 77 -17 77 -18.625 73.6875 C-19.07875 72.470625 -19.5325 71.25375 -20 70 C-20.34546875 69.37738281 -20.6909375 68.75476563 -21.046875 68.11328125 C-27.26061391 54.33609784 -22.51974606 33.61950147 -18 20 C-17.34 20 -16.68 20 -16 20 C-15.814375 18.7934375 -15.814375 18.7934375 -15.625 17.5625 C-15.41875 16.716875 -15.2125 15.87125 -15 15 C-14.34 14.67 -13.68 14.34 -13 14 C-12.2884375 12.7315625 -12.2884375 12.7315625 -11.5625 11.4375 C-11.046875 10.633125 -10.53125 9.82875 -10 9 C-9.01 9 -8.02 9 -7 9 C-6.773125 8.195625 -6.54625 7.39125 -6.3125 6.5625 C-5.879375 5.716875 -5.44625 4.87125 -5 4 C-2.375 3.1875 -2.375 3.1875 0 3 C0 2.01 0 1.02 0 0 Z " fill="#FAFCFA" transform="translate(79,71)"/>
<path d="M0 0 C0.33 0 0.66 0 1 0 C1.33 29.7 1.66 59.4 2 90 C2.66 90 3.32 90 4 90 C4.495 89.01 4.495 89.01 5 88 C5.66 88.33 6.32 88.66 7 89 C6.125 93.75 6.125 93.75 5 96 C5.99 96 6.98 96 8 96 C8.18175781 95.22914063 8.36351562 94.45828125 8.55078125 93.6640625 C8.80214844 92.66117187 9.05351562 91.65828125 9.3125 90.625 C9.55613281 89.62726563 9.79976562 88.62953125 10.05078125 87.6015625 C11 85 11 85 14 83 C14.72382467 80.94074861 14.72382467 80.94074861 15 79 C15.66 79 16.32 79 17 79 C17.33 77.68 17.66 76.36 18 75 C18.99 75 19.98 75 21 75 C20.67 76.65 20.34 78.3 20 80 C19.34 80 18.68 80 18 80 C17.896875 80.680625 17.79375 81.36125 17.6875 82.0625 C17.01375927 84.94121038 15.95918106 87.42715386 14.75390625 90.1171875 C13.74147235 92.64564935 13.16593549 95.21324257 12.55883789 97.86303711 C12 100 12 100 10.59375 103.68359375 C8.91525121 108.09423636 7.65088387 112.55093892 6.5 117.125 C6.17962769 118.3948877 6.17962769 118.3948877 5.8527832 119.69042969 C3.44465119 129.67256935 2.1736239 139.8100799 1 150 C0.67 150 0.34 150 0 150 C0 100.5 0 51 0 0 Z " fill="#6DC578" transform="translate(11,40)"/>
<path d="M0 0 C40.26 0 80.52 0 122 0 C122 0.66 122 1.32 122 2 C121.05125 2.0825 120.1025 2.165 119.125 2.25 C115.18621931 2.82602722 111.8393205 4.16336723 108.1875 5.7109375 C105.67783258 6.72587653 103.18032263 7.6521 100.625 8.5390625 C90.34570171 12.12824385 81.2749579 16.2914282 72 22 C68.0496184 24.30080164 64.06158267 26.53512344 60.0625 28.75 C59.29035156 29.17796875 58.51820312 29.6059375 57.72265625 30.046875 C57.15417969 30.36140625 56.58570313 30.6759375 56 31 C56.375 28.5625 56.375 28.5625 57 26 C57.66 25.67 58.32 25.34 59 25 C59.66 25.33 60.32 25.66 61 26 C61.2475 25.360625 61.495 24.72125 61.75 24.0625 C63 22 63 22 65.125 21.25 C65.74375 21.1675 66.3625 21.085 67 21 C67 20.34 67 19.68 67 19 C68.65 19.33 70.3 19.66 72 20 C72 19.34 72 18.68 72 18 C72.495 17.54625 72.99 17.0925 73.5 16.625 C75.45218674 14.87871033 75.45218674 14.87871033 75 11 C75.99580078 10.96132813 75.99580078 10.96132813 77.01171875 10.921875 C82.54441741 10.56648998 85.96566075 10.16881722 90 6 C91.65 6.66 93.3 7.32 95 8 C95.66 6.02 96.32 4.04 97 2 C96.01 2.165 95.02 2.33 94 2.5 C87.05119475 3.39377749 79.99117499 3.07635992 73 3 C73 2.34 73 1.68 73 1 C48.91 1 24.82 1 0 1 C0 0.67 0 0.34 0 0 Z " fill="#70CA7B" transform="translate(39,11)"/>
<path d="M0 0 C0.33 0.33 0.66 0.66 1 1 C2.77869726 1.15764405 4.56318476 1.25100677 6.34765625 1.31640625 C7.42724609 1.35830078 8.50683594 1.40019531 9.61914062 1.44335938 C11.32360352 1.50233398 11.32360352 1.50233398 13.0625 1.5625 C14.20267578 1.60568359 15.34285156 1.64886719 16.51757812 1.69335938 C19.34492195 1.79982839 22.17235738 1.90184207 25 2 C25 2.99 25 3.98 25 5 C24.01 5 23.02 5 22 5 C21.896875 5.639375 21.79375 6.27875 21.6875 6.9375 C21.460625 7.618125 21.23375 8.29875 21 9 C11.66138361 12.11287213 -0.56459213 10.08531525 -10 8 C-10.99 7.34 -11.98 6.68 -13 6 C-13 5.01 -13 4.02 -13 3 C-13.99 2.67 -14.98 2.34 -16 2 C-11.16183973 -2.17082782 -5.8845919 -1.06633544 0 0 Z " fill="#F9FDF9" transform="translate(108,174)"/>
<path d="M0 0 C9.57 0 19.14 0 29 0 C29 9.57 29 19.14 29 29 C27 26 27 26 25.625 22.6875 C21.84571526 13.71169874 15.57640599 7.43384008 7 3 C4.66594111 2.14564637 2.42971534 1.55680977 0 1 C0 0.67 0 0.34 0 0 Z " fill="#ECEFEC" transform="translate(207,0)"/>
<path d="M0 0 C9.57 0 19.14 0 29 0 C26 2 26 2 23.15234375 2.921875 C15.4630458 5.55167207 9.5543133 10.20045355 5.83374023 17.41894531 C4.49296379 20.25170535 3.25206586 23.12718415 2 26 C1.34 26.99 0.68 27.98 0 29 C0 19.43 0 9.86 0 0 Z " fill="#EDF1ED" transform="translate(0,0)"/>
<path d="M0 0 C0.99 0.99 1.98 1.98 3 3 C2.30777344 3.48726562 1.61554688 3.97453125 0.90234375 4.4765625 C-5.39284102 9.03829059 -11.25061558 13.88274381 -16.9375 19.1875 C-17.56342041 19.76902832 -18.18934082 20.35055664 -18.83422852 20.94970703 C-21.69119317 23.64976305 -24.3557814 26.3569727 -26.81640625 29.42578125 C-27.53699219 30.27527344 -28.25757813 31.12476562 -29 32 C-29.66 32 -30.32 32 -31 32 C-31 32.66 -31 33.32 -31 34 C-32.15239083 35.15239083 -33.3091793 36.30073555 -34.48828125 37.42578125 C-37.30674144 40.36076693 -39.62154322 43.70612343 -42 47 C-43.125 43.25 -43.125 43.25 -42 41 C-42.39938767 38.90178785 -42.39938767 38.90178785 -43 37 C-40.69 36.34 -38.38 35.68 -36 35 C-35.9175 34.4225 -35.835 33.845 -35.75 33.25 C-34.79856211 30.39568633 -33.10391807 29.10391807 -31 27 C-31 26.01 -31 25.02 -31 24 C-30.01 23.67 -29.02 23.34 -28 23 C-25.99713619 21.3823023 -25.07600449 20.61286158 -24.75390625 18.015625 C-24.50511719 17.35046875 -24.25632812 16.6853125 -24 16 C-21.24461483 14.76604741 -18.47103177 14.03686028 -15.56640625 13.22265625 C-12.80197324 12.21140934 -12.80197324 12.21140934 -11.62890625 9.515625 C-10.96580535 6.86322138 -11.06173525 5.53331481 -12 3 C-10.948125 3.020625 -9.89625 3.04125 -8.8125 3.0625 C-5.67295096 3.01103198 -3.03116604 2.73482813 0 2 C0 1.34 0 0.68 0 0 Z " fill="#82D08E" transform="translate(92,40)"/>
<path d="M0 0 C2.23017924 2.23017924 2.67818505 3.67469476 3.6875 6.625 C7.41066841 16.23855426 14.77118168 22.70752636 24 27 C24 27.33 24 27.66 24 28 C16.08 28 8.16 28 0 28 C0 18.76 0 9.52 0 0 Z " fill="#EEEDEE" transform="translate(0,213)"/>
<path d="M0 0 C0.33 0 0.66 0 1 0 C1 9.24 1 18.48 1 28 C-6.92 28 -14.84 28 -23 28 C-14.63636364 21.72727273 -14.63636364 21.72727273 -10.75 20 C-8.45712457 18.68978547 -8.12320906 17.37215048 -7 15 C-6.17124771 13.53905846 -5.33773037 12.08081193 -4.5 10.625 C-2.56148608 7.16541025 -1.08148154 3.83434363 0 0 Z " fill="#F4EBEF" transform="translate(235,213)"/>
<path d="M0 0 C-0.81804022 5.93603546 -3.85624215 9.79914313 -8 14 C-9.984375 15.10546875 -9.984375 15.10546875 -11.875 15.8125 C-15.08674387 16.61759989 -15.08674387 16.61759989 -15.875 18.875 C-15.91625 19.57625 -15.9575 20.2775 -16 21 C-17 26 -17 26 -17.52734375 27.74145508 C-18.15553002 30.74318608 -18.09268294 33.57042543 -18.0625 36.63671875 C-18.05476563 37.93673828 -18.04703125 39.23675781 -18.0390625 40.57617188 C-18.02050326 42.62525877 -18.00013275 44.67432179 -17.97949219 46.72338867 C-17.91035003 54.23895954 -17.9487713 61.55105916 -19 69 C-19.33 69 -19.66 69 -20 69 C-20.07634871 62.1682047 -20.12872499 55.33652032 -20.16479492 48.50439453 C-20.17983911 46.1824126 -20.20027945 43.86045888 -20.22631836 41.53857422 C-20.26289345 38.19231177 -20.27977054 34.84642656 -20.29296875 31.5 C-20.30845261 30.4694751 -20.32393646 29.4389502 -20.33988953 28.37719727 C-20.34218254 18.45587359 -17.56437284 11.47609129 -11 4 C-4.35 -2.175 -4.35 -2.175 0 0 Z " fill="#CBEED2" transform="translate(32,16)"/>
<path d="M0 0 C40.26 0 80.52 0 122 0 C122 0.66 122 1.32 122 2 C121.05125 2.0825 120.1025 2.165 119.125 2.25 C114.90931462 2.83147385 111.27883512 4.43479619 107.37890625 6.078125 C104.6145611 7.14936548 101.94510684 7.68998875 99 8 C99 7.34 99 6.68 99 6 C101 4.66666667 103 3.33333333 105 2 C70.35 1.67 35.7 1.34 0 1 C0 0.67 0 0.34 0 0 Z " fill="#59B565" transform="translate(39,11)"/>
<path d="M0 0 C0.33 0 0.66 0 1 0 C1.33 43.89 1.66 87.78 2 133 C2.33 133 2.66 133 3 133 C2.85786703 134.89611434 2.71113093 136.79188394 2.5625 138.6875 C2.48128906 139.74324219 2.40007813 140.79898438 2.31640625 141.88671875 C2.03548319 144.65086297 1.59843148 147.28945741 1 150 C0.67 150 0.34 150 0 150 C0 100.5 0 51 0 0 Z " fill="#57B463" transform="translate(11,40)"/>
<path d="M0 0 C0.94314127 3.41610225 1.08065117 6.45134864 1 10 C0.01 10.33 -0.98 10.66 -2 11 C-1.01 11.99 -0.02 12.98 1 14 C1 13.34 1 12.68 1 12 C6.04821629 10.14898736 10.73345938 8.81411818 16.0625 8.0625 C20.74004443 7.36710902 24.15226068 6.11602945 28.25 3.828125 C30.91136024 2.56873132 33.12684225 2.58954889 36 3 C38 5 38 5 38 8 C39.32 8.33 40.64 8.66 42 9 C41.01 9.33 40.02 9.66 39 10 C38.071875 9.525625 37.14375 9.05125 36.1875 8.5625 C31.79245541 6.40806638 28.67830438 6.46188401 24.02734375 7.953125 C23.00769531 8.38109375 21.98804687 8.8090625 20.9375 9.25 C12.50005195 12.64814842 4.02190141 15.65545433 -5 17 C-4.31063929 13.08878502 -3.21749819 9.44491404 -1.9375 5.6875 C-1.57527344 4.61886719 -1.21304688 3.55023438 -0.83984375 2.44921875 C-0.56269531 1.64097656 -0.28554688 0.83273438 0 0 Z " fill="#D9F6DC" transform="translate(57,172)"/>
<path d="M0 0 C0.81210937 0.29003906 1.62421875 0.58007812 2.4609375 0.87890625 C3.27820313 1.16636719 4.09546875 1.45382813 4.9375 1.75 C5.56398438 1.97816406 6.19046875 2.20632813 6.8359375 2.44140625 C3.8359375 4.44140625 3.8359375 4.44140625 0.2109375 5.62890625 C-9.77451751 9.35509626 -14.80156551 15.98077553 -19.1640625 25.44140625 C-20.2890625 21.69140625 -20.2890625 21.69140625 -19.1640625 19.44140625 C-19.1240705 17.44180613 -19.12059451 15.44093383 -19.1640625 13.44140625 C-20.1540625 13.77140625 -21.1440625 14.10140625 -22.1640625 14.44140625 C-22.3515625 12.06640625 -22.3515625 12.06640625 -22.1640625 9.44140625 C-19.1640625 7.44140625 -19.1640625 7.44140625 -15.1640625 7.44140625 C-14.8340625 9.09140625 -14.5040625 10.74140625 -14.1640625 12.44140625 C-13.7103125 11.94640625 -13.2565625 11.45140625 -12.7890625 10.94140625 C-11.1640625 9.44140625 -11.1640625 9.44140625 -9.1640625 9.44140625 C-9.1640625 8.78140625 -9.1640625 8.12140625 -9.1640625 7.44140625 C-8.5040625 7.44140625 -7.8440625 7.44140625 -7.1640625 7.44140625 C-7.0403125 6.80203125 -6.9165625 6.16265625 -6.7890625 5.50390625 C-6.5828125 4.82328125 -6.3765625 4.14265625 -6.1640625 3.44140625 C-5.5040625 3.11140625 -4.8440625 2.78140625 -4.1640625 2.44140625 C-4.1640625 1.78140625 -4.1640625 1.12140625 -4.1640625 0.44140625 C-2.1640625 -0.55859375 -2.1640625 -0.55859375 0 0 Z " fill="#2C993C" transform="translate(32.1640625,8.55859375)"/>
<path d="M0 0 C1.24769691 3.5517772 0.72044302 5.75984764 -0.375 9.3125 C-2.78404533 17.65065689 -3.23240139 25.3588939 -3 34 C-2.97164062 35.05445313 -2.94328125 36.10890625 -2.9140625 37.1953125 C-2.57214775 43.69169267 -1.51104185 47.56354811 2 53 C2 54.32 2 55.64 2 57 C2.66 57 3.32 57 4 57 C4 59.97 4 62.94 4 66 C3.67 66 3.34 66 3 66 C2.7525 65.030625 2.505 64.06125 2.25 63.0625 C1.45058324 60.20501032 0.39167447 57.7106637 -0.9375 55.0625 C-8.27068433 38.94048051 -6.9972549 21.48729354 -2 5 C-1.36005128 3.32289301 -0.7048071 1.65089951 0 0 Z " fill="#D6F8DA" transform="translate(60,91)"/>
<path d="M0 0 C2.23017924 2.23017924 2.67818505 3.67469476 3.6875 6.625 C5.51387976 11.38737139 7.90829775 14.64208433 11.4140625 18.30859375 C13 20 13 20 15 23 C10.73303602 23 9.33303391 22.49977543 6 20 C6 19.01 6 18.02 6 17 C4.02 16.67 2.04 16.34 0 16 C0 10.72 0 5.44 0 0 Z " fill="#E1F5E5" transform="translate(0,213)"/>
<path d="M0 0 C0.66 0.33 1.32 0.66 2 1 C2 2.65 2 4.3 2 6 C2.556875 5.505 3.11375 5.01 3.6875 4.5 C6.38162983 2.75245633 7.85375007 2.73781251 11 3 C11 4.65 11 6.3 11 8 C3.08 8 -4.84 8 -13 8 C-10.1349938 5.85124535 -7.9484153 4.36941367 -4.8125 2.875 C-2.21335811 1.71161064 -2.21335811 1.71161064 0 0 Z " fill="#EFFBF1" transform="translate(225,233)"/>
<path d="M0 0 C0.66 0 1.32 0 2 0 C3.25559687 5.39906652 3.25559687 5.39906652 2.03344727 8.27246094 C0.75255935 11.65306093 0.78981296 14.34229016 0.83984375 17.953125 C0.84504532 18.61278259 0.85024689 19.27244019 0.85560608 19.9520874 C0.87331759 22.05162249 0.90441854 24.15065535 0.9375 26.25 C1.16007624 42.90644481 1.16007624 42.90644481 0 51 C-0.33 51 -0.66 51 -1 51 C-1.02529373 44.05827612 -1.04284304 37.11656406 -1.05493164 30.17480469 C-1.05996959 27.81184444 -1.06680008 25.44888732 -1.07543945 23.0859375 C-1.08752854 19.69530465 -1.09323359 16.30471291 -1.09765625 12.9140625 C-1.10281754 11.85256989 -1.10797882 10.79107727 -1.11329651 9.69741821 C-1.11337204 8.71655243 -1.11344757 7.73568665 -1.11352539 6.72509766 C-1.115746 5.85905914 -1.11796661 4.99302063 -1.12025452 4.10073853 C-1 2 -1 2 0 0 Z " fill="#D4F9DD" transform="translate(13,34)"/>
<path d="M0 0 C0.99 0 1.98 0 3 0 C2.67 1.65 2.34 3.3 2 5 C1.34 5 0.68 5 0 5 C-0.10183594 5.68449219 -0.20367187 6.36898437 -0.30859375 7.07421875 C-1.13769992 10.58269626 -2.5172232 13.55755526 -4.0625 16.8125 C-4.61035156 17.97394531 -5.15820312 19.13539063 -5.72265625 20.33203125 C-6.14417969 21.21246094 -6.56570312 22.09289062 -7 23 C-9.28654976 19.57017537 -9.15334609 17.91927206 -8.5546875 13.92578125 C-7.76361638 11.17931602 -6.11453283 9.85021623 -4 8 C-3.2127322 5.8618034 -3.2127322 5.8618034 -3 4 C-2.34 4 -1.68 4 -1 4 C-0.67 2.68 -0.34 1.36 0 0 Z " fill="#70C87C" transform="translate(29,115)"/>
<path d="M0 0 C0.33 0 0.66 0 1 0 C1.33 3.63 1.66 7.26 2 11 C1.34 11 0.68 11 0 11 C0 14.63 0 18.26 0 22 C-1.98 22 -3.96 22 -6 22 C-6 22.99 -6 23.98 -6 25 C-7.65 25.66 -9.3 26.32 -11 27 C-10.45730469 25.97261719 -9.91460937 24.94523437 -9.35546875 23.88671875 C-5.30349889 16.08460174 -1.76707201 8.68810403 0 0 Z " fill="#D9F3DD" transform="translate(175,128)"/>
<path d="M0 0 C0.66 0 1.32 0 2 0 C0.52814886 9.14097026 -1.68539536 18.04495196 -4 27 C-4.33 27 -4.66 27 -5 27 C-5.09377123 19.58165418 -5.17402193 12.33763707 -4 5 C-3.34 5 -2.68 5 -2 5 C-1.34 3.35 -0.68 1.7 0 0 Z " fill="#5BC069" transform="translate(17,149)"/>
<path d="M0 0 C1.21578484 0.00999275 1.21578484 0.00999275 2.45613098 0.02018738 C3.37685898 0.02041397 4.29758698 0.02064056 5.24621582 0.02087402 C6.23692581 0.03635788 7.2276358 0.05184174 8.24836731 0.0677948 C9.26514053 0.07203964 10.28191376 0.07628448 11.32949829 0.08065796 C14.58006668 0.09746358 17.83001726 0.13511973 21.08039856 0.17326355 C23.28286357 0.18830793 25.48533829 0.20199676 27.68782043 0.21427917 C33.08972428 0.24737319 38.49126728 0.29759132 43.89289856 0.36076355 C43.89289856 0.69076355 43.89289856 1.02076355 43.89289856 1.36076355 C42.90894104 1.3858197 41.92498352 1.41087585 40.91120911 1.43669128 C37.26019799 1.53087175 33.6093724 1.63106645 29.95857239 1.733078 C28.37853841 1.7763866 26.79845887 1.81806461 25.21833801 1.858078 C22.94695808 1.91587938 20.67580667 1.97954515 18.40461731 2.0443573 C17.69826645 2.06106979 16.99191559 2.07778229 16.26416016 2.09500122 C13.22641616 2.18673825 10.79666798 2.39284041 7.89289856 3.36076355 C5.70539856 2.92326355 5.70539856 2.92326355 3.89289856 2.36076355 C3.89289856 3.02076355 3.89289856 3.68076355 3.89289856 4.36076355 C0.92289856 4.03076355 -2.04710144 3.70076355 -5.10710144 3.36076355 C-2.10710144 0.36076355 -2.10710144 0.36076355 0 0 Z " fill="#D1F8D7" transform="translate(38.10710144042969,11.639236450195313)"/>
<path d="M0 0 C0.99 0 1.98 0 3 0 C3.04254356 1.99954746 3.04080783 4.00041636 3 6 C2.67 6.33 2.34 6.66 2 7 C2.66 7.33 3.32 7.66 4 8 C4 8.99 4 9.98 4 11 C4.66 11 5.32 11 6 11 C6 11.66 6 12.32 6 13 C1.05 14.485 1.05 14.485 -4 16 C-2.96168893 10.51178434 -1.93581306 5.25434973 0 0 Z " fill="#369A45" transform="translate(73,157)"/>
<path d="M0 0 C2.31 0.66 4.62 1.32 7 2 C7 3.32 7 4.64 7 6 C7.99 6.33 8.98 6.66 10 7 C10 7.66 10 8.32 10 9 C11.32 9 12.64 9 14 9 C16 11 16 11 17 13 C17.66 13 18.32 13 19 13 C19 13.66 19 14.32 19 15 C11.48848269 13.25819888 5.25407743 9.71476898 0 4 C0 2.68 0 1.36 0 0 Z " fill="#399A47" transform="translate(111,121)"/>
<path d="M0 0 C3.40953942 1.16535004 6.70621894 2.54188348 10 4 C10 4.99 10 5.98 10 7 C2.32926829 10.1097561 2.32926829 10.1097561 -1 9 C-1 8.34 -1 7.68 -1 7 C-0.34 7 0.32 7 1 7 C0.67 5.35 0.34 3.7 0 2 C-2.64 2.33 -5.28 2.66 -8 3 C-8 2.34 -8 1.68 -8 1 C-5.07784517 -0.46107741 -3.288016 -0.29357286 0 0 Z " fill="#2FA541" transform="translate(90,178)"/>
<path d="M0 0 C6.27 0 12.54 0 19 0 C19 2.64 19 5.28 19 8 C18.34 7.34 17.68 6.68 17 6 C15.07192534 5.42883482 15.07192534 5.42883482 12.875 5.0625 C8.35019108 4.14580451 4.28333754 2.71333501 0 1 C0 0.67 0 0.34 0 0 Z " fill="#E9F9EC" transform="translate(207,0)"/>
<path d="M0 0 C0.33 0 0.66 0 1 0 C1.33 12.21 1.66 24.42 2 37 C2.33 37 2.66 37 3 37 C2.85786703 38.89611434 2.71113093 40.79188394 2.5625 42.6875 C2.48128906 43.74324219 2.40007813 44.79898438 2.31640625 45.88671875 C2.03548319 48.65086297 1.59843148 51.28945741 1 54 C0.67 54 0.34 54 0 54 C0 36.18 0 18.36 0 0 Z " fill="#45B452" transform="translate(11,136)"/>
<path d="M0 0 C3.58326501 -0.05814085 7.16640838 -0.09364357 10.75 -0.125 C11.76578125 -0.14175781 12.7815625 -0.15851562 13.828125 -0.17578125 C14.8078125 -0.18222656 15.7875 -0.18867187 16.796875 -0.1953125 C17.69760742 -0.20578613 18.59833984 -0.21625977 19.52636719 -0.22705078 C22.13926856 0.01278324 23.75664666 0.67687936 26 2 C26 2.66 26 3.32 26 4 C27.98 3.67 29.96 3.34 32 3 C32 3.66 32 4.32 32 5 C32.66 5 33.32 5 34 5 C35.37310707 6.29233607 36.71034824 7.62437146 38 9 C37.67 9.66 37.34 10.32 37 11 C36.50113281 10.68546875 36.00226563 10.3709375 35.48828125 10.046875 C24.18268521 3.30817143 12.93363376 1.35777687 0 1 C0 0.67 0 0.34 0 0 Z " fill="#BBE6C0" transform="translate(115,64)"/>
<path d="M0 0 C-0.71285156 0.41507812 -1.42570312 0.83015625 -2.16015625 1.2578125 C-11.00105481 6.9454969 -13.92355643 12.64676067 -18 22 C-18.66 22.99 -19.32 23.98 -20 25 C-20.1953125 18.9453125 -20.1953125 18.9453125 -20 17 C-19.34 16.34 -18.68 15.68 -18 15 C-17.3574765 12.93125966 -17.3574765 12.93125966 -17 11 C-16.34 11 -15.68 11 -15 11 C-14.5978125 9.7934375 -14.5978125 9.7934375 -14.1875 8.5625 C-13.795625 7.716875 -13.40375 6.87125 -13 6 C-12.01 5.67 -11.02 5.34 -10 5 C-10 4.34 -10 3.68 -10 3 C-9.34 3 -8.68 3 -8 3 C-8 2.34 -8 1.68 -8 1 C-3.375 -1.125 -3.375 -1.125 0 0 Z " fill="#D8F8DA" transform="translate(20,4)"/>
<path d="M0 0 C0.66 0.33 1.32 0.66 2 1 C2 1.99 2 2.98 2 4 C-0.64738916 5.4606285 -1.89448334 6 -5 6 C-5 6.66 -5 7.32 -5 8 C-5.639375 8.309375 -6.27875 8.61875 -6.9375 8.9375 C-8.93610821 9.8345163 -8.93610821 9.8345163 -10 11 C-13.4375 11.1875 -13.4375 11.1875 -17 11 C-17.66 10.34 -18.32 9.68 -19 9 C-18.29875 8.76925781 -17.5975 8.53851563 -16.875 8.30078125 C-11.26173157 6.37122023 -6.41029492 4.29503237 -1.55859375 0.85546875 C-0.78708984 0.43201172 -0.78708984 0.43201172 0 0 Z " fill="#3B9D45" transform="translate(157,174)"/>
<path d="M0 0 C0.99 0.33 1.98 0.66 3 1 C1.71937515 2.7074998 0.38232443 4.37373596 -1 6 C-1.66 6 -2.32 6 -3 6 C-3 6.66 -3 7.32 -3 8 C-9.13386437 13.57624034 -16.60782714 17.39406202 -24 21 C-24 20.01 -24 19.02 -24 18 C-21.09399739 16.74335022 -19.20395416 16 -16 16 C-15.7525 15.360625 -15.505 14.72125 -15.25 14.0625 C-14 12 -14 12 -11.9375 11.4375 C-11.298125 11.293125 -10.65875 11.14875 -10 11 C-9.67 10.01 -9.34 9.02 -9 8 C-7.625 6.3125 -7.625 6.3125 -6 5 C-5.01 5 -4.02 5 -3 5 C-2.67 4.01 -2.34 3.02 -2 2 C-1.34 2 -0.68 2 0 2 C0 1.34 0 0.68 0 0 Z " fill="#D7F7DA" transform="translate(170,160)"/>
<path d="M0 0 C0.66 0.33 1.32 0.66 2 1 C1.19391187 6.90433385 -1.81350557 10.87306952 -6 15 C-9.4375 16.0625 -9.4375 16.0625 -12 16 C-12 15.34 -12 14.68 -12 14 C-11.071875 13.46375 -10.14375 12.9275 -9.1875 12.375 C-5.54249775 9.65911597 -4.90875065 8.02474725 -3.73828125 3.8046875 C-3 2 -3 2 0 0 Z " fill="#D5EED8" transform="translate(30,15)"/>
<path d="M0 0 C0.99 0.99 1.98 1.98 3 3 C1.68 3 0.36 3 -1 3 C-0.67 3.99 -0.34 4.98 0 6 C-0.59793673 8.35188447 -1.25881795 10.68925595 -2 13 C-2.33 13 -2.66 13 -3 13 C-3 11.02 -3 9.04 -3 7 C-4.65 7.66 -6.3 8.32 -8 9 C-6.625 7 -6.625 7 -5 5 C-4.34 5 -3.68 5 -3 5 C-2.690625 4.360625 -2.38125 3.72125 -2.0625 3.0625 C-1 1 -1 1 0 0 Z M6 2 C6.33 2 6.66 2 7 2 C7 4.31 7 6.62 7 9 C4.36 9.66 1.72 10.32 -1 11 C-1 9 -1 9 1.375 6.5 C2.24125 5.675 3.1075 4.85 4 4 C4.66 3.34 5.32 2.68 6 2 Z " fill="#E9EFEA" transform="translate(229,227)"/>
<path d="M0 0 C4.7968107 4.7968107 4.7968107 4.7968107 5.16357422 8.80126953 C4.78523037 13.88688843 2.77296259 18.67364963 1.0625 23.4375 C0.48338867 25.1071582 0.48338867 25.1071582 -0.10742188 26.81054688 C-1.05816573 29.54540266 -2.02261334 32.27457654 -3 35 C-3.33 35 -3.66 35 -4 35 C-4.36578128 30.2448433 -3.37691207 26.72393938 -1.80078125 22.32421875 C-0.63184738 18.93145947 0.17491397 15.49074858 1 12 C1.66 12 2.32 12 3 12 C2.01 8.04 1.02 4.08 0 0 Z " fill="#308D3F" transform="translate(58,146)"/>
<path d="M0 0 C0.33 0.66 0.66 1.32 1 2 C0.19555664 3.78759766 0.19555664 3.78759766 -1.08984375 5.9140625 C-1.54423828 6.67460938 -1.99863281 7.43515625 -2.46679688 8.21875 C-2.95212891 9.0128125 -3.43746094 9.806875 -3.9375 10.625 C-4.41896484 11.42679688 -4.90042969 12.22859375 -5.39648438 13.0546875 C-6.59056765 15.04088542 -7.79195201 17.02227542 -9 19 C-10.24752897 15.25741309 -9.5279335 14.53837233 -8 11 C-7.31320058 8.67251306 -6.64238957 6.34013344 -6 4 C-5.34 4 -4.68 4 -4 4 C-4 3.01 -4 2.02 -4 1 C-2.68 0.67 -1.36 0.34 0 0 Z " fill="#7CCE86" transform="translate(42,95)"/>
<path d="M0 0 C0.66 0 1.32 0 2 0 C2.33 1.65 2.66 3.3 3 5 C1.21326795 6.5058745 -0.57953508 8.0045485 -2.375 9.5 C-3.37273437 10.3353125 -4.37046875 11.170625 -5.3984375 12.03125 C-8 14 -8 14 -10 14 C-10 13.34 -10 12.68 -10 12 C-9.34 12 -8.68 12 -8 12 C-8.33 10.35 -8.66 8.7 -9 7 C-3.25 4 -3.25 4 -1 4 C-0.67 2.68 -0.34 1.36 0 0 Z " fill="#319C40" transform="translate(159,153)"/>
<path d="M0 0 C1.32 0.33 2.64 0.66 4 1 C4 1.99 4 2.98 4 4 C4.66 4 5.32 4 6 4 C4.63016497 7.16115776 4.0109362 7.9927092 1 10 C0.67 8.68 0.34 7.36 0 6 C-0.66 7.32 -1.32 8.64 -2 10 C-2.66 10 -3.32 10 -4 10 C-4 9.34 -4 8.68 -4 8 C-4.66 7.67 -5.32 7.34 -6 7 C-4.71937515 5.2925002 -3.38232443 3.62626404 -2 2 C-1.34 2 -0.68 2 0 2 C0 1.34 0 0.68 0 0 Z " fill="#2AA439" transform="translate(61,72)"/>
<path d="M0 0 C0.66 1.32 1.32 2.64 2 4 C-1 6 -1 6 -3 6 C-3.2475 6.78375 -3.495 7.5675 -3.75 8.375 C-5.20924503 11.43941457 -6.05014956 11.61725761 -9 13 C-10.26804566 15.0335948 -10.26804566 15.0335948 -11 17 C-11.66 17 -12.32 17 -13 17 C-13.33 18.65 -13.66 20.3 -14 22 C-14.66 22 -15.32 22 -16 22 C-15.34 20.02 -14.68 18.04 -14 16 C-13.34 16 -12.68 16 -12 16 C-11.77570313 15.12085937 -11.55140625 14.24171875 -11.3203125 13.3359375 C-9.78006792 9.44431362 -7.89696879 7.49199603 -4.875 4.625 C-3.96492188 3.75101562 -3.05484375 2.87703125 -2.1171875 1.9765625 C-1.06917969 0.99816406 -1.06917969 0.99816406 0 0 Z " fill="#C4ECC6" transform="translate(77,69)"/>
<path d="M0 0 C0.33 0.99 0.66 1.98 1 3 C-4.49349789 6.81492909 -9.95092327 10.14043646 -16 13 C-15.625 10.5625 -15.625 10.5625 -15 8 C-14.34 7.67 -13.68 7.34 -13 7 C-12.34 7.33 -11.68 7.66 -11 8 C-10.7525 7.360625 -10.505 6.72125 -10.25 6.0625 C-9 4 -9 4 -6.875 3.25 C-6.25625 3.1675 -5.6375 3.085 -5 3 C-5 2.34 -5 1.68 -5 1 C-3.35 1.33 -1.7 1.66 0 2 C0 1.34 0 0.68 0 0 Z " fill="#78D082" transform="translate(111,29)"/>
<path d="M0 0 C8.03051418 1.42476864 16.35301187 3.75188087 22 10 C21.01 10.33 20.02 10.66 19 11 C19 10.34 19 9.68 19 9 C16.13275314 9.57344937 15.1385485 9.8614515 13 12 C9.125 6.375 9.125 6.375 8 3 C7.05125 2.87625 6.1025 2.7525 5.125 2.625 C2 2 2 2 0 0 Z " fill="#DBF7DF" transform="translate(138,57)"/>
<path d="M0 0 C7.23572035 2.48081841 10.85932289 6.84813686 15 13 C14.01 13.66 13.02 14.32 12 15 C11.34 14.34 10.68 13.68 10 13 C10 12.01 10 11.02 10 10 C8.35 10.33 6.7 10.66 5 11 C5 9.33333333 5 7.66666667 5 6 C4.175 5.34 3.35 4.68 2.5 4 C1.675 3.34 0.85 2.68 0 2 C0 1.34 0 0.68 0 0 Z " fill="#2B9A3F" transform="translate(216,4)"/>
<path d="M0 0 C1.1875 1.6875 1.1875 1.6875 2 4 C0.625 6.75 0.625 6.75 -1 9 C-0.34 9 0.32 9 1 9 C1.33 8.34 1.66 7.68 2 7 C2.33 12.94 2.66 18.88 3 25 C0.97649676 21.96474514 0.67875982 20.80573798 0.375 17.3125 C0.30023438 16.50425781 0.22546875 15.69601563 0.1484375 14.86328125 C0.09945312 14.24839844 0.05046875 13.63351563 0 13 C-0.99 13 -1.98 13 -3 13 C-4.61949011 10.42786866 -5.04408751 9.32330841 -4.625 6.25 C-4.41875 5.5075 -4.2125 4.765 -4 4 C-3.01 4 -2.02 4 -1 4 C-0.67 2.68 -0.34 1.36 0 0 Z " fill="#219932" transform="translate(86,92)"/>
<path d="M0 0 C2.735232 4.2738 2.89338307 8.13338906 3 13.125 C0.87838666 11.00338666 0.07013751 9.3516841 -1.125 6.625 C-1.47820312 5.8309375 -1.83140625 5.036875 -2.1953125 4.21875 C-3 2.125 -3 2.125 -3 0.125 C-3.77085938 0.22039062 -4.54171875 0.31578125 -5.3359375 0.4140625 C-6.33882812 0.52492188 -7.34171875 0.63578125 -8.375 0.75 C-9.37273437 0.86601563 -10.37046875 0.98203125 -11.3984375 1.1015625 C-12.25695312 1.10929687 -13.11546875 1.11703125 -14 1.125 C-14.66 0.465 -15.32 -0.195 -16 -0.875 C-10.33812926 -2.44132252 -5.12742608 -3.2046413 0 0 Z " fill="#359441" transform="translate(107,89.875)"/>
<path d="M0 0 C0.94314127 3.41610225 1.08065117 6.45134864 1 10 C0.01 10.33 -0.98 10.66 -2 11 C-1.01 11.99 -0.02 12.98 1 14 C1.33 13.34 1.66 12.68 2 12 C3.32 12.66 4.64 13.32 6 14 C-0.5 17 -0.5 17 -5 17 C-4.31063929 13.08878502 -3.21749819 9.44491404 -1.9375 5.6875 C-1.57527344 4.61886719 -1.21304688 3.55023438 -0.83984375 2.44921875 C-0.56269531 1.64097656 -0.28554688 0.83273438 0 0 Z " fill="#C6F2CE" transform="translate(57,172)"/>
<path d="M0 0 C1.23556641 0.01740234 1.23556641 0.01740234 2.49609375 0.03515625 C3.32238281 0.04417969 4.14867187 0.05320313 5 0.0625 C5.63808594 0.07410156 6.27617187 0.08570313 6.93359375 0.09765625 C7.26359375 1.08765625 7.59359375 2.07765625 7.93359375 3.09765625 C6.72703125 3.53078125 6.72703125 3.53078125 5.49609375 3.97265625 C2.80094695 4.83028193 2.80094695 4.83028193 1.93359375 7.09765625 C-1.12890625 7.72265625 -1.12890625 7.72265625 -4.06640625 8.09765625 C-4.06640625 6.77765625 -4.06640625 5.45765625 -4.06640625 4.09765625 C-3.40640625 4.09765625 -2.74640625 4.09765625 -2.06640625 4.09765625 C-2.39640625 3.10765625 -2.72640625 2.11765625 -3.06640625 1.09765625 C-2.06640625 0.09765625 -2.06640625 0.09765625 0 0 Z " fill="#F9FAF7" transform="translate(152.06640625,168.90234375)"/>
<path d="M0 0 C3.43775304 1.14591768 6.6759927 2.55750627 10 4 C10 4.99 10 5.98 10 7 C11.43750191 8.68798827 11.43750191 8.68798827 13 10 C9.92146846 9.06928116 7.28014421 8.17957962 4.5625 6.4375 C1.39564121 4.66096946 -1.41438358 4.35153102 -5 4 C-3 2 -3 2 0 0 Z " fill="#2E9D3D" transform="translate(89,162)"/>
<path d="M0 0 C1.60294922 0.04060547 1.60294922 0.04060547 3.23828125 0.08203125 C4.04652344 0.11683594 4.85476562 0.15164063 5.6875 0.1875 C-0.64146085 3.43947758 -7.17742582 6.43643956 -14.3125 7.1875 C-14.3125 6.5275 -14.3125 5.8675 -14.3125 5.1875 C-13.3225 4.5275 -12.3325 3.8675 -11.3125 3.1875 C-10.17748047 2.38892578 -10.17748047 2.38892578 -9.01953125 1.57421875 C-5.7706983 -0.09004633 -3.62529514 -0.11951522 0 0 Z " fill="#62C36C" transform="translate(152.3125,11.8125)"/>
<path d="M0 0 C0 0.33 0 0.66 0 1 C-1.13695313 1.09796875 -2.27390625 1.1959375 -3.4453125 1.296875 C-13.39638606 2.2333703 -22.47593269 3.84572691 -32 7 C-30.3203125 3.1484375 -30.3203125 3.1484375 -27.4375 1.8125 C-18.34594808 -0.33641227 -9.28115318 -0.1100532 0 0 Z " fill="#E8FEEC" transform="translate(128,63)"/>
<path d="M0 0 C3.5875213 1.33250791 6.8364623 2.830717 10 5 C10 5.66 10 6.32 10 7 C10.99 7.33 11.98 7.66 13 8 C13 8.99 13 9.98 13 11 C13.99 11 14.98 11 16 11 C16.66 12.32 17.32 13.64 18 15 C12.97591587 13.49561323 9.89319427 10.4696835 6.1875 6.9375 C5.59001953 6.38255859 4.99253906 5.82761719 4.37695312 5.25585938 C2.8929461 3.86343678 1.44316338 2.43471147 0 1 C0 0.67 0 0.34 0 0 Z " fill="#D5F4D8" transform="translate(100,129)"/>
<path d="M0 0 C-2.23125837 1.23958798 -3.95685072 1.99352761 -6.5 2.375 C-9.13926755 2.7874886 -9.13926755 2.7874886 -10.765625 4.9609375 C-13.57727232 7.52681145 -15.51191236 7.76242335 -19.25 8.25 C-20.32765625 8.39953125 -21.4053125 8.5490625 -22.515625 8.703125 C-23.74539062 8.85007812 -23.74539062 8.85007812 -25 9 C-23.43536545 5.87073089 -20.33997264 5.2229036 -17.25 3.9375 C-16.62867187 3.66873047 -16.00734375 3.39996094 -15.3671875 3.12304688 C-10.1259739 0.90603564 -5.67340187 -0.1620972 0 0 Z " fill="#D2F4D3" transform="translate(111,55)"/>
<path d="M0 0 C5.1103144 1.1454153 9.37234081 2.45478745 14 5 C14 5.33 14 5.66 14 6 C9.38 6 4.76 6 0 6 C0 4.02 0 2.04 0 0 Z " fill="#F0FBF2" transform="translate(10,235)"/>
<path d="M0 0 C1.175625 0.144375 2.35125 0.28875 3.5625 0.4375 C4.22378906 0.51871094 4.88507813 0.59992188 5.56640625 0.68359375 C7.45418377 0.92903513 9.33764436 1.20778942 11.21875 1.5 C15.45966845 2.06078261 19.66811458 2.3393359 23.9375 2.5625 C24.71673828 2.60568359 25.49597656 2.64886719 26.29882812 2.69335938 C28.19907117 2.79828077 30.09951669 2.8995245 32 3 C32 3.33 32 3.66 32 4 C24.08 4.33 16.16 4.66 8 5 C8 4.34 8 3.68 8 3 C5.36 2.34 2.72 1.68 0 1 C0 0.67 0 0.34 0 0 Z " fill="#288936" transform="translate(98,183)"/>
<path d="M0 0 C2.0625 0.4375 2.0625 0.4375 4 1 C2.8006207 4.41361802 1.66702528 6.56488996 -1 9 C-1.33 9.66 -1.66 10.32 -2 11 C-2.66 11 -3.32 11 -4 11 C-4 7.7 -4 4.4 -4 1 C-3.01 1 -2.02 1 -1 1 C-0.67 0.67 -0.34 0.34 0 0 Z " fill="#66BF71" transform="translate(17,143)"/>
<path d="M0 0 C1.32 0.99 2.64 1.98 4 3 C3.67 5.64 3.34 8.28 3 11 C2.67 10.01 2.34 9.02 2 8 C1.34 8 0.68 8 0 8 C0 8.66 0 9.32 0 10 C-0.66 10 -1.32 10 -2 10 C-2.33 11.65 -2.66 13.3 -3 15 C-3.66 15 -4.32 15 -5 15 C-3.60961435 9.86626838 -1.91539047 4.96260257 0 0 Z " fill="#339A3F" transform="translate(71,93)"/>
<path d="M0 0 C0.99 0 1.98 0 3 0 C3 5.28 3 10.56 3 16 C0.29024273 11.9353641 -1.45789719 7.62630843 -3 3 C-2.34 3 -1.68 3 -1 3 C-0.67 2.01 -0.34 1.02 0 0 Z " fill="#E2F7E1" transform="translate(233,13)"/>
<path d="M0 0 C0.33 0 0.66 0 1 0 C1.10957031 1.09957031 1.21914062 2.19914062 1.33203125 3.33203125 C2.22371575 11.80111639 3.36286205 19.86003418 6 28 C4.078125 27.22265625 4.078125 27.22265625 2 26 C-0.92633488 17.6599456 -0.1803025 8.72463776 0 0 Z " fill="#CBF3D2" transform="translate(64,116)"/>
<path d="M0 0 C3.35498935 1.38827146 5.15050455 2.85585774 7 6 C7 7.32 7 8.64 7 10 C8.32 10.33 9.64 10.66 11 11 C10.67 13.64 10.34 16.28 10 19 C7.57054132 16.57054132 6.82527785 14.37788266 5.5625 11.1875 C3.98834234 7.21509587 2.28974452 3.61152124 0 0 Z " fill="#D2F5DA" transform="translate(165,86)"/>
<path d="M0 0 C0.33 0.66 0.66 1.32 1 2 C0.34 2 -0.32 2 -1 2 C-1.33 4.97 -1.66 7.94 -2 11 C-2.99 11 -3.98 11 -5 11 C-5.33 11.99 -5.66 12.98 -6 14 C-6.99 13.34 -7.98 12.68 -9 12 C-8.07084243 10.37021552 -7.13135466 8.74631725 -6.1875 7.125 C-5.66542969 6.22007813 -5.14335938 5.31515625 -4.60546875 4.3828125 C-3 2 -3 2 0 0 Z " fill="#329D41" transform="translate(12,9)"/>
<path d="M0 0 C7.97580703 0.50640045 16.01062003 2.27102786 22 8 C22 8.66 22 9.32 22 10 C21.34 10 20.68 10 20 10 C20 9.34 20 8.68 20 8 C19.030625 7.690625 18.06125 7.38125 17.0625 7.0625 C14 6 14 6 13 5 C11.00041636 4.95919217 8.99954746 4.95745644 7 5 C7 4.01 7 3.02 7 2 C4.36 2 1.72 2 -1 2 C-0.67 1.34 -0.34 0.68 0 0 Z " fill="#288D37" transform="translate(129,66)"/>
<path d="M0 0 C3.29836802 1.69859776 6.56238195 2.99371459 10.125 4.0625 C6.43081799 5.293894 3.9193739 4.70682764 0.125 4.0625 C0.125 3.4025 0.125 2.7425 0.125 2.0625 C-4.80237019 0.09155192 -8.65520872 -0.1174928 -13.875 0.0625 C-9.40380126 -4.40869874 -5.04367013 -2.68388069 0 0 Z " fill="#C8F2CC" transform="translate(95.875,168.9375)"/>
<path d="M0 0 C1.79133978 -0.05391993 3.58313899 -0.09275571 5.375 -0.125 C6.37273437 -0.14820313 7.37046875 -0.17140625 8.3984375 -0.1953125 C11 0 11 0 13 2 C11.68 2.33 10.36 2.66 9 3 C9.99 3.66 10.98 4.32 12 5 C8.94925785 5.28780586 6.03816258 5.45787911 3 5 C0.9375 2.5 0.9375 2.5 0 0 Z " fill="#239635" transform="translate(133,151)"/>
<path d="M0 0 C2.62408366 2.37417093 4.38613402 4.84911879 6 8 C6 9.32 6 10.64 6 12 C6.66 12 7.32 12 8 12 C8 14.97 8 17.94 8 21 C7.67 21 7.34 21 7 21 C6.7525 20.030625 6.505 19.06125 6.25 18.0625 C5.39346323 15.02456741 4.25762257 12.2408661 2.9375 9.375 C1.50398433 6.2575031 0.44300926 3.43332174 0 0 Z " fill="#CAF1D1" transform="translate(56,136)"/>
<path d="M0 0 C0.33 0 0.66 0 1 0 C1.33 2.64 1.66 5.28 2 8 C2.66 8 3.32 8 4 8 C4 10.31 4 12.62 4 15 C4.99 15 5.98 15 7 15 C7 16.98 7 18.96 7 21 C2.31760514 15.83321947 -0.17511743 10.49615098 -0.1875 3.5 C-0.125625 2.345 -0.06375 1.19 0 0 Z " fill="#D1F7D5" transform="translate(88,101)"/>
<path d="M0 0 C0.33 0 0.66 0 1 0 C0.88529863 1.75070517 0.75780972 3.50057536 0.625 5.25 C0.55539063 6.22453125 0.48578125 7.1990625 0.4140625 8.203125 C0.01534751 10.89633189 -0.63507063 12.66963279 -2 15 C-2.99 14.67 -3.98 14.34 -5 14 C-4.71890887 12.35232753 -4.42481474 10.70686855 -4.125 9.0625 C-3.96257812 8.14597656 -3.80015625 7.22945312 -3.6328125 6.28515625 C-3.42398438 5.53105469 -3.21515625 4.77695313 -3 4 C-2.34 3.67 -1.68 3.34 -1 3 C-0.67 2.01 -0.34 1.02 0 0 Z " fill="#3A9B4A" transform="translate(189,124)"/>
<path d="M0 0 C0.66 0.33 1.32 0.66 2 1 C1.34 2.98 0.68 4.96 0 7 C-0.66 7 -1.32 7 -2 7 C-1.67 8.32 -1.34 9.64 -1 11 C-1.66 11 -2.32 11 -3 11 C-5.43160605 7.63316085 -6 6.26649636 -6 2 C-4.68 2.33 -3.36 2.66 -2 3 C-1.34 2.01 -0.68 1.02 0 0 Z " fill="#29A536" transform="translate(61,78)"/>
<path d="M0 0 C3.35291118 -0.37254569 4.6038423 -0.31050198 7.3125 1.8125 C9 4 9 4 9 7 C9.33 6.01 9.66 5.02 10 4 C10.99 3.67 11.98 3.34 13 3 C12.34 5.31 11.68 7.62 11 10 C7.19364503 6.79239749 3.45436433 3.59253891 0 0 Z " fill="#D7F2D7" transform="translate(219,5)"/>
<path d="M0 0 C0.721875 0.103125 1.44375 0.20625 2.1875 0.3125 C2.1875 1.9625 2.1875 3.6125 2.1875 5.3125 C-1.1125 5.3125 -4.4125 5.3125 -7.8125 5.3125 C-3.50480769 0.38942308 -3.50480769 0.38942308 0 0 Z " fill="#EAEFEF" transform="translate(233.8125,235.6875)"/>
<path d="M0 0 C3.23859087 1.61929544 3.67660913 4.74666411 5 8 C5.65288627 9.34013497 6.31225595 10.67741528 7 12 C5.35 12 3.7 12 2 12 C1.46809459 10.56656 0.94984742 9.12804633 0.4375 7.6875 C0.14746094 6.88699219 -0.14257812 6.08648437 -0.44140625 5.26171875 C-1 3 -1 3 0 0 Z " fill="#239C3A" transform="translate(183,91)"/>
<path d="M0 0 C0 3.63 0 7.26 0 11 C-2.54268329 8.04720651 -4.3327221 5.87021181 -5 2 C-5.33 1.34 -5.66 0.68 -6 0 C-4 -1 -4 -1 0 0 Z " fill="#33A340" transform="translate(177,74)"/>
<path d="M0 0 C-1 2 -1 2 -4 4 C-6.04296875 4.4140625 -6.04296875 4.4140625 -8.1875 4.625 C-9.445625 4.74875 -10.70375 4.8725 -12 5 C-11.66260373 2.469528 -11.3938922 1.3181437 -9.375 -0.3125 C-6.05401826 -1.27383682 -3.35382798 -0.64496692 0 0 Z " fill="#239E33" transform="translate(144,185)"/>
<path d="M0 0 C1.82421875 1.109375 1.82421875 1.109375 3.6875 2.75 C4.31011719 3.28109375 4.93273437 3.8121875 5.57421875 4.359375 C7 6 7 6 7 9 C4.33333333 7.66666667 1.66666667 6.33333333 -1 5 C-1 4.01 -1 3.02 -1 2 C-1.66 1.67 -2.32 1.34 -3 1 C-2.01 0.67 -1.02 0.34 0 0 Z " fill="#D5F0D6" transform="translate(7,228)"/>
<path d="M0 0 C1.31831625 3.95494876 0.27915298 5.30181518 -1.375 9.0625 C-1.83648437 10.12597656 -2.29796875 11.18945312 -2.7734375 12.28515625 C-3.48903967 13.86905278 -4.22272081 15.44544162 -5 17 C-5.66 17 -6.32 17 -7 17 C-5.125 9.25 -5.125 9.25 -4 7 C-3.34 7 -2.68 7 -2 7 C-1.855625 6.21625 -1.71125 5.4325 -1.5625 4.625 C-1 2 -1 2 0 0 Z " fill="#268F38" transform="translate(173,133)"/>
<path d="M0 0 C2.125 0.375 2.125 0.375 4 1 C4 1.66 4 2.32 4 3 C3.401875 3.2475 2.80375 3.495 2.1875 3.75 C-0.135974 4.86434075 -0.135974 4.86434075 -1.4375 7.125 C-3 9 -3 9 -5.6875 9.25 C-6.450625 9.1675 -7.21375 9.085 -8 9 C-7.04270084 7.87411986 -6.08412105 6.7493285 -5.125 5.625 C-4.59132812 4.99851563 -4.05765625 4.37203125 -3.5078125 3.7265625 C-2.38567993 2.44163349 -1.20628025 1.20628025 0 0 Z " fill="#CEF2D1" transform="translate(136,128)"/>
<path d="M0 0 C-0.66 1.65 -1.32 3.3 -2 5 C-4.97 4.505 -4.97 4.505 -8 4 C-8.33 4.99 -8.66 5.98 -9 7 C-9.99 7 -10.98 7 -12 7 C-9.43549875 0.8024553 -6.32421075 0 0 0 Z " fill="#28A333" transform="translate(21,12)"/>
<path d="M0 0 C2.875 1.375 2.875 1.375 5 3 C5 3.66 5 4.32 5 5 C3.35 5 1.7 5 0 5 C0 4.01 0 3.02 0 2 C-2.64 2.33 -5.28 2.66 -8 3 C-8 2.34 -8 1.68 -8 1 C-5.17998673 -0.41000664 -3.12992745 -0.24548451 0 0 Z " fill="#379A42" transform="translate(90,178)"/>
<path d="M0 0 C0.33 0.66 0.66 1.32 1 2 C3.52733235 2.65555119 3.52733235 2.65555119 6 3 C6.33 2.01 6.66 1.02 7 0 C8 3 8 3 6.5625 6.1875 C5.7890625 7.5796875 5.7890625 7.5796875 5 9 C2.5 6.75 2.5 6.75 0 4 C0 2.68 0 1.36 0 0 Z " fill="#399E47" transform="translate(105,113)"/>
<path d="M0 0 C0.33 0 0.66 0 1 0 C2.14507772 5.19689119 2.14507772 5.19689119 2 8 C-0.4375 11 -0.4375 11 -3 13 C-4 11 -4 11 -3.22265625 8.3984375 C-2.83980469 7.40070313 -2.45695312 6.40296875 -2.0625 5.375 C-1.68222656 4.37210938 -1.30195312 3.36921875 -0.91015625 2.3359375 C-0.60980469 1.56507813 -0.30945312 0.79421875 0 0 Z " fill="#C7EECC" transform="translate(62,157)"/>
<path d="M0 0 C0.33 0.99 0.66 1.98 1 3 C0.34 3 -0.32 3 -1 3 C-0.484375 3.5775 0.03125 4.155 0.5625 4.75 C2 7 2 7 1.8125 9.1875 C1 11 1 11 -1 12 C-2.58076658 8.54207311 -3.51579638 5.8168932 -3 2 C-2.01 1.34 -1.02 0.68 0 0 Z " fill="#279631" transform="translate(69,126)"/>
<path d="M0 0 C-3.12166933 2.64141251 -6.04328155 3.96781258 -10 5 C-10.66 4.67 -11.32 4.34 -12 4 C-12 3.34 -12 2.68 -12 2 C-4.71428571 -1.57142857 -4.71428571 -1.57142857 0 0 Z " fill="#359A45" transform="translate(98,57)"/>
<path d="M0 0 C1.06394646 4.25578585 0.90233445 5.21922105 -0.625 9.125 C-0.94726562 9.99382812 -1.26953125 10.86265625 -1.6015625 11.7578125 C-3 14 -3 14 -8 16 C-5.36 10.72 -2.72 5.44 0 0 Z " fill="#C8F0C8" transform="translate(172,139)"/>
<path d="M0 0 C0.66 0 1.32 0 2 0 C2.309375 0.8971875 2.309375 0.8971875 2.625 1.8125 C4.50926082 4.81018767 6.81132084 5.61361776 10 7 C10 7.99 10 8.98 10 10 C6.7451198 9.41978222 5.06347592 8.47352859 2.75 6.125 C2.22921875 5.61195313 1.7084375 5.09890625 1.171875 4.5703125 C0 3 0 3 0 0 Z " fill="#2F943C" transform="translate(7,225)"/>
<path d="M0 0 C0.66 0.33 1.32 0.66 2 1 C0.625 2.5 0.625 2.5 -1 4 C-1.66 4 -2.32 4 -3 4 C-3.33 4.99 -3.66 5.98 -4 7 C-7.4342662 7.85856655 -9.61682513 7.97591583 -13 7 C-12.14535156 6.57847656 -11.29070312 6.15695313 -10.41015625 5.72265625 C-9.30542969 5.17480469 -8.20070312 4.62695312 -7.0625 4.0625 C-5.96035156 3.51722656 -4.85820312 2.97195312 -3.72265625 2.41015625 C-1.15205586 1.25295022 -1.15205586 1.25295022 0 0 Z " fill="#BFEDC8" transform="translate(153,164)"/>
<path d="M0 0 C2.47128202 0.9566253 3.72986449 1.45972898 4.9375 3.875 C5.0225942 6.76820282 3.88243538 7.89167237 2 10 C0.68 9.67 -0.64 9.34 -2 9 C-0.68 8.34 0.64 7.68 2 7 C1.505 5.824375 1.505 5.824375 1 4.625 C0 2 0 2 0 0 Z " fill="#239C31" transform="translate(145,159)"/>
<path d="M0 0 C2.42115191 2.42115191 2.60948898 3.64160525 3 7 C2.673283 8.66797629 2.33883809 10.33444375 2 12 C1.78640412 14.101678 1.59952167 16.2062183 1.4375 18.3125 C1.35371094 19.38113281 1.26992187 20.44976562 1.18359375 21.55078125 C1.12300781 22.35902344 1.06242188 23.16726562 1 24 C0.67 24 0.34 24 0 24 C0 16.08 0 8.16 0 0 Z " fill="#86DB8E" transform="translate(12,115)"/>
<path d="M0 0 C3.88916586 3.88916586 4.89245644 7.47272624 5.125 12.9375 C5.08375 13.618125 5.0425 14.29875 5 15 C4.34 15 3.68 15 3 15 C3 13.02 3 11.04 3 9 C2.34 9 1.68 9 1 9 C0.67 6.03 0.34 3.06 0 0 Z " fill="#31963D" transform="translate(231,19)"/>
<path d="M0 0 C0.33 0 0.66 0 1 0 C1.125 7.75 1.125 7.75 0 10 C-0.66 10 -1.32 10 -2 10 C-2.33 11.32 -2.66 12.64 -3 14 C-3.66 14 -4.32 14 -5 14 C-3.46527032 9.27775484 -1.76054874 4.64144669 0 0 Z " fill="#C6F0CE" transform="translate(235,213)"/>
<path d="M0 0 C1.65 0.33 3.3 0.66 5 1 C4.34 3.31 3.68 5.62 3 8 C2.01 8 1.02 8 0 8 C0 7.01 0 6.02 0 5 C-0.66 4.67 -1.32 4.34 -2 4 C-1.34 2.68 -0.68 1.36 0 0 Z " fill="#2FA342" transform="translate(36,107)"/>
<path d="M0 0 C0.99 0.66 1.98 1.32 3 2 C1.55746343 5.36591866 -0.33264727 7.51047079 -3 10 C-4 7 -4 7 -3 4 C-2.34 3.67 -1.68 3.34 -1 3 C-0.67 2.01 -0.34 1.02 0 0 Z " fill="#81CE89" transform="translate(46,85)"/>
<path d="M0 0 C1.485 0.99 1.485 0.99 3 2 C3 2.66 3 3.32 3 4 C3.66 4 4.32 4 5 4 C6.38938077 5.96147874 7.7260411 7.96166576 9 10 C8.67 10.66 8.34 11.32 8 12 C7.34 11.67 6.68 11.34 6 11 C6 10.34 6 9.68 6 9 C4.68 9.33 3.36 9.66 2 10 C2 9.34 2 8.68 2 8 C2.66 8 3.32 8 4 8 C3.34 6.35 2.68 4.7 2 3 C1.34 3 0.68 3 0 3 C0 2.01 0 1.02 0 0 Z " fill="#3E9947" transform="translate(160,81)"/>
<path d="M0 0 C-0.70125 0.556875 -1.4025 1.11375 -2.125 1.6875 C-5.11344261 4.09124732 -8.05940238 6.53810432 -11 9 C-11 7.68 -11 6.36 -11 5 C-10.01 5 -9.02 5 -8 5 C-8.33 4.01 -8.66 3.02 -9 2 C-5.86501708 0.14223235 -3.62528568 -0.20140476 0 0 Z " fill="#31933F" transform="translate(82,66)"/>
<path d="M0 0 C0.66 0.33 1.32 0.66 2 1 C2.49230769 7.4 2.49230769 7.4 0 10.4375 C-0.99 11.2109375 -0.99 11.2109375 -2 12 C-1.85831863 10.56208484 -1.71148957 9.1246763 -1.5625 7.6875 C-1.48128906 6.88699219 -1.40007812 6.08648437 -1.31640625 5.26171875 C-1 3 -1 3 0 0 Z " fill="#389B48" transform="translate(2,23)"/>
<path d="M0 0 C0.5534764 2.07553648 1 3.84365964 1 6 C0.01 6 -0.98 6 -2 6 C-2.33 7.32 -2.66 8.64 -3 10 C-4.5 8.625 -4.5 8.625 -6 7 C-6 6.34 -6 5.68 -6 5 C-5.34 5 -4.68 5 -4 5 C-4 4.34 -4 3.68 -4 3 C-2 1.375 -2 1.375 0 0 Z " fill="#26A333" transform="translate(73,65)"/>
<path d="M0 0 C0.99 0.99 1.98 1.98 3 3 C1.68 3 0.36 3 -1 3 C-0.67 3.99 -0.34 4.98 0 6 C-0.99 6.99 -1.98 7.98 -3 9 C-3.33 8.34 -3.66 7.68 -4 7 C-5.98 7.99 -5.98 7.99 -8 9 C-6.625 7 -6.625 7 -5 5 C-4.34 5 -3.68 5 -3 5 C-2.690625 4.360625 -2.38125 3.72125 -2.0625 3.0625 C-1 1 -1 1 0 0 Z " fill="#CFEACF" transform="translate(229,227)"/>
<path d="M0 0 C3.3 0 6.6 0 10 0 C5.69230769 3.93846154 5.69230769 3.93846154 2.1875 4.25 C1.1046875 4.12625 1.1046875 4.12625 0 4 C0 2.68 0 1.36 0 0 Z " fill="#7CC786" transform="translate(114,22)"/>
<path d="M0 0 C0.33 0 0.66 0 1 0 C1 2.64 1 5.28 1 8 C-0.65 8 -2.3 8 -4 8 C-4.33 7.34 -4.66 6.68 -5 6 C-4.34 6 -3.68 6 -3 6 C-2.67 4.68 -2.34 3.36 -2 2 C-1.34 2 -0.68 2 0 2 C0 1.34 0 0.68 0 0 Z " fill="#F7FDFA" transform="translate(235,221)"/>
<path d="M0 0 C0.33 0.99 0.66 1.98 1 3 C0.01 3.33 -0.98 3.66 -2 4 C-2.33 4.66 -2.66 5.32 -3 6 C-4.32 5.67 -5.64 5.34 -7 5 C-6.6875 3.0625 -6.6875 3.0625 -6 1 C-3 0 -3 0 0 0 Z " fill="#359E46" transform="translate(69,184)"/>
<path d="M0 0 C2.375 -0.125 2.375 -0.125 5 0 C7 2 7 2 8 4 C8.66 4 9.32 4 10 4 C10 4.66 10 5.32 10 6 C8.5164999 5.57742724 7.03823576 5.13643678 5.5625 4.6875 C4.73878906 4.44386719 3.91507812 4.20023438 3.06640625 3.94921875 C2.04353516 3.47935547 2.04353516 3.47935547 1 3 C0.67 2.01 0.34 1.02 0 0 Z " fill="#32913E" transform="translate(120,130)"/>
<path d="M0 0 C2.0625 0.4375 2.0625 0.4375 4 1 C4.33 2.32 4.66 3.64 5 5 C4.01 5.66 3.02 6.32 2 7 C1.34 6.34 0.68 5.68 0 5 C-0.99 5.33 -1.98 5.66 -3 6 C-1.125 1.125 -1.125 1.125 0 0 Z " fill="#3EA34C" transform="translate(75,87)"/>
<path d="M0 0 C0.33 0.99 0.66 1.98 1 3 C0.34 3 -0.32 3 -1 3 C-0.67 5.31 -0.34 7.62 0 10 C-1.65 10 -3.3 10 -5 10 C-4.01 9.67 -3.02 9.34 -2 9 C-2.66 8.67 -3.32 8.34 -4 8 C-3.40072174 4.64404172 -2.15377564 2.62198774 0 0 Z " fill="#259331" transform="translate(182,147)"/>
<path d="M0 0 C1.43088528 2.86177057 0.59991697 4.93375773 0 8 C-0.99 8 -1.98 8 -3 8 C-3 8.66 -3 9.32 -3 10 C-3.66 10 -4.32 10 -5 10 C-5 8.68 -5 7.36 -5 6 C-4.34 6 -3.68 6 -3 6 C-2.87625 5.195625 -2.7525 4.39125 -2.625 3.5625 C-2.41875 2.716875 -2.2125 1.87125 -2 1 C-1.34 0.67 -0.68 0.34 0 0 Z " fill="#F0FBEF" transform="translate(66,85)"/>
<path d="M0 0 C1.21940083 3.6582025 0.63709904 4.58448676 -0.8125 8.0625 C-1.16957031 8.94035156 -1.52664062 9.81820312 -1.89453125 10.72265625 C-3 13 -3 13 -5 15 C-5 13.35 -5 11.7 -5 10 C-4.34 10 -3.68 10 -3 10 C-2.87625 9.278125 -2.7525 8.55625 -2.625 7.8125 C-2.0095069 5.04278106 -1.11555626 2.6029646 0 0 Z " fill="#308E41" transform="translate(234,212)"/>
<path d="M0 0 C3.80635497 3.20760251 7.54563567 6.40746109 11 10 C10.67 10.66 10.34 11.32 10 12 C9.34 11.67 8.68 11.34 8 11 C8 10.34 8 9.68 8 9 C7.01 8.67 6.02 8.34 5 8 C0 2.53488372 0 2.53488372 0 0 Z " fill="#2F8A3D" transform="translate(98,128)"/>
<path d="M0 0 C4.26086957 6.39130435 4.26086957 6.39130435 3.625 10.3125 C3.41875 10.869375 3.2125 11.42625 3 12 C2.01 11.34 1.02 10.68 0 10 C-0.29296875 7.6171875 -0.29296875 7.6171875 -0.1875 4.875 C-0.16042969 3.96492188 -0.13335937 3.05484375 -0.10546875 2.1171875 C-0.07066406 1.41851562 -0.03585938 0.71984375 0 0 Z " fill="#CEF0D3" transform="translate(181,93)"/>
<path d="M0 0 C0.99 0.33 1.98 0.66 3 1 C3 1.66 3 2.32 3 3 C3.928125 3.1546875 3.928125 3.1546875 4.875 3.3125 C7 4 7 4 9 7 C6.03 6.01 3.06 5.02 0 4 C0 2.68 0 1.36 0 0 Z " fill="#36984A" transform="translate(151,74)"/>
<path d="M0 0 C1.65 0 3.3 0 5 0 C5 0.66 5 1.32 5 2 C4.34 2 3.68 2 3 2 C2.87625 2.804375 2.7525 3.60875 2.625 4.4375 C2.41875 5.283125 2.2125 6.12875 2 7 C1.01 7.495 1.01 7.495 0 8 C0 5.36 0 2.72 0 0 Z " fill="#FCFCF9" transform="translate(0,13)"/>
<path d="M0 0 C0.66 0 1.32 0 2 0 C1.49202991 4.3177458 0.80317221 8.03302114 -1 12 C-2.0625 10.1875 -2.0625 10.1875 -3 8 C-2.67 7.01 -2.34 6.02 -2 5 C-1.34 5 -0.68 5 0 5 C-0.33 4.01 -0.66 3.02 -1 2 C-0.67 1.34 -0.34 0.68 0 0 Z " fill="#D6F7D9" transform="translate(183,134)"/>
<path d="M0 0 C0.33 0.66 0.66 1.32 1 2 C1.66 2 2.32 2 3 2 C4.625 4.75 4.625 4.75 6 8 C5.1875 10.375 5.1875 10.375 4 12 C3.89042969 11.43410156 3.78085938 10.86820313 3.66796875 10.28515625 C3.50941406 9.55167969 3.35085937 8.81820312 3.1875 8.0625 C3.03667969 7.33160156 2.88585937 6.60070312 2.73046875 5.84765625 C2.48941406 5.23792969 2.24835938 4.62820312 2 4 C1.01 3.67 0.02 3.34 -1 3 C-0.67 2.01 -0.34 1.02 0 0 Z " fill="#CDF2D1" transform="translate(175,83)"/>
<path d="M0 0 C0.33 0.66 0.66 1.32 1 2 C0.00390625 4.1640625 0.00390625 4.1640625 -1.4375 6.625 C-1.91058594 7.44226563 -2.38367187 8.25953125 -2.87109375 9.1015625 C-3.24363281 9.72804688 -3.61617187 10.35453125 -4 11 C-5.59036701 7.81926598 -4.78365299 5.37573597 -4 2 C-1.9375 0.5625 -1.9375 0.5625 0 0 Z " fill="#2B9035" transform="translate(63,83)"/>
<path d="M0 0 C0.33 0.66 0.66 1.32 1 2 C1.66 2 2.32 2 3 2 C4.37310707 3.29233607 5.71034824 4.62437146 7 6 C6.67 6.66 6.34 7.32 6 8 C2.7 6.02 -0.6 4.04 -4 2 C-2.68 1.34 -1.36 0.68 0 0 Z " fill="#C7F0C9" transform="translate(146,67)"/>
<path d="M0 0 C0.89203125 0.10183594 1.7840625 0.20367187 2.703125 0.30859375 C3.37859375 0.39238281 4.0540625 0.47617188 4.75 0.5625 C4.75 0.8925 4.75 1.2225 4.75 1.5625 C2.98086176 1.78476864 1.20955629 1.98983873 -0.5625 2.1875 C-1.54863281 2.30351563 -2.53476563 2.41953125 -3.55078125 2.5390625 C-6.25 2.5625 -6.25 2.5625 -9.25 0.5625 C-5.98086376 -0.46865279 -3.38958652 -0.4013984 0 0 Z " fill="#359C44" transform="translate(115.25,65.4375)"/>
<path d="M0 0 C0.928125 0.20625 1.85625 0.4125 2.8125 0.625 C2.1525 1.945 1.4925 3.265 0.8125 4.625 C-3.9375 3.875 -3.9375 3.875 -6.1875 1.625 C-3.1875 -0.375 -3.1875 -0.375 0 0 Z " fill="#3DA54C" transform="translate(24.1875,2.375)"/>
<path d="M0 0 C0.89694794 3.58779175 1.08304117 6.34618837 1 10 C-0.32 10.33 -1.64 10.66 -3 11 C-2.01 7.37 -1.02 3.74 0 0 Z " fill="#D0F4D3" transform="translate(57,172)"/>
<path d="M0 0 C0.33 0.99 0.66 1.98 1 3 C-0.40445835 5.2636564 -2.1967913 7.0208685 -4 9 C-5.32 8.67 -6.64 8.34 -8 8 C-6.50260417 6.79557292 -5.00520833 5.59114583 -3.5078125 4.38671875 C-1.74707893 2.87729455 -1.74707893 2.87729455 0 0 Z " fill="#CEF0D1" transform="translate(163,155)"/>
<path d="M0 0 C0.99 0 1.98 0 3 0 C3 0.66 3 1.32 3 2 C2.34 2 1.68 2 1 2 C1 2.66 1 3.32 1 4 C2.32 4.33 3.64 4.66 5 5 C4.01 6.485 4.01 6.485 3 8 C2.01 8 1.02 8 0 8 C-0.98120464 4.94736336 -0.98120464 3.05263664 0 0 Z " fill="#32A640" transform="translate(162,145)"/>
<path d="M0 0 C-3.00950123 1.61725534 -5.97103608 2.67582623 -9.25 3.625 C-10.58804688 4.01558594 -10.58804688 4.01558594 -11.953125 4.4140625 C-12.62859375 4.60742188 -13.3040625 4.80078125 -14 5 C-12.203125 1.09375 -12.203125 1.09375 -10.375 0.25 C-6.90262273 -0.1155134 -3.49135702 -0.05818928 0 0 Z " fill="#D2F7D8" transform="translate(110,65)"/>
<path d="M0 0 C4.43458973 1.3937282 6.87378374 3.60582235 10 7 C5.61537866 6.49890042 3.1999003 5.01704885 0 2 C0 1.34 0 0.68 0 0 Z " fill="#3E974D" transform="translate(216,4)"/>
<path d="M0 0 C0.66 0 1.32 0 2 0 C1.01 3.96 0.02 7.92 -1 12 C-1.33 12 -1.66 12 -2 12 C-2.28571429 3.42857143 -2.28571429 3.42857143 0 0 Z " fill="#39934D" transform="translate(57,94)"/>
<path d="M0 0 C-1.485 1.98 -1.485 1.98 -3 4 C-5.31 3.67 -7.62 3.34 -10 3 C-10 2.34 -10 1.68 -10 1 C-6.52674819 -0.1577506 -3.63932552 -0.06866652 0 0 Z " fill="#259B33" transform="translate(99,73)"/>
<path d="M0 0 C0.33 0.66 0.66 1.32 1 2 C0.67 2.33 0.34 2.66 0 3 C0.33 3.66 0.66 4.32 1 5 C0.360625 5.103125 -0.27875 5.20625 -0.9375 5.3125 C-1.618125 5.539375 -2.29875 5.76625 -3 6 C-3.33 6.99 -3.66 7.98 -4 9 C-4.8125 7.3125 -4.8125 7.3125 -5 5 C-2.5625 2.25 -2.5625 2.25 0 0 Z " fill="#2FA742" transform="translate(22,13)"/>
<path d="M0 0 C0.33 0.66 0.66 1.32 1 2 C0.34 2 -0.32 2 -1 2 C-1.33 3.98 -1.66 5.96 -2 8 C-3.32 8 -4.64 8 -6 8 C-4.73058503 4.08597051 -3.48832306 2.20927127 0 0 Z " fill="#49A559" transform="translate(12,9)"/>
<path d="M0 0 C0.99 0 1.98 0 3 0 C3 0.66 3 1.32 3 2 C3.66 2.33 4.32 2.66 5 3 C2.69 4.32 0.38 5.64 -2 7 C-2 6.34 -2 5.68 -2 5 C-1.34 4.67 -0.68 4.34 0 4 C-0.33 3.34 -0.66 2.68 -1 2 C-0.67 1.34 -0.34 0.68 0 0 Z " fill="#259C33" transform="translate(159,173)"/>
<path d="M0 0 C0.33 0.66 0.66 1.32 1 2 C0.00390625 3.9453125 0.00390625 3.9453125 -1.4375 6.125 C-1.91058594 6.84945312 -2.38367188 7.57390625 -2.87109375 8.3203125 C-3.24363281 8.87460938 -3.61617187 9.42890625 -4 10 C-4.8214856 7.24802325 -5.04631835 6.16597407 -4.25 3.3125 C-3 1 -3 1 0 0 Z " fill="#CEF6D3" transform="translate(180,147)"/>
<path d="M0 0 C2.31 0 4.62 0 7 0 C7 0.66 7 1.32 7 2 C8.45833358 3.62514468 8.45833358 3.62514468 10 5 C6.08788267 3.84414715 3.1254959 2.64465038 0 0 Z " fill="#419C4D" transform="translate(92,167)"/>
<path d="M0 0 C0.99 0 1.98 0 3 0 C3.33 3.3 3.66 6.6 4 10 C1.7448078 7.7448078 1.02276532 5.9952413 0 3 C0 2.01 0 1.02 0 0 Z " fill="#2D8D3D" transform="translate(106,93)"/>
<path d="M0 0 C1 2 1 2 1 4 C1.33 4.66 1.66 5.32 2 6 C1.34 6.66 0.68 7.32 0 8 C-0.66 8 -1.32 8 -2 8 C-2 7.34 -2 6.68 -2 6 C-2.66 5.67 -3.32 5.34 -4 5 C-2.68 3.35 -1.36 1.7 0 0 Z " fill="#3CA648" transform="translate(59,74)"/>
<path d="M0 0 C0.66 0 1.32 0 2 0 C2 0.66 2 1.32 2 2 C2.66 2.33 3.32 2.66 4 3 C1.36 3.99 -1.28 4.98 -4 6 C-2.84826645 3.53199953 -1.95216435 1.95216435 0 0 Z " fill="#219C32" transform="translate(79,62)"/>
<path d="M0 0 C1.25541557 3.76624671 0.37061958 5.37188934 -1 9 C-1.99 9 -2.98 9 -4 9 C-2.94124926 5.59687262 -1.99097846 2.98646769 0 0 Z " fill="#BCECC3" transform="translate(17,25)"/>
<path d="M0 0 C0 0.66 0 1.32 0 2 C-1.96466413 3.06775224 -3.96855359 4.06553465 -6 5 C-6.66 4.67 -7.32 4.34 -8 4 C-8 3.34 -8 2.68 -8 2 C-5.09399739 0.74335022 -3.20395416 0 0 0 Z " fill="#3C9F53" transform="translate(218,236)"/>
<path d="M0 0 C2.31 0.66 4.62 1.32 7 2 C7 2.66 7 3.32 7 4 C8.32 4.33 9.64 4.66 11 5 C10.01 5.495 10.01 5.495 9 6 C6.8359375 5.00390625 6.8359375 5.00390625 4.375 3.5625 C3.55773437 3.08941406 2.74046875 2.61632812 1.8984375 2.12890625 C1.27195312 1.75636719 0.64546875 1.38382813 0 1 C0 0.67 0 0.34 0 0 Z " fill="#52A760" transform="translate(15,235)"/>
<path d="M0 0 C0.66 0 1.32 0 2 0 C2.625 1.875 2.625 1.875 3 4 C1 6 1 6 -0.9453125 6.1953125 C-2.96354167 6.13020833 -4.98177083 6.06510417 -7 6 C-7 5.67 -7 5.34 -7 5 C-4.69 5 -2.38 5 0 5 C0 3.35 0 1.7 0 0 Z " fill="#239E31" transform="translate(79,181)"/>
<path d="M0 0 C2.18975773 3.28463659 2.99806563 6.20696275 4 10 C3.01 10.33 2.02 10.66 1 11 C0.67 7.37 0.34 3.74 0 0 Z " fill="#3D9D4C" transform="translate(88,109)"/>
<path d="M0 0 C0.66 0.33 1.32 0.66 2 1 C1.67 3.64 1.34 6.28 1 9 C-1 7 -1 7 -1.1875 3.9375 C-1 1 -1 1 0 0 Z " fill="#E3F5E3" transform="translate(174,96)"/>
<path d="M0 0 C0.66 0.33 1.32 0.66 2 1 C0.625 3.5 0.625 3.5 -1 6 C-1.66 6 -2.32 6 -3 6 C-3 5.34 -3 4.68 -3 4 C-3.99 4.33 -4.98 4.66 -6 5 C-6 4.34 -6 3.68 -6 3 C-4.03533587 1.93224776 -2.03144641 0.93446535 0 0 Z " fill="#1E9F34" transform="translate(82,84)"/>
<path d="M0 0 C0.66 0 1.32 0 2 0 C2.625 2.875 2.625 2.875 3 6 C2.34 6.66 1.68 7.32 1 8 C0.34 7.34 -0.32 6.68 -1 6 C-0.625 2.875 -0.625 2.875 0 0 Z " fill="#CBF0D4" transform="translate(13,34)"/>
<path d="M0 0 C0.66 0.33 1.32 0.66 2 1 C2 2.32 2 3.64 2 5 C1.01 5.33 0.02 5.66 -1 6 C-1.99 5.34 -2.98 4.68 -4 4 C-2.68 2.68 -1.36 1.36 0 0 Z " fill="#359F45" transform="translate(165,168)"/>
<path d="M0 0 C0.66 0.33 1.32 0.66 2 1 C2 3.97 2 6.94 2 10 C0.23934164 7.35901246 -0.52722899 6.0257345 -1 3 C-0.67 2.01 -0.34 1.02 0 0 Z " fill="#319748" transform="translate(183,91)"/>
<path d="M0 0 C2.97 0.495 2.97 0.495 6 1 C6 1.66 6 2.32 6 3 C3.6875 3.625 3.6875 3.625 1 4 C0.01 3.34 -0.98 2.68 -2 2 C-1.34 2 -0.68 2 0 2 C0 1.34 0 0.68 0 0 Z " fill="#249830" transform="translate(144,54)"/>
<path d="M0 0 C0.99 0.99 1.98 1.98 3 3 C0.525 4.485 0.525 4.485 -2 6 C-2 4.68 -2 3.36 -2 2 C-1.34 2 -0.68 2 0 2 C0 1.34 0 0.68 0 0 Z " fill="#76CF83" transform="translate(92,40)"/>
<path d="M0 0 C-3.44450737 2.29633824 -5.93812283 2.54016485 -10 3 C-7.29536552 -0.8183075 -4.37912428 -0.24787496 0 0 Z " fill="#D5FCDB" transform="translate(144,181)"/>
<path d="M0 0 C0.33 0.99 0.66 1.98 1 3 C-0.32 3.99 -1.64 4.98 -3 6 C-3 4.68 -3 3.36 -3 2 C-3.66 1.67 -4.32 1.34 -5 1 C-3 0 -3 0 0 0 Z " fill="#289237" transform="translate(164,151)"/>
<path d="M0 0 C2.91517292 1.07401108 4.77810176 1.77810176 7 4 C6.67 4.99 6.34 5.98 6 7 C4.02 4.69 2.04 2.38 0 0 Z " fill="#CEF3CF" transform="translate(100,129)"/>
<path d="M0 0 C0.66 0.33 1.32 0.66 2 1 C1.67 2.65 1.34 4.3 1 6 C-0.65 6 -2.3 6 -4 6 C-3.0022242 3.00667261 -2.2477975 2.05233685 0 0 Z " fill="#239E31" transform="translate(61,78)"/>
<path d="M0 0 C-5.75 3.875 -5.75 3.875 -8 5 C-8 3.68 -8 2.36 -8 1 C-2.25 -1.125 -2.25 -1.125 0 0 Z " fill="#CDF0CE" transform="translate(88,76)"/>
<path d="M0 0 C0.66 1.32 1.32 2.64 2 4 C0.02 4.99 0.02 4.99 -2 6 C-2.33 5.01 -2.66 4.02 -3 3 C-2.01 2.01 -1.02 1.02 0 0 Z M2 1 C4 2 4 2 4 2 Z " fill="#32A343" transform="translate(77,56)"/>
<path d="M0 0 C1.32 1.32 2.64 2.64 4 4 C3.01 4.66 2.02 5.32 1 6 C0.34 5.34 -0.32 4.68 -1 4 C-0.625 1.875 -0.625 1.875 0 0 Z " fill="#379B47" transform="translate(227,13)"/>
</svg>
