<?xml version="1.0" encoding="UTF-8"?>
<svg version="1.1" xmlns="http://www.w3.org/2000/svg" width="360" height="360">
<path d="M0 0 C118.8 0 237.6 0 360 0 C360 118.8 360 237.6 360 360 C241.2 360 122.4 360 0 360 C0 241.2 0 122.4 0 0 Z " fill="#F3F4F3" transform="translate(0,0)"/>
<path d="M0 0 C0.68199099 -0.00367669 1.36398198 -0.00735338 2.06663936 -0.01114148 C4.33935084 -0.02210593 6.61201649 -0.02600978 8.88475037 -0.02983093 C10.51969546 -0.03610114 12.15463915 -0.04274844 13.7895813 -0.04974365 C19.14868692 -0.07072322 24.50779263 -0.08114155 29.8669281 -0.09111023 C31.71717277 -0.09516031 33.56741729 -0.09927731 35.41766167 -0.10346031 C44.1138804 -0.12249998 52.81009071 -0.13673258 61.50632626 -0.14507228 C71.51909571 -0.15483503 81.53164353 -0.18113455 91.54433495 -0.22157317 C99.30001078 -0.25181304 107.05562336 -0.26654867 114.81135696 -0.26985329 C119.4356741 -0.27219511 124.05975415 -0.28104163 128.68400764 -0.30631447 C133.04009967 -0.32973796 137.39580089 -0.33377162 141.75193977 -0.32355309 C143.3413168 -0.32306104 144.93071402 -0.32928255 146.52003098 -0.34310913 C159.92843589 -0.45313137 173.10722626 1.22744807 183.55052185 10.39717102 C194.3991958 22.6367006 196.58979825 33.55078782 196.48973083 49.57710266 C196.49352039 51.31617672 196.49902565 53.05524774 196.50610352 54.79431152 C196.51999142 59.48852673 196.50893591 64.18237266 196.4923923 68.87656713 C196.4784751 73.80461574 196.48500936 78.73264436 196.48852539 83.66070557 C196.491222 91.93302821 196.47779834 100.20520529 196.45457458 108.47749329 C196.42795955 118.02346242 196.42622263 127.56918845 196.43796295 137.11518198 C196.44876411 146.32292781 196.44253588 155.53058622 196.42840767 164.73832512 C196.42266903 168.64597594 196.42271377 172.55356235 196.42747307 176.46121407 C196.43226622 181.066869 196.42204486 185.67225971 196.40051842 190.27786446 C196.39498244 191.96201181 196.39445572 193.64618472 196.39947128 195.33033371 C196.43468823 208.85796458 194.59679946 218.74420405 186.98802185 230.14717102 C186.41052185 231.05467102 185.83302185 231.96217102 185.23802185 232.89717102 C175.78526014 242.34993274 163.97221152 244.52253411 151.09980774 244.55375671 C149.55107 244.54792562 148.00233341 244.54178123 146.45359802 244.53535461 C144.79835668 244.53942635 143.14311806 244.54477159 141.48788452 244.55128479 C137.01660352 244.56489587 132.54553151 244.55968467 128.07424712 244.55014753 C123.37714971 244.5425148 118.68006936 244.54960689 113.98297119 244.55430603 C106.09391595 244.55975471 98.20494512 244.55259699 90.31590271 244.5382843 C81.22274372 244.52197651 72.12978677 244.52723628 63.03663272 244.54376352 C55.20442812 244.55742406 47.37228398 244.5592753 39.54007131 244.55144751 C34.87340288 244.54679383 30.20682904 244.54608182 25.54016685 244.55605698 C21.14792732 244.56479052 16.75594532 244.55858943 12.36373329 244.54137421 C10.76147003 244.53744246 9.15918471 244.5384858 7.55693054 244.5451622 C-7.03181534 244.60029728 -19.93617185 243.567173 -31.01197815 233.14717102 C-33.45718013 230.31481206 -35.23781046 227.42956972 -37.01197815 224.14717102 C-37.37711989 223.48316725 -37.74226164 222.81916348 -38.11846828 222.13503838 C-42.03550006 213.83429445 -41.58264784 205.27303441 -41.54542542 196.3117218 C-41.55249266 194.51692499 -41.56124105 192.72213413 -41.5715332 190.92735291 C-41.59394805 186.0759559 -41.59110578 181.22488636 -41.58221173 176.37345743 C-41.57708448 172.31303812 -41.58440858 168.25267941 -41.5916838 164.19226635 C-41.60865815 154.6076815 -41.60514232 145.02325595 -41.58839417 135.43867493 C-41.57147867 125.57400678 -41.5873052 115.70978135 -41.61961704 105.84516156 C-41.64636935 97.35393901 -41.65357363 88.86285379 -41.64510196 80.37159336 C-41.64018878 75.30973856 -41.64230081 70.24814994 -41.66288948 65.18632889 C-41.68133515 60.42379537 -41.67517999 55.66189512 -41.65069008 50.89939499 C-41.64571009 49.15964315 -41.6490982 47.41984232 -41.66183853 45.68013 C-41.74386591 33.50877624 -40.34588855 22.72227119 -32.58229065 12.73701477 C-23.49176921 3.53342715 -12.70569064 0.04463516 0 0 Z " fill="#29A53A" transform="translate(103.01197814941406,57.85282897949219)"/>
<path d="M0 0 C0 0.66 0 1.32 0 2 C0.53625 2.2475 1.0725 2.495 1.625 2.75 C15.40988322 10.0052017 24.21441399 23.43617335 29 38 C33.55687666 52.93930587 31.95399849 70.734357 25.234375 84.7421875 C15.36635293 102.79192408 1.69478488 115.42058783 -18.3125 121.4375 C-33.46151821 125.07638788 -49.13734872 123.73068505 -63.2109375 117.0234375 C-68.74746508 114.99182654 -72.76030831 116.02455418 -78.0625 118.25 C-86.49994805 121.64814842 -94.97809859 124.65545433 -104 126 C-103.32368237 122.11856386 -102.22107586 118.56024721 -100.8984375 114.8515625 C-100.28742188 113.09585938 -100.28742188 113.09585938 -99.6640625 111.3046875 C-98.80626491 108.8560653 -97.93909903 106.41070445 -97.0625 103.96875 C-96.45535156 102.20917969 -96.45535156 102.20917969 -95.8359375 100.4140625 C-95.46001465 99.3513916 -95.0840918 98.2887207 -94.69677734 97.19384766 C-93.58171849 92.08270542 -94.38945601 87.61933066 -96.875 83.0625 C-104.23805691 67.36897724 -103.06625362 49.2066357 -98.0859375 33.03125 C-96.25520484 28.20883227 -93.89546247 23.89159655 -91.05078125 19.59375 C-89.93714848 17.97343429 -89.93714848 17.97343429 -89 16 C-88.01 16 -87.02 16 -86 16 C-85.835 15.319375 -85.67 14.63875 -85.5 13.9375 C-83.31008067 9.64890797 -79.87999001 6.80490944 -76 4 C-75.34 4 -74.68 4 -74 4 C-74 3.34 -74 2.68 -74 2 C-48.80803374 -11.45915964 -25.97488556 -12.75130745 0 0 Z " fill="#29A43A" transform="translate(218,122)"/>
<path d="M0 0 C0.7035965 -0.00175232 1.40719299 -0.00350464 2.1321106 -0.00531006 C4.45154315 -0.0096973 6.77089873 -0.00679586 9.09033203 -0.00341797 C10.72820042 -0.00409325 12.36606872 -0.00506514 14.00393677 -0.00631714 C17.4453425 -0.00779103 20.88672229 -0.00565444 24.328125 -0.00097656 C28.66466775 0.00464046 33.00114801 0.00140506 37.33768845 -0.00442886 C55.82602602 -0.02539298 74.2571783 0.10777397 92.72314453 1.12939453 C92.72314453 2.77939453 92.72314453 4.42939453 92.72314453 6.12939453 C91.73314453 6.12939453 90.74314453 6.12939453 89.72314453 6.12939453 C89.72314453 7.11939453 89.72314453 8.10939453 89.72314453 9.12939453 C89.09448486 9.42072266 88.4658252 9.71205078 87.81811523 10.01220703 C72.92058869 16.94521856 58.68619783 23.90955998 45.72314453 34.12939453 C45.01931641 34.66048828 44.31548828 35.19158203 43.59033203 35.73876953 C28.98430292 46.83324461 15.55706062 59.80321826 5.07861328 74.90283203 C4.41152344 75.86141113 4.41152344 75.86141113 3.73095703 76.83935547 C2.86682558 78.09272956 2.01346238 79.35361334 1.17236328 80.62255859 C-1.7657146 84.91128247 -1.7657146 84.91128247 -4.38232422 86.02783203 C-6.01184602 86.11518784 -7.64499385 86.12939453 -9.27685547 86.12939453 C-9.27685547 87.44939453 -9.27685547 88.76939453 -9.27685547 90.12939453 C-9.81508923 94.97349842 -11.25973826 98.74435712 -13.27685547 103.12939453 C-13.93685547 103.12939453 -14.59685547 103.12939453 -15.27685547 103.12939453 C-15.27685547 103.78939453 -15.27685547 104.44939453 -15.27685547 105.12939453 C-15.75123047 105.56251953 -16.22560547 105.99564453 -16.71435547 106.44189453 C-18.69068633 108.57633186 -18.89348783 110.29247401 -19.27685547 113.12939453 C-22.03949836 113.72672272 -24.43718316 114.12939453 -27.27685547 114.12939453 C-28.2970512 115.10878244 -29.29835352 116.10834902 -30.27685547 117.12939453 C-30.93685547 117.12939453 -31.59685547 117.12939453 -32.27685547 117.12939453 C-32.30383736 115.50448499 -32.32324304 113.8794482 -32.33935547 112.25439453 C-32.35095703 111.34947266 -32.36255859 110.44455078 -32.37451172 109.51220703 C-32.27685547 107.12939453 -32.27685547 107.12939453 -31.27685547 105.12939453 C-30.61685547 105.12939453 -29.95685547 105.12939453 -29.27685547 105.12939453 C-29.77185547 102.65439453 -29.77185547 102.65439453 -30.27685547 100.12939453 C-30.93685547 101.77939453 -31.59685547 103.42939453 -32.27685547 105.12939453 C-32.60685547 105.12939453 -32.93685547 105.12939453 -33.27685547 105.12939453 C-33.36982659 94.87147543 -33.44075751 84.61365775 -33.48410416 74.35540199 C-33.50491589 69.59127468 -33.53311536 64.82743715 -33.57861328 60.06347656 C-33.62230111 55.45986486 -33.64604074 50.85653064 -33.65636444 46.25272751 C-33.66371486 44.5025636 -33.67806793 42.75241365 -33.6997757 41.00236893 C-33.90863857 23.45501848 -33.90863857 23.45501848 -29.27685547 15.12939453 C-28.69935547 14.05689453 -28.12185547 12.98439453 -27.52685547 11.87939453 C-20.03026043 2.71688949 -11.55823145 0.00727263 0 0 Z " fill="#A9DBB0" transform="translate(107.27685546875,70.87060546875)"/>
<path d="M0 0 C0 0.66 0 1.32 0 2 C0.53625 2.2475 1.0725 2.495 1.625 2.75 C15.40988322 10.0052017 24.21441399 23.43617335 29 38 C33.55687666 52.93930587 31.95399849 70.734357 25.234375 84.7421875 C15.36635293 102.79192408 1.69478488 115.42058783 -18.3125 121.4375 C-33.46151821 125.07638788 -49.13734872 123.73068505 -63.2109375 117.0234375 C-68.74746508 114.99182654 -72.76030831 116.02455418 -78.0625 118.25 C-86.49994805 121.64814842 -94.97809859 124.65545433 -104 126 C-103.32368237 122.11856386 -102.22107586 118.56024721 -100.8984375 114.8515625 C-100.28742188 113.09585938 -100.28742188 113.09585938 -99.6640625 111.3046875 C-98.80626491 108.8560653 -97.93909903 106.41070445 -97.0625 103.96875 C-96.45535156 102.20917969 -96.45535156 102.20917969 -95.8359375 100.4140625 C-95.46001465 99.3513916 -95.0840918 98.2887207 -94.69677734 97.19384766 C-93.58171849 92.08270542 -94.38945601 87.61933066 -96.875 83.0625 C-104.23805691 67.36897724 -103.06625362 49.2066357 -98.0859375 33.03125 C-96.25520484 28.20883227 -93.89546247 23.89159655 -91.05078125 19.59375 C-89.93714848 17.97343429 -89.93714848 17.97343429 -89 16 C-88.01 16 -87.02 16 -86 16 C-85.835 15.319375 -85.67 14.63875 -85.5 13.9375 C-83.31008067 9.64890797 -79.87999001 6.80490944 -76 4 C-75.34 4 -74.68 4 -74 4 C-74 3.34 -74 2.68 -74 2 C-48.80803374 -11.45915964 -25.97488556 -12.75130745 0 0 Z M-80.48828125 22.93359375 C-82.19681243 24.84230492 -82.19681243 24.84230492 -82 27 C-82.66 27 -83.32 27 -84 27 C-85.49821059 30.37097383 -86 32.20442119 -86 36 C-86.66 36 -87.32 36 -88 36 C-93.7980866 49.1147197 -92.3382991 64.83939039 -87.3828125 77.921875 C-86.2542556 80.4340299 -85.07549703 82.72953275 -83.625 85.0625 C-81.58696083 88.74664773 -82.08282281 89.9605175 -83 94 C-84.02493316 97.38069038 -85.13725955 100.72415184 -86.2578125 104.07421875 C-87.28867834 107.03360682 -87.28867834 107.03360682 -86 110 C-84.02 109.505 -84.02 109.505 -82 109 C-82 108.34 -82 107.68 -82 107 C-80.865625 106.87625 -79.73125 106.7525 -78.5625 106.625 C-75.38842618 106.26048622 -72.50154796 105.57723214 -69.4375 104.6875 C-65.70091675 103.81733678 -65.15153191 103.92822173 -61.4375 105.6875 C-60.59832031 106.25984375 -60.59832031 106.25984375 -59.7421875 106.84375 C-54.44755304 110.3576778 -48.26661486 111.66863934 -42 112 C-40.81019531 112.06445312 -39.62039062 112.12890625 -38.39453125 112.1953125 C-22.19851957 112.78551451 -7.58866897 107.77906654 4.47265625 96.6796875 C6.33894163 94.62725089 7.34618902 92.69697031 8 90 C8.66 90 9.32 90 10 90 C19.51679694 77.27271734 22.02847097 61.53247426 20 46 C18.04291826 37.42768877 14.26998693 29.02664924 9 22 C8.34 22 7.68 22 7 22 C6.73058594 21.39929688 6.46117187 20.79859375 6.18359375 20.1796875 C1.4821155 11.52151964 -10.21979327 6.797492 -19 3.625 C-42.57266725 -3.03805796 -64.6618108 4.77719408 -80.48828125 22.93359375 Z " fill="#F3FBF4" transform="translate(218,122)"/>
<path d="M0 0 C4.75 0.875 4.75 0.875 7 2 C7 3.32 7 4.64 7 6 C10.0745356 5.2236068 10.0745356 5.2236068 12 3 C12.99 3 13.98 3 15 3 C15 2.34 15 1.68 15 1 C15.66 1 16.32 1 17 1 C16.45823983 3.34762739 15.80854212 5.49553804 14.9375 7.75 C12.66551418 15.6262175 14.17524676 21.02192355 18 28 C23.68690309 38.05722412 31.97532642 48.83974582 43 53 C43 53.66 43 54.32 43 55 C45.99409505 56.01839968 48.99544425 57.0129264 52 58 C53.175625 58.391875 54.35125 58.78375 55.5625 59.1875 C61.88521324 60.68195949 66.85196571 60.18596775 73 58 C75.875 57.875 75.875 57.875 78 58 C76.75 59.5 76.75 59.5 75 61 C73.68 61 72.36 61 71 61 C71.495 63.97 71.495 63.97 72 67 C73.65 67.33 75.3 67.66 77 68 C76.01 68.495 76.01 68.495 75 69 C75 69.66 75 70.32 75 71 C74.34 71 73.68 71 73 71 C73.33 72.98 73.66 74.96 74 77 C62.99944619 85.80044305 49.21878044 86.04091925 35.85546875 84.6796875 C28.55288748 83.55621346 22.1451945 81.09679633 16 77 C13.96022073 77.15888667 13.96022073 77.15888667 11.8125 77.8125 C7.53672704 78.8989669 3.38413592 79.52173063 -1 80 C-1 80.66 -1 81.32 -1 82 C-3.475 82.495 -3.475 82.495 -6 83 C-5.14156893 78.07159574 -4.26597887 73.37383072 -2.3125 68.75 C-0.85935993 64.59817124 -0.67588113 63.13787147 -2 59 C-2.77161922 57.4068006 -3.56572567 55.82440643 -4.375 54.25 C-10.82169972 41.58083358 -12.65183808 26.58946027 -8.5 12.75 C-8.03014741 11.48835879 -7.54437441 10.23132307 -7 9 C-6.34 9 -5.68 9 -5 9 C-4.67 8.01 -4.34 7.02 -4 6 C-3.01 5.34 -2.02 4.68 -1 4 C-0.27617533 1.94074861 -0.27617533 1.94074861 0 0 Z " fill="#29A439" transform="translate(137,149)"/>
<path d="M0 0 C0.33 0 0.66 0 1 0 C1.00146656 0.91330015 1.00293312 1.8266003 1.00444412 2.76757622 C1.0415287 25.01113731 1.10056544 47.25454623 1.18390274 69.49798393 C1.22367747 80.25484333 1.25607795 91.01162973 1.27099609 101.76855469 C1.28402069 111.14652556 1.31100609 120.52433572 1.35461307 129.90221608 C1.37720959 134.8657345 1.39291176 139.82905482 1.39188385 144.79262924 C1.39113618 149.46962472 1.40913014 154.14618259 1.44116783 158.8230648 C1.44964916 160.53460505 1.45142882 162.24619449 1.44580269 163.95774651 C1.40812031 177.18916717 3.12898026 187.38616732 12.3125 197.5625 C15.38786876 200.35178795 18.57801321 202.65157769 22 205 C21.01 205.33 20.02 205.66 19 206 C16.4375 204.625 16.4375 204.625 14 203 C13.34 202.67 12.68 202.34 12 202 C11.67 207.61 11.34 213.22 11 219 C3.08 219 -4.84 219 -13 219 C-13 211.08 -13 203.16 -13 195 C-20.92 195 -28.84 195 -37 195 C-37 187.08 -37 179.16 -37 171 C-29.08 171 -21.16 171 -13 171 C-13 163.08 -13 155.16 -13 147 C-9.7 147 -6.4 147 -3 147 C-3 142.05 -3 137.1 -3 132 C-2.01 131.67 -1.02 131.34 0 131 C0 87.77 0 44.54 0 0 Z " fill="#E6EEE5" transform="translate(61,93)"/>
<path d="M0 0 C6.91248038 13.22095761 6.91248038 13.22095761 6 19 C5.319375 19.66 4.63875 20.32 3.9375 21 C1.71733319 22.82768781 1.71733319 22.82768781 2 25.4375 C3.184081 28.47170755 4.9185767 30.51572058 7 33 C7 33.66 7 34.32 7 35 C8.485 35.495 8.485 35.495 10 36 C11.02019573 36.9793879 12.02149805 37.97895449 13 39 C13.66 39.33 14.32 39.66 15 40 C15 40.66 15 41.32 15 42 C18.63 42.99 22.26 43.98 26 45 C26.845625 43.824375 27.69125 42.64875 28.5625 41.4375 C31.52846828 38.03698288 31.52846828 38.03698288 35.1875 37.75 C40.35547418 39.08855187 45.22543703 41.66020513 50 44 C50.51167924 47.13403534 50.65284669 49.87919501 50 53 C46.85299286 57.06863066 43.14169491 60.12591187 38 61 C29.4453082 61.76381177 21.53189153 58.98114267 14 55 C14 54.34 14 53.68 14 53 C12.7625 52.7215625 12.7625 52.7215625 11.5 52.4375 C-0.43828541 47.53427564 -10.25772276 33.55377655 -15.3125 22 C-16.89225577 15.1065203 -16.35980926 10.23964577 -13 4 C-9.61914588 -1.07128119 -5.56261537 -0.42789349 0 0 Z " fill="#F6FBF6" transform="translate(166,149)"/>
<path d="M0 0 C-0.33 0.99 -0.66 1.98 -1 3 C-0.01 3.33 0.98 3.66 2 4 C2.99 4.66 3.98 5.32 5 6 C5 6.66 5 7.32 5 8 C65.39 8.495 65.39 8.495 127 9 C126.67 9.66 126.34 10.32 126 11 C123.69 11 121.38 11 119 11 C119 11.66 119 12.32 119 13 C117.2675 13.4021875 117.2675 13.4021875 115.5 13.8125 C112.46516906 14.56177442 109.59780696 15.48571471 106.6875 16.625 C103 18 103 18 100 18 C100 17.34 100 16.68 100 16 C100.99 16 101.98 16 103 16 C103 14.35 103 12.7 103 11 C90.09980038 10.95361078 77.19962068 10.91809727 64.29935455 10.89637566 C58.30891468 10.88594913 52.31853198 10.87181048 46.328125 10.84912109 C40.54448384 10.82735254 34.7608976 10.81542286 28.97721863 10.81024551 C26.77328121 10.80655698 24.56934671 10.79935421 22.36543274 10.78853989 C19.27285319 10.77397179 16.1804991 10.7720243 13.08789062 10.77294922 C12.18157898 10.76575867 11.27526733 10.75856812 10.3414917 10.75115967 C0.65416437 10.78240468 -6.19767856 12.7693835 -13.625 19.3125 C-16.35039957 22.39650477 -18.05444403 25.37724061 -20 29 C-20.66 29.99 -21.32 30.98 -22 32 C-22.33 29.69 -22.66 27.38 -23 25 C-23.66 25 -24.32 25 -25 25 C-25.33 24.34 -25.66 23.68 -26 23 C-27.32 23.99 -28.64 24.98 -30 26 C-30.93036228 14.56688133 -30.93036228 14.56688133 -26.75390625 9.62890625 C-18.41230011 1.8818021 -11.31374328 -1.86048223 0 0 Z " fill="#2BA23B" transform="translate(97,61)"/>
<path d="M0 0 C0.33 0 0.66 0 1 0 C1.33 23.1 1.66 46.2 2 70 C2.99 69.01 3.98 68.02 5 67 C5 69.31 5 71.62 5 74 C4.34 74 3.68 74 3 74 C3.020625 75.2375 3.04125 76.475 3.0625 77.75 C3.06766681 80.6640825 2.93015558 83.20953327 2 86 C2.66 86 3.32 86 4 86 C4.495 85.01 4.495 85.01 5 84 C7 82 7 82 10.625 81.875 C11.73875 81.91625 12.8525 81.9575 14 82 C14.12375 81.236875 14.2475 80.47375 14.375 79.6875 C15 77 15 77 17 74 C17.66 74 18.32 74 19 74 C19 73.34 19 72.68 19 72 C19.66 72 20.32 72 21 72 C21.66 69.03 22.32 66.06 23 63 C23.66 63 24.32 63 25 63 C24.01 59.535 24.01 59.535 23 56 C25 54 25 54 28 53 C29.485 53.495 29.485 53.495 31 54 C29.80858104 57.35763526 28.26451741 60.35610086 26.5 63.4375 C24.5503746 66.87666222 23.07845467 70.17638798 22 74 C21.34 74 20.68 74 20 74 C19.7525 74.969375 19.505 75.93875 19.25 76.9375 C18.45201268 79.74998676 17.44093743 82.29868436 16.1875 84.9375 C13.1025497 91.72439066 11.04823411 98.84799447 9 106 C8.77634766 106.77843262 8.55269531 107.55686523 8.32226562 108.35888672 C4.80183795 120.84934394 2.92206134 133.06361707 2 146 C1.34 146 0.68 146 0 146 C0 97.82 0 49.64 0 0 Z " fill="#58B965" transform="translate(73,102)"/>
<path d="M0 0 C0.33 0.66 0.66 1.32 1 2 C0.67 2.66 0.34 3.32 0 4 C6.6 4 13.2 4 20 4 C20 11.92 20 19.84 20 28 C12.08 28 4.16 28 -4 28 C-4 21.73 -4 15.46 -4 9 C-4.66 8.67 -5.32 8.34 -6 8 C-4.02 5.36 -2.04 2.72 0 0 Z " fill="#EDEDED" transform="translate(292,284)"/>
<path d="M0 0 C7.92 0 15.84 0 24 0 C24 7.92 24 15.84 24 24 C16.08 24 8.16 24 0 24 C0 16.08 0 8.16 0 0 Z " fill="#EDEDED" transform="translate(336,336)"/>
<path d="M0 0 C7.92 0 15.84 0 24 0 C24 7.92 24 15.84 24 24 C16.08 24 8.16 24 0 24 C0 16.08 0 8.16 0 0 Z " fill="#FFFFFF" transform="translate(312,336)"/>
<path d="M0 0 C7.92 0 15.84 0 24 0 C24 7.92 24 15.84 24 24 C16.08 24 8.16 24 0 24 C0 16.08 0 8.16 0 0 Z " fill="#EDEDED" transform="translate(288,336)"/>
<path d="M0 0 C7.92 0 15.84 0 24 0 C24 7.92 24 15.84 24 24 C16.08 24 8.16 24 0 24 C0 16.08 0 8.16 0 0 Z " fill="#FFFFFF" transform="translate(264,336)"/>
<path d="M0 0 C7.92 0 15.84 0 24 0 C24 7.92 24 15.84 24 24 C16.08 24 8.16 24 0 24 C0 16.08 0 8.16 0 0 Z " fill="#EDEDED" transform="translate(240,336)"/>
<path d="M0 0 C7.92 0 15.84 0 24 0 C24 7.92 24 15.84 24 24 C16.08 24 8.16 24 0 24 C0 16.08 0 8.16 0 0 Z " fill="#FFFFFF" transform="translate(216,336)"/>
<path d="M0 0 C7.92 0 15.84 0 24 0 C24 7.92 24 15.84 24 24 C16.08 24 8.16 24 0 24 C0 16.08 0 8.16 0 0 Z " fill="#EDEDED" transform="translate(192,336)"/>
<path d="M0 0 C7.92 0 15.84 0 24 0 C24 7.92 24 15.84 24 24 C16.08 24 8.16 24 0 24 C0 16.08 0 8.16 0 0 Z " fill="#FFFFFF" transform="translate(168,336)"/>
<path d="M0 0 C7.92 0 15.84 0 24 0 C24 7.92 24 15.84 24 24 C16.08 24 8.16 24 0 24 C0 16.08 0 8.16 0 0 Z " fill="#EDEDED" transform="translate(144,336)"/>
<path d="M0 0 C7.92 0 15.84 0 24 0 C24 7.92 24 15.84 24 24 C16.08 24 8.16 24 0 24 C0 16.08 0 8.16 0 0 Z " fill="#FFFFFF" transform="translate(120,336)"/>
<path d="M0 0 C7.92 0 15.84 0 24 0 C24 7.92 24 15.84 24 24 C16.08 24 8.16 24 0 24 C0 16.08 0 8.16 0 0 Z " fill="#EDEDED" transform="translate(96,336)"/>
<path d="M0 0 C7.92 0 15.84 0 24 0 C24 7.92 24 15.84 24 24 C16.08 24 8.16 24 0 24 C0 16.08 0 8.16 0 0 Z " fill="#FFFFFF" transform="translate(72,336)"/>
<path d="M0 0 C7.92 0 15.84 0 24 0 C24 7.92 24 15.84 24 24 C16.08 24 8.16 24 0 24 C0 16.08 0 8.16 0 0 Z " fill="#EDEDED" transform="translate(48,336)"/>
<path d="M0 0 C7.92 0 15.84 0 24 0 C24 7.92 24 15.84 24 24 C16.08 24 8.16 24 0 24 C0 16.08 0 8.16 0 0 Z " fill="#FFFFFF" transform="translate(24,336)"/>
<path d="M0 0 C7.92 0 15.84 0 24 0 C24 7.92 24 15.84 24 24 C16.08 24 8.16 24 0 24 C0 16.08 0 8.16 0 0 Z " fill="#EDEDED" transform="translate(0,336)"/>
<path d="M0 0 C7.92 0 15.84 0 24 0 C24 7.92 24 15.84 24 24 C16.08 24 8.16 24 0 24 C0 16.08 0 8.16 0 0 Z " fill="#FFFFFF" transform="translate(336,312)"/>
<path d="M0 0 C7.92 0 15.84 0 24 0 C24 7.92 24 15.84 24 24 C16.08 24 8.16 24 0 24 C0 16.08 0 8.16 0 0 Z " fill="#EDEDED" transform="translate(312,312)"/>
<path d="M0 0 C7.92 0 15.84 0 24 0 C24 7.92 24 15.84 24 24 C16.08 24 8.16 24 0 24 C0 16.08 0 8.16 0 0 Z " fill="#FFFFFF" transform="translate(288,312)"/>
<path d="M0 0 C7.92 0 15.84 0 24 0 C24 7.92 24 15.84 24 24 C16.08 24 8.16 24 0 24 C0 16.08 0 8.16 0 0 Z " fill="#EDEDED" transform="translate(264,312)"/>
<path d="M0 0 C7.92 0 15.84 0 24 0 C24 7.92 24 15.84 24 24 C16.08 24 8.16 24 0 24 C0 16.08 0 8.16 0 0 Z " fill="#FFFFFF" transform="translate(240,312)"/>
<path d="M0 0 C7.92 0 15.84 0 24 0 C24 7.92 24 15.84 24 24 C16.08 24 8.16 24 0 24 C0 16.08 0 8.16 0 0 Z " fill="#EDEDED" transform="translate(216,312)"/>
<path d="M0 0 C7.92 0 15.84 0 24 0 C24 7.92 24 15.84 24 24 C16.08 24 8.16 24 0 24 C0 16.08 0 8.16 0 0 Z " fill="#FFFFFF" transform="translate(192,312)"/>
<path d="M0 0 C7.92 0 15.84 0 24 0 C24 7.92 24 15.84 24 24 C16.08 24 8.16 24 0 24 C0 16.08 0 8.16 0 0 Z " fill="#EDEDED" transform="translate(168,312)"/>
<path d="M0 0 C7.92 0 15.84 0 24 0 C24 7.92 24 15.84 24 24 C16.08 24 8.16 24 0 24 C0 16.08 0 8.16 0 0 Z " fill="#FFFFFF" transform="translate(144,312)"/>
<path d="M0 0 C7.92 0 15.84 0 24 0 C24 7.92 24 15.84 24 24 C16.08 24 8.16 24 0 24 C0 16.08 0 8.16 0 0 Z " fill="#EDEDED" transform="translate(120,312)"/>
<path d="M0 0 C7.92 0 15.84 0 24 0 C24 7.92 24 15.84 24 24 C16.08 24 8.16 24 0 24 C0 16.08 0 8.16 0 0 Z " fill="#FFFFFF" transform="translate(96,312)"/>
<path d="M0 0 C7.92 0 15.84 0 24 0 C24 7.92 24 15.84 24 24 C16.08 24 8.16 24 0 24 C0 16.08 0 8.16 0 0 Z " fill="#EDEDED" transform="translate(72,312)"/>
<path d="M0 0 C7.92 0 15.84 0 24 0 C24 7.92 24 15.84 24 24 C16.08 24 8.16 24 0 24 C0 16.08 0 8.16 0 0 Z " fill="#FFFFFF" transform="translate(48,312)"/>
<path d="M0 0 C7.92 0 15.84 0 24 0 C24 7.92 24 15.84 24 24 C16.08 24 8.16 24 0 24 C0 16.08 0 8.16 0 0 Z " fill="#EDEDED" transform="translate(24,312)"/>
<path d="M0 0 C7.92 0 15.84 0 24 0 C24 7.92 24 15.84 24 24 C16.08 24 8.16 24 0 24 C0 16.08 0 8.16 0 0 Z " fill="#FFFFFF" transform="translate(0,312)"/>
<path d="M0 0 C7.92 0 15.84 0 24 0 C24 7.92 24 15.84 24 24 C16.08 24 8.16 24 0 24 C0 16.08 0 8.16 0 0 Z " fill="#EDEDED" transform="translate(336,288)"/>
<path d="M0 0 C7.92 0 15.84 0 24 0 C24 7.92 24 15.84 24 24 C16.08 24 8.16 24 0 24 C0 16.08 0 8.16 0 0 Z " fill="#FFFFFF" transform="translate(312,288)"/>
<path d="M0 0 C7.92 0 15.84 0 24 0 C24 7.92 24 15.84 24 24 C16.08 24 8.16 24 0 24 C0 16.08 0 8.16 0 0 Z " fill="#FFFFFF" transform="translate(24,288)"/>
<path d="M0 0 C7.92 0 15.84 0 24 0 C24 7.92 24 15.84 24 24 C16.08 24 8.16 24 0 24 C0 16.08 0 8.16 0 0 Z " fill="#EDEDED" transform="translate(0,288)"/>
<path d="M0 0 C7.92 0 15.84 0 24 0 C24 7.92 24 15.84 24 24 C16.08 24 8.16 24 0 24 C0 16.08 0 8.16 0 0 Z " fill="#FFFFFF" transform="translate(336,264)"/>
<path d="M0 0 C7.92 0 15.84 0 24 0 C24 7.92 24 15.84 24 24 C16.08 24 8.16 24 0 24 C0 16.08 0 8.16 0 0 Z " fill="#EDEDED" transform="translate(312,264)"/>
<path d="M0 0 C7.92 0 15.84 0 24 0 C24 7.92 24 15.84 24 24 C16.08 24 8.16 24 0 24 C0 16.08 0 8.16 0 0 Z " fill="#EDEDED" transform="translate(24,264)"/>
<path d="M0 0 C7.92 0 15.84 0 24 0 C24 7.92 24 15.84 24 24 C16.08 24 8.16 24 0 24 C0 16.08 0 8.16 0 0 Z " fill="#FFFFFF" transform="translate(0,264)"/>
<path d="M0 0 C7.92 0 15.84 0 24 0 C24 7.92 24 15.84 24 24 C16.08 24 8.16 24 0 24 C0 16.08 0 8.16 0 0 Z " fill="#EDEDED" transform="translate(336,240)"/>
<path d="M0 0 C7.92 0 15.84 0 24 0 C24 7.92 24 15.84 24 24 C16.08 24 8.16 24 0 24 C0 16.08 0 8.16 0 0 Z " fill="#FFFFFF" transform="translate(312,240)"/>
<path d="M0 0 C7.92 0 15.84 0 24 0 C24 7.92 24 15.84 24 24 C16.08 24 8.16 24 0 24 C0 16.08 0 8.16 0 0 Z " fill="#FFFFFF" transform="translate(24,240)"/>
<path d="M0 0 C7.92 0 15.84 0 24 0 C24 7.92 24 15.84 24 24 C16.08 24 8.16 24 0 24 C0 16.08 0 8.16 0 0 Z " fill="#EDEDED" transform="translate(0,240)"/>
<path d="M0 0 C7.92 0 15.84 0 24 0 C24 7.92 24 15.84 24 24 C16.08 24 8.16 24 0 24 C0 16.08 0 8.16 0 0 Z " fill="#FFFFFF" transform="translate(336,216)"/>
<path d="M0 0 C7.92 0 15.84 0 24 0 C24 7.92 24 15.84 24 24 C16.08 24 8.16 24 0 24 C0 16.08 0 8.16 0 0 Z " fill="#EDEDED" transform="translate(312,216)"/>
<path d="M0 0 C7.92 0 15.84 0 24 0 C24 7.92 24 15.84 24 24 C16.08 24 8.16 24 0 24 C0 16.08 0 8.16 0 0 Z " fill="#FFFFFF" transform="translate(0,216)"/>
<path d="M0 0 C7.92 0 15.84 0 24 0 C24 7.92 24 15.84 24 24 C16.08 24 8.16 24 0 24 C0 16.08 0 8.16 0 0 Z " fill="#EDEDED" transform="translate(336,192)"/>
<path d="M0 0 C7.92 0 15.84 0 24 0 C24 7.92 24 15.84 24 24 C16.08 24 8.16 24 0 24 C0 16.08 0 8.16 0 0 Z " fill="#FFFFFF" transform="translate(312,192)"/>
<path d="M0 0 C7.92 0 15.84 0 24 0 C24 7.92 24 15.84 24 24 C16.08 24 8.16 24 0 24 C0 16.08 0 8.16 0 0 Z " fill="#FFFFFF" transform="translate(24,192)"/>
<path d="M0 0 C7.92 0 15.84 0 24 0 C24 7.92 24 15.84 24 24 C16.08 24 8.16 24 0 24 C0 16.08 0 8.16 0 0 Z " fill="#EDEDED" transform="translate(0,192)"/>
<path d="M0 0 C7.92 0 15.84 0 24 0 C24 7.92 24 15.84 24 24 C16.08 24 8.16 24 0 24 C0 16.08 0 8.16 0 0 Z " fill="#FFFFFF" transform="translate(336,168)"/>
<path d="M0 0 C7.92 0 15.84 0 24 0 C24 7.92 24 15.84 24 24 C16.08 24 8.16 24 0 24 C0 16.08 0 8.16 0 0 Z " fill="#EDEDED" transform="translate(312,168)"/>
<path d="M0 0 C7.92 0 15.84 0 24 0 C24 7.92 24 15.84 24 24 C16.08 24 8.16 24 0 24 C0 16.08 0 8.16 0 0 Z " fill="#EDEDED" transform="translate(24,168)"/>
<path d="M0 0 C7.92 0 15.84 0 24 0 C24 7.92 24 15.84 24 24 C16.08 24 8.16 24 0 24 C0 16.08 0 8.16 0 0 Z " fill="#FFFFFF" transform="translate(0,168)"/>
<path d="M0 0 C7.92 0 15.84 0 24 0 C24 7.92 24 15.84 24 24 C16.08 24 8.16 24 0 24 C0 16.08 0 8.16 0 0 Z " fill="#EDEDED" transform="translate(336,144)"/>
<path d="M0 0 C7.92 0 15.84 0 24 0 C24 7.92 24 15.84 24 24 C16.08 24 8.16 24 0 24 C0 16.08 0 8.16 0 0 Z " fill="#FFFFFF" transform="translate(312,144)"/>
<path d="M0 0 C7.92 0 15.84 0 24 0 C24 7.92 24 15.84 24 24 C16.08 24 8.16 24 0 24 C0 16.08 0 8.16 0 0 Z " fill="#FFFFFF" transform="translate(24,144)"/>
<path d="M0 0 C7.92 0 15.84 0 24 0 C24 7.92 24 15.84 24 24 C16.08 24 8.16 24 0 24 C0 16.08 0 8.16 0 0 Z " fill="#EDEDED" transform="translate(0,144)"/>
<path d="M0 0 C7.92 0 15.84 0 24 0 C24 7.92 24 15.84 24 24 C16.08 24 8.16 24 0 24 C0 16.08 0 8.16 0 0 Z " fill="#FFFFFF" transform="translate(336,120)"/>
<path d="M0 0 C7.92 0 15.84 0 24 0 C24 7.92 24 15.84 24 24 C16.08 24 8.16 24 0 24 C0 16.08 0 8.16 0 0 Z " fill="#EDEDED" transform="translate(312,120)"/>
<path d="M0 0 C7.92 0 15.84 0 24 0 C24 7.92 24 15.84 24 24 C16.08 24 8.16 24 0 24 C0 16.08 0 8.16 0 0 Z " fill="#EDEDED" transform="translate(24,120)"/>
<path d="M0 0 C7.92 0 15.84 0 24 0 C24 7.92 24 15.84 24 24 C16.08 24 8.16 24 0 24 C0 16.08 0 8.16 0 0 Z " fill="#FFFFFF" transform="translate(0,120)"/>
<path d="M0 0 C7.92 0 15.84 0 24 0 C24 7.92 24 15.84 24 24 C16.08 24 8.16 24 0 24 C0 16.08 0 8.16 0 0 Z " fill="#EDEDED" transform="translate(336,96)"/>
<path d="M0 0 C7.92 0 15.84 0 24 0 C24 7.92 24 15.84 24 24 C16.08 24 8.16 24 0 24 C0 16.08 0 8.16 0 0 Z " fill="#FFFFFF" transform="translate(312,96)"/>
<path d="M0 0 C7.92 0 15.84 0 24 0 C24 7.92 24 15.84 24 24 C16.08 24 8.16 24 0 24 C0 16.08 0 8.16 0 0 Z " fill="#FFFFFF" transform="translate(24,96)"/>
<path d="M0 0 C7.92 0 15.84 0 24 0 C24 7.92 24 15.84 24 24 C16.08 24 8.16 24 0 24 C0 16.08 0 8.16 0 0 Z " fill="#EDEDED" transform="translate(0,96)"/>
<path d="M0 0 C7.92 0 15.84 0 24 0 C24 7.92 24 15.84 24 24 C16.08 24 8.16 24 0 24 C0 16.08 0 8.16 0 0 Z " fill="#FFFFFF" transform="translate(336,72)"/>
<path d="M0 0 C7.92 0 15.84 0 24 0 C24 7.92 24 15.84 24 24 C16.08 24 8.16 24 0 24 C0 16.08 0 8.16 0 0 Z " fill="#EDEDED" transform="translate(312,72)"/>
<path d="M0 0 C7.92 0 15.84 0 24 0 C24 7.92 24 15.84 24 24 C16.08 24 8.16 24 0 24 C0 16.08 0 8.16 0 0 Z " fill="#EDEDED" transform="translate(24,72)"/>
<path d="M0 0 C7.92 0 15.84 0 24 0 C24 7.92 24 15.84 24 24 C16.08 24 8.16 24 0 24 C0 16.08 0 8.16 0 0 Z " fill="#FFFFFF" transform="translate(0,72)"/>
<path d="M0 0 C7.92 0 15.84 0 24 0 C24 7.92 24 15.84 24 24 C16.08 24 8.16 24 0 24 C0 16.08 0 8.16 0 0 Z " fill="#EDEDED" transform="translate(336,48)"/>
<path d="M0 0 C7.92 0 15.84 0 24 0 C24 7.92 24 15.84 24 24 C16.08 24 8.16 24 0 24 C0 16.08 0 8.16 0 0 Z " fill="#FFFFFF" transform="translate(312,48)"/>
<path d="M0 0 C7.92 0 15.84 0 24 0 C24 7.92 24 15.84 24 24 C16.08 24 8.16 24 0 24 C0 16.08 0 8.16 0 0 Z " fill="#FFFFFF" transform="translate(24,48)"/>
<path d="M0 0 C7.92 0 15.84 0 24 0 C24 7.92 24 15.84 24 24 C16.08 24 8.16 24 0 24 C0 16.08 0 8.16 0 0 Z " fill="#EDEDED" transform="translate(0,48)"/>
<path d="M0 0 C7.92 0 15.84 0 24 0 C24 7.92 24 15.84 24 24 C16.08 24 8.16 24 0 24 C0 16.08 0 8.16 0 0 Z " fill="#FFFFFF" transform="translate(336,24)"/>
<path d="M0 0 C7.92 0 15.84 0 24 0 C24 7.92 24 15.84 24 24 C16.08 24 8.16 24 0 24 C0 16.08 0 8.16 0 0 Z " fill="#EDEDED" transform="translate(312,24)"/>
<path d="M0 0 C7.92 0 15.84 0 24 0 C24 7.92 24 15.84 24 24 C16.08 24 8.16 24 0 24 C0 16.08 0 8.16 0 0 Z " fill="#FFFFFF" transform="translate(288,24)"/>
<path d="M0 0 C7.92 0 15.84 0 24 0 C24 7.92 24 15.84 24 24 C16.08 24 8.16 24 0 24 C0 16.08 0 8.16 0 0 Z " fill="#FEFFFE" transform="translate(240,24)"/>
<path d="M0 0 C7.92 0 15.84 0 24 0 C24 7.92 24 15.84 24 24 C16.08 24 8.16 24 0 24 C0 16.08 0 8.16 0 0 Z " fill="#FFFFFE" transform="translate(192,24)"/>
<path d="M0 0 C7.92 0 15.84 0 24 0 C24 7.92 24 15.84 24 24 C16.08 24 8.16 24 0 24 C0 16.08 0 8.16 0 0 Z " fill="#EDEDED" transform="translate(168,24)"/>
<path d="M0 0 C7.92 0 15.84 0 24 0 C24 7.92 24 15.84 24 24 C16.08 24 8.16 24 0 24 C0 16.08 0 8.16 0 0 Z " fill="#FFFFFE" transform="translate(144,24)"/>
<path d="M0 0 C7.92 0 15.84 0 24 0 C24 7.92 24 15.84 24 24 C16.08 24 8.16 24 0 24 C0 16.08 0 8.16 0 0 Z " fill="#EDEDED" transform="translate(120,24)"/>
<path d="M0 0 C7.92 0 15.84 0 24 0 C24 7.92 24 15.84 24 24 C16.08 24 8.16 24 0 24 C0 16.08 0 8.16 0 0 Z " fill="#FEFFFF" transform="translate(96,24)"/>
<path d="M0 0 C7.92 0 15.84 0 24 0 C24 7.92 24 15.84 24 24 C16.08 24 8.16 24 0 24 C0 16.08 0 8.16 0 0 Z " fill="#EDEDED" transform="translate(72,24)"/>
<path d="M0 0 C7.92 0 15.84 0 24 0 C24 7.92 24 15.84 24 24 C16.08 24 8.16 24 0 24 C0 16.08 0 8.16 0 0 Z " fill="#FFFFFF" transform="translate(48,24)"/>
<path d="M0 0 C7.92 0 15.84 0 24 0 C24 7.92 24 15.84 24 24 C16.08 24 8.16 24 0 24 C0 16.08 0 8.16 0 0 Z " fill="#EDEDED" transform="translate(24,24)"/>
<path d="M0 0 C7.92 0 15.84 0 24 0 C24 7.92 24 15.84 24 24 C16.08 24 8.16 24 0 24 C0 16.08 0 8.16 0 0 Z " fill="#FFFFFF" transform="translate(0,24)"/>
<path d="M0 0 C7.92 0 15.84 0 24 0 C24 7.92 24 15.84 24 24 C16.08 24 8.16 24 0 24 C0 16.08 0 8.16 0 0 Z " fill="#EDEDED" transform="translate(336,0)"/>
<path d="M0 0 C7.92 0 15.84 0 24 0 C24 7.92 24 15.84 24 24 C16.08 24 8.16 24 0 24 C0 16.08 0 8.16 0 0 Z " fill="#FFFFFF" transform="translate(312,0)"/>
<path d="M0 0 C7.92 0 15.84 0 24 0 C24 7.92 24 15.84 24 24 C16.08 24 8.16 24 0 24 C0 16.08 0 8.16 0 0 Z " fill="#EDEDED" transform="translate(288,0)"/>
<path d="M0 0 C7.92 0 15.84 0 24 0 C24 7.92 24 15.84 24 24 C16.08 24 8.16 24 0 24 C0 16.08 0 8.16 0 0 Z " fill="#FFFFFF" transform="translate(264,0)"/>
<path d="M0 0 C7.92 0 15.84 0 24 0 C24 7.92 24 15.84 24 24 C16.08 24 8.16 24 0 24 C0 16.08 0 8.16 0 0 Z " fill="#EDEDED" transform="translate(240,0)"/>
<path d="M0 0 C7.92 0 15.84 0 24 0 C24 7.92 24 15.84 24 24 C16.08 24 8.16 24 0 24 C0 16.08 0 8.16 0 0 Z " fill="#FFFFFF" transform="translate(216,0)"/>
<path d="M0 0 C7.92 0 15.84 0 24 0 C24 7.92 24 15.84 24 24 C16.08 24 8.16 24 0 24 C0 16.08 0 8.16 0 0 Z " fill="#EDEDED" transform="translate(192,0)"/>
<path d="M0 0 C7.92 0 15.84 0 24 0 C24 7.92 24 15.84 24 24 C16.08 24 8.16 24 0 24 C0 16.08 0 8.16 0 0 Z " fill="#FFFFFF" transform="translate(168,0)"/>
<path d="M0 0 C7.92 0 15.84 0 24 0 C24 7.92 24 15.84 24 24 C16.08 24 8.16 24 0 24 C0 16.08 0 8.16 0 0 Z " fill="#EDEDED" transform="translate(144,0)"/>
<path d="M0 0 C7.92 0 15.84 0 24 0 C24 7.92 24 15.84 24 24 C16.08 24 8.16 24 0 24 C0 16.08 0 8.16 0 0 Z " fill="#FFFFFF" transform="translate(120,0)"/>
<path d="M0 0 C7.92 0 15.84 0 24 0 C24 7.92 24 15.84 24 24 C16.08 24 8.16 24 0 24 C0 16.08 0 8.16 0 0 Z " fill="#EDEDED" transform="translate(96,0)"/>
<path d="M0 0 C7.92 0 15.84 0 24 0 C24 7.92 24 15.84 24 24 C16.08 24 8.16 24 0 24 C0 16.08 0 8.16 0 0 Z " fill="#FFFFFF" transform="translate(72,0)"/>
<path d="M0 0 C7.92 0 15.84 0 24 0 C24 7.92 24 15.84 24 24 C16.08 24 8.16 24 0 24 C0 16.08 0 8.16 0 0 Z " fill="#EDEDED" transform="translate(48,0)"/>
<path d="M0 0 C7.92 0 15.84 0 24 0 C24 7.92 24 15.84 24 24 C16.08 24 8.16 24 0 24 C0 16.08 0 8.16 0 0 Z " fill="#EDEDED" transform="translate(0,0)"/>
<path d="M0 0 C0.66 0 1.32 0 2 0 C2 0.66 2 1.32 2 2 C2.99 2.33 3.98 2.66 5 3 C4.37134033 3.29132813 3.74268066 3.58265625 3.0949707 3.8828125 C-11.80255584 10.81582403 -26.03694671 17.78016545 -39 28 C-40.05574219 28.79664063 -40.05574219 28.79664063 -41.1328125 29.609375 C-52.75583509 38.43801237 -63.93818217 48.52169741 -73 60 C-74.42281643 57.15436715 -73.57172876 55.59564586 -72.75 52.5625 C-72.49734375 51.59441406 -72.2446875 50.62632813 -71.984375 49.62890625 C-70.98086563 46.94889909 -70.33028647 45.63674883 -68 44 C-66.68 44 -65.36 44 -64 44 C-64.12375 42.88625 -64.12375 42.88625 -64.25 41.75 C-64 39 -64 39 -62.5 36.6875 C-58.88907994 34.25012896 -56.3258098 34.8626727 -52 35 C-48.68539295 33.29107501 -48.68539295 33.29107501 -48.3125 29.875 C-48.209375 28.92625 -48.10625 27.9775 -48 27 C-47.01 27.33 -46.02 27.66 -45 28 C-44.67 27.67 -44.34 27.34 -44 27 C-43.175 26.690625 -42.35 26.38125 -41.5 26.0625 C-38.85948248 25.25916961 -38.85948248 25.25916961 -38 23 C-38.66 22.67 -39.32 22.34 -40 22 C-40 21.01 -40 20.02 -40 19 C-39.360625 19.185625 -38.72125 19.37125 -38.0625 19.5625 C-37.0415625 19.7790625 -37.0415625 19.7790625 -36 20 C-35.505 19.505 -35.505 19.505 -35 19 C-34.01 19 -33.02 19 -32 19 C-32 18.34 -32 17.68 -32 17 C-29 15 -29 15 -26 15 C-26 14.34 -26 13.68 -26 13 C-26.66 12.67 -27.32 12.34 -28 12 C-24.02022924 11.1558062 -20.02992782 10.55312735 -16 10 C-16 8.02 -16 6.04 -16 4 C-13.54175698 3.18058566 -12.18175161 2.95695357 -9.625 3.5625 C-6.22091504 4.12984749 -4.13555294 3.35398877 -1 2 C-0.67 1.34 -0.34 0.68 0 0 Z " fill="#7DCB85" transform="translate(192,77)"/>
<path d="M0 0 C3.96 0 7.92 0 12 0 C12 7.92 12 15.84 12 24 C5.4 24 -1.2 24 -8 24 C-5.25925926 13.03703704 -5.25925926 13.03703704 -1.875 10.25 C0.94032371 6.87161154 0.28728367 4.309255 0 0 Z " fill="#FBFDFB" transform="translate(300,264)"/>
<path d="M0 0 C7.92 0 15.84 0 24 0 C24 5.94 24 11.88 24 18 C16.125 16.875 16.125 16.875 12.0625 14.9375 C11.29035156 14.57527344 10.51820313 14.21304688 9.72265625 13.83984375 C9.15417969 13.56269531 8.58570313 13.28554688 8 13 C8 12.01 8 11.02 8 10 C5.36 9.67 2.72 9.34 0 9 C0 6.03 0 3.06 0 0 Z " fill="#FAFDFA" transform="translate(264,48)"/>
<path d="M0 0 C0 6.27 0 12.54 0 19 C-7.92 19 -15.84 19 -24 19 C-24 16.03 -24 13.06 -24 10 C-22.9275 9.855625 -21.855 9.71125 -20.75 9.5625 C-17.22404292 9.11141489 -17.22404292 9.11141489 -14.75 8.375 C-13 8 -13 8 -10 9 C-10.12375 8.2575 -10.2475 7.515 -10.375 6.75 C-10 4 -10 4 -7.25 1.6875 C-4 0 -4 0 0 0 Z " fill="#FCFDFC" transform="translate(288,293)"/>
<path d="M0 0 C-1.19141896 3.35763526 -2.73548259 6.35610086 -4.5 9.4375 C-6.4496254 12.87666222 -7.92154533 16.17638798 -9 20 C-9.66 20 -10.32 20 -11 20 C-11.2475 20.969375 -11.495 21.93875 -11.75 22.9375 C-13.58214946 29.34352613 -16.38921187 35.4032784 -20 41 C-20.66 40.34 -21.32 39.68 -22 39 C-22.99 41.31 -23.98 43.62 -25 46 C-25.33 45.34 -25.66 44.68 -26 44 C-26.66 44 -27.32 44 -28 44 C-28.33 49.94 -28.66 55.88 -29 62 C-29.33 62 -29.66 62 -30 62 C-30.07442019 56.14675648 -30.12872982 50.2937913 -30.16479492 44.44018555 C-30.17983724 42.4508789 -30.20027623 40.46160517 -30.22631836 38.47241211 C-30.26290246 35.60522311 -30.27977218 32.73847441 -30.29296875 29.87109375 C-30.30845261 28.98852402 -30.32393646 28.10595428 -30.33988953 27.19664001 C-30.34137461 21.68904456 -29.5236688 17.91052971 -27 13 C-26.67 13 -26.34 13 -26 13 C-26 15.31 -26 17.62 -26 20 C-26.66 20 -27.32 20 -28 20 C-27.979375 21.2375 -27.95875 22.475 -27.9375 23.75 C-27.93233319 26.6640825 -28.06984442 29.20953327 -29 32 C-28.34 32 -27.68 32 -27 32 C-26.67 31.34 -26.34 30.68 -26 30 C-24 28 -24 28 -20.375 27.875 C-18.704375 27.936875 -18.704375 27.936875 -17 28 C-16.87625 27.236875 -16.7525 26.47375 -16.625 25.6875 C-16 23 -16 23 -14 20 C-13.34 20 -12.68 20 -12 20 C-12 19.34 -12 18.68 -12 18 C-11.34 18 -10.68 18 -10 18 C-9.34 15.03 -8.68 12.06 -8 9 C-7.34 9 -6.68 9 -6 9 C-6.66 6.69 -7.32 4.38 -8 2 C-5.01914162 -0.98085838 -3.92387184 -1.17716155 0 0 Z " fill="#72C77D" transform="translate(104,156)"/>
<path d="M0 0 C0.96813629 0.00141495 1.93627258 0.0028299 2.93374634 0.00428772 C6.01055049 0.0098626 9.08728053 0.02241048 12.1640625 0.03515625 C14.25650936 0.0401745 16.34895737 0.04473684 18.44140625 0.04882812 C23.55732 0.0598238 28.67317871 0.0770711 33.7890625 0.09765625 C33.7890625 0.42765625 33.7890625 0.75765625 33.7890625 1.09765625 C30.28934476 1.27061812 26.78930369 1.43564088 23.2890625 1.59765625 C22.24419678 1.64680176 21.19933105 1.69594727 20.12280273 1.74658203 C14.01701352 2.01553476 7.96019463 2.10089801 1.8515625 1.97265625 C-3.92343815 1.93686079 -8.15971505 2.21124342 -13.2109375 5.09765625 C-13.94219045 7.14528859 -13.94219045 7.14528859 -14.2109375 9.09765625 C-16.8509375 9.42765625 -19.4909375 9.75765625 -22.2109375 10.09765625 C-22.5409375 12.07765625 -22.8709375 14.05765625 -23.2109375 16.09765625 C-27.9609375 17.09765625 -27.9609375 17.09765625 -30.2109375 17.09765625 C-30.1490625 18.02578125 -30.0871875 18.95390625 -30.0234375 19.91015625 C-30.2109375 23.09765625 -30.2109375 23.09765625 -31.7109375 24.78515625 C-32.2059375 25.21828125 -32.7009375 25.65140625 -33.2109375 26.09765625 C-33.2109375 27.08765625 -33.2109375 28.07765625 -33.2109375 29.09765625 C-32.2209375 29.42765625 -31.2309375 29.75765625 -30.2109375 30.09765625 C-31.2109375 33.09765625 -31.2109375 33.09765625 -33.2109375 34.09765625 C-33.68668188 36.63789629 -34.05101297 39.09817089 -34.3359375 41.66015625 C-34.42230469 42.37107422 -34.50867188 43.08199219 -34.59765625 43.81445312 C-34.81028533 45.57454937 -35.01166447 47.33599789 -35.2109375 49.09765625 C-34.5509375 49.42765625 -33.8909375 49.75765625 -33.2109375 50.09765625 C-33.3553125 51.10828125 -33.4996875 52.11890625 -33.6484375 53.16015625 C-34.48579273 59.7752626 -34.80380313 66.44490747 -35.2109375 73.09765625 C-35.5409375 73.09765625 -35.8709375 73.09765625 -36.2109375 73.09765625 C-36.31297168 66.4449586 -36.38266734 59.79246528 -36.43066406 53.13916016 C-36.45068839 50.87931782 -36.47791612 48.6195267 -36.51269531 46.35986328 C-36.56161828 43.09785263 -36.58399882 39.83653138 -36.6015625 36.57421875 C-36.62220764 35.5758902 -36.64285278 34.57756165 -36.66412354 33.54898071 C-36.66699488 24.42298288 -34.05152253 16.23614907 -28.2109375 9.09765625 C-19.16322589 1.32111074 -11.73226241 -0.065008 0 0 Z " fill="#D8F5DE" transform="translate(110.2109375,70.90234375)"/>
<path d="M0 0 C3.465 1.485 3.465 1.485 7 3 C8.6642135 3.67276716 10.32986582 4.34206835 12 5 C12 5.66 12 6.32 12 7 C17.94 7.99 17.94 7.99 24 9 C24 11.97 24 14.94 24 18 C16.08 18 8.16 18 0 18 C0 12.06 0 6.12 0 0 Z " fill="#FEFEFE" transform="translate(72,294)"/>
<path d="M0 0 C3.96 0 7.92 0 12 0 C12 7.92 12 15.84 12 24 C8.04 24 4.08 24 0 24 C0 16.08 0 8.16 0 0 Z " fill="#FEFEFD" transform="translate(48,168)"/>
<path d="M0 0 C3.96 0 7.92 0 12 0 C12 7.92 12 15.84 12 24 C8.04 24 4.08 24 0 24 C0 16.08 0 8.16 0 0 Z " fill="#FEFEFE" transform="translate(300,120)"/>
<path d="M0 0 C3.96 0 7.92 0 12 0 C12 7.92 12 15.84 12 24 C8.04 24 4.08 24 0 24 C0 16.08 0 8.16 0 0 Z " fill="#FEFEFD" transform="translate(48,120)"/>
<path d="M0 0 C3.96 0 7.92 0 12 0 C12 7.92 12 15.84 12 24 C8.04 24 4.08 24 0 24 C0 16.08 0 8.16 0 0 Z " fill="#EFECEB" transform="translate(48,96)"/>
<path d="M0 0 C3.96 0 7.92 0 12 0 C12 7.92 12 15.84 12 24 C8.04 24 4.08 24 0 24 C0 16.08 0 8.16 0 0 Z " fill="#EDEDEC" transform="translate(48,144)"/>
<path d="M0 0 C3.96 0 7.92 0 12 0 C12.18451025 16.8929385 12.18451025 16.8929385 11 24 C7.37 24 3.74 24 0 24 C0 16.08 0 8.16 0 0 Z " fill="#ECEDEC" transform="translate(48,192)"/>
<path d="M0 0 C3.63 0 7.26 0 11 0 C11.05373546 3.95851252 11.0935461 7.91630255 11.125 11.875 C11.14175781 13.00292969 11.15851562 14.13085938 11.17578125 15.29296875 C11.18222656 16.36933594 11.18867187 17.44570313 11.1953125 18.5546875 C11.20578613 19.54968262 11.21625977 20.54467773 11.22705078 21.56982422 C11 24 11 24 9 26 C9 25.34 9 24.68 9 24 C6.03 24 3.06 24 0 24 C0 16.08 0 8.16 0 0 Z " fill="#EDECED" transform="translate(48,240)"/>
<path d="M0 0 C3.63 0 7.26 0 11 0 C11 7.92 11 15.84 11 24 C7.37 24 3.74 24 0 24 C0 16.08 0 8.16 0 0 Z " fill="#EEECEE" transform="translate(301,192)"/>
<path d="M0 0 C3.63 0 7.26 0 11 0 C11 7.92 11 15.84 11 24 C7.37 24 3.74 24 0 24 C0 16.08 0 8.16 0 0 Z " fill="#FEFEFE" transform="translate(301,168)"/>
<path d="M0 0 C3.63 0 7.26 0 11 0 C11 7.92 11 15.84 11 24 C7.37 24 3.74 24 0 24 C0 16.08 0 8.16 0 0 Z " fill="#EDECED" transform="translate(301,144)"/>
<path d="M0 0 C3.63 0 7.26 0 11 0 C11 7.92 11 15.84 11 24 C7.37 24 3.74 24 0 24 C0 16.08 0 8.16 0 0 Z " fill="#EDECED" transform="translate(301,96)"/>
<path d="M0 0 C1.134375 0.020625 2.26875 0.04125 3.4375 0.0625 C3.4375 0.7225 3.4375 1.3825 3.4375 2.0625 C11.0275 2.0625 18.6175 2.0625 26.4375 2.0625 C26.4375 2.3925 26.4375 2.7225 26.4375 3.0625 C21.4875 3.3925 16.5375 3.7225 11.4375 4.0625 C31.8975 4.0625 52.3575 4.0625 73.4375 4.0625 C73.4375 4.7225 73.4375 5.3825 73.4375 6.0625 C33.5075 6.0625 -6.4225 6.0625 -47.5625 6.0625 C-47.2325 5.4025 -46.9025 4.7425 -46.5625 4.0625 C-35.3425 3.7325 -24.1225 3.4025 -12.5625 3.0625 C-12.5625 2.7325 -12.5625 2.4025 -12.5625 2.0625 C-10.51171875 1.83463542 -8.4609375 1.60677083 -6.41015625 1.37890625 C-3.20046765 0.82925556 -4.00105232 0.0701939 0 0 Z " fill="#239A33" transform="translate(148.5625,63.9375)"/>
<path d="M0 0 C40.26 0 80.52 0 122 0 C121.67 0.66 121.34 1.32 121 2 C118.69 2 116.38 2 114 2 C114 2.66 114 3.32 114 4 C112.845 4.268125 111.69 4.53625 110.5 4.8125 C107.46516906 5.56177442 104.59780696 6.48571471 101.6875 7.625 C98 9 98 9 95 9 C95 8.34 95 7.68 95 7 C95.99 7 96.98 7 98 7 C98 5.35 98 3.7 98 2 C96.07124023 2.00870117 96.07124023 2.00870117 94.10351562 2.01757812 C75.41549662 2.0729715 56.73400822 1.80520703 38.04846191 1.53643799 C33.74326264 1.47488211 29.43803645 1.41526939 25.1328125 1.35546875 C16.7551816 1.23882717 8.37758181 1.12011562 0 1 C0 0.67 0 0.34 0 0 Z " fill="#5AB466" transform="translate(102,70)"/>
<path d="M0 0 C7.92 0 15.84 0 24 0 C24 2.97 24 5.94 24 9 C16.08 9 8.16 9 0 9 C0 6.03 0 3.06 0 0 Z " fill="#EEEDEE" transform="translate(240,303)"/>
<path d="M0 0 C7.92 0 15.84 0 24 0 C24 2.97 24 5.94 24 9 C16.08 9 8.16 9 0 9 C0 6.03 0 3.06 0 0 Z " fill="#EEEEED" transform="translate(192,303)"/>
<path d="M0 0 C7.92 0 15.84 0 24 0 C24 2.97 24 5.94 24 9 C16.08 9 8.16 9 0 9 C0 6.03 0 3.06 0 0 Z " fill="#EEEDED" transform="translate(144,303)"/>
<path d="M0 0 C7.92 0 15.84 0 24 0 C24 2.97 24 5.94 24 9 C16.08 9 8.16 9 0 9 C0 6.03 0 3.06 0 0 Z " fill="#EEEDED" transform="translate(96,303)"/>
<path d="M0 0 C7.92 0 15.84 0 24 0 C24 2.97 24 5.94 24 9 C16.08 9 8.16 9 0 9 C0 6.03 0 3.06 0 0 Z " fill="#FEFFFE" transform="translate(168,303)"/>
<path d="M0 0 C7.92 0 15.84 0 24 0 C24 2.97 24 5.94 24 9 C16.08 9 8.16 9 0 9 C0 6.03 0 3.06 0 0 Z " fill="#FEFEFE" transform="translate(120,303)"/>
<path d="M0 0 C7.92 0 15.84 0 24 0 C24 2.97 24 5.94 24 9 C16.08 9 8.16 9 0 9 C0 6.03 0 3.06 0 0 Z " fill="#EDEDED" transform="translate(240,48)"/>
<path d="M0 0 C7.92 0 15.84 0 24 0 C24 2.97 24 5.94 24 9 C16.08 9 8.16 9 0 9 C0 6.03 0 3.06 0 0 Z " fill="#FDFEFC" transform="translate(216,48)"/>
<path d="M0 0 C7.92 0 15.84 0 24 0 C24 2.97 24 5.94 24 9 C16.08 9 8.16 9 0 9 C0 6.03 0 3.06 0 0 Z " fill="#ECEEEC" transform="translate(192,48)"/>
<path d="M0 0 C7.92 0 15.84 0 24 0 C24 2.97 24 5.94 24 9 C16.08 9 8.16 9 0 9 C0 6.03 0 3.06 0 0 Z " fill="#FDFEFC" transform="translate(168,48)"/>
<path d="M0 0 C7.92 0 15.84 0 24 0 C24 2.97 24 5.94 24 9 C16.08 9 8.16 9 0 9 C0 6.03 0 3.06 0 0 Z " fill="#FEFEFC" transform="translate(120,48)"/>
<path d="M0 0 C0.99 0.33 1.98 0.66 3 1 C3.33 3.31 3.66 5.62 4 8 C4.66 8 5.32 8 6 8 C6 9.32 6 10.64 6 12 C6.66 12 7.32 12 8 12 C7.67 67.44 7.34 122.88 7 180 C6.67 180 6.34 180 6 180 C5.99945523 179.15738554 5.99891047 178.31477108 5.99834919 177.44662285 C5.9833487 156.89571408 5.94077003 136.34502144 5.86790943 115.79423332 C5.83333123 105.85579882 5.80791334 95.91750198 5.80444336 85.97900391 C5.80139347 77.31145896 5.78076575 68.64415965 5.73947543 59.97670949 C5.71823644 55.39195469 5.70549767 50.8075483 5.71384621 46.22274399 C5.72144443 41.89693471 5.70533219 37.57182802 5.67193985 33.24614716 C5.66377547 31.6685175 5.66387413 30.09081704 5.67340279 28.51319504 C5.7301715 18.07047686 4.16480389 9.61250144 0 0 Z " fill="#EAFEE8" transform="translate(293,76)"/>
<path d="M0 0 C22.65223886 -0.02333282 45.30447574 -0.04098106 67.95672417 -0.05181217 C78.47392045 -0.05697431 88.99110928 -0.06401546 99.50830078 -0.07543945 C108.67223017 -0.08538878 117.83615417 -0.09185403 127.00008881 -0.09408849 C131.85488244 -0.09539517 136.70966062 -0.09847836 141.56444931 -0.10573006 C146.12961648 -0.11249419 150.69476177 -0.11461615 155.25993347 -0.11310768 C156.93937931 -0.11338383 158.61882585 -0.11538663 160.29826736 -0.11920547 C162.58346489 -0.12414884 164.86857879 -0.12299588 167.15377808 -0.12025452 C168.43507032 -0.12117631 169.71636257 -0.1220981 171.03648186 -0.12304783 C174 0 174 0 176 1 C176 1.66 176 2.32 176 3 C174.8313868 2.83826325 173.66277359 2.67652651 172.45874786 2.50988865 C168.51283116 2.01884754 164.63968373 1.86263307 160.66003418 1.84178162 C159.96716198 1.83684364 159.27428979 1.83190566 158.56042147 1.82681805 C156.26359045 1.81159116 153.96678704 1.80312312 151.66992188 1.79467773 C150.01358807 1.78508753 148.35725666 1.77507679 146.70092773 1.76467896 C142.22222082 1.73774757 137.74350349 1.71667464 133.26476097 1.69667697 C128.57757059 1.67474446 123.89041187 1.64739145 119.20324707 1.62062073 C110.33537264 1.57079177 101.46748055 1.52581676 92.5995717 1.48259836 C82.50040385 1.43314204 72.40126778 1.37825515 62.3021307 1.32291877 C41.53478343 1.2092492 20.7674058 1.10237769 0 1 C0 0.67 0 0.34 0 0 Z " fill="#EEFFEB" transform="translate(96,57)"/>
<path d="M0 0 C2.23767877 3.35651815 2.24028115 4.38284433 2.20254517 8.29606628 C2.19688034 9.3940303 2.19121552 10.49199432 2.18537903 11.62322998 C2.16883774 12.82804016 2.15229645 14.03285034 2.13525391 15.27416992 C2.12579239 16.54257217 2.11633087 17.81097443 2.10658264 19.11781311 C2.08040082 22.59699087 2.04173474 26.07593185 2.00085878 29.55496383 C1.96025767 33.19041378 1.93109363 36.82595483 1.90072632 40.46150208 C1.84147483 47.34635972 1.77190921 54.23107313 1.69865549 61.11579448 C1.61576168 68.95361303 1.54433924 76.7915229 1.47388959 84.62946165 C1.32870807 100.75311075 1.16909072 116.87658354 1 133 C0.34 133 -0.32 133 -1 133 C-1.03114032 123.50001492 -1.05116377 114.00002724 -1.0625 104.5 C-1.06335602 103.78779297 -1.06421204 103.07558594 -1.06509399 102.34179688 C-1.09665853 72.55160813 -0.66694708 42.78315464 0 13 C-0.66 13 -1.32 13 -2 13 C-1.855625 12.34 -1.71125 11.68 -1.5625 11 C-0.87700084 7.34400449 -0.43824485 3.69377805 0 0 Z " fill="#F5FDF2" transform="translate(60,83)"/>
<path d="M0 0 C-4.23663078 5.17810429 -8.81354485 9.89213192 -13.59667969 14.55957031 C-16.96911152 17.87495385 -20.02310896 21.32394923 -23 25 C-24.42281643 22.15436715 -23.57172876 20.59564586 -22.75 17.5625 C-22.49734375 16.59441406 -22.2446875 15.62632813 -21.984375 14.62890625 C-20.98086563 11.94889909 -20.33028647 10.63674883 -18 9 C-16.68 9 -15.36 9 -14 9 C-14.12375 7.88625 -14.12375 7.88625 -14.25 6.75 C-14 4 -14 4 -12.625 1.6875 C-8.60769589 -0.89505264 -4.64855591 -0.31936644 0 0 Z " fill="#87CF93" transform="translate(142,112)"/>
<path d="M0 0 C0.33 0 0.66 0 1 0 C1 2.31 1 4.62 1 7 C0.34 7 -0.32 7 -1 7 C-0.979375 8.2375 -0.95875 9.475 -0.9375 10.75 C-0.93233319 13.6640825 -1.06984442 16.20953327 -2 19 C-1.34 19 -0.68 19 0 19 C0.33 18.34 0.66 17.68 1 17 C1.99 16.34 2.98 15.68 4 15 C4.04241723 17.33294775 4.04092937 19.66702567 4 22 C3.67 22.33 3.34 22.66 3 23 C2.76712992 24.68183948 2.58735834 26.3712416 2.4375 28.0625 C2.31181641 29.44115234 2.31181641 29.44115234 2.18359375 30.84765625 C2.12300781 31.55792969 2.06242187 32.26820313 2 33 C1.67 32.34 1.34 31.68 1 31 C0.34 31 -0.32 31 -1 31 C-1.33 36.94 -1.66 42.88 -2 49 C-2.33 49 -2.66 49 -3 49 C-3.07442019 43.14675648 -3.12872982 37.2937913 -3.16479492 31.44018555 C-3.17983724 29.4508789 -3.20027623 27.46160517 -3.22631836 25.47241211 C-3.26290246 22.60522311 -3.27977218 19.73847441 -3.29296875 16.87109375 C-3.30845261 15.98852402 -3.32393646 15.10595428 -3.33988953 14.19664001 C-3.34137461 8.68904456 -2.5236688 4.91052971 0 0 Z " fill="#76C87F" transform="translate(77,169)"/>
<path d="M0 0 C14.85 0 29.7 0 45 0 C45 0.33 45 0.66 45 1 C43.35 1 41.7 1 40 1 C40 1.66 40 2.32 40 3 C38.845 3.268125 37.69 3.53625 36.5 3.8125 C33.46516906 4.56177442 30.59780696 5.48571471 27.6875 6.625 C24 8 24 8 21 8 C21 7.34 21 6.68 21 6 C21.99 6 22.98 6 24 6 C24 4.35 24 2.7 24 1 C16.08 1 8.16 1 0 1 C0 0.67 0 0.34 0 0 Z " fill="#6CC976" transform="translate(176,71)"/>
<path d="M0 0 C1.32 0.33 2.64 0.66 4 1 C4.33 3.31 4.66 5.62 5 8 C5.33 8 5.66 8 6 8 C6.34937193 16.25552919 5.94397288 23.2370239 3 31 C2.67 31 2.34 31 2 31 C0.67718331 21.57493111 -0.24247049 11.32582967 2 2 C1.34 2 0.68 2 0 2 C0 1.34 0 0.68 0 0 Z " fill="#219D34" transform="translate(232,166)"/>
<path d="M0 0 C0.66 0 1.32 0 2 0 C2 0.66 2 1.32 2 2 C2.99 2.33 3.98 2.66 5 3 C3.97060303 3.49197876 3.97060303 3.49197876 2.92041016 3.99389648 C-0.17814784 5.47491374 -3.27657551 6.95620346 -6.375 8.4375 C-7.45523438 8.95376953 -8.53546875 9.47003906 -9.6484375 10.00195312 C-11.1953125 10.74155273 -11.1953125 10.74155273 -12.7734375 11.49609375 C-13.72653809 11.95169678 -14.67963867 12.4072998 -15.66162109 12.87670898 C-17.11289371 13.57385925 -18.55994147 14.27997074 -20 15 C-19.6875 13.125 -19.6875 13.125 -19 11 C-18.01 10.34 -17.02 9.68 -16 9 C-15.74969023 6.41619823 -15.74969023 6.41619823 -16 4 C-13.54175698 3.18058566 -12.18175161 2.95695357 -9.625 3.5625 C-6.22091504 4.12984749 -4.13555294 3.35398877 -1 2 C-0.67 1.34 -0.34 0.68 0 0 Z " fill="#6FC979" transform="translate(192,77)"/>
<path d="M0 0 C-14.61415062 5.53403498 -27.43416565 7.59430572 -43 5 C-43 4.67 -43 4.34 -43 4 C-35.08 3.67 -27.16 3.34 -19 3 C-19 2.67 -19 2.34 -19 2 C-18.34773438 1.95101562 -17.69546875 1.90203125 -17.0234375 1.8515625 C-11.56423218 1.38455084 -4.96219867 -1.65406622 0 0 Z " fill="#D1F5D4" transform="translate(211,239)"/>
<path d="M0 0 C0.99 0.495 0.99 0.495 2 1 C2.73075648 3.3140622 3.40138258 5.64828869 4 8 C4.66 8 5.32 8 6 8 C6.13277344 8.63808594 6.26554688 9.27617187 6.40234375 9.93359375 C6.57894531 10.75988281 6.75554687 11.58617187 6.9375 12.4375 C7.11152344 13.26121094 7.28554687 14.08492187 7.46484375 14.93359375 C7.80752994 16.97661204 7.80752994 16.97661204 9 18 C9.15764405 19.77869726 9.25100677 21.56318476 9.31640625 23.34765625 C9.37924805 24.96704102 9.37924805 24.96704102 9.44335938 26.61914062 C9.48267578 27.75544922 9.52199219 28.89175781 9.5625 30.0625 C9.60568359 31.20267578 9.64886719 32.34285156 9.69335938 33.51757812 C9.79982839 36.34492195 9.90184207 39.17235738 10 42 C9.01 42.495 9.01 42.495 8 43 C7.96132812 41.329375 7.96132812 41.329375 7.921875 39.625 C7.53643699 28.0516494 6.63147272 16.26294545 1.3671875 5.734375 C0 3 0 3 0 0 Z " fill="#238C36" transform="translate(241,145)"/>
<path d="M0 0 C0.99 0.66 1.98 1.32 3 2 C-2.94 9.92 -2.94 9.92 -9 18 C-9.66 17.67 -10.32 17.34 -11 17 C-11 15.68 -11 14.36 -11 13 C-10.34 13 -9.68 13 -9 13 C-9 11.35 -9 9.7 -9 8 C-7.35 7.67 -5.7 7.34 -4 7 C-3.67 5.02 -3.34 3.04 -3 1 C-2.01 0.67 -1.02 0.34 0 0 Z " fill="#85CF8E" transform="translate(115,136)"/>
<path d="M0 0 C1.32091644 0.0001133 1.32091644 0.0001133 2.66851807 0.00022888 C3.61031921 0.00539017 4.55212036 0.01055145 5.52246094 0.01586914 C6.97891022 0.01799156 6.97891022 0.01799156 8.46478271 0.02015686 C11.56216529 0.02574876 14.65947525 0.0382998 17.75683594 0.05102539 C19.85839739 0.05604144 21.95995998 0.06060416 24.06152344 0.06469727 C29.20998886 0.07571554 34.35840009 0.09297465 39.50683594 0.11352539 C39.50683594 0.44352539 39.50683594 0.77352539 39.50683594 1.11352539 C27.42744626 1.7105089 15.39159723 2.24810399 3.29589844 2.05102539 C0.59996952 1.79002922 0.59996952 1.79002922 -0.49316406 3.11352539 C-3.16375257 3.254677 -5.81748644 3.15599646 -8.49316406 3.11352539 C-8.49316406 2.45352539 -8.49316406 1.79352539 -8.49316406 1.11352539 C-5.58821647 0.28064896 -3.01802488 -0.00867249 0 0 Z " fill="#D8FBDE" transform="translate(104.4931640625,70.886474609375)"/>
<path d="M0 0 C0.33 0 0.66 0 1 0 C3.93287272 15.11375537 1.82659719 29.84969254 -4 44 C-4.33 44 -4.66 44 -5 44 C-5.29296875 38.04296875 -5.29296875 38.04296875 -5 36 C-4.525625 35.55398437 -4.05125 35.10796875 -3.5625 34.6484375 C2.8783158 27.85337684 0.18138005 8.79693222 0 0 Z " fill="#D2F7D6" transform="translate(247,164)"/>
<path d="M0 0 C0.33 0 0.66 0 1 0 C1.01030746 0.55266037 1.02061493 1.10532074 1.03123474 1.67472839 C1.13952699 7.43373909 1.25410603 13.1926005 1.37231445 18.95141602 C1.41559052 21.0998217 1.45727073 23.24826015 1.49731445 25.39672852 C1.5551946 28.48724232 1.61883792 31.5775923 1.68359375 34.66796875 C1.70030624 35.62648239 1.71701874 36.58499603 1.73423767 37.57255554 C1.75418289 38.47311172 1.77412811 39.37366791 1.79467773 40.30151367 C1.81799416 41.48398933 1.81799416 41.48398933 1.84178162 42.69035339 C2.01321731 45.19294422 2.45963861 47.55274358 3 50 C2.01 50 1.02 50 0 50 C-1.17293437 44.54210336 -1.03974845 39.33079369 -0.87890625 33.7890625 C-0.85529526 32.82092621 -0.83168427 31.85278992 -0.80735779 30.85531616 C-0.73109209 27.77838102 -0.64690904 24.70172145 -0.5625 21.625 C-0.50924215 19.53256534 -0.45650203 17.44011744 -0.40429688 15.34765625 C-0.27552738 10.23159799 -0.13965925 5.1157721 0 0 Z " fill="#EEFBE7" transform="translate(60,224)"/>
<path d="M0 0 C0.94359375 0.2165625 0.94359375 0.2165625 1.90625 0.4375 C9.93124235 2.17785979 16.11120828 2.80490372 24 0 C26.875 -0.125 26.875 -0.125 29 0 C27.75 1.5 27.75 1.5 26 3 C24.68 3 23.36 3 22 3 C22 3.66 22 4.32 22 5 C17.38 5 12.76 5 8 5 C8 4.34 8 3.68 8 3 C7.236875 3.061875 6.47375 3.12375 5.6875 3.1875 C2.51219194 2.96596688 2.04264341 2.28224968 0 0 Z " fill="#229335" transform="translate(186,207)"/>
<path d="M0 0 C0.66 0.33 1.32 0.66 2 1 C0.04608593 4.18415627 -1.60017466 6.6879412 -4.5625 9 C-7.42914505 11.35211901 -8.54364222 13.62738199 -10 17 C-11.32 16.67 -12.64 16.34 -14 16 C-13.67 14.68 -13.34 13.36 -13 12 C-12.01 12 -11.02 12 -10 12 C-9.7525 10.9790625 -9.7525 10.9790625 -9.5 9.9375 C-7.28698373 5.60367647 -3.74480511 3.02197064 0 0 Z " fill="#DDF5DD" transform="translate(142,126)"/>
<path d="M0 0 C0.99 0.33 1.98 0.66 3 1 C3.33 3.31 3.66 5.62 4 8 C4.66 8 5.32 8 6 8 C6 9.32 6 10.64 6 12 C6.66 12 7.32 12 8 12 C7.67 22.56 7.34 33.12 7 44 C6.67 44 6.34 44 6 44 C5.99589111 43.16452637 5.99178223 42.32905273 5.98754883 41.46826172 C5.96018587 38.29547213 5.91070752 35.12392124 5.84741211 31.95166016 C5.81347216 29.93282665 5.80383841 27.91363034 5.79492188 25.89453125 C5.58103124 16.24568716 3.74242539 8.79894561 0 0 Z " fill="#DFF9E1" transform="translate(293,76)"/>
<path d="M0 0 C2.70041771 3.86925523 1.88883933 7.59200861 1.25 12 C1.16234375 12.7115625 1.0746875 13.423125 0.984375 14.15625 C0.47278321 17.96476668 -0.25538497 20.51076994 -2 24 C-2 16.74 -2 9.48 -2 2 C-1.34 2 -0.68 2 0 2 C0 1.34 0 0.68 0 0 Z " fill="#59BE62" transform="translate(76,216)"/>
<path d="M0 0 C1.32 0.66 2.64 1.32 4 2 C3.21625 2.5775 2.4325 3.155 1.625 3.75 C-1.82805198 6.70975884 -2.8238375 8.37930497 -3.3125 12.875 C-2.94729883 16.52701168 -1.79702234 18.82065278 0 22 C0.66666667 23.33333333 1.33333333 24.66666667 2 26 C1.34 26.66 0.68 27.32 0 28 C-3.90050774 21.97194258 -5.93636159 16.25330845 -5 9 C-3.93340861 5.48368902 -2.63269747 2.63269747 0 0 Z " fill="#D0F3D2" transform="translate(155,151)"/>
<path d="M0 0 C1.32 0.99 2.64 1.98 4 3 C3.34 3 2.68 3 2 3 C1.7215625 3.56976563 1.443125 4.13953125 1.15625 4.7265625 C0.00588205 6.98843462 -1.2345084 9.17582252 -2.5 11.375 C-4.43851392 14.83458975 -5.91851846 18.16565637 -7 22 C-8.15941038 18.52176885 -7.70820884 16.54104422 -7 13 C-6.34 13 -5.68 13 -5 13 C-5 11.35 -5 9.7 -5 8 C-4.34 8 -3.68 8 -3 8 C-3.33 7.01 -3.66 6.02 -4 5 C-2.99500868 2.37156116 -2.55192629 1.27596315 0 0 Z " fill="#D9F1D7" transform="translate(70,66)"/>
<path d="M0 0 C0.93423645 3.01031744 1.04449911 3.86650268 0 7 C-0.99 7.66 -1.98 8.32 -3 9 C-3 9.66 -3 10.32 -3 11 C-5.375 13.625 -5.375 13.625 -8 16 C-8.66 16 -9.32 16 -10 16 C-10.33 16.99 -10.66 17.98 -11 19 C-11.66 19 -12.32 19 -13 19 C-13 19.66 -13 20.32 -13 21 C-14.65 21 -16.3 21 -18 21 C-15.74627044 18.65958853 -13.4855695 16.59055531 -10.9375 14.5625 C-8.17465159 12.15235564 -6.79049741 10.13337048 -5 7 C-4.34 7 -3.68 7 -3 7 C-2.690625 6.21625 -2.38125 5.4325 -2.0625 4.625 C-1 2 -1 2 0 0 Z " fill="#E5FAE8" transform="translate(231,205)"/>
<path d="M0 0 C-1.42749981 3.79049707 -3.16236542 7.27122456 -5.125 10.8125 C-5.93324219 12.27623047 -5.93324219 12.27623047 -6.7578125 13.76953125 C-7.37269531 14.87361328 -7.37269531 14.87361328 -8 16 C-8.93423645 12.98968256 -9.04449911 12.13349732 -8 9 C-7.34 9 -6.68 9 -6 9 C-6.66 6.69 -7.32 4.38 -8 2 C-5.01914162 -0.98085838 -3.92387184 -1.17716155 0 0 Z " fill="#7FCD89" transform="translate(104,156)"/>
<path d="M0 0 C0 1.32 0 2.64 0 4 C-0.969375 3.979375 -1.93875 3.95875 -2.9375 3.9375 C-5.87465895 3.64381501 -5.87465895 3.64381501 -7 5 C-9.29151417 5.08790975 -11.58572524 5.10694038 -13.87890625 5.09765625 C-14.90889992 5.09553383 -14.90889992 5.09553383 -15.95970154 5.09336853 C-18.16067801 5.08775479 -20.36155409 5.07520007 -22.5625 5.0625 C-24.05143083 5.05748676 -25.54036324 5.05292355 -27.02929688 5.04882812 C-30.68623075 5.03778093 -34.34310558 5.02050713 -38 5 C-38 4.67 -38 4.34 -38 4 C-37.26475098 3.98541748 -36.52950195 3.97083496 -35.77197266 3.95581055 C-32.3891622 3.88060745 -29.00726189 3.78418818 -25.625 3.6875 C-24.46871094 3.66494141 -23.31242188 3.64238281 -22.12109375 3.61914062 C-15.66390182 3.41849342 -10.0196629 2.76122408 -3.90380859 0.63208008 C-2 0 -2 0 0 0 Z " fill="#E9FFEB" transform="translate(278,298)"/>
<path d="M0 0 C3.08000525 1.54000263 3.6356942 4.04702582 5.0625 7.125 C5.85333984 8.79949219 5.85333984 8.79949219 6.66015625 10.5078125 C8.01963464 14.05117599 8.61212033 17.2361306 9 21 C8.34 20.01 7.68 19.02 7 18 C6.34 18.33 5.68 18.66 5 19 C2.28094407 12.97923329 1.24854927 6.45083788 0 0 Z " fill="#D8F2DB" transform="translate(238,143)"/>
<path d="M0 0 C1.578125 1.14453125 1.578125 1.14453125 3 3 C2.671875 5.63671875 2.671875 5.63671875 1.75 8.6875 C0.38585824 13.50590632 -0.52134552 18.0219934 -1 23 C-4.11773437 18.32339845 -3.47683424 13.48013849 -3 8 C-2.24100501 5.11757394 -1.25516248 2.71951871 0 0 Z " fill="#3A9F4D" transform="translate(118,151)"/>
<path d="M0 0 C0.66 0.33 1.32 0.66 2 1 C0.92044741 2.73152958 -0.16382512 4.46011684 -1.25 6.1875 C-1.85328125 7.15042969 -2.4565625 8.11335937 -3.078125 9.10546875 C-8.46478873 17.21830986 -8.46478873 17.21830986 -13 19 C-13 18.01 -13 17.02 -13 16 C-12.34 16 -11.68 16 -11 16 C-10.896875 15.360625 -10.79375 14.72125 -10.6875 14.0625 C-10.460625 13.381875 -10.23375 12.70125 -10 12 C-9.01 11.67 -8.02 11.34 -7 11 C-6.67 10.01 -6.34 9.02 -6 8 C-5.34 8 -4.68 8 -4 8 C-3.67 6.68 -3.34 5.36 -3 4 C-2.34 4 -1.68 4 -1 4 C-0.67 2.68 -0.34 1.36 0 0 Z " fill="#DDF9DC" transform="translate(240,208)"/>
<path d="M0 0 C3.27642756 0.25866533 4.60820723 0.55416685 6.8125 3.0625 C7.204375 3.701875 7.59625 4.34125 8 5 C7.34 5 6.68 5 6 5 C5.67 5.66 5.34 6.32 5 7 C4.67 7 4.34 7 4 7 C3.67 7.99 3.34 8.98 3 10 C1.68 9.67 0.36 9.34 -1 9 C-1.09765625 2.84765625 -1.09765625 2.84765625 -1 1 C-0.67 0.67 -0.34 0.34 0 0 Z " fill="#24A031" transform="translate(169,198)"/>
<path d="M0 0 C-0.66 1.98 -1.32 3.96 -2 6 C-4.31 6 -6.62 6 -9 6 C-9 4.68 -9 3.36 -9 2 C-5.86501708 0.14223235 -3.62528568 -0.20140476 0 0 Z " fill="#249D31" transform="translate(205,242)"/>
<path d="M0 0 C0.33 1.32 0.66 2.64 1 4 C3.21081851 4.10540926 3.21081851 4.10540926 6 3 C5.34 4.65 4.68 6.3 4 8 C1.03 8 -1.94 8 -5 8 C-3.35 5.36 -1.7 2.72 0 0 Z " fill="#CBEDCF" transform="translate(82,80)"/>
<path d="M0 0 C0.33 0 0.66 0 1 0 C1 2.31 1 4.62 1 7 C0.34 7 -0.32 7 -1 7 C-1.33 12.28 -1.66 17.56 -2 23 C-2.33 23 -2.66 23 -3 23 C-3.08172936 20.4784979 -3.14083373 17.95970083 -3.1875 15.4375 C-3.21263672 14.73302734 -3.23777344 14.02855469 -3.26367188 13.30273438 C-3.33532304 8.11996685 -2.32172598 4.63735818 0 0 Z " fill="#8EDA90" transform="translate(77,169)"/>
<path d="M0 0 C2.16551116 3.24826674 2.55156953 4.23094157 2 8 C0.66666667 9.33333333 -0.66666667 10.66666667 -2 12 C-2.33498301 14.66834966 -2.33498301 14.66834966 -2 17 C-3.32 16.34 -4.64 15.68 -6 15 C-5.67 13.02 -5.34 11.04 -5 9 C-3.35 8.67 -1.7 8.34 0 8 C0 5.36 0 2.72 0 0 Z " fill="#E1FAE1" transform="translate(170,160)"/>
<path d="M0 0 C0.66 0 1.32 0 2 0 C2.33 0.99 2.66 1.98 3 3 C3.66 2.67 4.32 2.34 5 2 C4.3125 4.4375 4.3125 4.4375 3 7 C0.5 7.875 0.5 7.875 -2 8 C-2.66 7.67 -3.32 7.34 -4 7 C-2.68 4.69 -1.36 2.38 0 0 Z " fill="#259C35" transform="translate(222,208)"/>
<path d="M0 0 C0.66 0.33 1.32 0.66 2 1 C2 1.66 2 2.32 2 3 C2.66 3.33 3.32 3.66 4 4 C4 5.32 4 6.64 4 8 C3.01 8.495 3.01 8.495 2 9 C1.34 8.34 0.68 7.68 0 7 C-1.31747324 6.30251417 -2.64914193 5.63040043 -4 5 C-3 2 -3 2 0 0 Z " fill="#229A2E" transform="translate(126,130)"/>
<path d="M0 0 C0.33 0 0.66 0 1 0 C1 2.64 1 5.28 1 8 C3.31 8 5.62 8 8 8 C2 12 2 12 -3 12 C-2.25749403 7.91621717 -1.17076699 3.98060777 0 0 Z " fill="#C7F2CE" transform="translate(117,236)"/>
<path d="M0 0 C3.40953942 1.16535004 6.70621894 2.54188348 10 4 C10 4.33 10 4.66 10 5 C3.375 5.25 3.375 5.25 0 3 C-2.05709596 2.75944532 -2.05709596 2.75944532 -4.1875 2.875 C-5.445625 2.91625 -6.70375 2.9575 -8 3 C-8 2.34 -8 1.68 -8 1 C-5.07784517 -0.46107741 -3.288016 -0.29357286 0 0 Z " fill="#359C42" transform="translate(152,237)"/>
<path d="M0 0 C1.53690745 2.41040161 2.09752136 3.50082285 1.5390625 6.359375 C1.23742187 7.14828125 0.93578125 7.9371875 0.625 8.75 C0.18027344 9.94882813 0.18027344 9.94882813 -0.2734375 11.171875 C-0.63308594 12.07679688 -0.63308594 12.07679688 -1 13 C-0.34 13.33 0.32 13.66 1 14 C-0.65 15.32 -2.3 16.64 -4 18 C-5 16 -5 16 -4.2578125 13.57421875 C-3.88398437 12.62160156 -3.51015625 11.66898438 -3.125 10.6875 C-1.73557694 7.12649614 -0.64576945 3.77156837 0 0 Z " fill="#CAEECE" transform="translate(125,211)"/>
<path d="M0 0 C2.7727262 5.54545239 3.19207106 8.13702718 2.0625 14.25 C1.86785156 15.32765625 1.67320312 16.4053125 1.47265625 17.515625 C1.31667969 18.33546875 1.16070312 19.1553125 1 20 C0.67 20 0.34 20 0 20 C0 13.4 0 6.8 0 0 Z " fill="#3A9543" transform="translate(127,168)"/>
<path d="M0 0 C0.66 0 1.32 0 2 0 C2 0.66 2 1.32 2 2 C2.99 2.33 3.98 2.66 5 3 C3.23494565 3.86604534 1.46271926 4.71748642 -0.3125 5.5625 C-1.79169922 6.27599609 -1.79169922 6.27599609 -3.30078125 7.00390625 C-6 8 -6 8 -9 7 C-6.3991542 4.12049214 -4.78271103 2.78262987 -1 2 C-0.67 1.34 -0.34 0.68 0 0 Z " fill="#6CC676" transform="translate(192,77)"/>
<path d="M0 0 C0.66 0.33 1.32 0.66 2 1 C1.20994338 2.43838552 0.41788955 3.87567415 -0.375 5.3125 C-0.81585938 6.11300781 -1.25671875 6.91351563 -1.7109375 7.73828125 C-2.73513335 9.53527943 -3.85267138 11.27900708 -5 13 C-5.33 10.36 -5.66 7.72 -6 5 C-5.195625 4.731875 -4.39125 4.46375 -3.5625 4.1875 C-2.716875 3.795625 -1.87125 3.40375 -1 3 C-0.67 2.01 -0.34 1.02 0 0 Z " fill="#339E43" transform="translate(80,80)"/>
<path d="M0 0 C0.99 0.33 1.98 0.66 3 1 C3.43478214 4.10558674 3.59797636 6.90961797 3 10 C0.9849419 12.4998841 -1.31799353 14.25532743 -4 16 C-4 14.68 -4 13.36 -4 12 C-3.01 12 -2.02 12 -1 12 C-0.01 8.7 0.98 5.4 2 2 C1.34 2 0.68 2 0 2 C0 1.34 0 0.68 0 0 Z " fill="#CFF3D3" transform="translate(213,192)"/>
<path d="M0 0 C0 0.66 0 1.32 0 2 C0.66 2.33 1.32 2.66 2 3 C1.34 4.65 0.68 6.3 0 8 C-1.65 8 -3.3 8 -5 8 C-4.34 7.01 -3.68 6.02 -3 5 C-3.66 4.67 -4.32 4.34 -5 4 C-5.33 3.34 -5.66 2.68 -6 2 C-2.25 0 -2.25 0 0 0 Z " fill="#CEEBD3" transform="translate(96,72)"/>
<path d="M0 0 C1.37152395 0.60810371 2.72631224 1.25524614 4.0625 1.9375 C4.73410156 2.27652344 5.40570313 2.61554688 6.09765625 2.96484375 C8 4 8 4 11 6 C9.02 6 7.04 6 5 6 C5 5.34 5 4.68 5 4 C4.34 3.87625 3.68 3.7525 3 3.625 C-0.69698583 2.85479462 -4.34005942 1.93049337 -8 1 C-4.84239642 -0.91711646 -3.48168349 -1.11980208 0 0 Z " fill="#CAF1CE" transform="translate(154,226)"/>
<path d="M0 0 C4.88926174 5.67785235 4.88926174 5.67785235 5 9 C3.625 10.75 3.625 10.75 2 12 C1.67 12 1.34 12 1 12 C1.04125 11.21625 1.0825 10.4325 1.125 9.625 C1.28728734 6.83883881 1.28728734 6.83883881 -1 5 C-0.625 2.375 -0.625 2.375 0 0 Z " fill="#33A03F" transform="translate(291,74)"/>
<path d="M0 0 C0 0.66 0 1.32 0 2 C2.64 2 5.28 2 8 2 C8 2.99 8 3.98 8 5 C-0.57142857 5.28571429 -0.57142857 5.28571429 -4 3 C-4 2.34 -4 1.68 -4 1 C-2 0 -2 0 0 0 Z " fill="#2B9733" transform="translate(168,228)"/>
<path d="M0 0 C0.99 0.33 1.98 0.66 3 1 C3.33 0.67 3.66 0.34 4 0 C5.32 0.33 6.64 0.66 8 1 C5.03 3.64 2.06 6.28 -1 9 C-1 5.88772805 -0.54372951 3.05847848 0 0 Z " fill="#81D28C" transform="translate(144,104)"/>
<path d="M0 0 C0.65355469 0.58007812 0.65355469 0.58007812 1.3203125 1.171875 C5.05744652 4.43984501 8.8076016 7.34140589 13 10 C10 11 10 11 7.5625 9.8125 C3.50841293 6.944975 1.0272123 4.9203469 0 0 Z " fill="#D7F5D8" transform="translate(70,288)"/>
<path d="M0 0 C-0.99 0.33 -1.98 0.66 -3 1 C-3.185625 2.2065625 -3.185625 2.2065625 -3.375 3.4375 C-3.58125 4.283125 -3.7875 5.12875 -4 6 C-4.99 6.495 -4.99 6.495 -6 7 C-6.66 6.34 -7.32 5.68 -8 5 C-7.34 5 -6.68 5 -6 5 C-6 4.34 -6 3.68 -6 3 C-7.32 3.33 -8.64 3.66 -10 4 C-10 3.34 -10 2.68 -10 2 C-6.49223216 0.39644899 -3.85645121 -0.22036864 0 0 Z " fill="#239831" transform="translate(125,246)"/>
<path d="M0 0 C0.99 0.33 1.98 0.66 3 1 C3.99 0.67 4.98 0.34 6 0 C6 1.66666667 6 3.33333333 6 5 C4.02 5 2.04 5 0 5 C0 4.34 0 3.68 0 3 C-0.66 3 -1.32 3 -2 3 C-2 2.34 -2 1.68 -2 1 C-1.34 0.67 -0.68 0.34 0 0 Z " fill="#7BC887" transform="translate(178,80)"/>
<path d="M0 0 C1.60031344 3.20062687 0.03173691 5.72271806 -1 9 C-1.66 9 -2.32 9 -3 9 C-3.33 9.99 -3.66 10.98 -4 12 C-4 11.01 -4 10.02 -4 9 C-4.66 8.67 -5.32 8.34 -6 8 C-4.02 5.36 -2.04 2.72 0 0 Z " fill="#D9ECDA" transform="translate(292,284)"/>
<path d="M0 0 C0.33 0 0.66 0 1 0 C1.8125 3.25 1.8125 3.25 2 7 C-0.4375 9.4375 -0.4375 9.4375 -3 11 C-3.66 10.67 -4.32 10.34 -5 10 C-4 7 -4 7 -2 5 C-1.29289322 3.35008418 -0.62056011 1.68437744 0 0 Z " fill="#30A840" transform="translate(140,209)"/>
<path d="M0 0 C0.99 0.495 0.99 0.495 2 1 C2 1.66 2 2.32 2 3 C2.99 3.33 3.98 3.66 5 4 C6.02019573 4.9793879 7.02149805 5.97895449 8 7 C8.66 7.33 9.32 7.66 10 8 C10 8.66 10 9.32 10 10 C10.66 10.33 11.32 10.66 12 11 C9.125 10.8125 9.125 10.8125 6 10 C4.8125 7.5 4.8125 7.5 4 5 C3.01 4.67 2.02 4.34 1 4 C0.3125 1.9375 0.3125 1.9375 0 0 Z " fill="#D1F0D2" transform="translate(171,181)"/>
<path d="M0 0 C0.86625 0.2475 1.7325 0.495 2.625 0.75 C-0.57168391 3.57783576 -3.13606018 4.38139654 -7.375 4.75 C-8.035 4.42 -8.695 4.09 -9.375 3.75 C-4.20576923 -0.31153846 -4.20576923 -0.31153846 0 0 Z " fill="#32A142" transform="translate(155.375,116.25)"/>
<path d="M0 0 C0.66 0.99 1.32 1.98 2 3 C-0.64 5.64 -3.28 8.28 -6 11 C-6.33 10.01 -6.66 9.02 -7 8 C-6.360625 7.7525 -5.72125 7.505 -5.0625 7.25 C-2.82123176 6.20265017 -2.82123176 6.20265017 -2.375 4 C-2.189375 3.01 -2.189375 3.01 -2 2 C-1.34 1.34 -0.68 0.68 0 0 Z " fill="#7ED188" transform="translate(136,114)"/>
<path d="M0 0 C0.93423645 3.01031744 1.04449911 3.86650268 0 7 C-0.99 7.66 -1.98 8.32 -3 9 C-3 9.66 -3 10.32 -3 11 C-4.32 11.33 -5.64 11.66 -7 12 C-6.34 10.35 -5.68 8.7 -5 7 C-4.34 7 -3.68 7 -3 7 C-2.690625 6.21625 -2.38125 5.4325 -2.0625 4.625 C-1 2 -1 2 0 0 Z " fill="#CFF1CE" transform="translate(231,205)"/>
<path d="M0 0 C2 1 2 1 3.125 3.3125 C4 6 4 6 4 10 C3.34 10 2.68 10 2 10 C2 9.01 2 8.02 2 7 C1.34 7 0.68 7 0 7 C0 6.01 0 5.02 0 4 C-1.32 3.67 -2.64 3.34 -4 3 C-3.01 3 -2.02 3 -1 3 C-0.67 2.01 -0.34 1.02 0 0 Z " fill="#229632" transform="translate(232,156)"/>
<path d="M0 0 C0.79921875 0.00902344 1.5984375 0.01804688 2.421875 0.02734375 C3.02515625 0.03894531 3.6284375 0.05054688 4.25 0.0625 C4.25 0.3925 4.25 0.7225 4.25 1.0625 C2.33333333 1.54166667 0.41666667 2.02083333 -1.5 2.5 C-2.56734375 2.76683594 -3.6346875 3.03367188 -4.734375 3.30859375 C-6.53645833 3.75911458 -8.33854167 4.20963542 -10.140625 4.66015625 C-10.67171875 4.79292969 -11.2028125 4.92570312 -11.75 5.0625 C-11.75 4.4025 -11.75 3.7425 -11.75 3.0625 C-11.09 3.0625 -10.43 3.0625 -9.75 3.0625 C-9.42 2.4025 -9.09 1.7425 -8.75 1.0625 C-5.81699331 0.0307565 -3.08787164 -0.04540988 0 0 Z " fill="#CAF2D3" transform="translate(91.75,57.9375)"/>
<path d="M0 0 C0.66 0 1.32 0 2 0 C2.268125 0.86625 2.53625 1.7325 2.8125 2.625 C3.97111987 5.91791964 5.38209839 8.91127875 7 12 C6.34 12.66 5.68 13.32 5 14 C4.15675328 12.421924 3.32576082 10.8372958 2.5 9.25 C2.0359375 8.36828125 1.571875 7.4865625 1.09375 6.578125 C0 4 0 4 0 0 Z " fill="#379445" transform="translate(63,272)"/>
<path d="M0 0 C4.25191465 -0.36444983 6.58517997 0.43888497 10 3 C10.33 3.99 10.66 4.98 11 6 C7 4.66666667 3 3.33333333 -1 2 C-0.67 1.34 -0.34 0.68 0 0 Z " fill="#3C9C48" transform="translate(200,185)"/>
<path d="M0 0 C2.37783838 2.37783838 2.59009208 3.72073665 3 7 C2.67 7.66 2.34 8.32 2 9 C1.34 9 0.68 9 0 9 C-2 6 -2 6 -1.6875 3.375 C-1 1 -1 1 0 0 Z " fill="#399A49" transform="translate(169,170)"/>
<path d="M0 0 C0.99 0 1.98 0 3 0 C2.67 1.98 2.34 3.96 2 6 C1.34 6 0.68 6 0 6 C-0.33 8.31 -0.66 10.62 -1 13 C-1.33 13 -1.66 13 -2 13 C-1.85915204 11.20793453 -1.71216299 9.41635083 -1.5625 7.625 C-1.48128906 6.62726563 -1.40007812 5.62953125 -1.31640625 4.6015625 C-1 2 -1 2 0 0 Z " fill="#D9F7D8" transform="translate(130,152)"/>
<path d="M0 0 C0 1.32 0 2.64 0 4 C-0.928125 3.979375 -1.85625 3.95875 -2.8125 3.9375 C-6.02286011 3.84230396 -6.02286011 3.84230396 -9 5 C-9.99 4.34 -10.98 3.68 -12 3 C-10.37604003 2.49663233 -8.75079459 1.99741024 -7.125 1.5 C-6.22007812 1.2215625 -5.31515625 0.943125 -4.3828125 0.65625 C-2 0 -2 0 0 0 Z " fill="#D3F3DA" transform="translate(278,298)"/>
<path d="M0 0 C1.76462683 3.08809695 2 4.23312136 2 8 C0.68 8.33 -0.64 8.66 -2 9 C-2 6.69 -2 4.38 -2 2 C-1.34 2 -0.68 2 0 2 C0 1.34 0 0.68 0 0 Z " fill="#5DBA6C" transform="translate(76,216)"/>
<path d="M0 0 C0 0.66 0 1.32 0 2 C-1.423125 2.12375 -1.423125 2.12375 -2.875 2.25 C-6.10461791 2.65074923 -6.10461791 2.65074923 -7.375 5.0625 C-7.58125 5.701875 -7.7875 6.34125 -8 7 C-9.32 7 -10.64 7 -12 7 C-12 6.34 -12 5.68 -12 5 C-10.37750059 4.16180842 -8.75191503 3.3295884 -7.125 2.5 C-6.22007812 2.0359375 -5.31515625 1.571875 -4.3828125 1.09375 C-2 0 -2 0 0 0 Z " fill="#CEF2D2" transform="translate(156,119)"/>
<path d="M0 0 C4.51617599 -0.07654536 8.59085217 -0.10228696 13 1 C13 1.33 13 1.66 13 2 C7.97874074 2.77916092 4.02296004 3.13016601 -1 2 C-0.67 1.34 -0.34 0.68 0 0 Z " fill="#D8F8DC" transform="translate(184,113)"/>
<path d="M0 0 C2.29160319 -0.02692484 4.58329546 -0.04636124 6.875 -0.0625 C8.15117187 -0.07410156 9.42734375 -0.08570313 10.7421875 -0.09765625 C14 0 14 0 16 1 C16 1.66 16 2.32 16 3 C10.72 2.34 5.44 1.68 0 1 C0 0.67 0 0.34 0 0 Z " fill="#E1FAE2" transform="translate(256,57)"/>
<path d="M0 0 C1 3 1 3 0.22265625 5.04296875 C-0.16019531 5.75066406 -0.54304687 6.45835937 -0.9375 7.1875 C-1.31777344 7.90292969 -1.69804687 8.61835938 -2.08984375 9.35546875 C-2.54037109 10.16951172 -2.54037109 10.16951172 -3 11 C-3.66 11 -4.32 11 -5 11 C-4.67 8.69 -4.34 6.38 -4 4 C-3.01 4 -2.02 4 -1 4 C-0.67 2.68 -0.34 1.36 0 0 Z " fill="#269236" transform="translate(233,198)"/>
<path d="M0 0 C3.75 0.1875 3.75 0.1875 7 1 C5.1875 2.0625 5.1875 2.0625 3 3 C2.01 2.67 1.02 2.34 0 2 C-0.33 3.32 -0.66 4.64 -1 6 C-1.99 5.67 -2.98 5.34 -4 5 C-2.4375 2.4375 -2.4375 2.4375 0 0 Z " fill="#C9EFCD" transform="translate(198,187)"/>
<path d="M0 0 C0.66 1.32 1.32 2.64 2 4 C0 7 0 7 -2.125 7.6875 C-2.74375 7.790625 -3.3625 7.89375 -4 8 C-2.25 2.25 -2.25 2.25 0 0 Z " fill="#D2F2D3" transform="translate(125,146)"/>
<path d="M0 0 C2.97 0.495 2.97 0.495 6 1 C4.35 2.65 2.7 4.3 1 6 C0.01 5.01 -0.98 4.02 -2 3 C-1.34 2.01 -0.68 1.02 0 0 Z " fill="#3BA14B" transform="translate(215,218)"/>
<path d="M0 0 C0.99 0 1.98 0 3 0 C2.88590407 1.45922693 2.75834456 2.91740598 2.625 4.375 C2.55539063 5.18710938 2.48578125 5.99921875 2.4140625 6.8359375 C2 9 2 9 0 11 C0 7.37 0 3.74 0 0 Z " fill="#55C063" transform="translate(78,208)"/>
<path d="M0 0 C2.06540507 0.43577777 4.06309425 1.0364702 6.08984375 1.625 C8.07551273 2.2168857 8.07551273 2.2168857 10 1 C9.67 1.99 9.34 2.98 9 4 C7.1875 4.8125 7.1875 4.8125 5 5 C2.36873617 3.99392854 1.00773956 3.00773956 -1 1 C-0.67 0.67 -0.34 0.34 0 0 Z " fill="#D5F0D6" transform="translate(184,192)"/>
<path d="M0 0 C0.33 0 0.66 0 1 0 C1.53251766 1.91345327 2.05059483 3.8309295 2.5625 5.75 C2.85253906 6.81734375 3.14257812 7.8846875 3.44140625 8.984375 C3.97098494 11.84335927 3.98370862 13.31597383 3 16 C0.54970669 10.28264895 -0.33266291 6.20970773 0 0 Z " fill="#238B2F" transform="translate(128,184)"/>
<path d="M0 0 C1.28222189 3.03070628 0.98589446 4.03596914 -0.25 7.1875 C-2 10 -2 10 -5 11 C-3.77472971 6.94718288 -2.30119506 3.55639236 0 0 Z " fill="#339D42" transform="translate(101,161)"/>
<path d="M0 0 C-0.33 1.32 -0.66 2.64 -1 4 C-3.31 3.67 -5.62 3.34 -8 3 C-8 2.34 -8 1.68 -8 1 C-5.07175348 0.02391783 -3.04386724 -0.08226668 0 0 Z " fill="#229D31" transform="translate(272,60)"/>
<path d="M0 0 C4.66154042 1.49835228 5.86610751 4.88463591 8 9 C6.25 8.875 6.25 8.875 4 8 C0 2.77777778 0 2.77777778 0 0 Z " fill="#31953D" transform="translate(153,178)"/>
<path d="M0 0 C2.00993705 2.00993705 2.89940919 3.59211232 4.125 6.125 C4.47820312 6.84945312 4.83140625 7.57390625 5.1953125 8.3203125 C5.46085938 8.87460938 5.72640625 9.42890625 6 10 C5.34 10.66 4.68 11.32 4 12 C1.24331998 8.04476345 0.4682121 4.77576339 0 0 Z " fill="#DFFAE2" transform="translate(151,167)"/>
<path d="M0 0 C2.72426311 2.35277269 3.8141763 4.62496331 5 8 C4.01 7.67 3.02 7.34 2 7 C1.67 7.99 1.34 8.98 1 10 C0.37542727 6.56484998 0 3.50935186 0 0 Z " fill="#3EA24B" transform="translate(226,144)"/>
<path d="M0 0 C-4.22949995 2.41685712 -7.12335991 3.34833144 -12 3 C-7.91789166 -0.35316042 -5.14839074 -1.65483988 0 0 Z " fill="#D1F3D3" transform="translate(168,116)"/>
<path d="M0 0 C2.0625 2.3125 2.0625 2.3125 4 5 C3.67 5.99 3.34 6.98 3 8 C2.01 8 1.02 8 0 8 C-0.79953138 4.71303767 -1.09658936 3.28976808 0 0 Z " fill="#DAF1E0" transform="translate(66,282)"/>
<path d="M0 0 C0.33 0 0.66 0 1 0 C1.75 3.25 1.75 3.25 2 7 C0.0625 9.4375 0.0625 9.4375 -2 11 C-1.125 3.375 -1.125 3.375 0 0 Z " fill="#E8FCEA" transform="translate(299,265)"/>
<path d="M0 0 C2.875 -0.125 2.875 -0.125 6 0 C6.66 0.66 7.32 1.32 8 2 C6.68 2 5.36 2 4 2 C4.33 2.99 4.66 3.98 5 5 C2.525 4.01 2.525 4.01 0 3 C0 2.01 0 1.02 0 0 Z " fill="#38A544" transform="translate(154,224)"/>
<path d="M0 0 C2.45823172 3.68734758 3.01242616 6.69699971 4 11 C2.68 10.34 1.36 9.68 0 9 C0 6.03 0 3.06 0 0 Z " fill="#C8EDD0" transform="translate(128,192)"/>
<path d="M0 0 C0.66 0 1.32 0 2 0 C1.67 1.32 1.34 2.64 1 4 C0.34 4 -0.32 4 -1 4 C-1.66 5.32 -2.32 6.64 -3 8 C-3.99 7.34 -4.98 6.68 -6 6 C-4.68 5.34 -3.36 4.68 -2 4 C-2 3.34 -2 2.68 -2 2 C-1.34 2 -0.68 2 0 2 C0 1.34 0 0.68 0 0 Z " fill="#69C077" transform="translate(94,172)"/>
<path d="M0 0 C0.66 0 1.32 0 2 0 C1.67 3.3 1.34 6.6 1 10 C0.34 9.67 -0.32 9.34 -1 9 C-1.125 2.25 -1.125 2.25 0 0 Z " fill="#269633" transform="translate(129,163)"/>
<path d="M0 0 C0.99 0 1.98 0 3 0 C2 3 2 3 0 4 C-0.46523063 5.89533342 -0.46523063 5.89533342 -0.625 8.0625 C-0.74875 9.361875 -0.8725 10.66125 -1 12 C-1.33 12 -1.66 12 -2 12 C-2.05395478 10.37536158 -2.09277195 8.75021459 -2.125 7.125 C-2.14820312 6.22007813 -2.17140625 5.31515625 -2.1953125 4.3828125 C-2 2 -2 2 0 0 Z " fill="#D6ECDB" transform="translate(77,101)"/>
<path d="M0 0 C0.33 0.66 0.66 1.32 1 2 C1.66 2 2.32 2 3 2 C3.33 4.31 3.66 6.62 4 9 C3.01 9 2.02 9 1 9 C-0.14466615 5.56600155 0 3.69214898 0 0 Z " fill="#1FA032" transform="translate(71,84)"/>
<path d="M0 0 C1.45922693 0.11409593 2.91740598 0.24165544 4.375 0.375 C5.59316406 0.47941406 5.59316406 0.47941406 6.8359375 0.5859375 C9 1 9 1 11 3 C7.7 3 4.4 3 1 3 C0.67 2.01 0.34 1.02 0 0 Z " fill="#219034" transform="translate(159,242)"/>
<path d="M0 0 C1.6875 2.5 1.6875 2.5 3 5 C-0.3 4.01 -3.6 3.02 -7 2 C-3 0 -3 0 0 0 Z " fill="#D2F3D1" transform="translate(155,235)"/>
<path d="M0 0 C-1.0625 1.5 -1.0625 1.5 -3 3 C-6.6875 3.1875 -6.6875 3.1875 -10 3 C-10 2.34 -10 1.68 -10 1 C-8.71073008 0.63720544 -7.41846728 0.28503302 -6.125 -0.0625 C-5.40570313 -0.25972656 -4.68640625 -0.45695313 -3.9453125 -0.66015625 C-2 -1 -2 -1 0 0 Z " fill="#C9F1C8" transform="translate(146,228)"/>
<path d="M0 0 C1.66611905 -0.042721 3.33382885 -0.04063832 5 0 C6 1 6 1 6.0625 4.5625 C6.041875 5.696875 6.02125 6.83125 6 8 C5.34 7.67 4.68 7.34 4 7 C4 5.68 4 4.36 4 3 C3.01 3 2.02 3 1 3 C0.67 2.01 0.34 1.02 0 0 Z " fill="#239F2E" transform="translate(216,192)"/>
<path d="M0 0 C0.33 0.66 0.66 1.32 1 2 C-0.68474722 5.36949443 -1.8191658 6.87944386 -5 9 C-4.67 7.35 -4.34 5.7 -4 4 C-3.01 3.67 -2.02 3.34 -1 3 C-0.67 2.01 -0.34 1.02 0 0 Z " fill="#259934" transform="translate(107,154)"/>
<path d="M0 0 C0.99 0.33 1.98 0.66 3 1 C3.73046875 3.06640625 3.73046875 3.06640625 4.1875 5.5625 C4.34605469 6.38878906 4.50460938 7.21507812 4.66796875 8.06640625 C4.77753906 8.70449219 4.88710937 9.34257812 5 10 C1.64085078 7.76056718 1.18318364 6.73157917 0 3 C0 2.01 0 1.02 0 0 Z " fill="#228F35" transform="translate(168,152)"/>
<path d="M0 0 C1.65 0 3.3 0 5 0 C5 0.66 5 1.32 5 2 C5.66 2 6.32 2 7 2 C6.34 3.32 5.68 4.64 5 6 C3.35 4.02 1.7 2.04 0 0 Z " fill="#E9FCE5" transform="translate(218,135)"/>
<path d="M0 0 C-2.64 1.98 -5.28 3.96 -8 6 C-8 2 -8 2 -6.25 0.1875 C-4 -1 -4 -1 0 0 Z " fill="#E0FBE1" transform="translate(148,136)"/>
<path d="M0 0 C1 2 1 2 0.25 5.5625 C-0.1625 6.696875 -0.575 7.83125 -1 9 C-1.99 9.33 -2.98 9.66 -4 10 C-2.25 2.25 -2.25 2.25 0 0 Z " fill="#2A9338" transform="translate(67,78)"/>
<path d="M0 0 C1.98 0.99 3.96 1.98 6 3 C5.34 3.66 4.68 4.32 4 5 C2.68 5 1.36 5 0 5 C0 4.34 0 3.68 0 3 C-0.99 2.67 -1.98 2.34 -3 2 C-2.01 2 -1.02 2 0 2 C0 1.34 0 0.68 0 0 Z " fill="#25972E" transform="translate(142,222)"/>
<path d="M0 0 C0.99 0.33 1.98 0.66 3 1 C3.66 0.67 4.32 0.34 5 0 C5 1.65 5 3.3 5 5 C4.01 5.33 3.02 5.66 2 6 C1.34 5.34 0.68 4.68 0 4 C0 2.68 0 1.36 0 0 Z " fill="#36A944" transform="translate(216,194)"/>
<path d="M0 0 C0.33 0.99 0.66 1.98 1 3 C1.99 3.33 2.98 3.66 4 4 C3.01 4.33 2.02 4.66 1 5 C-0.21869929 7.50447516 -0.21869929 7.50447516 -1 10 C-2.46726798 6.18510326 -1.43336419 3.70988378 0 0 Z " fill="#E5F8EA" transform="translate(120,156)"/>
<path d="M0 0 C0.66 0.33 1.32 0.66 2 1 C1.67 1.66 1.34 2.32 1 3 C1.99 3.33 2.98 3.66 4 4 C4 5.65 4 7.3 4 9 C-0.875 4.375 -0.875 4.375 -2 1 C-1.34 0.67 -0.68 0.34 0 0 Z " fill="#E1F9E3" transform="translate(226,140)"/>
<path d="M0 0 C0.66 0 1.32 0 2 0 C2.33 1.98 2.66 3.96 3 6 C2.01 6 1.02 6 0 6 C-0.66 5.34 -1.32 4.68 -2 4 C-1.34 2.68 -0.68 1.36 0 0 Z " fill="#35A644" transform="translate(82,73)"/>
<path d="M0 0 C2.31 0.66 4.62 1.32 7 2 C6.67 3.65 6.34 5.3 6 7 C1.125 2.25 1.125 2.25 0 0 Z " fill="#DCF6DE" transform="translate(158,183)"/>
<path d="M0 0 C0.33 0 0.66 0 1 0 C1 2.31 1 4.62 1 7 C0.34 7 -0.32 7 -1 7 C-1.33 7.66 -1.66 8.32 -2 9 C-2.25 3.375 -2.25 3.375 0 0 Z " fill="#92CF94" transform="translate(77,169)"/>
<path d="M0 0 C0.66 0 1.32 0 2 0 C1.50769231 5.53846154 1.50769231 5.53846154 -1.0625 7.875 C-2.0215625 8.431875 -2.0215625 8.431875 -3 9 C-2.30058404 5.85262818 -1.23921302 2.97411124 0 0 Z " fill="#239434" transform="translate(173,163)"/>
<path d="M0 0 C1.32 1.32 2.64 2.64 4 4 C3.67 4.99 3.34 5.98 3 7 C2.34 7 1.68 7 1 7 C1 6.34 1 5.68 1 5 C0.34 5 -0.32 5 -1 5 C-0.67 3.35 -0.34 1.7 0 0 Z " fill="#3CA94A" transform="translate(130,158)"/>
<path d="M0 0 C0.66 0 1.32 0 2 0 C1.38722388 2.96175123 0.74627478 4.38058783 -1 7 C-1.99 6.67 -2.98 6.34 -4 6 C-3.67 4.68 -3.34 3.36 -3 2 C-2.01 2 -1.02 2 0 2 C0 1.34 0 0.68 0 0 Z " fill="#219634" transform="translate(152,150)"/>
<path d="M0 0 C3.03869411 1.51934706 3.64410306 3.98004772 5 7 C5 7.66 5 8.32 5 9 C2 8 2 8 0.8125 6.1875 C0 4 0 4 0 0 Z " fill="#C8F3CE" transform="translate(238,143)"/>
<path d="M0 0 C0.33 0.66 0.66 1.32 1 2 C-4.2734375 5.22265625 -4.2734375 5.22265625 -6 6 C-6.66 5.67 -7.32 5.34 -8 5 C-5.47211993 2.20127563 -3.79588866 0.54226981 0 0 Z " fill="#2A9034" transform="translate(159,129)"/>
<path d="M0 0 C0.66 0.33 1.32 0.66 2 1 C1.67 2.32 1.34 3.64 1 5 C-0.65 5 -2.3 5 -4 5 C-3 2 -3 2 0 0 Z " fill="#25A037" transform="translate(126,130)"/>
<path d="M0 0 C0.66 0.33 1.32 0.66 2 1 C0.68 2.65 -0.64 4.3 -2 6 C-3.32 5.67 -4.64 5.34 -6 5 C-4.02 3.35 -2.04 1.7 0 0 Z " fill="#CDF0CD" transform="translate(142,126)"/>
<path d="M0 0 C0.99 0 1.98 0 3 0 C3 0.66 3 1.32 3 2 C-2.41176471 6 -2.41176471 6 -5 6 C-4.67 5.01 -4.34 4.02 -4 3 C-3.01 2.67 -2.02 2.34 -1 2 C-0.67 1.34 -0.34 0.68 0 0 Z " fill="#78D181" transform="translate(169,90)"/>
<path d="M0 0 C1.485 0.99 1.485 0.99 3 2 C3.99 2 4.98 2 6 2 C6.33 2.99 6.66 3.98 7 5 C5.68 5.33 4.36 5.66 3 6 C0 2.25 0 2.25 0 0 Z " fill="#2FAB3F" transform="translate(162,194)"/>
<path d="M0 0 C0.99 0.33 1.98 0.66 3 1 C3.125 3.875 3.125 3.875 3 7 C2.34 7.66 1.68 8.32 1 9 C0.67 6.03 0.34 3.06 0 0 Z " fill="#229833" transform="translate(233,188)"/>
<path d="M0 0 C2.97 0.495 2.97 0.495 6 1 C6 1.66 6 2.32 6 3 C3.6875 3.625 3.6875 3.625 1 4 C0.01 3.34 -0.98 2.68 -2 2 C-1.34 2 -0.68 2 0 2 C0 1.34 0 0.68 0 0 Z " fill="#1F9A2D" transform="translate(206,113)"/>
</svg>
